<?xml version="1.0" encoding="UTF-8"?>
<svg id="Ebene_2" data-name="Ebene 2" xmlns="http://www.w3.org/2000/svg" viewBox="0 0 25.64 32.39">
  <defs>
    <style>
      .cls-1 {
        fill: none;
        stroke: #fff;
        stroke-miterlimit: 10;
      }

      .cls-2 {
        fill:none;
        stroke-width: 0px;
      }
    </style>
  </defs>
  <g id="Ebene_1-2" data-name="Ebene 1">
    <rect class="cls-2" x=".5" y=".5" width="24.64" height="31.39"/>
    <path class="cls-1" d="M5,31.89h18.97c.64,0,1.17-.51,1.17-1.17,0-.51-.35-.97-.82-1.13-1.85-.73-2.23-3.12-.41-4.95.56-.56,1.23-1.27,1.23-2.74V5.1c0-3.05-1.51-4.6-4.54-4.6H5.04C2.01.5.5,2.04.5,5.1v22.27c0,3.02,1.52,4.53,4.5,4.53ZM2.86,23.42V5.14c0-1.46.78-2.29,2.29-2.29h15.34c1.52,0,2.3.82,2.3,2.29v16.44c0,.79-.45,1.25-1.27,1.25H5.25c-.95,0-1.74.21-2.39.6ZM5.13,29.53c-1.48,0-2.27-.79-2.27-2.18,0-1.32.94-2.17,2.4-2.17h15.03c.19,0,.37-.01.51-.04-.69,1.52-.57,3.13.21,4.39H5.13ZM4.59,24.08h1.92V2.29h-1.92v21.8ZM10.52,18.81c.45,0,.78-.22.98-.81l.92-2.7h4.53l.92,2.7c.19.59.51.81.98.81.56,0,.92-.35.92-.88,0-.19-.03-.38-.13-.64l-3.54-9.57c-.25-.66-.73-1-1.42-1s-1.16.34-1.41,1l-3.56,9.57c-.09.26-.13.45-.13.64,0,.53.37.88.94.88ZM12.92,13.79l1.7-4.89h.13l1.68,4.89h-3.52Z"/>
  </g>
</svg>