<?xml version="1.0" encoding="UTF-8"?>
<svg id="Ebene_1" data-name="Ebene 1" xmlns="http://www.w3.org/2000/svg" version="1.1" viewBox="0 0 750 500">
  <defs>
    <style>
      .cls-1 {
        fill: #ff9a6c;
      }

      .cls-1, .cls-2, .cls-3, .cls-4, .cls-5, .cls-6, .cls-7, .cls-8, .cls-9, .cls-10, .cls-11, .cls-12, .cls-13, .cls-14 {
        stroke-width: 0px;
      }

      .cls-2 {
        fill: #f5f5f5;
      }

      .cls-3 {
        fill: #ebebeb;
      }

      .cls-4 {
        fill: none;
      }

      .cls-5 {
        fill: #455a64;
      }

      .cls-6 {
        fill: #263238;
      }

      .cls-7 {
        fill: #fafafa;
      }

      .cls-8 {
        fill: #e0e0e0;
      }

      .cls-9 {
        fill: #ffbf9d;
      }

      .cls-10 {
        fill: #000;
      }

      .cls-11 {
        fill: #ae7461;
      }

      .cls-15 {
        opacity: .2;
      }

      .cls-16 {
        opacity: .3;
      }

      .cls-17 {
        opacity: .6;
      }

      .cls-12 {
        fill: #6e6af6;
      }

      .cls-13 {
        fill: #6f4439;
      }

      .cls-14 {
        fill: #fff;
      }
    </style>
  </defs>
  <g id="freepik--background-complete--inject-97">
    <ellipse class="cls-2" cx="265.5" cy="459.9" rx="49.6" ry="6.2"/>
    <path class="cls-2" d="M146.6,470.6c0,3.4-22.2,6.2-49.6,6.2s-49.6-2.8-49.6-6.2,22.2-6.2,49.6-6.2,49.6,2.8,49.6,6.2Z"/>
    <ellipse class="cls-2" cx="475.1" cy="443.5" rx="33.2" ry="6.2"/>
    <path class="cls-2" d="M703.4,477.5c0,3.5-26.7,6.2-59.5,6.2s-59.6-2.8-59.6-6.2,26.7-6.2,59.6-6.2,59.5,2.8,59.5,6.2Z"/>
    <path class="cls-2" d="M318.7,55.4c2.3-1.4,4.7-2.4,7.2-3.2l1.5-7.2,12.1-.2,1.8,7.1c2.6.6,5,1.6,7.3,2.9l6.1-4,8.7,8.4-3.8,6.2c1.4,2.3,2.4,4.7,3.1,7.2l7.2,1.5.2,12.1-7.1,1.7c-.6,2.6-1.6,5-2.9,7.3l4,6.1-8.4,8.7-6.3-3.8c-2.3,1.4-4.7,2.4-7.2,3.1l-1.5,7.2-12.1.2-1.7-7.1c-2.6-.6-5-1.6-7.3-2.9l-6.1,4-8.7-8.4,3.8-6.2c-1.4-2.3-2.4-4.7-3.1-7.2l-7.2-1.5-.2-12.1,7.1-1.7c.6-2.6,1.6-5,2.9-7.3l-4-6.1,8.4-8.7,6.2,3.8ZM325.1,71.5c-5,5.2-4.9,13.4.3,18.4,5.2,5,13.4,4.9,18.4-.3s4.9-13.4-.3-18.4c0,0,0,0,0,0-5.2-5-13.4-4.8-18.4.3h0Z"/>
    <path class="cls-2" d="M584,77.1c2.3-1.4,4.7-2.4,7.2-3.1l1.5-7.2,12.1-.2,1.7,7.1c2.6.6,5,1.6,7.3,2.9l6.1-4,8.7,8.4-3.8,6.2c1.4,2.3,2.4,4.7,3.2,7.2l7.2,1.5.2,12.1-7.1,1.8c-.6,2.6-1.6,5-2.9,7.3l4,6.1-8.4,8.7-6.2-3.8c-2.3,1.4-4.7,2.4-7.2,3.1l-1.5,7.2-12.1.2-1.7-7.1c-2.6-.6-5-1.6-7.3-2.9l-6.1,4-8.7-8.4,3.8-6.2c-1.4-2.3-2.4-4.7-3.1-7.2l-7.2-1.5-.2-12.1,7.1-1.7c.6-2.6,1.6-5,2.9-7.3l-4-6.1,8.4-8.7,6.3,3.8ZM590.5,93.2c-5,5.2-4.9,13.4.3,18.4s13.4,4.9,18.4-.3c5-5.2,4.9-13.4-.3-18.4,0,0,0,0,0,0-5.2-5-13.4-4.9-18.4.3,0,0,0,0,0,0h0Z"/>
    <path class="cls-2" d="M123.3,189.1c2.3-1.4,4.7-2.4,7.2-3.1l1.5-7.2,12.1-.2,1.7,7.1c2.6.6,5,1.6,7.3,2.9l6.1-4,8.7,8.4-3.8,6.2c1.4,2.3,2.4,4.7,3.1,7.2l7.1,1.5.2,12.1-7.1,1.7c-.6,2.6-1.6,5-2.9,7.4l4,6.1-8.4,8.7-6.2-3.8c-2.3,1.4-4.7,2.4-7.2,3.1l-1.5,7.2-12.1.2-1.8-7.1c-2.6-.6-5-1.6-7.3-2.9l-6.1,4-8.7-8.4,3.8-6.2c-1.4-2.3-2.4-4.7-3.1-7.2l-7.2-1.5-.2-12.1,7.1-1.7c.6-2.6,1.6-5,2.9-7.3l-4-6.1,8.4-8.7,6.3,3.8h0ZM129.7,205.2c-5,5.2-4.9,13.4.3,18.4,5.2,5,13.4,4.9,18.4-.3,5-5.2,4.9-13.4-.3-18.4,0,0,0,0,0,0-5.2-5-13.4-4.8-18.4.3Z"/>
    <path class="cls-2" d="M270.7,33.5c1-.6,2.1-1.1,3.2-1.4l.7-3.2h5.4c0-.1.8,3.1.8,3.1,1.1.3,2.2.7,3.3,1.3l2.7-1.8,3.9,3.8-1.7,2.8c.6,1,1.1,2.1,1.4,3.2l3.2.7v5.4c0,0-3.1.8-3.1.8-.3,1.1-.7,2.2-1.3,3.3l1.8,2.7-3.8,3.9-2.8-1.7c-1,.6-2.1,1.1-3.2,1.4l-.7,3.2h-5.4c0,0-.8-3.1-.8-3.1-1.1-.3-2.2-.7-3.3-1.3l-2.7,1.8-3.9-3.7,1.7-2.8c-.6-1-1.1-2.1-1.4-3.2l-3.2-.7v-5.4c-.1,0,3.1-.8,3.1-.8.3-1.2.7-2.3,1.3-3.3l-1.8-2.7,3.8-3.9,2.8,1.7h0ZM273.6,40.7c-2.2,2.3-2.2,6,.1,8.2,2.3,2.2,6,2.2,8.2-.1,2.2-2.3,2.2-6-.1-8.2,0,0,0,0,0,0-2.3-2.2-6-2.2-8.2.1,0,0,0,0,0,0Z"/>
    <path class="cls-2" d="M34.4,328c1-.6,2.1-1.1,3.2-1.4l.7-3.2h5.4c0-.1.8,3.1.8,3.1,1.1.3,2.2.7,3.3,1.3l2.7-1.8,3.9,3.8-1.7,2.8c.6,1,1.1,2.1,1.4,3.2l3.2.7v5.4c0,0-3.1.8-3.1.8-.3,1.1-.7,2.2-1.3,3.3l1.8,2.7-3.8,3.9-2.8-1.7c-1,.6-2.1,1.1-3.2,1.4l-.7,3.2h-5.4c0,0-.8-3.1-.8-3.1-1.1-.3-2.3-.7-3.3-1.3l-2.7,1.8-3.9-3.8,1.7-2.8c-.6-1-1.1-2.1-1.4-3.2l-3.2-.7v-5.3c0,0,3.1-.8,3.1-.8.3-1.1.7-2.2,1.3-3.3l-1.8-2.7,3.8-3.9,2.8,1.7ZM37.2,335.2c-2.2,2.3-2.1,6,.2,8.2,2.3,2.2,6,2.1,8.2-.2,2.2-2.3,2.2-6-.1-8.2-2.3-2.2-5.9-2.2-8.2.1,0,0,0,0,0,0h0Z"/>
    <path class="cls-2" d="M382.9,45.8c1.3-.8,2.7-1.4,4.2-1.8l.9-4.2h7.1c0-.1,1,4,1,4,1.5.4,2.9.9,4.3,1.7l3.6-2.3,5.1,4.9-2.2,3.7c.8,1.3,1.4,2.7,1.8,4.2l4.2.9v7.1c.1,0-4,1-4,1-.4,1.5-.9,2.9-1.7,4.3l2.3,3.6-4.9,5.1-3.7-2.2c-1.3.8-2.7,1.4-4.2,1.8l-.9,4.2h-7.1c0,.1-1-4-1-4-1.5-.4-2.9-.9-4.3-1.7l-3.6,2.3-5.1-4.9,2.2-3.6c-.8-1.3-1.4-2.7-1.8-4.2l-4.2-.9v-7.1c-.1,0,4-1,4-1,.4-1.5.9-2.9,1.7-4.3l-2.3-3.6,4.9-5.1,3.6,2.2h0ZM386.7,55.2c-2.9,3-2.8,7.8.2,10.7,3,2.9,7.8,2.8,10.7-.2,2.9-3,2.8-7.8-.2-10.7,0,0,0,0,0,0-3-2.9-7.8-2.8-10.7.2Z"/>
    <path class="cls-2" d="M638.9,44.2c1.3-.8,2.7-1.4,4.2-1.8l.8-4.2h7.1c0-.1,1,4,1,4,1.5.4,2.9.9,4.3,1.7l3.6-2.3,5.1,4.9-2.2,3.7c.8,1.3,1.4,2.8,1.8,4.2l4.2.9v7.1c.1,0-4,1-4,1-.4,1.5-.9,2.9-1.7,4.3l2.3,3.6-4.9,5.1-3.6-2.2c-1.3.8-2.8,1.4-4.2,1.8l-.9,4.2h-7.1c0,.1-1-4-1-4-1.5-.4-2.9-.9-4.3-1.7l-3.6,2.3-5.1-4.9,2.2-3.7c-.8-1.3-1.4-2.7-1.8-4.2l-4.2-.9v-7.1c-.1,0,4-1,4-1,.4-1.5.9-2.9,1.7-4.3l-2.3-3.6,4.9-5.1,3.7,2.2h0ZM642.7,53.7c-2.9,3-2.8,7.8.2,10.7,3,2.9,7.8,2.8,10.7-.2,2.9-3,2.8-7.8-.2-10.7,0,0,0,0,0,0-3-2.9-7.8-2.8-10.7.2Z"/>
    <path class="cls-3" d="M130.6,98.3h-32.1c-2.2,0-4-1.8-4-4v-44.5c0-2.2,1.8-4,4-4h20.4l15.8,16.2v32.2c0,2.2-1.8,4-4,4,0,0,0,0,0,0Z"/>
    <path class="cls-8" d="M94.5,82.4h40.2v10.2c0,3.1-2.5,5.7-5.7,5.7h-28.8c-3.2,0-5.7-2.6-5.7-5.7h0v-10.2h0Z"/>
    <path class="cls-7" d="M103,74.1l1.3-1.5c.7,1.1,1.9,1.8,3.2,1.8,1.7,0,2.6-1,2.6-3.1v-8.5h-5.5v-1.9h7.6v10.3c0,3.4-1.7,5.1-4.8,5.1-1.7,0-3.4-.8-4.4-2.2Z"/>
    <path class="cls-7" d="M114.9,74.9l.9-1.7c1.2.8,2.6,1.2,4,1.2,1.9,0,2.7-.6,2.7-1.6,0-2.6-7.3-.3-7.3-4.9s1.8-3.4,4.8-3.4c1.5,0,2.9.3,4.2,1l-.9,1.7c-1-.6-2.1-.9-3.3-.9-1.8,0-2.7.7-2.7,1.6,0,2.7,7.3.5,7.3,5s-1.9,3.4-5,3.4c-1.7,0-3.3-.4-4.7-1.3Z"/>
    <g class="cls-16">
      <path class="cls-14" d="M118.9,45.8v12.5c0,2.1,1.7,3.7,3.7,3.7h12l-15.7-16.3Z"/>
    </g>
    <path class="cls-8" d="M119.1,59.5c0,1.9,1.4,3.6,3.3,4,.1,0,.3,0,.4,0,1.6.3,11.9,2.1,11.9,1.9v-3.3h-12s-3,0-3.6-2.6Z"/>
    <path class="cls-3" d="M647.5,320.8h-32.1c-2.2,0-4-1.8-4-4v-44.5c0-2.2,1.8-4,4-4h20.4l15.8,16.2v32.2c0,2.2-1.8,4-4,4,0,0,0,0,0,0Z"/>
    <path class="cls-8" d="M611.3,304.9h40.2v10.2c0,3.2-2.6,5.7-5.7,5.7h-28.8c-3.2,0-5.7-2.6-5.7-5.7v-10.2h0Z"/>
    <path class="cls-7" d="M619.8,296.5l1.3-1.5c.7,1.1,1.9,1.8,3.2,1.8,1.7,0,2.6-1,2.6-3.1v-8.5h-5.5v-1.9h7.6v10.3c0,3.4-1.7,5.1-4.8,5.1-1.7,0-3.4-.8-4.4-2.2Z"/>
    <path class="cls-7" d="M631.7,297.3l.9-1.6c1.2.8,2.6,1.2,4,1.2,1.9,0,2.7-.6,2.7-1.6,0-2.6-7.3-.3-7.3-4.9s1.8-3.5,4.8-3.5c1.5,0,2.9.3,4.2,1.1l-.9,1.6c-1-.6-2.1-.9-3.3-.9-1.8,0-2.7.7-2.7,1.6,0,2.7,7.3.5,7.3,5s-1.9,3.4-5,3.4c-1.7,0-3.3-.5-4.7-1.4Z"/>
    <g class="cls-16">
      <path class="cls-14" d="M635.7,268.3v12.5c0,2.1,1.7,3.7,3.7,3.7,0,0,0,0,0,0h12l-15.7-16.2Z"/>
    </g>
    <path class="cls-8" d="M635.9,281.9c0,1.9,1.4,3.6,3.3,4,.1,0,.3,0,.4,0,1.6.3,11.9,2.1,11.9,1.9v-3.4h-12s-3,0-3.6-2.6Z"/>
  </g>
  <g id="freepik--Floor--inject-97">
    <path class="cls-6" d="M716.2,391.4c0,.1-154.1.3-344.2.3s-344.2-.1-344.2-.3,154.1-.3,344.2-.3,344.2.1,344.2.3Z"/>
  </g>
  <g id="freepik--Device--inject-97">
    <path class="cls-8" d="M559.4,386.5H173.3c-12.8,0-23.1-10.3-23.1-23.1h0V98.4c0-9.3,7.5-16.8,16.9-16.8h399.5c8.8,0,15.9,7.1,15.9,15.9h0v265.9c0,12.8-10.3,23.1-23.1,23.1Z"/>
    <path class="cls-6" d="M559.4,386.5s.3,0,.9,0h1.2c.5,0,1-.2,1.6-.3h1c0-.1,1.1-.4,1.1-.4l1.2-.3,1.2-.5c.9-.3,1.8-.7,2.7-1.2.5-.2.9-.5,1.4-.8l.7-.5.6-.5c4.8-3.5,8.1-8.8,9-14.7,0-.4.1-.9.2-1.3s0-.9,0-1.3c0-.9,0-1.8,0-2.8v-18.8c0-36.5,0-89.2,0-154.4v-92.4c-.3-4.8-2.8-9.1-6.7-11.8-2-1.4-4.2-2.2-6.6-2.6-.3,0-.6,0-.9-.1H165.4c0,0-1.1.2-1.1.2-.4,0-.8.1-1.1.2-.4,0-.7.2-1.1.3-.7.2-1.4.5-2.1.8-1.4.6-2.7,1.5-3.8,2.5-1.2,1-2.2,2.2-3,3.4-.8,1.3-1.5,2.7-1.9,4.1-.4,1.5-.7,3-.7,4.5,0,1.5,0,3.1,0,4.6v259.4c0,1.3,0,2.6.1,4l.3,1.9c.1.6.3,1.3.5,1.9.7,2.5,1.9,4.9,3.4,7,3,4.2,7.4,7.3,12.4,8.7.6.1,1.2.4,1.9.4l1.9.3c1.3,0,2.6.1,3.8.1h328c0,0,42,0,42,0h14.6-56.6s-154.4.1-154.4.1h-173.7c-1.3,0-2.6,0-3.9-.1h-1.9c-.6-.2-1.3-.5-1.9-.6-7.8-2.2-13.9-8.2-16.1-16-.2-.6-.4-1.3-.5-1.9l-.3-2c0-1.3-.2-2.7-.1-4V97.9c0-3.1,1-6.2,2.8-8.8.9-1.3,1.9-2.5,3.1-3.5,1.2-1,2.5-1.9,3.9-2.6.7-.3,1.4-.6,2.2-.9.4-.1.8-.2,1.1-.3.4-.1.8-.2,1.1-.2.4,0,.8-.1,1.2-.2h1.2c.8-.1,1.6,0,2.3,0h399.2c.3,0,.6,0,.9.1,7.4,1.1,13.1,7.3,13.6,14.8,0,1.2,0,2.4,0,3.5v88.8c0,65.2,0,117.9,0,154.4v18.8c0,.9,0,1.9,0,2.8,0,.5,0,.9,0,1.4s-.1.9-.2,1.3c-1,6-4.3,11.3-9.2,14.8l-.7.5-.7.5c-.5.3-1,.6-1.4.8-.9.5-1.8.9-2.7,1.2l-1.2.4-1.2.3-1.1.3h-1c-.6.2-1.1.3-1.6.4h-1.2s-.9.1-.9.1Z"/>
    <path class="cls-8" d="M582,391.1H154.5c-12.3,0-22.3-10-22.3-22.3v-3.5c0-.5.4-.9.9-.9h466.6c.5,0,.9.4.9.8,0,0,0,0,0,0v7.4c0,10.2-8.2,18.4-18.4,18.4Z"/>
    <path class="cls-6" d="M582,391.1h.6c.6,0,1.2,0,1.9-.2,4.3-.6,8.2-2.7,11-5.8,1.5-1.6,2.6-3.5,3.5-5.5.9-2.4,1.4-4.9,1.3-7.4v-6.4c0-.4,0-.8-.2-1s-.6-.2-1-.2h-104.2c0,0-343.6.1-343.6.1h-18.4c0,0-.2,0-.3,0-.2,0-.3.2-.4.4,0,.2,0,.5,0,.7v1.6c0,1,0,2.1,0,3.1.1,2.1.6,4.1,1.3,6,.7,1.9,1.7,3.7,2.9,5.4,2.4,3.3,5.7,5.8,9.4,7.4,1.9.8,3.8,1.3,5.9,1.5,2,.2,4,.1,6.1.1h281.7s104.1.1,104.1.1h38.2-142.3c0,0-154.5.1-154.5.1h-127.2c-2,0-4.1,0-6.1-.2-2.1-.2-4.1-.8-6-1.5-3.9-1.6-7.2-4.2-9.6-7.6-.6-.8-1.2-1.7-1.7-2.6-.5-.9-.9-1.9-1.3-2.9-.7-2-1.2-4-1.3-6.1,0-1-.1-2.1,0-3.1v-1.6c0-.3,0-.6,0-.8,0-.3.3-.6.6-.7.1,0,.3,0,.5,0h18.4l343.7.3h104.1c0,0,.6,0,.6,0,.2,0,.4.1.6.2.2.1.3.3.3.5,0,.2,0,.4,0,.6v6.4c0,2.6-.4,5.1-1.4,7.5-.8,2-2,3.9-3.5,5.5-1.2,1.3-2.6,2.5-4.2,3.4-2.1,1.3-4.5,2.1-6.9,2.4-.6,0-1.2.1-1.9.1h-.6Z"/>
    <rect class="cls-14" x="167.9" y="100.2" width="395.7" height="249.8" rx="4.8" ry="4.8"/>
    <polygon class="cls-6" points="323.7 364 329.5 373.8 411.3 373.8 416.7 364 323.7 364"/>
    <circle class="cls-6" cx="366.3" cy="91.7" r="3.2"/>
    <path class="cls-2" d="M167.9,124.7h69.6v225.3h-64.3c-2.9,0-5.3-2.4-5.3-5.3V124.7h0Z"/>
    <path class="cls-8" d="M198.5,134.8c.4-.2.8-.4,1.2-.5l.2-1.1h1.9l.3,1.1c.4,0,.8.3,1.2.5l1-.6,1.4,1.3-.6,1c.2.4.4.7.5,1.1l1.1.2v1.9l-1.1.3c0,.4-.3.8-.5,1.2l.6,1-1.3,1.4-1-.6c-.4.2-.8.4-1.2.5l-.2,1.1h-1.9l-.3-1.1c-.4-.1-.8-.3-1.2-.5l-1,.6-1.4-1.4.6-1c-.2-.4-.4-.8-.5-1.2l-1.1-.2v-1.9l1.1-.3c.1-.4.3-.8.5-1.2l-.6-1,1.4-1.4,1,.6h0ZM199.5,137.4c-.8.8-.8,2.1,0,2.9.8.8,2.1.8,2.9,0,.8-.8.8-2.1,0-2.9,0,0,0,0,0,0-.8-.8-2.1-.8-2.9,0h0Z"/>
    <path class="cls-8" d="M214.5,189.1h-30.3c-1.7,0-3.1-1.4-3.1-3.1h0c0-1.7,1.4-3.1,3.1-3.1h30.3c1.7,0,3.1,1.4,3.1,3.1h0c0,1.7-1.4,3.1-3.1,3.1Z"/>
    <path class="cls-8" d="M214.5,173.2h-30.3c-1.7,0-3.1-1.4-3.1-3.1h0c0-1.7,1.4-3.1,3.1-3.1h30.3c1.7,0,3.1,1.4,3.1,3.1h0c0,1.7-1.4,3.1-3.1,3.1Z"/>
    <path class="cls-8" d="M214.5,158.7h-30.3c-1.7,0-3.1-1.4-3.1-3.1h0c0-1.7,1.4-3.1,3.1-3.1h30.3c1.7,0,3.1,1.4,3.1,3.1h0c0,1.7-1.4,3.1-3.1,3.1Z"/>
    <path class="cls-6" d="M296.1,140.5h-28.7c-1.7,0-3.1-1.4-3.1-3.1h0c0-1.7,1.4-3.1,3.1-3.1h28.7c1.7,0,3.1,1.4,3.1,3.1h0c0,1.7-1.4,3.1-3.1,3.1Z"/>
    <path class="cls-8" d="M296.1,156.8h-28.7c-1.7,0-3.1-1.4-3.1-3.1h0c0-1.7,1.4-3.1,3.1-3.1h28.7c1.7,0,3.1,1.4,3.1,3.1h0c0,1.7-1.4,3.1-3.1,3.1Z"/>
    <path class="cls-12" d="M296.1,173.7h-28.7c-1.7,0-3.1-1.4-3.1-3.1h0c0-1.7,1.4-3.1,3.1-3.1h28.7c1.7,0,3.1,1.4,3.1,3.1h0c0,1.7-1.4,3.1-3.1,3.1Z"/>
    <path class="cls-6" d="M283.8,206.3h-16.5c-1.7,0-3.1-1.4-3.1-3.1h0c0-1.7,1.4-3.1,3.1-3.1,0,0,0,0,0,0h16.5c1.7,0,3.1,1.4,3.1,3.1h0c0,1.7-1.4,3.1-3.1,3.1Z"/>
    <path class="cls-6" d="M283.8,223.2h-16.5c-1.7,0-3.1-1.4-3.1-3.1h0c0-1.7,1.4-3.1,3.1-3.1,0,0,0,0,0,0h16.5c1.7,0,3.1,1.4,3.1,3.1h0c0,1.7-1.4,3.1-3.1,3.1Z"/>
    <path class="cls-8" d="M332.8,223.2h-30.2c-1.7,0-3.1-1.4-3.1-3.1h0c0-1.7,1.4-3.1,3.1-3.1,0,0,0,0,0,0h30.2c1.7,0,3.1,1.4,3.1,3.1,0,0,0,0,0,0h0c0,1.7-1.4,3.1-3.1,3.1,0,0,0,0,0,0Z"/>
    <path class="cls-12" d="M315.7,238.2h-30.2c-1.7,0-3.1-1.4-3.1-3.1h0c0-1.7,1.4-3.1,3.1-3.1h30.2c1.7,0,3.1,1.4,3.1,3.1h0c0,1.7-1.4,3.1-3.1,3.1,0,0,0,0,0,0Z"/>
    <rect class="cls-12" x="299.5" y="249.1" width="25" height="6.2" rx="3.1" ry="3.1"/>
    <path class="cls-12" d="M321.4,289h-18.8c-1.7,0-3.1-1.4-3.1-3.1h0c0-1.7,1.4-3.1,3.1-3.1h18.8c1.7,0,3.1,1.4,3.1,3.1h0c0,1.7-1.4,3.1-3.1,3.1Z"/>
    <path class="cls-12" d="M321.4,324.5h-18.8c-1.7,0-3.1-1.4-3.1-3.1h0c0-1.7,1.4-3.1,3.1-3.1h18.8c1.7,0,3.1,1.4,3.1,3.1h0c0,1.7-1.4,3.1-3.1,3.1Z"/>
    <path class="cls-5" d="M367.5,324.5h-32.9c-1.7,0-3.1-1.4-3.1-3.1h0c0-1.7,1.4-3.1,3.1-3.1h32.9c1.7,0,3.1,1.4,3.1,3.1h0c0,1.7-1.4,3.1-3.1,3.1,0,0,0,0,0,0Z"/>
    <path class="cls-8" d="M390.6,324.5h-4.7c-1.7,0-3.1-1.4-3.1-3.1h0c0-1.7,1.4-3.1,3.1-3.1h4.7c1.7,0,3.1,1.4,3.1,3.1h0c0,1.7-1.4,3.1-3.1,3.1Z"/>
    <path class="cls-8" d="M365.6,289h-27.8c-1.7,0-3.1-1.4-3.1-3.1h0c0-1.7,1.4-3.1,3.1-3.1h27.8c1.7,0,3.1,1.4,3.1,3.1h0c0,1.7-1.4,3.1-3.1,3.1Z"/>
    <path class="cls-8" d="M426.6,304.5h-88.8c-1.7,0-3.1-1.4-3.1-3.1h0c0-1.7,1.4-3.1,3.1-3.1h88.8c1.7,0,3.1,1.4,3.1,3.1h0c0,1.7-1.4,3.1-3.1,3.1Z"/>
    <path class="cls-5" d="M436.8,289h-56.7c-1.7,0-3.1-1.4-3.1-3.1h0c0-1.7,1.4-3.1,3.1-3.1h56.7c1.7,0,3.1,1.4,3.1,3.1h0c0,1.7-1.4,3.1-3.1,3.1Z"/>
    <rect class="cls-5" x="332.7" y="249.1" width="29.7" height="6.2" rx="3.1" ry="3.1"/>
    <rect class="cls-8" x="370.7" y="249.1" width="12.1" height="6.2" rx="3.1" ry="3.1"/>
    <rect class="cls-8" x="391.9" y="249.1" width="35.6" height="6.2" rx="3.1" ry="3.1"/>
    <path class="cls-6" d="M336.2,238.2h-6.7c-1.7,0-3.1-1.4-3.1-3.1h0c0-1.7,1.4-3.1,3.1-3.1h6.7c1.7,0,3.1,1.4,3.1,3.1h0c0,1.7-1.4,3.1-3.1,3.1Z"/>
    <path class="cls-8" d="M393.2,238.2h-42.9c-1.7,0-3.1-1.4-3.1-3.1h0c0-1.7,1.4-3.1,3.1-3.1h42.9c1.7,0,3.1,1.4,3.1,3.1h0c0,1.7-1.4,3.1-3.1,3.1Z"/>
    <path class="cls-5" d="M342.1,140.5h-28.7c-1.7,0-3.1-1.4-3.1-3.1h0c0-1.7,1.4-3.1,3.1-3.1h28.7c1.7,0,3.1,1.4,3.1,3.1h0c0,1.7-1.4,3.1-3.1,3.1Z"/>
    <path class="cls-6" d="M379.1,156.8h-65.8c-1.7,0-3.1-1.4-3.1-3.1h0c0-1.7,1.4-3.1,3.1-3.1h65.8c1.7,0,3.1,1.4,3.1,3.1h0c0,1.7-1.4,3.1-3.1,3.1Z"/>
    <path class="cls-8" d="M449.9,173.7h-136.6c-1.7,0-3.1-1.4-3.1-3.1h0c0-1.7,1.4-3.1,3.1-3.1h136.6c1.7,0,3.1,1.4,3.1,3.1h0c0,1.7-1.4,3.1-3.1,3.1Z"/>
    <path class="cls-8" d="M377.8,185.6h-64.4c-1.7,0-3.1-1.4-3.1-3.1h0c0-1.7,1.4-3.1,3.1-3.1h64.4c1.7,0,3.1,1.4,3.1,3.1h0c0,1.7-1.4,3.1-3.1,3.1Z"/>
    <path class="cls-5" d="M364.6,206.3h-64.4c-1.7,0-3.1-1.4-3.1-3.1h0c0-1.7,1.4-3.1,3.1-3.1,0,0,0,0,0,0h64.4c1.7,0,3.1,1.4,3.1,3.1,0,0,0,0,0,0h0c0,1.7-1.4,3.1-3.1,3.1h0Z"/>
    <path class="cls-12" d="M400.6,206.3h-21.6c-1.7,0-3.1-1.4-3.1-3.1h0c0-1.7,1.4-3.1,3.1-3.1h21.6c1.7,0,3.1,1.4,3.1,3.1h0c0,1.7-1.4,3.1-3.1,3.1Z"/>
    <path class="cls-6" d="M455.8,206.2h-40.8c-1.7,0-3.1-1.4-3.1-3.1h0c0-1.7,1.4-3.1,3.1-3.1h40.8c1.7,0,3.1,1.4,3.1,3.1h0c0,1.7-1.4,3.1-3.1,3.1Z"/>
    <path class="cls-8" d="M511.3,206.2h-40.8c-1.7,0-3.1-1.4-3.1-3.1,0,0,0,0,0,0h0c0-1.7,1.4-3.1,3.1-3.1h40.8c1.7,0,3.1,1.4,3.1,3.1h0c0,1.7-1.4,3.1-3.1,3.1h0Z"/>
    <path class="cls-8" d="M201.4,205.9h-17.2c-1.7,0-3.1-1.4-3.1-3.1h0c0-1.7,1.4-3.1,3.1-3.1h17.2c1.7,0,3.1,1.4,3.1,3.1h0c0,1.7-1.4,3.1-3.1,3.1Z"/>
    <path class="cls-8" d="M196.2,256.4h-12.1c-1.7,0-3.1-1.4-3.1-3.1,0,0,0,0,0,0h0c0-1.7,1.4-3.1,3.1-3.1h12.1c1.7,0,3.1,1.4,3.1,3.1h0c0,1.7-1.4,3.1-3.1,3.1Z"/>
    <path class="cls-8" d="M217.6,222.7h-33.4c-1.7,0-3.1-1.4-3.1-3.1h0c0-1.7,1.4-3.1,3.1-3.1h33.4c1.7,0,3.1,1.4,3.1,3.1h0c0,1.7-1.4,3.1-3.1,3.1Z"/>
    <path class="cls-8" d="M211.8,239.6h-27.6c-1.7,0-3.1-1.4-3.1-3.1h0c0-1.7,1.4-3.1,3.1-3.1h27.6c1.7,0,3.1,1.4,3.1,3.1,0,0,0,0,0,0h0c0,1.7-1.4,3.1-3.1,3.1Z"/>
    <path class="cls-5" d="M253.3,137.4c0,1.8-1.4,3.2-3.2,3.2s-3.2-1.4-3.2-3.2,1.4-3.2,3.2-3.2c0,0,0,0,0,0,1.7,0,3.2,1.4,3.2,3.2Z"/>
    <path class="cls-5" d="M253.3,153.7c0,1.8-1.4,3.2-3.2,3.2s-3.2-1.4-3.2-3.2,1.4-3.2,3.2-3.2h0c1.8,0,3.2,1.4,3.2,3.2Z"/>
    <path class="cls-5" d="M253.3,170.6c0,1.8-1.4,3.2-3.2,3.2s-3.2-1.4-3.2-3.2,1.4-3.2,3.2-3.2c0,0,0,0,0,0,1.7,0,3.2,1.4,3.2,3.2Z"/>
    <path class="cls-5" d="M253.3,187.5c0,1.8-1.4,3.2-3.2,3.2s-3.2-1.4-3.2-3.2,1.4-3.2,3.2-3.2c0,0,0,0,0,0,1.7,0,3.2,1.4,3.2,3.2Z"/>
    <path class="cls-5" d="M253.3,204.4c0,1.8-1.4,3.2-3.2,3.2s-3.2-1.4-3.2-3.2,1.4-3.2,3.2-3.2h0c1.7,0,3.2,1.4,3.2,3.1,0,0,0,0,0,0Z"/>
    <path class="cls-5" d="M253.3,221.3c0,1.8-1.4,3.2-3.2,3.2s-3.2-1.4-3.2-3.2,1.4-3.2,3.2-3.2h0c1.8,0,3.2,1.4,3.2,3.2Z"/>
    <path class="cls-5" d="M253.3,238.2c0,1.8-1.4,3.2-3.2,3.2s-3.2-1.4-3.2-3.2,1.4-3.2,3.2-3.2h0c1.8,0,3.2,1.4,3.2,3.2Z"/>
    <path class="cls-5" d="M253.3,255.1c0,1.8-1.4,3.2-3.2,3.2s-3.2-1.4-3.2-3.2c0-1.8,1.4-3.2,3.2-3.2,0,0,0,0,0,0,1.7,0,3.2,1.4,3.2,3.2Z"/>
    <path class="cls-5" d="M253.3,272.1c0,1.8-1.4,3.2-3.2,3.2s-3.2-1.4-3.2-3.2c0-1.8,1.4-3.2,3.2-3.2s3.2,1.4,3.2,3.2h0Z"/>
    <path class="cls-5" d="M253.3,289c0,1.8-1.4,3.2-3.2,3.2s-3.2-1.4-3.2-3.2c0-1.8,1.4-3.2,3.2-3.2,1.7,0,3.2,1.4,3.2,3.1,0,0,0,0,0,0Z"/>
    <path class="cls-5" d="M253.3,305.9c0,1.8-1.4,3.2-3.2,3.2s-3.2-1.4-3.2-3.2c0-1.8,1.4-3.2,3.2-3.2s3.2,1.4,3.2,3.2h0Z"/>
    <path class="cls-5" d="M253.3,322.8c0,1.8-1.4,3.2-3.2,3.2s-3.2-1.4-3.2-3.2c0-1.8,1.4-3.2,3.2-3.2s3.2,1.4,3.2,3.2h0Z"/>
    <path class="cls-3" d="M173.2,99.9h385.2c2.9,0,5.3,2.4,5.3,5.3h0v19.4H167.7v-19.1c0-3.1,2.5-5.6,5.6-5.6h0Z"/>
    <path class="cls-6" d="M558.8,350c.3,0,.5,0,.8,0,.8-.1,1.6-.5,2.2-1,1.1-.9,1.7-2.2,1.7-3.5v-43c0-32.5,0-79.4,0-137.4v-59.1c0-.5,0-1,0-1.5-.1-1-.6-1.9-1.3-2.6-.7-.7-1.6-1.2-2.6-1.3-.5,0-1,0-1.5,0H172.8c-1.3,0-2.6.6-3.5,1.6-.4.5-.8,1.1-.9,1.7-.2.7-.2,1.3-.2,2v237.8c-.1,1.2,0,2.3.4,3.5.7,1.6,2.2,2.7,4,2.8h335.9c0,0,37.4.1,37.4.1h13-50.4s-137.4.1-137.4.1h-198.5c-.6,0-1.2-.2-1.8-.4-1.2-.5-2.1-1.5-2.6-2.6-.2-.6-.4-1.2-.4-1.8V105.7c0-.7,0-1.4.2-2.1.2-.7.5-1.3,1-1.9,1-1.1,2.4-1.7,3.8-1.8h385.2c.5,0,1,0,1.6,0,2.2.3,3.9,2.1,4.2,4.2,0,.5,0,1,0,1.6v59.1c0,58,0,105,0,137.4v43c0,2.3-1.7,4.2-4,4.6-.2,0-.4,0-.6,0h-.3Z"/>
    <circle class="cls-14" cx="182.8" cy="112.7" r="3"/>
    <circle class="cls-14" cx="191.2" cy="112.7" r="3"/>
    <circle class="cls-14" cx="199.6" cy="112.7" r="3"/>
  </g>
  <g id="freepik--speech-bubble--inject-97">
    <path class="cls-7" d="M241,162.9l-8.8,1.6c-9.8,11.1-26.6,12.1-37.7,2.3-11.1-9.8-12.1-26.6-2.3-37.7,9.8-11.1,26.6-12.1,37.7-2.3,8.3,7.4,11.2,19.1,7.3,29.5h0l3.8,6.6Z"/>
    <path class="cls-6" d="M241,162.9s0-.1-.2-.4l-.7-1.3c-.6-1.1-1.6-2.8-2.8-4.9,0,0,0,0,0,0h.1c1.6-4,2.1-8.5,1.6-12.8-.2-1.4-.5-2.7-.8-4.1-.2-.7-.5-1.4-.7-2.1-.2-.7-.6-1.4-.9-2.1-1.4-3-3.4-5.6-5.7-7.9-5.6-5.2-13.1-7.8-20.7-7.2-4.2.4-8.2,1.8-11.7,4-.9.6-1.8,1.2-2.6,1.9-.4.3-.8.7-1.2,1.1-.4.4-.8.7-1.2,1.1-.8.8-1.5,1.6-2.1,2.5-.3.4-.7.9-1,1.3l-.9,1.4c-4.2,7.3-4.7,16.2-1.3,24,4.4,10,14.4,16.3,25.3,16,1.5,0,2.9-.2,4.4-.5,1.4-.3,2.7-.7,4-1.1,4.2-1.5,7.9-4.1,10.8-7.4h0l6.6-1.2,1.7-.3h.6c0-.1-.6,0-.6,0l-1.7.3-6.5,1.1h0c-2.9,3.3-6.6,5.8-10.8,7.3-1.3.4-2.6.8-3.9,1.1-1.4.3-2.9.4-4.4.4-10.8.3-20.7-6-25-15.9-3.3-7.7-2.8-16.5,1.3-23.7l.8-1.4c.3-.4.6-.9,1-1.3.6-.9,1.3-1.7,2.1-2.5.4-.4.8-.7,1.2-1.1.4-.4.8-.7,1.2-1,.8-.7,1.7-1.3,2.6-1.8,3.5-2.2,7.5-3.5,11.6-3.9,3.9-.3,7.8.2,11.4,1.5,6.5,2.3,11.8,7.1,14.8,13.4.3.7.6,1.4.9,2.1.2.7.5,1.4.7,2.1,1.6,5.5,1.4,11.5-.6,16.9,0,0,0,0,0,0,0,0,0,0,0,0h-.1l2.9,4.9c.3.6.6,1,.8,1.3l.2.4Z"/>
    <path class="cls-12" d="M207.1,145.1l-6.6,2.6,6.6,2.5v2.6l-9.4-3.8v-2.7l9.4-3.8v2.6Z"/>
    <path class="cls-12" d="M214.1,137.3h2.7l-6.5,19.8h-2.7l6.5-19.8Z"/>
    <path class="cls-12" d="M226.6,146.3v2.7l-9.4,3.8v-2.6l6.6-2.5-6.6-2.6v-2.6l9.4,3.8Z"/>
  </g>
  <g id="freepik--file-2--inject-97">
    <path class="cls-5" d="M495.7,113.2h-47.8c-3.3,0-6-2.7-6-6V41.1c0-3.3,2.7-6,6-6h30.3l23.5,24.2v48c0,3.3-2.7,6-6,6Z"/>
    <g class="cls-15">
      <path class="cls-10" d="M441.9,89.5h59.8v17.8c0,3.3-2.6,5.9-5.9,5.9h-47.9c-3.3,0-5.9-2.6-5.9-5.9h0v-17.8h0Z"/>
    </g>
    <g class="cls-15">
      <path class="cls-14" d="M478.2,35.1v18.6c0,3.1,2.5,5.6,5.6,5.6h17.9l-23.5-24.2Z"/>
    </g>
    <g class="cls-15">
      <path class="cls-10" d="M478.4,55.4s-.2,4.5,4.9,6c.2,0,.4,0,.6.1,2.3.4,17.7,3.2,17.7,2.8v-5h-17.9s-4.5-.2-5.3-3.9Z"/>
    </g>
    <path class="cls-7" d="M466.4,70l-7.2,2.6,7.2,2.6v2.7l-10.2-3.9v-2.8l10.2-3.9v2.7Z"/>
    <path class="cls-7" d="M474.1,62h3l-7.1,20.3h-3l7.1-20.3Z"/>
    <path class="cls-7" d="M487.8,71.2v2.8l-10.3,3.9v-2.7l7.2-2.6-7.2-2.6v-2.7l10.3,3.9Z"/>
  </g>
  <g id="freepik--file-1--inject-97">
    <path class="cls-12" d="M102.3,179.4h-43.8c-3,0-5.5-2.5-5.5-5.5v-60.6c0-3,2.5-5.5,5.5-5.5h27.8l21.5,22.2v43.9c0,3-2.5,5.5-5.5,5.5Z"/>
    <g class="cls-15">
      <path class="cls-10" d="M54.3,157.7h52.3c.7,0,1.2.6,1.2,1.2h0v14c0,3.6-2.9,6.5-6.5,6.5h-41.8c-3.6,0-6.5-2.9-6.5-6.5v-14c0-.7.6-1.2,1.2-1.2h0Z"/>
    </g>
    <g class="cls-15">
      <path class="cls-14" d="M86.3,107.8v17.1c0,2.8,2.3,5.1,5.1,5.1h16.4l-21.5-22.2Z"/>
    </g>
    <g class="cls-15">
      <path class="cls-10" d="M86.6,126.4c0,2.7,1.9,5,4.5,5.5h.5c2.1.5,16.2,3,16.2,2.7v-4.6h-16.4s-4.1-.2-4.9-3.6Z"/>
    </g>
    <path class="cls-7" d="M71.5,139.6c.9.3,1.3.8,1.3,2.2v3.1c0,.7.4,1.4,1.1,1.4.1,0,.2,0,.3,0h.4v2.4h-1.1c-2.4,0-3.7-1.2-3.7-3.5v-3.5c0-.4-.2-.8-.7-.9,0,0-.1,0-.2,0h-.6v-2.4h.6c.4,0,.8-.3.9-.7,0,0,0-.1,0-.2v-3.6c0-2.2,1.3-3.5,3.7-3.5h1.1v2.4h-.4c-.7,0-1.3.4-1.4,1.1,0,.1,0,.2,0,.3v3.1c0,1.3-.4,1.9-1.3,2.2Z"/>
    <path class="cls-7" d="M92.6,138.4v2.4h-.6c-.4,0-.8.3-.9.7,0,0,0,.1,0,.2v3.5c0,2.2-1.2,3.5-3.7,3.5h-1.2v-2.4h.3c.7,0,1.3-.4,1.4-1.1,0-.1,0-.2,0-.3v-3.1c0-1.4.4-1.9,1.3-2.2-.9-.3-1.3-.8-1.3-2.2v-3.1c0-.7-.4-1.4-1.1-1.4-.1,0-.2,0-.3,0h-.3v-2.4h1.1c2.4,0,3.7,1.3,3.7,3.5v3.6c0,.4.2.8.7.9,0,0,.1,0,.2,0h.7Z"/>
  </g>
  <g id="freepik--character-4--inject-97">
    <path class="cls-14" d="M549.6,250.3h142.6c4.9,0,8.9-4.6,8.9-10.3v-117.1c0-5.7-4-10.3-8.9-10.3h-142.6c-4.9,0-8.9,4.6-8.9,10.3v117.1c0,5.7,4,10.3,8.9,10.3Z"/>
    <path class="cls-8" d="M701.1,136.7h-160.5v-15.5c0-4.7,3.8-8.6,8.6-8.6h144.1c4.3,0,7.7,3.4,7.7,7.7v16.4h0Z"/>
    <path class="cls-14" d="M566.2,124.9c0,1.4,1.1,2.6,2.6,2.6,1.4,0,2.6-1.1,2.6-2.6s-1.1-2.6-2.6-2.6c0,0,0,0,0,0-1.4,0-2.6,1.1-2.6,2.6h0Z"/>
    <path class="cls-14" d="M558.3,124.9c0,1.4,1.1,2.6,2.6,2.6,1.4,0,2.6-1.1,2.6-2.6,0-1.4-1.1-2.6-2.6-2.6,0,0,0,0,0,0-1.4,0-2.6,1.1-2.6,2.6h0Z"/>
    <path class="cls-14" d="M550.5,124.9c0,1.4,1.1,2.6,2.6,2.6,1.4,0,2.6-1.1,2.6-2.6,0-1.4-1.1-2.6-2.6-2.6,0,0,0,0,0,0-1.4,0-2.6,1.1-2.6,2.6,0,0,0,0,0,0Z"/>
    <path class="cls-6" d="M549.6,250.3h-.3c-.3,0-.7,0-1-.1-1.4-.3-2.7-.9-3.8-1.8-1.9-1.6-3.2-3.9-3.6-6.3-.2-1.6-.2-3.3-.2-4.9v-113.4c0-1,0-2,.2-3,.2-1,.5-2,1-2.9.4-.9,1-1.7,1.7-2.4.6-.7,1.4-1.3,2.2-1.7.8-.4,1.7-.7,2.6-.9.9,0,1.8-.1,2.8,0h142c.3,0,.6,0,.9,0,.6,0,1.1.2,1.7.4,1.1.5,2.1,1.2,2.9,2.1.8,1,1.4,2.1,1.8,3.3.2.6.3,1.3.4,1.9,0,.7,0,1.3,0,2v119.3c-.2.3-.2.6-.3.8-.5,2.1-1.6,4-3.2,5.4-.7.7-1.6,1.2-2.5,1.5-.9.3-1.9.5-2.8.5h-121.1c0,0-15.9,0-15.9,0h-5.6,79.7c0,0,40.3,0,40.3,0h22.5c2,0,4-.7,5.5-2.1,1.7-1.5,2.8-3.4,3.3-5.6,0-.3.1-.6.2-.9v-.9c.1-.6.2-1.2.1-1.8v-116.6c0-.7,0-1.3,0-2,0-.7-.2-1.3-.4-2-.4-1.3-1-2.4-1.9-3.4-.8-.9-1.8-1.7-3-2.2-.6-.2-1.1-.4-1.7-.5-.3,0-.6,0-.9,0h-142c-.9,0-1.9,0-2.8,0-.9.1-1.9.4-2.7.9-.9.5-1.6,1.1-2.3,1.8-.7.7-1.3,1.6-1.7,2.5-.5.9-.8,1.9-1,2.9-.2,1-.3,2.1-.2,3.1v113.4c0,1.6,0,3.3.2,4.9.4,2.5,1.7,4.7,3.6,6.4,1.1.9,2.4,1.5,3.8,1.8.3,0,.7.1,1,.1h.6Z"/>
    <path class="cls-6" d="M601.2,195.9c0-.8.5-1.5,1.1-1.9,10.1-6.7,17.8-21.6,18.5-34.1,0-.7,0-1.4,0-2.2h0c.6-18,3.2-39.8,5.6-45.6,4.4-10.7,19.3-11.8,19.3-11.8,19.8-1.4,23.3,13.8,25.3,27.6,1.2,8.6,2.4,40.7,2.4,40.7h0c-4.2,12.7-13.9,22.8-26.4,27.6-3.6,1.4-6.7,1.9-8.2.7-5.8,5.9-12.9,10.2-20.8,12.6-3.2,1.1-6.5,1.5-9.8,1.3-2.2-.2-4.4-.9-5.7-2.7-1.6-2.3-1.1-5.4,1.2-7,.9-.6,2-.9,3-.9-.7-2.4-5.6-1.7-5.6-4.4Z"/>
    <path class="cls-9" d="M657.8,110.1l-13.3-5.4-1.2,1.2c-7.9,0-14.7,5.9-15.1,15.7-.3,7.1-.5,14.3.6,19.5,2.2,10.5,10.4,11.4,10.4,11.4v8.2h0c1.4,4,5.8,6.2,9.8,4.8.7-.2,1.3-.6,1.9-1l10.4-7.2v-43.5c0-1.9-1.5-3.5-3.4-3.6Z"/>
    <path class="cls-6" d="M643.5,129.1c0,.7.6,1.3,1.4,1.3.7,0,1.3-.5,1.3-1.3,0,0,0,0,0,0,0-.7-.6-1.3-1.4-1.3-.7,0-1.3.6-1.3,1.3,0,0,0,0,0,0Z"/>
    <path class="cls-6" d="M630.8,129.1c0,.7.6,1.3,1.4,1.3.7,0,1.3-.6,1.3-1.3,0,0,0,0,0,0,0-.7-.6-1.3-1.4-1.3-.7,0-1.3.6-1.3,1.3,0,0,0,0,0,0Z"/>
    <path class="cls-6" d="M630.1,124.9c.2.2,1.2-.6,2.6-.7s2.6.6,2.7.4-.1-.4-.6-.7c-.7-.4-1.4-.6-2.2-.6-.8,0-1.5.3-2.1.8-.4.4-.5.7-.5.8Z"/>
    <path class="cls-6" d="M643.3,124.4c.2.1,1.1-.8,2.5-1s2.6.3,2.8.1-.2-.4-.7-.7c-.7-.3-1.5-.4-2.2-.3-.8.1-1.5.5-2,1-.4.4-.5.8-.4.8Z"/>
    <path class="cls-6" d="M639.2,135.7c-.8-.2-1.6-.3-2.4-.3-.4,0-.7,0-.8-.3,0-.4,0-.8.2-1.1.3-.9.6-1.9,1-2.9,1.3-4.1,2.3-7.5,2.1-7.6s-1.4,3.2-2.7,7.4c-.3,1-.6,2-.9,2.9-.2.5-.3,1-.1,1.5.1.3.4.4.6.5.2,0,.4,0,.6,0,.8,0,1.6,0,2.4-.1Z"/>
    <path class="cls-1" d="M639.1,152.5c4.9.3,9.7-1.1,13.8-3.8,0,0-3.3,7.4-13.8,7v-3.2Z"/>
    <path class="cls-1" d="M640,139.2c.5-.7,1.4-1.2,2.3-1.1.7,0,1.3.3,1.7.8.4.5.5,1.2.2,1.7-.5.6-1.2.8-1.9.6-.7-.2-1.3-.6-1.9-1-.2-.1-.3-.3-.4-.4-.1-.2-.1-.4,0-.6"/>
    <path class="cls-6" d="M643.5,136.5c-.2,0-.2,1.6-1.5,2.8s-3,1.1-3,1.3.4.3,1.1.3c.9,0,1.8-.4,2.5-1,.7-.6,1.1-1.4,1.1-2.3,0-.7-.2-1.1-.3-1.1Z"/>
    <path class="cls-6" d="M642.9,118.9c.2.4,1.6,0,3.3,0s3.2.2,3.3-.2c0-.2-.2-.5-.8-.8-.8-.4-1.7-.5-2.6-.5-.9,0-1.7.3-2.5.7-.6.4-.8.7-.8.9Z"/>
    <path class="cls-6" d="M629.7,120.3c.3.3,1.3,0,2.5-.2s2.2.1,2.5-.2c0-.2,0-.5-.5-.8-.6-.3-1.3-.5-2-.4-.7,0-1.4.3-1.9.8-.5.4-.6.7-.5.9Z"/>
    <path class="cls-6" d="M661,132.3s-7.5,2.3-11.7-16.1c-1.4-6.3-7.3-11.4-7.3-11.4l2.4-.7s14.7,4.2,15,4.3,3.7,7.6,3.7,7.6l-2.1,16.3Z"/>
    <path class="cls-9" d="M659.2,132.1c0-.8.8-2.7,1.5-2.9,2.1-.4,5.8-.4,6.1,4.8.4,7.2-6.9,6.1-6.9,5.9s-.6-5.2-.7-7.9Z"/>
    <path class="cls-1" d="M661.9,137.2s.1,0,.3.2c.3.1.6.1.9,0,.9-.7,1.4-1.8,1.3-2.9,0-.6-.2-1.2-.5-1.8-.2-.4-.5-.8-1-.9-.3,0-.6.1-.7.4,0,.2,0,.4,0,.4s-.2-.1-.1-.4c0-.2.1-.4.3-.5.2-.2.4-.2.7-.2.6,0,1.1.5,1.4,1,.3.6.5,1.3.5,2,0,1.4-.6,2.9-1.7,3.2-.4.1-.8,0-1.2-.1-.2-.2-.3-.3-.3-.4Z"/>
    <path class="cls-6" d="M655.9,128.8s-.4,0-1.1-.2c-1-.3-1.8-.8-2.6-1.5-.5-.5-1-1-1.3-1.6-.4-.7-.8-1.4-1.1-2.1-.6-1.7-1.1-3.5-1.5-5.2-.5-1.9-1.1-3.7-1.7-5.2-.5-1.4-1.1-2.8-1.9-4.1-.5-.9-1-1.7-1.7-2.5-.2-.3-.4-.5-.5-.6,0,0-.1-.2-.2-.2,0,0,0,.2.2.2.1.2.3.4.5.7.6.8,1.1,1.7,1.6,2.6.7,1.3,1.3,2.7,1.8,4.1.6,1.6,1.1,3.3,1.6,5.2.4,1.8.9,3.5,1.6,5.3.3.7.7,1.5,1.1,2.1.4.6.9,1.1,1.4,1.6.8.7,1.7,1.2,2.6,1.5.4,0,.7.1,1.1.1Z"/>
    <path class="cls-5" d="M665.8,159.5c0-.1,0-.2,0-.4,0-.2.1-.6.2-1,.2-.9.4-2.2.7-3.9h-.2c0,.3,0,.6-.1.9h0c0,.1,0,.2-.2.3h.2c1.1-3.7,1.9-7.6,2.3-11.5.3-2.5.4-5,.4-7.5,0-2.8-.1-5.5-.7-8.2-.3-1.1-.7-2.3-1.3-3.3-.6-1-1.2-1.9-2-2.8-1.5-1.7-3-3.2-4.5-4.6l-7.8-7.6-5.2-5.1-1.4-1.4-.4-.3c0,0-.1-.1-.1-.1h.1c0,.1.3.5.3.5l1.4,1.4,5.2,5.2,7.7,7.7c1.4,1.4,3,2.9,4.5,4.6,1.5,1.7,2.6,3.7,3.2,5.9.6,2.7.8,5.4.7,8.1,0,2.5-.1,5-.4,7.5-.4,3.9-1.2,7.8-2.2,11.6h.2c0,0,.2-.3.2-.3h0c0-.3,0-.6,0-.9h-.2c-.2,1.7-.4,3-.6,3.9,0,.4,0,.8-.1,1s0,.3,0,.3Z"/>
    <polygon class="cls-6" points="674.3 235.4 681.4 250.3 615 250.3 619.1 236.1 674.3 235.4"/>
    <path class="cls-12" d="M668.4,211.8l9.7-47.2-16.6-7.2-.3-3.8-23.4,2.7-.5,3.6-13.4,4.6-4.9,13.6c-2.2,7.4-4.9,15.4-2,23.8l1,2.8.8,34,16.1-2h40.2c-1.2-3.3-2.3-4-3.2-5.9-2.7-6.4-3.4-18.9-3.4-18.9Z"/>
    <path class="cls-12" d="M578.1,232.5l21.5-13.3,11.8-38c4.3-12,6.3-12.7,12.3-16.7l.5,17s-7.6,46.7-10.2,50.2-31.7,12-31.7,12l-4.3-11.1Z"/>
    <path class="cls-9" d="M586.2,242.3s-7.9,2.7-9.8,3.2-7.5.3-7.5.3c0,0-8.3,3.6-8.9,3.2s-1.3-.8-.8-1.3,6.6-4.2,6.6-4.2l-4.6.9s-6.1,3.3-6.7,3.2-1.4-.7-1.2-1.5l.2-.7c-.4-.6-.4-1.4.2-1.9l.5-.4-.3-.5c-.3-.8-.2-1.8.5-2.4,1.1-1.2,3.3-3.8,3.3-3.8l8.1-3.2,16.7-1.1"/>
    <path class="cls-1" d="M584.3,239.6c-.2.4-.5.7-.8,1.1-.8.9-1.9,1.4-3.1,1.7-1.8.3-3.6.2-5.3-.2-2.2-.6-4.4-.8-6.7-.6-.5.1-1.1.3-1.7.3-.5,0-.9-.2-1-.7,0-.4.5-.6,1-.8l1.4-.7,4.8-2.4,3.2-1.7c.4-.2.8-.4,1.2-.7-.4.1-.9.3-1.2.5l-3.3,1.5-4.8,2.3-1.4.7c-.3.1-.5.2-.7.4-.3.2-.5.5-.5.9,0,.7.8,1.3,1.5,1.2.7,0,1.2-.3,1.7-.3,2.3-.4,4.5.2,6.5.6,1.8.4,3.7.5,5.5.1,1.2-.3,2.3-.9,3.1-1.9.2-.3.4-.5.5-.9,0-.2,0-.3,0-.3Z"/>
    <path class="cls-1" d="M567.8,237.5c0-.1-3.1.9-7.1,1.3-.5,0-1,0-1.5.1h-.2c-1.2,1.6-2.7,2.8-4.3,3.8.6-.1,1.1-.3,1.5-.6,1.2-.7,2.3-1.6,3.2-2.8h-.2c.5,0,1,0,1.5,0,1.7-.2,3.4-.5,5.1-1,.7-.2,1.4-.4,2-.8Z"/>
    <path class="cls-1" d="M560.8,242c0-.1-1.6.9-3.6,1.9s-3.8,1.4-3.8,1.5c2.8-.2,5.4-1.4,7.3-3.4Z"/>
    <path class="cls-12" d="M696.5,214.6l-9-33.5c-.6-2.1-1.6-5.5-2.6-8.2-.9-2.6-2.5-5-4.5-6.8-.7-.6-1.5-1.2-2.3-1.6l-9,27.2,7,22-35.4,18.6,6.8,13.8,41.9-16.5c2.3-.9,4.4-2.4,5.8-4.4,1.7-2.4,2.9-5.2,1.3-10.6Z"/>
    <path class="cls-9" d="M609.6,241.7l10.1-4.6,19.7-1.5,2.8-.4,4.1,8.5s-5.7,3.8-8.4,4l-16.5-.5-8.7.9-3-6.3Z"/>
    <path class="cls-6" d="M618.4,217.9c0-.3,0-.7,0-1,0-.7,0-1.6-.1-2.9-.1-2.4-.4-5.9-.8-10h0c-.5-2.5-1.2-5.2-1.6-8.1-.2-1.5-.3-3-.3-4.5,0-1.4.3-2.8.7-4.1.6-2.3,1.4-4.5,2.4-6.7.9-1.8,1.7-3.2,2.2-4.2.3-.5.6-1,.9-1.5-.2.5-.4,1.1-.7,1.6-.5,1-1.2,2.4-2,4.3-1,2.1-1.7,4.4-2.3,6.6-.4,1.3-.6,2.6-.7,4,0,1.5,0,3,.3,4.4.4,2.9,1.1,5.6,1.6,8.1h0c.4,4.1.5,7.6.6,10v2.9c0,.4,0,.8-.1,1.1Z"/>
    <path class="cls-6" d="M688.2,216.6c-1.8-1.2-3.8-2.2-5.8-2.7-2.1-.4-4.3-.4-6.5-.1.6-.3,1.2-.5,1.9-.6,3.2-.5,6.4.2,9,2.1.6.3,1.1.8,1.4,1.3Z"/>
    <path class="cls-6" d="M661.5,157.3c-.3.2-.6.3-.9.4-.6.2-1.4.5-2.5.9-2.8.9-5.6,1.6-8.5,2-1.6.2-3.2.3-4.8.4-1.3,0-2.6,0-3.9-.2-.6,0-1.1-.1-1.5-.2-.4,0-.7-.1-1.1-.2-.3,0-.6-.1-.9-.3,0,0,1.4.2,3.6.4,1.3,0,2.6.1,3.9,0,1.5,0,3.1-.2,4.7-.4,2.9-.4,5.7-1,8.5-1.8,2.2-.6,3.5-1,3.5-1Z"/>
    <path class="cls-6" d="M647.5,246.1c0,0-.1-.2-.2-.2,0-.2-.2-.4-.4-.7l-1.4-2.8c-1.2-2.5-2.9-6.1-5-10.4v-.2c0,0,0,0,0,0l25.7-14.2,9.7-5.3v.3c-3-9.4-5.5-17.6-7.3-23.4-.9-2.9-1.6-5.2-2-6.9l-.5-1.8c0-.2-.1-.4-.2-.6.1.2.2.4.2.6.2.5.4,1.1.6,1.8.5,1.6,1.3,3.9,2.2,6.8l7.4,23.4v.2c0,0-.1.1-.1.1l-9.7,5.3-25.8,14.1v-.3c2.1,4.4,3.8,8,5,10.5l1.3,2.9c.1.3.2.6.3.8,0,0,0,.2,0,.3Z"/>
    <path class="cls-8" d="M546.2,202.4l56.7.5c1.8,0,3.6.9,3.9,2.7l6.2,41.4h29.2c.9,0,1.8.6,1.8,1.6s-.6,1.8-1.6,1.8c0,0-.2,0-.3,0h-93.3l-6.4-43.6c-.3-2,1.1-3.9,3.1-4.2.2,0,.4,0,.6,0Z"/>
    <path class="cls-6" d="M546.2,202.4c-.3,0-.6,0-.9,0-1.5.4-2.7,1.7-2.9,3.2,0,.8,0,1.6.2,2.3.2,1.7.5,3.6.8,5.8,1.2,8.7,3,21.2,5.3,36.5h0c0,.1.2.1.2.1h90.5c0,0,2.4,0,2.4,0,.4,0,.9,0,1.3-.2.9-.5,1.3-1.7.8-2.6-.2-.3-.4-.6-.8-.8-.4-.2-.8-.3-1.3-.2h-28.8l.2.2c-2.2-14.8-4.3-28.6-6.2-41,0-.8-.4-1.6-1-2.2-.6-.5-1.4-.9-2.2-1-.8,0-1.5,0-2.3,0h-10.8c0,0-15.2-.2-15.2-.2h-21.6c0-.1-7.8-.1-7.8-.1h7.8c0,0,21.6.3,21.6.3h15.2c0,.1,8.5.2,8.5.2h2.2c.7,0,1.5,0,2.2,0,.7,0,1.4.4,2,.9.6.5.9,1.2.9,1.9l6.1,41v.2h29.1c.4,0,.7,0,1.1.2.6.4.9,1.1.7,1.8-.1.3-.4.6-.7.8-.3.2-.7.2-1.1.2h-93.1.2c-2.3-15.2-4.1-27.7-5.4-36.4-.3-2.2-.6-4.1-.9-5.8-.2-.8-.2-1.5-.2-2.3,0-.6.3-1.2.7-1.8.5-.7,1.3-1.2,2.1-1.4.6,0,.9,0,.9,0Z"/>
    <path class="cls-14" d="M580.5,225.9c0,2-1.6,3.6-3.5,3.6-2,0-3.6-1.6-3.6-3.6,0-2,1.6-3.6,3.6-3.6,0,0,0,0,0,0,2,0,3.5,1.6,3.5,3.6Z"/>
    <path class="cls-6" d="M610.7,250c0,0-1.9-10.5-4-23.5s-3.8-23.6-3.7-23.6,1.9,10.5,4,23.5,3.8,23.5,3.7,23.6Z"/>
  </g>
  <g id="freepik--character-5--inject-97">
    <path class="cls-5" d="M565.5,449.5l-10.6,30.8-38-14c1.6-3.5,23.9-3.6,23.9-3.6l6.5-19.8,18.2,6.6Z"/>
    <path class="cls-8" d="M553.2,465.3c.7.5.9,1.4.4,2.2-.5.7-1.4.9-2.1.4-.7-.5-.9-1.5-.4-2.3.6-.7,1.6-.8,2.3-.2"/>
    <path class="cls-6" d="M554.9,480.2l1.2-3.2-37-12.1s-2,.1-2.2,1.4l38,13.9Z"/>
    <path class="cls-8" d="M540.3,462.2c0,.2.8.6,1.5,1.5s.9,1.9,1.1,1.9.3-1.2-.5-2.3-2.1-1.3-2.1-1.1Z"/>
    <path class="cls-8" d="M535.7,462.4c-.1.2.6.8.9,1.8s.2,1.9.4,2,.7-1,.2-2.2-1.5-1.8-1.6-1.6Z"/>
    <path class="cls-8" d="M531.7,466.3c.2.1.8-.7.7-1.9s-.8-1.9-1-1.8.2.9.3,1.9-.1,1.8,0,1.9Z"/>
    <path class="cls-8" d="M542.3,457.9c0,.2,1,.2,2,.7s1.7,1.1,1.9,1-.4-1.1-1.6-1.6-2.3-.3-2.3-.1Z"/>
    <path class="cls-8" d="M544.8,453.7c.6.4,1.2.6,1.9.7.7.1,1.5.2,2.2.1.4,0,.9,0,1.3-.2.3,0,.5-.1.7-.2.4-.2.6-.6.5-1,0-.3-.3-.6-.7-.7-.2,0-.5-.1-.8-.2-1.2-.2-2.4,0-3.5.5-1.2.5-1.7,1.1-1.7,1.1s.7-.3,1.8-.7c.7-.2,1.4-.3,2-.3.4,0,.8,0,1.2,0,.4,0,.8.2.8.4s0,.1-.1.2c-.2,0-.4.1-.5.2-1.1.2-2.2.3-3.3.2-.7,0-1.3-.2-2-.2Z"/>
    <path class="cls-8" d="M545,454s.7-.5,1.2-1.6c.3-.7.5-1.4.5-2.2,0-.4,0-.9,0-1.3,0-.6-.3-1.1-.9-1.4-.4-.1-.7,0-1,.2-.2.2-.3.4-.5.6-.2.4-.4.8-.5,1.3-.2.8-.1,1.5,0,2.3.4,1.2,1.1,1.8,1.1,1.7-.2-.6-.5-1.2-.6-1.8-.1-.7-.1-1.3,0-2,0-.4.2-.7.4-1.1.2-.4.5-.6.6-.6.3.2.4.5.4.9,0,.4,0,.8,0,1.2,0,.7-.1,1.4-.3,2-.4,1.2-.8,1.8-.7,1.8Z"/>
    <path class="cls-6" d="M649.1,369.4c-1.5.9-78.4,4.6-80.2,7.5-2.5,4.1-29.7,78.5-29.7,78.5l28,8.8,28.9-63.8,68.8-2.1s11-3.9,11.2-16.2l-27.1-12.6Z"/>
    <path class="cls-5" d="M560.8,428.6l-6,25.4-37.9-11.1c1.3-3.6,23-5.1,23-5.1l3.5-13.7,17.4,4.5Z"/>
    <path class="cls-8" d="M552.1,439.6c.7.5.9,1.3.5,2.1-.4.7-1.3.9-2,.6-.7-.5-1-1.4-.6-2.2.5-.7,1.5-.8,2.2-.4"/>
    <path class="cls-6" d="M554.8,454l1-3.2-36.9-9.3s-1.9.2-2,1.5l37.9,11Z"/>
    <path class="cls-8" d="M539.3,437.5c0,.2.8.5,1.6,1.4s1,1.8,1.2,1.8.2-1.2-.7-2.2-2.1-1.1-2.1-1Z"/>
    <path class="cls-8" d="M534.9,438c0,.2.6.7,1,1.7s.3,1.9.5,1.9.6-1,0-2.2-1.5-1.6-1.6-1.4Z"/>
    <path class="cls-8" d="M531.2,442c.2,0,.7-.8.5-1.9s-.9-1.8-1-1.7.2.8.4,1.8,0,1.8.1,1.8Z"/>
    <path class="cls-8" d="M541,433.1c0,.2,1,.2,2,.6s1.7,1,1.9.8-.5-1-1.7-1.5-2.3-.1-2.2,0Z"/>
    <path class="cls-8" d="M543.2,428.9c.6.3,1.2.5,1.9.5,1.2.1,2.3,0,3.4-.3.2,0,.5-.1.7-.3.3-.2.5-.6.4-1-.1-.3-.4-.6-.7-.7-.2,0-.5-.1-.7-.1-.4,0-.9,0-1.3,0-.7.1-1.4.3-2.1.6-1.1.6-1.6,1.2-1.6,1.2s.7-.4,1.8-.8c.6-.2,1.3-.4,2-.5.4,0,.8,0,1.2,0,.4,0,.8.1.8.3s0,.1,0,.2c-.2,0-.3.2-.5.2-.4.1-.8.2-1.2.3-.7.1-1.3.2-2,.2-.7,0-1.3,0-2,0Z"/>
    <path class="cls-8" d="M543.4,429.2c0,0,.6-.5,1-1.7.2-.7.4-1.4.3-2.1,0-.4,0-.9-.1-1.3,0-.6-.4-1.1-.9-1.3-.4-.1-.8,0-1,.3-.2.2-.3.4-.4.6-.1.4-.2.9-.2,1.3,0,.7,0,1.5.2,2.2.5,1.2,1.2,1.6,1.2,1.6-.3-.6-.5-1.1-.7-1.7-.2-.7-.2-1.3,0-2,0-.4.2-.7.4-1.1.2-.4.4-.7.6-.6s.4.4.5.8c0,.4.2.8.2,1.2,0,.7,0,1.3-.2,2-.3,1.1-.7,1.8-.6,1.8Z"/>
    <path class="cls-6" d="M563.2,436.7l-24.4-6.7,21.4-67.5c4.9-13.6,18.5-13.1,26.4-12l57.5,5.5,4,14.1-64,8.2-20.9,58.4Z"/>
    <g class="cls-16">
      <path class="cls-10" d="M563.2,436.7c-1.5-.4-2.8-.8-4.4-1.2-.3.8-.3,1.6-.6,2.4l-.4,1.6c1.2.4,2.8.8,4,1.1,1.3.3,2.8,0,3.9-.7,1.1-.9,1.5-2.5,1.8-3.8l3.9-15.7c2.2-9,7.4-19,7.7-28.2-4.5,14.5-12.2,29.9-15.9,44.6Z"/>
    </g>
    <path class="cls-6" d="M647.8,246.6c.1-.6.5-1.1.9-1.5,1.2-.8,2.6-1.1,4-1,.8-1.7,1.4-3.5,1.6-5.3-.7,0-1.3-.2-1.9-.5-.1,0-.2,0-.3-.1-1.3-.6-1.5-2.6-.6-3.8,1-1.1,2.3-1.9,3.7-2.4-1,.2-1.9.6-2.8,1-1,.3-2.3,0-2.4-1,0-.3,0-.6.2-.9l.6-1.8c0-.5.4-.9.8-1.2.3-.1.7-.2,1-.2,1.1-.3,1.7-1.7,2.8-2,.9,0,1.7,0,2.5.4.8.2,2,0,2.2-.8-1.1-.6-2.1-1.4-2.9-2.4-.7-1.1-.6-2.5.3-3.5.8-.5,1.9-.7,2.8-.6,1.1,0,2.5.3,2.8,1.4,1.5-.4,3.1.5,3.5,2.1,0,0,0,.1,0,.2l2.8-.3c-.8-.9-1.9-1.4-2.6-2.3s-.6-2.6.6-2.9c.4,0,.9,0,1.3-.1s.5-.4.8-.4c.2,0,.4.1.6.2l6,3.9c-.5-1.3-1.1-2.5-1.6-3.8s-.9-2.8.2-3.5,2.5.3,2.7,1.5c1.1-.2,2.1.5,2.3,1.6,0,0,0,.1,0,.2,1-.4,2.2.2,2.6,1.2.2.6.1,1.3-.2,1.8,1,0,2,.3,2.9.9,0-1,.9-1.6,1.9-1.6.3,0,.6.2.9.4,0-.6.1-1.2.4-1.7.3-.5.9-.6,1.4-.3,0,0,.1,0,.2.1-.3-1.1.4-2.2,1.4-2.4.7-.2,1.3,0,1.8.4l1-1.2c1-.1,2,.4,2.6,1.3.4.9-.3,2.3-1.3,2.2.7,0,.5,1.1.1,1.7l-1.7,2.5c.8-.7,1.9-.8,2.8-.2.7-.7,1.7-.7,2.4,0,0,0,0,0,0,0,.4-.6,1.3-.8,1.9-.4.3.2.5.5.6.8.2-.5.8-.5,1.3-.4.7,0,1.4.2,2,.7.5.5.5,1.5-.2,1.8.6-.3,1.4.3,1.4,1,0,.7-.4,1.4-1,1.8-.6.4-1,.9-1.4,1.5.6-.4,1.3-.5,2-.4,1.3,0,2.5.2,3.7.7.2-.5.9-.5,1.4-.4,1.7.3,3.2,1.2,4.3,2.4.5.6,1,1.4.7,2.1-.2.3-.5.6-.8.7l-3.9,2.4c2.1.7,4,2,5.3,3.8.8.4,1.8.5,2.5,1.1s.6,2-.2,2c.6.5.8,1.2.5,1.9-.1.3-.3.5-.6.7-.1.2-.3.3-.4.5-.3.2-.6.4-1,.5-.4.5-1.1.8-1.7.8.7.6,1.4,1.4,1.8,2.2.7,1.1.7,2.5,0,3.6,0,0,0,.1-.1.1,0,.4-.4.8-.7,1.1.1.3.2.6.1.9,1.9.7,2.9,2.9,2.2,4.9-.3.7-.7,1.3-1.4,1.8-.9.6-2.5.5-2.6-.6-.4.9-1.3,1.5-2.2,1.6.7,1.4.1,3.1-1.3,3.8,0,0-.2,0-.2.1,1.2,1.1,1.3,3,.2,4.2-.3.3-.7.6-1.1.8.4,1.2-.2,2.5-1.4,3-1.2.4-2.5-.2-3-1.4-.4.9-1,1.6-1.7,2.2-.8.5-1.8.3-2.3-.5,0,0,0,0,0,0-.6,1.6-2.5,2.4-4.1,1.8-.2,0-.4-.2-.6-.3,0,1.1-.8,2.1-2,2.1-1.1,0-2-.7-2.1-1.8h-5.3c-1.2,0-2.4-.1-3.5-.3-1.5-.3-2.9-.9-4-1.9-.4-.3-.8-.6-1.2-.8-.6,0-1.1,0-1.6.2-2.9.8-6,0-8.2-1.9-.3-.3-.7-.6-1.1-.9-.5-.2-1-.3-1.6-.2-1.3,0-2.6-.2-3.9-.6-1.1-.2-2.1-.8-2.7-1.8-.5-1,0-2.5,1.2-2.5.1-.7-.1-1.5-.6-2-.5-.6-1.4-.6-2,0-.4.4-.4,1,0,1.4.1.1.3.2.5.3-1.2.8-3.1-.3-3.1-1.8.1-1.5,1.4-2.7,2.9-2.7-.3-1-.3-2.2,0-3.2-.8,1-2.2,1.1-3.2.4-.6,1-1.5,1.7-2.7,1.9-1.1.2-2.3-.4-2.7-1.5-.3-.9.3-1.9,1.2-2.2.2,0,.3,0,.5,0-.5-1,0-2.3.9-2.8.3-.1.6-.2.9-.2-.2-1.5.6-2.9,2-3.5-.9.4-1.9.1-2.3-.7,0,0,0-.2-.1-.3-.7,1.1-2.3.8-3.4.2-1-.4-1.6-1.5-1.4-2.5Z"/>
    <path class="cls-5" d="M647.8,246.6c0,.1,0,.3,0,.4,0,.4.1.9.4,1.2.5.6,1.1,1,1.8,1.2.4.2.9.2,1.4.2.6,0,1.1-.3,1.4-.7h-.1c.3.9,1.3,1.4,2.3,1.1,0,0,.2,0,.3-.1h0c-1.4.4-2.3,1.9-2.1,3.4h0c-.7-.1-1.5.2-1.8.9-.5.7-.5,1.5-.1,2.2v-.2c-.7,0-1.5.5-1.7,1.3-.2.9.1,1.8.9,2.2.8.5,1.7.6,2.6.2.9-.4,1.6-1,2.1-1.8h-.2c1.1.8,2.6.6,3.4-.4h-.2c-.2,1-.2,2.1,0,3.2v-.2c-.6,0-1.3.3-1.9.7-.6.5-.9,1.2-1,1.9,0,.8.3,1.6,1,2,.7.5,1.6.6,2.3.1l.3-.2h-.4c-.4-.1-.7-.6-.6-1,0-.5.5-.8,1-.7.5,0,1,.3,1.2.7.3.5.3,1,.3,1.5h.2c-.4-.1-.8,0-1.1.4-.3.3-.4.7-.5,1,0,.4,0,.8.1,1.2.2.4.4.7.7.9.6.5,1.3.8,2,1,.7.2,1.5.4,2.2.5,1.5.3,3.2-.3,4.2,1.1,1.8,1.7,4.3,2.6,6.8,2.4.8,0,1.7-.3,2.5-.5.4-.1.8,0,1.1.1.4.2.7.5,1,.7.7.5,1.5.9,2.4,1.2,1.7.6,3.4.8,5.2.8h5.3l-.2-.2c.2,1.1,1.2,1.9,2.3,1.9,1.2,0,2.2-1.1,2.2-2.3l-.3.2c1.6,1,3.7.6,4.7-1,.1-.2.2-.4.3-.6h-.4c.2.5.6.8,1.1,1,.5.1,1,0,1.5-.2.9-.6,1.5-1.4,1.9-2.3h-.4c.5,1.3,1.9,2,3.2,1.6,1.3-.5,2-1.9,1.6-3.2h0v.3c.9-.4,1.6-1.2,1.8-2.3.3-1.1,0-2.2-.9-3v.4c1.5-.6,2.3-2.4,1.7-3.9,0,0,0-.2-.1-.3l-.2.3c1-.1,1.9-.8,2.4-1.7h-.4c0,.2.1.5.3.7.2.2.4.3.7.4.5.1,1,0,1.5-.1.9-.5,1.6-1.2,1.9-2.2.4-1,.3-2.1-.2-3-.4-.9-1.2-1.7-2.2-2.1l.2.3c0-.4,0-.8-.2-1.1v.3c.3-.3.6-.7.8-1.2h0c.7-.9.9-2.2.4-3.3-.5-1.1-1.2-2.1-2.2-2.8l-.2.4c.8,0,1.5-.3,1.9-.9h-.1c.6,0,1.2-.5,1.6-1h0c.5-.2.8-.8.8-1.3,0-.6-.2-1.2-.7-1.6v.4c.1,0,.4-.1.6-.4.1-.2.2-.5.2-.7,0-.5-.2-1-.6-1.4-.8-.4-1.6-.8-2.5-1.1h0c-1.4-1.7-3.2-3.1-5.4-3.8v.4l1.8-1.1,1.3-.8c.5-.3.9-.6,1.3-.9.2-.2.4-.5.4-.8,0-.3,0-.6-.1-.9-.2-.5-.6-1-1-1.3-.8-.7-1.7-1.3-2.7-1.7-.5-.2-1-.4-1.5-.5-.3,0-.6,0-.9,0-.3,0-.6.3-.8.6h.3c-.9-.6-1.9-.8-2.9-.8h-1.5c-.5,0-1.1.2-1.5.5l.3.3c.4-.9,1.5-1.3,2.1-2.3.4-.5.4-1.1.2-1.7-.1-.3-.4-.5-.6-.6-.3-.2-.7-.2-1,0l.2.4c.3-.1.5-.3.6-.6,0-.3,0-.6,0-.8,0-.3-.2-.5-.4-.7-.2-.2-.4-.3-.7-.4-.5-.2-1-.3-1.5-.3-.3,0-.5,0-.8,0-.3,0-.6.3-.7.6h.4c-.1-.6-.7-1.1-1.3-1.2-.6-.1-1.3.1-1.6.7h.4c-.8-.8-2-.8-2.8,0,0,0,0,0,0,0h.3c-.9-.6-2.2-.5-3,.3l.3.3,1.5-2.1c.3-.3.5-.8.6-1.2,0-.2,0-.5,0-.7,0-.1-.1-.3-.2-.4-.1,0-.3-.1-.4-.1v.4c.6,0,1.2-.3,1.4-.9.3-.5.3-1.1,0-1.7-.6-1-1.6-1.5-2.7-1.4h-.1c0,0-1,1.3-1,1.3h.3c-1-.8-2.4-.7-3.2.3-.4.5-.6,1.2-.5,1.9l.4-.2c-.2-.3-.6-.4-1-.3-.3,0-.7.3-.9.5-.3.5-.5,1.2-.5,1.8h.4c-.6-.6-1.3-.7-2-.4-.7.3-1.1.9-1.2,1.6l.3-.2c-.9-.6-1.9-.9-3-.9l.2.3c.7-1,.5-2.3-.4-3.1-.6-.5-1.4-.6-2.1-.3l.3.2c0-1.2-1.1-2.1-2.3-2.1-.1,0-.2,0-.4,0l.3.2c-.1-.5-.4-1-.8-1.4-.4-.4-.9-.6-1.5-.5-.6,0-1,.4-1.3.9-.2.5-.2,1-.1,1.5.2.9.6,1.8,1,2.7.4.9.7,1.7,1.1,2.6l.3-.2-3.7-2.4-1.8-1.2c-.3-.2-.6-.4-1-.6-.2,0-.5,0-.7.1-.2.1-.3.2-.5.3-.3,0-.7.1-1,0-.4,0-.8.2-1,.5-.4.6-.5,1.5-.2,2.2.3.7.8,1.2,1.4,1.6.5.4,1.1.8,1.5,1.3v-.3c.1,0-2.7.3-2.7.3h.2c-.3-1.5-1.8-2.6-3.5-2.3,0,0-.2,0-.3,0h.2c-.2-.5-.8-1-1.5-1.1-.6-.2-1.2-.2-1.8-.2-.6,0-1.2,0-1.8.2-.6.2-1.1.6-1.4,1.2-.4,1.1-.2,2.4.6,3.4.8.8,1.6,1.5,2.6,2v-.2c-.2.4-.6.7-1.1.7-.5,0-.9,0-1.3-.1-.5-.1-.9-.3-1.4-.3-.5,0-1,0-1.4.3-.8.5-1.3,1.3-2.1,1.7-.3.2-.8.1-1.2.3-.4.2-.7.6-.8,1-.3.8-.5,1.6-.8,2.4-.2.4-.1.9,0,1.2.2.3.6.6,1,.7.4,0,.8,0,1.2,0,.4,0,.7-.2,1.1-.4.6-.4,1.3-.6,2-.7v-.2c-.8.3-1.6.7-2.3,1.1-.7.4-1.3,1-1.6,1.8-.3.7-.4,1.5-.2,2.2.2.7.7,1.2,1.4,1.4h0c.6.4,1.2.6,1.9.6h0c-.2,1.7-.8,3.5-1.6,5.2h0c-.9,0-1.8,0-2.7.3-.6.2-1.2.5-1.6.9-.3.3-.5.6-.6.9,0,.1,0,.2,0,.4.1-.5.4-.9.7-1.2.5-.4,1-.7,1.6-.9.9-.2,1.8-.3,2.7-.3h0c.9-1.7,1.4-3.5,1.7-5.3h0c0-.1,0-.1,0-.1-.7,0-1.3-.2-1.8-.5h0c-.6-.2-1.1-.7-1.3-1.3-.2-.7-.1-1.4.2-2.1.4-.7.9-1.3,1.6-1.7.7-.4,1.5-.8,2.3-1.1l.7-.3h-.7c-.7.2-1.4.4-2,.8-.3.2-.7.3-1,.4-.4,0-.7,0-1.1,0-.4,0-.7-.3-.9-.6-.2-.3-.2-.7,0-1,.2-.8.5-1.5.8-2.3,0-.4.3-.7.7-.9.4,0,.8-.2,1.3-.3.8-.4,1.3-1.2,2.1-1.7s1.7-.2,2.6.1c.5.2,1,.2,1.5.1.6,0,1-.4,1.2-.9h0c0-.1,0-.2,0-.2-1-.5-1.8-1.2-2.5-2-.7-.8-.9-2-.5-3,.2-.5.7-.8,1.2-1,.5-.2,1.1-.4,1.7-.4.6,0,1.2,0,1.8.2.6,0,1,.5,1.2,1v.2h.2c1.5-.4,2.9.5,3.3,2,0,0,0,0,0,.1v.2h.2l2.8-.3h.4l-.2-.3c-.5-.5-1-.9-1.6-1.3-.5-.4-1-.9-1.3-1.5-.2-.6-.2-1.3.2-1.8.2-.2.5-.4.8-.4.4,0,.8,0,1.1-.1.4-.2.6-.4.8-.3.3.1.6.3.9.5l1.8,1.2,3.7,2.4.5.4-.3-.6c-.4-.9-.7-1.7-1.1-2.6-.4-.8-.7-1.7-1-2.6,0-.4,0-.9,0-1.3.2-.4.6-.7,1-.7.9,0,1.7.7,1.9,1.6v.2h.2c.9-.3,1.9.3,2.1,1.3,0,0,0,.2,0,.3v.3h.3c.9-.6,1.9-.2,2.4.7.3.6.2,1.4-.2,1.9l-.2.3h.4c1,0,1.9.3,2.8.8l.3.2v-.4c.1-.8.9-1.4,1.7-1.3.3,0,.5.1.7.3l.3.3v-.5c0-.6.1-1.1.4-1.6.3-.4,1-.5,1.2-.2l.6.8-.2-1c-.1-.7.2-1.5.8-1.9.7-.4,1.5-.3,2.1.2h.2c0,.1.1,0,.1,0l1-1.2h-.2c.9,0,1.8.4,2.3,1.2.4.8-.2,2-1,1.9v.4c.1,0,.2,0,.2.2,0,.2,0,.3,0,.5,0,.4-.3.7-.5,1l-1.5,2.1.3.3c.7-.6,1.7-.7,2.5-.2h.2c0,.1.1,0,.1,0,.6-.6,1.5-.6,2.1,0,0,0,0,0,0,0l.2.3v-.3c.5-.5,1.3-.6,1.8-.2.2.1.3.4.4.6v1.1c0,0,.4-1.1.4-1.1,0-.3.6-.4,1-.3.5,0,.9.1,1.3.3.4.1.7.4.8.8.2.4,0,.8-.3,1l.2.4c.3-.2.8,0,1,.5.2.4,0,.9-.2,1.2-.5.8-1.6,1.3-2.1,2.3l-.5,1,.9-.7c.7-.5,1.7-.4,2.7-.3.9,0,1.9.2,2.7.7h.2c0,.1,0-.1,0-.1.1-.3.7-.4,1.1-.3.5.1,1,.2,1.5.4.9.4,1.8.9,2.5,1.6.4.3.7.7.9,1.1.2.4.1.9-.2,1.2-.4.3-.8.6-1.3.8l-1.3.8-1.8,1.1-.4.3h.5c2.1.8,3.9,2.1,5.2,3.8h0c.8.5,1.8.5,2.4,1,.3.3.4.6.4,1,0,.4-.2.7-.5.7h-.7c0,0,.6.4.6.4.3.3.5.7.5,1.2,0,.4-.3.8-.6,1h0c-.3.5-.8.8-1.3.9h0c-.4.5-.9.8-1.5.8h-.7c0,0,.5.4.5.4.9.7,1.6,1.6,2,2.6.4,1,.3,2.1-.3,2.9h0v.2c0,.4-.3.7-.6.9h-.2c0,.1,0,.3,0,.3.1.2.2.5.1.8v.2h.2c.9.4,1.6,1.1,2,1.9.4.8.4,1.8.1,2.6-.3.8-.9,1.5-1.7,2-.4.2-.8.2-1.2.1-.4,0-.7-.3-.7-.7v-.9l-.4.8c-.4.8-1.2,1.4-2.1,1.5h-.3l.2.3c.6,1.3,0,2.9-1.2,3.5,0,0-.1,0-.2,0h-.4c0,.1.3.4.3.4,1.1,1.1,1.1,2.9,0,4-.2.2-.5.4-.9.6h-.2c0,0,0,.3,0,.3.4,1.1-.2,2.3-1.3,2.7s-2.3-.2-2.7-1.3h0l-.2-.5-.2.5c-.3.9-.9,1.6-1.7,2.1-.7.4-1.6.2-2-.5,0,0,0,0,0,0l-.2-.6-.2.6c-.6,1.5-2.4,2.3-3.9,1.7-.2,0-.3-.1-.5-.2l-.3-.2v.4c0,1-.8,1.8-1.8,1.9-.9,0-1.7-.7-1.9-1.6v-.2h-5.5c-1.7,0-3.4-.2-5.1-.7-.9-.3-1.7-.7-2.5-1.2-.3-.3-.6-.5-1-.8-.4-.2-.9-.3-1.3-.1-.8.3-1.6.4-2.4.5-2.4.2-4.8-.6-6.5-2.2-.3-.3-.6-.6-.9-.8-.4-.2-.8-.3-1.2-.3-.8,0-1.5,0-2.3-.1-.7,0-1.5-.2-2.2-.5-.7-.2-1.4-.5-1.9-.9-.6-.4-.8-1.1-.8-1.8,0-.7.5-1.2,1.2-1.3h.2c0-.7,0-1.4-.3-1.9-.3-.5-.9-.9-1.5-.9-.6,0-1.2.4-1.3,1-.1.6.3,1.2.9,1.4v-.3c-.7.4-1.4.3-2-.1-.6-.4-.9-1-.9-1.7.2-1.4,1.4-2.4,2.7-2.4h.2v-.2c-.3-1-.3-2.1,0-3.2v-.6c.1,0-.2.5-.2.5-.8.9-2.1,1-3,.4h-.1c0,0,0,0,0,0-.5.8-1.2,1.4-2,1.7-.8.3-1.6.2-2.3-.2-.7-.4-1-1.2-.8-2,.2-.7.8-1.2,1.5-1.2h.2v-.2c-.6-1-.2-2.2.8-2.7.3-.1.6-.2.9-.2h.1c-.2-1.5.6-2.9,1.9-3.5h0c-.8.3-1.8,0-2.2-.8,0,0,0-.2-.1-.2h0c0-.1,0,0,0,0-.3.4-.8.7-1.3.7-.5,0-.9,0-1.3-.2-.7-.2-1.3-.6-1.8-1.2-.3-.3-.4-.7-.4-1.2-.2-.3-.1-.4-.1-.4Z"/>
    <path class="cls-11" d="M671.7,285.5c0-2.8.2-5,.1-5s-9.6-1.4-9.8-11c-.1-4.6.4-14.2,1-22.8.6-9.3,8.3-16.5,17.6-16.6h.9c10,.5,15.2,9.2,14.4,19.2l-1,36.4-5.7,13.9c-5.7,6.2-17.9-5.6-17.6-14h0Z"/>
    <path class="cls-13" d="M671.8,280.5c4.4,0,8.7-1.4,12.4-3.8,0,0-2.9,7.3-12.4,6.6v-2.8Z"/>
    <path class="cls-6" d="M665.4,255.2c0,.7.6,1.3,1.3,1.4.7,0,1.4-.5,1.4-1.2,0,0,0,0,0,0,0-.7-.6-1.3-1.3-1.4-.7,0-1.3.5-1.4,1.2,0,0,0,0,0,0Z"/>
    <path class="cls-6" d="M665,250.6c.2.2,1.2-.6,2.7-.6s2.6.7,2.7.5,0-.4-.6-.7c-.6-.4-1.4-.7-2.2-.6-.8,0-1.5.3-2.1.7-.4.3-.6.7-.5.7Z"/>
    <path class="cls-6" d="M678.5,255.9c0,.7.6,1.4,1.3,1.4.7,0,1.3-.5,1.4-1.2,0,0,0,0,0,0,0-.7-.6-1.3-1.3-1.4-.7,0-1.3.5-1.4,1.2,0,0,0,0,0,0Z"/>
    <path class="cls-6" d="M679.5,251.1c.2.2,1.2-.6,2.7-.6s2.6.7,2.7.5,0-.4-.6-.7c-.6-.4-1.4-.7-2.2-.6-.8,0-1.5.3-2.1.7-.4.4-.6.7-.5.8Z"/>
    <path class="cls-6" d="M674.3,262.4c-.8-.2-1.6-.4-2.4-.4-.4,0-.7-.1-.8-.4,0-.4,0-.8.2-1.1l1.1-2.9c1.5-4.1,2.6-7.5,2.4-7.5s-1.5,3.2-3,7.3c-.4,1-.7,2-1,2.9-.2.5-.3,1-.2,1.5.1.3.3.5.6.5.2,0,.4,0,.6,0,.8,0,1.6,0,2.4,0Z"/>
    <path class="cls-6" d="M679.1,246.1c.2.4,1.6.2,3.3.4s3.1.6,3.3.3c0-.2-.1-.6-.7-.9-1.5-.9-3.4-1.1-5.1-.5-.6.3-.9.6-.9.8Z"/>
    <path class="cls-6" d="M665.6,245.7c.3.3,1.3,0,2.5,0s2.2.2,2.5-.1c0-.2,0-.5-.5-.8-.6-.4-1.3-.6-2-.6-.7,0-1.4.2-2,.6-.5.3-.6.7-.5.8Z"/>
    <path class="cls-13" d="M672.9,266.2c.2.6.4,1.1.7,1.6.3.5.8.8,1.4.9.6,0,1.2-.3,1.6-.8.4-.5.5-1.1.5-1.8,0-.6-.2-1.3-.8-1.4-.2,0-.5,0-.7.1l-3,1"/>
    <path class="cls-6" d="M674,268.7c.5,0,1.1,0,1.6-.1.5-.2,1-.5,1.2-1,.3-.6.4-1.3.1-1.9,0-.2-.1-.3-.2-.5-.1-.1,0-.1-.2-.1l-.5.2-.5.2-1.7.6c-.5.2-1.1.3-1.6.4.5-.3,1-.6,1.5-.8.5-.2,1-.4,1.7-.7l.5-.2c.2,0,.3-.1.6-.2.1,0,.3,0,.4,0,.1,0,.2.2.3.3.1.2.2.4.3.6.3.8.2,1.7-.2,2.4-.4.6-.9,1-1.6,1.1-.4.1-.9.1-1.3,0-.3,0-.4-.2-.4-.2Z"/>
    <path class="cls-6" d="M660.5,238.7c0-.5.1-1,.2-1.4.3-.7.7-1.3,1.3-1.8,1.8-1.8,3.8-3.6,6.1-4.2,1.4-.4,2.9-.2,4.3-.6.9-.3,1.7-.6,2.5-.9,3.5-1.1,7.3-1.3,10.9-.6,2,.3,4,.9,5.8,1.9,2,1.3,3.8,2.9,5.2,4.8,2.5,2.8,4.4,5.9,5.8,9.4,1.1,2.8,1.4,5.9.8,8.9-.7,2.9-2.8,5.6-5.3,6l-.9-1.2-1.4-1.8c.2.7,0,.7-.6,1-.6.3-1.3,0-1.6-.5,0,0,0,0,0-.1-.5.6-1.5-.1-1.3-.9-.6.3-1.3-.6-1-1.3-.7.2-1-.9-1.3-1.6-.2-.4-.4-.8-.6-1.1-.6-1.3-.9-2.7-.8-4.1-.7-1.2-1-2.6-.9-4,0-.9,0-1.8,0-2.7-.2-.2-.3-.4-.4-.6,0,.6-.5,1.1-1.1,1.3-.5,0-1.1,0-1.6-.2l-1.5-.4-1,.2c.1.9,0,1.8-.5,2.5-.2.6-.5,1-1,1.4-.4.2-.8,0-1-.4,0-.1,0-.3,0-.5-.3.3-.9.2-1.1-.1,0,0,0-.1-.1-.2-.2-.5-.3-1.1-.2-1.6.2-1.4.7-2.7,1.6-3.7l-2.9,2.3c-.2.2-.4.3-.7.4,0,.4-.3.7-.7.7,0,0,0,0-.1,0-.4-.1-.8-.4-1-.8-.6-.8-1.2-2-.6-2.7-.3-.1-.4-.5-.3-.8,0,0,0,0,0-.1l-3.3,2.1c.3-.1.6.4.5.8-.1.4-.4.7-.7.9.2.5.3,1,.2,1.5.6-.5,1.4.5,1.1,1.3-.3.7-1,1.2-1.7,1.1-.6,0-1.2-.4-1.3-1-.7,0-1.3-.9-1-1.6-.5.3-.9-.6-.8-1.3,0-1.2.3-2.3.8-3.4,0,0-.2,0-.3,0,0,0,0,0,0,0,0,0,0,0,0-.1l-2,3.8c-.6,1.1-1,2.2-1.2,3.5,0,.5-.2,1.2-.6,1.2-.1,0-.2,0-.3-.1-1.2-.8-2.1-2.1-2.5-3.5-.2-.5-.3-1-.3-1.5.2-1.1.4-2.1.7-3.2Z"/>
    <path class="cls-5" d="M674.1,237.4c-.2-.2-.3-.5-.3-.8,0-.3,0-.6.3-.9.3-.3.8-.4,1.2-.2h.2c0,.1,0-.1,0-.1-.1-.5,0-1,.4-1.3.5-.3,1.1-.2,1.5.2l.2-.2s0,0,0-.1c0-.2,0-.4.1-.6.1-.2.3-.2.5-.3.2,0,.4,0,.6,0,.2.1.4.2.7.2.3,0,.4-.2.6-.3.1-.1.3-.2.5-.2.3-.1.7-.2,1-.1.5,0,.9.2,1.3.4.3.2.4.4.4.3,0-.2-.2-.3-.4-.4-.4-.3-.9-.5-1.4-.6-.3,0-.7,0-1,.1-.2,0-.4.1-.5.2-.2.1-.3.3-.5.3-.2,0-.4,0-.5-.2-.2,0-.5-.1-.7-.1-.3,0-.5.1-.7.4-.2.2-.3.5-.2.8,0,0,0,.2.1.2l.2-.2c-.5-.6-1.4-.6-1.9-.1-.4.4-.6.9-.4,1.5h.2c-.5-.3-1-.2-1.4.1-.3.3-.4.6-.3,1,0,.2.1.5.3.6,0,.1,0,.2,0,.2Z"/>
    <path class="cls-5" d="M667.4,238.5c-.2-.2-.4-.5-.4-.8,0-.3,0-.7.2-1,.2-.4.6-.6,1.1-.7h.2v-.2c-.5-.4-.6-1-.4-1.5,0-.3.3-.5.6-.6.3-.1.6,0,.8.2l.7.9-.5-1c-.2-.4-.2-.8,0-1.2.3-.7,1.2-.9,1.8-.6,0,0,0,0,0,0l.3.2v-.3c-.2-.5.3-1,.7-1,.5,0,1,.2,1.4.5l.2.2v-.3c-.1-.4,0-.7.3-.9.3-.2.6-.3.9-.3.6,0,1.1,0,1.7.2.5.2.9.4,1.4.6,0,0-.2-.2-.3-.2-.3-.2-.6-.4-1-.5-.6-.2-1.2-.3-1.8-.2-.4,0-.7.1-1,.4-.4.3-.6.7-.5,1.1h.2c-.4-.5-1-.6-1.5-.6-.3,0-.6.2-.8.4-.2.2-.3.6-.2.9l.2-.2c-.3-.2-.7-.2-1-.2-.5,0-1,.4-1.2.9-.2.4-.2.9,0,1.4h.2c-.3-.4-.6-.5-1-.4-.3.1-.6.4-.7.7-.2.6,0,1.2.4,1.7v-.2c-.4,0-.9.3-1.1.8-.2.3-.2.7-.1,1.1,0,.2.2.4.3.6,0,.1,0,.2,0,.2Z"/>
    <path class="cls-5" d="M653.1,238.5c0-.3.2-.5.4-.7.3-.2.6-.3.9-.2.4,0,.8.2,1.2.4h.1c0,0,0,0,0,0,0-.5.5-.9,1-1,.6,0,1.3.1,1.8.5l.8.4-.7-.6c-.3-.4-.3-1,.1-1.3,0,0,0,0,0,0,.5-.3,1.1-.4,1.7-.2h.6c0,0-.4-.2-.4-.2-.4-.4-.4-1,0-1.4,0,0,.1-.1.2-.2.6-.3,1.2-.1,1.7.3l.5.5-.3-.6c-.4-.8-.3-1.6.2-2.3.4-.5,1-.8,1.7-.9.4,0,.9,0,1.2.3.3.1.4.2.4.2s0,0,0-.1c0,0-.2-.2-.3-.2-.4-.2-.8-.4-1.3-.4-.7,0-1.4.3-1.8.9-.6.7-.7,1.7-.3,2.6h.2c-.5-.7-1.3-.8-2-.5-.3.2-.6.5-.7.9,0,.4,0,.8.4,1.1v-.2c.1,0,0,0,0,0-.6-.2-1.3,0-1.9.3-.3.2-.4.5-.5.8,0,.3,0,.7.3.9v-.2c-.5-.3-1.2-.5-1.9-.4-.6,0-1.1.6-1.2,1.3h.1c-.4-.3-.8-.4-1.3-.5-.4,0-.7,0-1,.3-.2.1-.3.3-.3.6,0,.1,0,.2,0,.2Z"/>
    <path class="cls-5" d="M661.7,225.7s0,0,.3.1c.3,0,.7.1,1,.1.5,0,1,.1,1.5.4.3.1.4.4.5.7,0,.3,0,.6-.3.8h.2c0-.2.5-.4.9-.6.4-.2.8-.4,1.3-.4.4,0,.9,0,1.2.3.3.2.5.6.5,1v.3c0,0,.2-.2.2-.2.5-.4,1.1-.6,1.8-.6.5,0,1,.1,1.5.3.4.2.8.5,1.1.8,0,0,0-.1-.2-.3-.2-.3-.5-.5-.8-.7-.5-.3-1-.4-1.5-.4-.7,0-1.4.2-2,.6h.2c0-.4-.1-.9-.5-1.2-.4-.3-.9-.4-1.4-.4-.5,0-.9.2-1.4.5-.2,0-.4.2-.6.3-.2.1-.4.3-.5.6v.2c0,0,.2-.1.2-.1.4-.2.6-.6.5-1,0-.4-.3-.7-.6-.8-.5-.2-1-.4-1.6-.3-.3,0-.7,0-1,0,0,0-.2,0-.3,0Z"/>
    <path class="cls-5" d="M675.3,221.7c.2,0,.5,0,.7.2.2.1.5.3.6.5.2.3.3.6.3.9h0c0,.1.1.1.1.1.4,0,.8.2.9.6.1.5,0,1,0,1.5v.5c-.1,0,.2-.4.2-.4h0c.2-.3.6-.4.9-.4.3,0,.6.2.8.4.4.5.5,1,.4,1.6,0,.4-.2.8-.4,1.1,0,.1-.1.3-.2.4.1,0,.2-.2.3-.4.2-.3.4-.7.5-1.1.1-.6,0-1.3-.4-1.8-.5-.6-1.4-.8-2.1-.2,0,0,0,0,0,0h0c0,0,.2.2.2.2.2-.5.2-1.1,0-1.6-.2-.5-.7-.8-1.2-.8h.1c0-.3-.2-.6-.4-.9-.2-.2-.4-.4-.7-.5-.2,0-.4,0-.5,0-.1,0-.2,0-.2,0Z"/>
    <path class="cls-5" d="M686.2,230.8c.1,0,.2,0,.4,0,.3-.1.6-.3.8-.5.4-.3.6-.8.7-1.3,0-.3,0-.6.2-.7s.5-.3.7-.6c.4-.6.3-1.4-.2-1.8v.2c.5-.4,1-.9,1.3-1.5.1-.2.2-.5.2-.7,0,0-.1.2-.4.6-.3.5-.8,1-1.3,1.4h-.1c0,.1.1.2.1.2.4.4.5,1,.1,1.5-.2.2-.5.3-.7.5-.2.2-.3.5-.3.9,0,.4-.3.9-.6,1.2-.3.3-.7.6-1.1.7Z"/>
    <path class="cls-5" d="M689.5,233.4h.2c.2,0,.4,0,.6,0,.8,0,1.5-.4,2.1-.9h-.2c.6.8,1.6,1.2,2.5.9.4,0,.7-.3.9-.6,0-.1.1-.2.1-.4,0,0,.1-.2.2-.2.2-.1.4-.2.6-.2.2,0,.5,0,.7-.2.2-.1.4-.3.4-.6h-.2c.5.4,1.1.4,1.6.3.4,0,.8-.3,1.1-.6.2-.2.4-.4.5-.6,0-.2,0-.3,0-.3-.2.3-.4.6-.7.8-.3.3-.7.4-1.1.5-.5.1-1,0-1.5-.2h-.2c0,0,0,.1,0,.1,0,.2-.1.3-.3.4-.2,0-.4.2-.6.2-.3,0-.5.1-.8.3-.1,0-.2.2-.3.3,0,.1,0,.2-.1.4-.2.2-.4.4-.7.5-.8.2-1.7,0-2.2-.8h0c0-.1,0,0,0,0-.5.5-1.2.9-1.9,1-.5,0-.9,0-.9,0Z"/>
    <path class="cls-5" d="M709.8,243.4h0c0-.2,0-.3,0-.4,0-.4,0-.7,0-1.1-.1-.5-.3-1.1-.6-1.6-.1-.3-.3-.6-.5-.9-.1-.2-.3-.3-.4-.4-.2-.1-.4-.1-.7,0h.2c.2-.8-.5-1.8-1.4-1.9-.5,0-.9,0-1.3.3h.2c0-.3-.1-.6-.4-.9-.3-.3-.7-.4-1.1-.2-.2,0-.4.2-.6.4h.2c0-.1,0-.4-.2-.5-.2-.2-.4-.3-.6-.3-.4,0-.8,0-1.2.2h.2c-.2-.4-.6-.7-1.1-.8-.4-.1-.9-.2-1.3-.1-.7.2-1.4.4-2.1.8h.1c0,0,0-.2,0-.3,0-.1-.2-.2-.3-.3-.2-.1-.5-.2-.7-.2-.4,0-.7.1-1.1.2-.2,0-.4.2-.6.3,0,0-.1,0-.2.1.3-.1.6-.2.9-.4.3-.1.7-.2,1.1-.2.2,0,.4,0,.6.2.2.1.3.3.2.5l-.2.3h.3c.6-.5,1.3-.8,2-.9.4,0,.8,0,1.2.1.4.1.7.4.9.8h0c0,.1.1.1.1.1.3-.1.7-.2,1-.2.3,0,.6.3.6.6v.5c0,0,.2-.4.2-.4.1-.1.3-.2.4-.3.3,0,.6,0,.9.2.2.2.3.5.3.8v.3l.2-.2c.5-.4,1.2-.4,1.8,0,.5.3.7.9.6,1.5v.2h.2c.3-.2.6,0,.8.3.2.3.4.6.5.9.3.5.5,1,.6,1.5.1.4.2.9.1,1.3Z"/>
    <path class="cls-5" d="M707.6,251.1v-.2c.3-.2.4-.3.5-.5.2-.3.3-.6.3-1,0-.2,0-.4-.2-.6-.1-.2-.3-.4-.5-.5h0c.4-.4.3-1.2-.2-1.6-.3-.2-.6-.3-.9-.2v.2c.4-.3.4-.8.2-1.2-.3-.4-.7-.6-1.1-.6-.2,0-.4,0-.6,0-.2,0-.3-.2-.3-.4,0-.2-.2-.4-.3-.6-.1-.2-.4-.3-.6-.4-.5-.1-.9-.2-1.4-.2-.4,0-.8-.1-1.1-.4-.1-.1-.2-.4-.3-.5-.1-.2-.3-.4-.5-.5-.4-.2-.9-.2-1.2,0v.2c.4-.4.4-.9.1-1.2-.2-.3-.6-.5-1-.6-.6,0-1.2,0-1.8,0-.4,0-.7.2-1.1.3-.1,0-.2.1-.3.2.5-.2,1-.3,1.5-.4.6,0,1.1,0,1.7,0,.3,0,.6.2.8.5.2.3.2.7,0,1l-.3.4.5-.2c.3-.1.7-.1,1,0,.2,0,.3.2.4.4.1.2.2.4.3.6.2.2.4.3.6.4.2,0,.5.1.7.1.5,0,.9,0,1.3.1.2,0,.3.2.5.3.1.2.2.4.3.6,0,.2.3.4.5.5.2,0,.4,0,.6,0,.4,0,.7.2.9.5.2.3.2.6,0,.9l-.2.2h.3c.5-.2,1.1,0,1.2.6.1.4,0,.7-.2,1h0c0,.1.1.1.1.1.4.2.6.6.6,1,0,.3,0,.6-.2.9-.2.4-.4.6-.3.7Z"/>
    <path class="cls-5" d="M708.4,265.5s0,0,.3,0c.2,0,.5-.2.7-.4.3-.3.5-.7.5-1.1,0-.5,0-1.1-.4-1.5h0c.3-.2.6-.6.8-1.1,0-.3,0-.6,0-.9,0-.3-.3-.6-.6-.7v.3c.5-.3.8-.8.8-1.3,0-.3,0-.6-.2-.9-.1-.3-.4-.5-.6-.6-.2,0-.4-.3-.3-.5,0-.3,0-.5-.1-.8-.2-.5-.5-.9-.9-1.1l-.9-.8c-.5-.4-1-.7-1.6-.9-.2,0-.3,0-.5,0h-.2s.2,0,.6.2c.5.2,1.1.6,1.5,1l.9.8c.4.3.6.6.8,1.1,0,.2.1.5,0,.7,0,.2,0,.3,0,.5,0,.1.2.2.3.3.5.2.8.7.7,1.3,0,.5-.2.9-.6,1.1h-.2c0,.1.2.2.2.2.4.3.6.8.4,1.3-.2.4-.4.9-.7,1.2h0c0,0,0,.1,0,.1.3.4.5.9.4,1.4,0,.4-.2.7-.5,1-.2.2-.5.4-.8.5Z"/>
    <path class="cls-5" d="M686.1,242c.3,0,.6-.1.8-.2.3-.1.6-.3.8-.6.3-.3.4-.7.4-1.1,0-.1,0-.2,0-.3v.2c.3-.2.6-.5.7-.8,0-.3,0-.6,0-.9-.3-.4-.6-.5-.6-.5s.3.2.4.6c0,.2,0,.5,0,.7,0,.3-.3.5-.6.6h-.1,0c0,.2,0,.3,0,.4,0,.3,0,.7-.3.9-.2.2-.4.4-.7.5-.4.3-.7.5-.7.5Z"/>
    <path class="cls-5" d="M680.2,238.6c-.1-.3-.2-.7-.1-1,0-.4.3-.7.7-.8.4-.2.9,0,1.3.3l.2.2v-.2c.1-.3.3-.5.4-.8.2-.2.4-.4.7-.4.4,0,.9.4.7.8h.2c.1-.4.4-.9.8-1.2.3-.2.8-.4,1.2-.3.4,0,.8.1,1.1.3,0,0-.2-.2-.2-.2-.3-.1-.5-.2-.8-.3-.5,0-.9,0-1.3.3-.5.3-.9.8-1,1.4h.2c0-.2,0-.5-.2-.7-.2-.2-.5-.3-.8-.3-.4,0-.7.2-.9.5-.2.3-.3.5-.4.9h.2c-.4-.5-1-.6-1.5-.4-.4.2-.7.5-.8.9,0,.3,0,.5,0,.8,0,0,.1.2.2.2Z"/>
    <path class="cls-11" d="M695.2,256.3c.2,0,6.6-2,6.4,4.5s-6.7,5.1-6.7,4.9.3-9.4.3-9.4Z"/>
    <path class="cls-13" d="M697,263.3s.1,0,.3.2c.3.1.6.1.8,0,.9-.5,1.4-1.5,1.4-2.5,0-.6,0-1.1-.3-1.6-.1-.4-.4-.8-.8-.9-.3,0-.6,0-.7.3,0,.2,0,.3,0,.3s-.1-.1,0-.4c0-.2.1-.3.3-.4.2-.1.4-.2.6-.2.5.1,1,.5,1.2,1,.3.6.4,1.2.4,1.9,0,1.2-.6,2.3-1.7,2.8-.3,0-.7,0-1-.2-.3-.2-.3-.3-.3-.3Z"/>
    <path class="cls-12" d="M631.8,366.7l-2.5-14.1h.2l36.1-11.1s8.9-35.8,10.7-40.1c2.2-5.3,10-11.3,13-10.9,5.1.7,15.6-1.4,9.3,24.8-2.4,10.1-8.7,27.7-12.8,39.1-2.1,5.8-7.5,9.7-13.6,10.1l-40.4,2.2Z"/>
    <path class="cls-12" d="M696,283.3l-25.1,4.6c-.6.7-10.6,17.2-12.8,22s-9.7,30.9-9.7,30.9l-16.8,15.9,8.1,12.2c2.6,4,6.3,7.2,10.6,9.3,7.7,3.7,17.5,8.2,20.9,8.2,2.2,0,4.3-.5,6.3-1.3h0c.3-.5,24.7-52.6,26.2-68.5,1-11.7-1.8-23.3-7.9-33.3Z"/>
    <path class="cls-8" d="M578.4,305.5c1.9,8.4,12,43.4,12,43.4l39.1,13.6.7-3.1-37.1-13.8-11.3-41c-.3-.9-1.2-1.5-2.1-1.3h0c-1,.2-1.6,1.2-1.4,2.1,0,0,0,0,0,0Z"/>
    <path class="cls-6" d="M578.4,305.5c0,0,0-.1,0-.2,0-.2,0-.4,0-.7,0-.4.3-.7.6-.9.8-.7,2-.6,2.6.2.1.2.2.3.3.5.2.7.4,1.4.6,2.2.4,1.6.9,3.4,1.5,5.4,2.3,8.1,5.5,19.7,9.3,33.5h-.1c0-.1,37.1,13.6,37.1,13.6h.2c0,0,0,.3,0,.3,0,.3-.2.7-.2,1-.2.7-.3,1.4-.5,2.1v.3c0,0-.3-.1-.3-.1l-39.1-13.6h-.1c-3.7-13.1-6.7-23.9-8.8-31.6-1-3.8-1.8-6.8-2.3-8.9-.2-1-.4-1.8-.5-2.4v-.6c-.1-.1-.1-.2-.1-.2,0,0,0,.1,0,.2,0,.1,0,.4.2.6.1.5.3,1.3.6,2.3.6,2.1,1.4,5,2.4,8.8,2.1,7.6,5.2,18.4,8.9,31.4h-.1c0-.1,39.2,13.4,39.2,13.4l-.3.2c.2-.7.3-1.4.5-2.1,0-.3.2-.7.2-1l.2.3-37.1-13.8h-.1c-3.8-13.9-6.9-25.5-9.1-33.7l-1.5-5.4c-.2-.8-.4-1.5-.6-2.2-.2-.6-.7-1-1.3-1.1-.5,0-1,0-1.4.4-.3.2-.5.5-.6.9,0,.3-.1.5-.1.8Z"/>
    <path class="cls-11" d="M629.7,354.3l-9.3-7.1-14.8,3.6s.2,1.3,2.1,1.9l4-.6-7.4,5.1c.4,1.4,1.5,2.5,2.8,2.9,1.5.5,2.8,1.4,3.7,2.6l2.8,2.9c1,1,2.4,1.6,3.8,1.5l7.3-.4,6.9-.7-2-11.6h0Z"/>
    <path class="cls-4" d="M698.6,315.2c-2.4,10.1-8.7,27.7-12.8,39.1-2.1,5.8-7.5,9.7-13.6,10.1l-40.4,2.3-2.5-14.1h.2l36.1-11.1s8.9-35.8,10.7-40.1"/>
    <path class="cls-6" d="M676.2,301.3s0,.2-.2.7-.4,1.2-.6,2.1c-.5,1.9-1.3,4.6-2.2,8.1-1.8,7-4.4,17.1-7.5,29.3h0c0,.1,0,.1,0,.1l-36.1,11.1h-.1l.2-.2c.8,4.5,1.6,9.3,2.5,14.1l-.2-.2,2.9-.2,37.6-2.1c5.5-.3,10.4-3.6,12.8-8.6.5-1.1.9-2.4,1.4-3.5s.8-2.3,1.2-3.4c.8-2.2,1.6-4.4,2.3-6.5,2.9-8.2,5.1-15,6.5-19.6.7-2.3,1.2-4.2,1.6-5.4.2-.6.3-1.1.4-1.4s.1-.5.1-.5c0,.2,0,.3,0,.5,0,.3-.2.8-.3,1.4-.3,1.2-.8,3.1-1.5,5.4-1.4,4.7-3.5,11.4-6.4,19.7-.7,2.1-1.5,4.2-2.3,6.5l-1.2,3.4c-.4,1.2-.8,2.4-1.4,3.5-1.1,2.4-2.9,4.5-5.1,6.1-2.4,1.7-5.1,2.6-8,2.8l-37.6,2.1-2.9.2h-.2v-.2c-.8-4.8-1.7-9.6-2.4-14.1v-.2h.4l36.1-11.1h-.1c3.1-12.1,5.7-22.1,7.6-29.1,1-3.5,1.7-6.2,2.3-8,.3-.9.5-1.6.7-2.1s.2-.8.2-.8Z"/>
    <path class="cls-6" d="M697.9,300.5c-.4-1.2-1-2.2-1.8-3.1-3.3-3.3-8.3-4.2-12.5-2.4-1.2.5-2.4,1.2-3.4,2-.9.8-1.8,1.7-2.6,2.6.1-.3.3-.6.5-.8.5-.7,1.2-1.4,1.8-2,2.3-2,5.2-3,8.3-3.1,3,.1,5.9,1.4,8.1,3.5.6.7,1.1,1.4,1.4,2.3,0,.2.1.5.2.7,0,0,0,.1,0,.2Z"/>
    <path class="cls-5" d="M616.7,367.1c-.2,0-.4,0-.6,0l-1.7.2-6.3.8-22,3.1h-.1c0,.1-6.4,18.2-6.4,18.2-4.6,13-8.7,24.8-11.7,33.4-1.5,4.2-2.7,7.7-3.5,10.1-.4,1.2-.7,2.1-.9,2.8,0,.3-.2.5-.2.7,0,0,0,.2,0,.2,0,0,0,0,.1-.2s.2-.4.3-.7c.2-.7.6-1.6,1-2.7l3.6-10c3-8.5,7.2-20.3,11.8-33.3,2.3-6.4,4.4-12.5,6.4-18.1h-.2c0,.1,21.9-3.1,21.9-3.1l6.3-1,1.7-.3h.6Z"/>
    <path class="cls-8" d="M682.8,401h4c2.1,0,3.9-1.6,4.1-3.6.8-6.5,2.3-24.5,2.4-24.7l-2.8-.2c0,.2-1.6,18.2-2.3,24.6,0,.7-.6,1.1-1.3,1.1h-4v2.8Z"/>
    <path class="cls-6" d="M682.8,401c0,0,0-.1,0-.2v-2.7h0c0,0,0,0,0,0h3.5c.2,0,.5,0,.7,0,.5-.1.8-.5.9-1,0-.2,0-.5,0-.8,0-.5,0-1.1.2-1.7.1-1.2.2-2.4.3-3.7.5-5.3,1.1-11.6,1.7-18.5v-.2h.2l2.1.2h.7c0,0,.2,0,.2,0v.2c-.9,9.6-1.8,18.2-2.4,24.5-.1,1.5-1,2.8-2.3,3.4-.5.3-1.1.4-1.7.4h-4,2.5c1,0,2.1,0,3.1-.5,1.2-.6,2.1-1.9,2.2-3.3.6-6.3,1.4-14.9,2.3-24.5l.2.2h-.7c0,0-2.1-.2-2.1-.2l.2-.2c-.7,6.9-1.3,13.2-1.8,18.5-.1,1.3-.2,2.6-.4,3.7,0,.6-.1,1.1-.2,1.7,0,.3,0,.5,0,.8-.1.6-.5,1-1.1,1.1-.2,0-.5,0-.7,0h-3.6,0v2.6s0,0,0,0Z"/>
    <polygon class="cls-5" points="619.9 401.8 610.3 473 614.1 472.9 628.4 404.5 619.9 401.8"/>
    <path class="cls-6" d="M619.9,401.8l.5.2,1.6.5,6.3,1.9h0c-2.5,12.4-7.8,37.7-13.8,67l-.3,1.6h0c0,.1-4.1.1-4.1.1v-.2c2.7-19.9,5.2-37.7,6.9-50.6.9-6.4,1.6-11.5,2.1-15.1.2-1.8.4-3.1.6-4.1,0-.5.1-.8.2-1v-.4c0,0,0,.1,0,.4s0,.6-.1,1.1c-.1,1-.3,2.3-.5,4.1-.5,3.6-1.2,8.8-2,15.1l-6.8,50.5-.2-.2h3.8-.2c.1-.4.2-.9.3-1.4,6.1-29.2,11.5-54.6,14-66.9h0c0,0-6.2-1.9-6.2-1.9l-1.6-.5-.5-.2Z"/>
    <path class="cls-5" d="M619.5,404.5h63.5c2.4,0,4.3-1.9,4.3-4.3h0c0-2.4-1.9-4.3-4.3-4.3h-63.5c-2.4,0-4.3,1.9-4.3,4.3h0c0,2.4,1.9,4.3,4.3,4.3h0Z"/>
    <path class="cls-5" d="M696.5,374.8l8.7-67.9c.3-2.3-1.4-4.5-3.7-4.8,0,0,0,0,0,0h0c-2.3-.3-4.5,1.4-4.8,3.7,0,0,0,0,0,0l-8.7,67.9c-.3,2.3,1.4,4.5,3.7,4.8h0c2.3.3,4.5-1.4,4.8-3.7Z"/>
    <polygon class="cls-5" points="682.2 401.8 691.8 473 688.1 472.9 673.8 404.5 682.2 401.8"/>
    <path class="cls-6" d="M619,404.5c0,0,14.5-.2,32.4-.2s32.4,0,32.4.2-14.5.2-32.4.2-32.4,0-32.4-.2Z"/>
  </g>
  <g id="freepik--character-3--inject-97">
    <path class="cls-5" d="M476.1,411.7l10.7,26.1-32.4,13.5c-1.1-3.2,13.1-16.4,13.1-16.4l-7.5-16.4,16.1-6.8Z"/>
    <path class="cls-14" d="M476.9,429.3c.7,0,1.4.4,1.5,1.1.1.7-.4,1.4-1.1,1.5-.8,0-1.5-.5-1.6-1.2,0-.8.6-1.4,1.3-1.5"/>
    <path class="cls-6" d="M486.8,437.8l-1.1-2.8-30.7,14.1s-1.2,1.2-.6,2.2l32.4-13.5Z"/>
    <path class="cls-6" d="M466.9,434.9c0,.2.9-.1,1.9,0s1.7.7,1.8.5-.5-.9-1.7-1.1-2.1.4-2,.5Z"/>
    <path class="cls-6" d="M464.1,437.8c0,.2.8.1,1.6.6s1.3,1.1,1.4,1-.1-1-1.1-1.5-2-.2-1.9,0Z"/>
    <path class="cls-6" d="M463.8,442.6c.2,0,0-.9-.7-1.6s-1.6-.7-1.7-.6.6.4,1.3,1,1,1.2,1.1,1.2Z"/>
    <path class="cls-6" d="M465.6,431c.1.1.8-.4,1.7-.7s1.7-.3,1.7-.5-.9-.5-2,0-1.5,1.2-1.4,1.3Z"/>
    <path class="cls-6" d="M461.6,428.1l-26.7-62.6s.7-10.6,2.7-13.9,61.6-21.9,61.6-21.9c0,0,15.2-3.4,25.2.4s18.6,17.1,15.8,23.5v.2c-3.3,7.2-10.5,11.7-18.4,11.5l-21.3-.4-35.3,9.5,17.6,45.4s-20.5,8.5-21.2,8.4Z"/>
    <path class="cls-5" d="M455.4,389.1l-1.8,28.1-35-2c.4-3.3,18.9-9,18.9-9l.4-18.1,17.5.9Z"/>
    <path class="cls-14" d="M448.5,405.3c.7.3,1.1,1,.9,1.7-.2.7-1,1.1-1.7.9-.7-.3-1.1-1-.9-1.8.3-.7,1.1-1,1.8-.7"/>
    <path class="cls-6" d="M453.7,417.3l.2-3-33.8-.6s-1.6.6-1.5,1.7l35,1.9Z"/>
    <path class="cls-6" d="M437,406c0,.2.8.3,1.6.9s1.2,1.4,1.4,1.3,0-1.1-1-1.8-2-.6-2-.4Z"/>
    <path class="cls-6" d="M433.2,407.3c0,.2.7.5,1.2,1.2s.7,1.5.8,1.5.3-1-.4-1.9-1.7-1.1-1.7-.9Z"/>
    <path class="cls-6" d="M430.9,411.6c.2,0,.4-.8,0-1.8s-1.2-1.4-1.2-1.2.4.7.7,1.5.3,1.5.5,1.5Z"/>
    <path class="cls-6" d="M437.5,401.9c0,.2.9,0,1.8,0s1.7.5,1.8.3-.6-.8-1.7-.9-2,.4-1.9.5Z"/>
    <path class="cls-6" d="M448.1,322.9s-10-1-11.3,9.9-3.2,61.7-3.2,61.7l23.4,2.3,4.5-51.9,37.7-15.3s-44.4-8-51.1-6.8Z"/>
    <path class="cls-6" d="M489.8,308.9s-6.4,17-5.2,18.9,16.7,10,16.7,10l39,15.7c2.8-4.9,4.3-10.5,4.3-16.2.2-9.8-13.2-27.8-13.2-27.8l-41.5-.7Z"/>
    <path class="cls-5" d="M501.1,328.8h-.2c0,0-.6.3-.6.3l-2.2.9-8.2,3.4-28.4,11.7v-.2c-.3,5.1-.8,10.7-1.3,16.4-1.2,13.4-2.3,25.8-3.1,35.5v.2h-.2l-17.1-1.8-4.7-.5h-1.2c0-.1-.4-.2-.4-.2h1.6c0,.1,4.7.5,4.7.5l17.1,1.6h-.2c.8-9.6,1.9-22,3-35.4.5-5.7,1-11.3,1.4-16.4h0c0-.1.1-.1.1-.1l28.4-11.5,8.3-3.3,2.2-.9.6-.2c.1,0,.2-.1.2-.1Z"/>
    <path class="cls-5" d="M532.3,331c-.4,0-.7-.2-1.1-.3l-2.9-1c-3.2-1.1-6.5-2-9.8-2.7-3.4-.6-6.8-.6-10.1,0-1.4.3-2.7.7-4.1,1.1.3-.2.6-.4,1-.5,1-.4,2-.7,3-.9,3.4-.7,6.9-.7,10.3-.1,3.4.6,6.7,1.6,9.9,2.8,1.2.5,2.2.9,2.9,1.1.4.1.7.3,1,.4Z"/>
    <path class="cls-5" d="M526.9,321.9c-1.1,0-2.3-.1-3.4,0-1.1,0-2.3.2-3.7.3s-2.9.3-4.5.6c-2.7.4-5.4,1.3-7.7,2.7-.9.6-1.9,1.3-2.7,2.1.2-.3.3-.5.6-.7.6-.6,1.2-1.2,2-1.6,2.4-1.5,5-2.5,7.8-2.9,1.6-.3,3.2-.4,4.6-.6s2.7-.2,3.8-.2c.8,0,1.7,0,2.5.1.3,0,.6.1.9.2Z"/>
    <path class="cls-9" d="M452.4,304.5l19.4-12.5,5.1-31.5,15.6,6.5s-5.4,33.4-7.7,36.6-28.5,11.2-28.5,11.2l-3.9-10.4Z"/>
    <path class="cls-9" d="M459.8,313.6s-7.1,2.5-8.8,3c-2.3.3-4.5.4-6.8.3,0,0-7.5,3.4-8,3s-1.1-.7-.8-1.2,6-3.9,6-3.9l-4.1.9s-5.5,3-6,3-1.3-.7-1.1-1.4l.2-.7c-.4-.6-.3-1.3.1-1.8l.5-.4-.3-.5c-.3-.8-.1-1.6.4-2.3,1-1.1,3-3.5,3-3.5l7.3-3,15.1-1"/>
    <path class="cls-1" d="M458,311.1c-.2.3-.4.7-.7,1-.7.8-1.7,1.3-2.8,1.6-1.6.3-3.2.2-4.8-.2-1.9-.5-4-.7-6-.5-.5,0-1.1.3-1.5.3-.4,0-.8-.2-.9-.6,0-.3.5-.6.9-.8l1.3-.6,4.3-2.3,2.9-1.6c.4-.2.7-.4,1-.6-.4.1-.8.3-1.1.5l-3,1.4-4.4,2.2-1.3.6c-.2.1-.5.2-.7.4-.3.2-.5.5-.5.8,0,.7.7,1.2,1.3,1.1.5,0,1.1-.2,1.6-.3,2-.2,4,0,5.9.5,1.6.4,3.3.4,4.9.1,1.1-.3,2.1-.9,2.8-1.8.2-.2.4-.5.5-.8,0,0,.1-.2.1-.3Z"/>
    <path class="cls-1" d="M443.2,309.2c-2.1.5-4.3.9-6.4,1.2-.4,0-.9,0-1.3.1h-.1c-1.1,1.4-2.4,2.6-3.9,3.6.5-.1,1-.3,1.4-.6,1.1-.7,2.1-1.5,2.8-2.6h-.2c.4,0,.9,0,1.3,0,1.6-.2,3.1-.5,4.6-.9.6-.2,1.2-.4,1.7-.7Z"/>
    <path class="cls-1" d="M436.8,313.3c0-.1-1.4.9-3.2,1.7s-3.4,1.3-3.4,1.4c1.3,0,2.5-.4,3.6-1,1.2-.5,2.2-1.2,3-2.2Z"/>
    <path class="cls-12" d="M537.8,252.6s-5.2-13.4-13.4-14.3l-27.2,1.6-10.9,3.7s-6,9.4-4.8,25.7c.5,6.1,3.1,23,3.4,26.7.3,3.4.7,12.9,4.9,13l41.5.7s9.4-2.4,9.9-8.1-3.4-48.9-3.4-48.9Z"/>
    <path class="cls-6" d="M517.4,283.3c-.2.2-.4.4-.7.6-.7.5-1.4.9-2.2,1.2-1.1.5-2.3.8-3.6,1-1.5.2-3.1.1-4.5-.3-2.7-.7-5.1-2.2-7-4.2-.6-.6-1.1-1.2-1.6-1.9-.2-.2-.4-.5-.5-.8,0,0,.8,1,2.3,2.5,1.9,1.9,4.3,3.3,6.9,4,2.6.6,5.4.4,7.9-.6,1.9-.8,3-1.6,3-1.5Z"/>
    <g class="cls-16">
      <path class="cls-10" d="M498,279.9c.2,3.2,1.7,6.1,4.1,8.2,2.4,2.1,5.7,2.8,8.8,2.1,3.1-.8,5.5-3.3,6.2-6.5-2.1,1-4.4,1.8-6.7,2.2-5.1.6-10.1-1.8-12.7-6.2l.3.4"/>
    </g>
    <path class="cls-12" d="M545.6,271.2l-21.1,9.5s-8.2-19-8.9-21.6-2.9-6.7-.5-12.1,8.4-8.2,12.4-6.8c9.2,3.4,18.1,31,18.1,31Z"/>
    <path class="cls-9" d="M526.6,279.4c3.8,6.6,6.5,10.4,6.5,10.4l-35.9,21.1,4,9.7,43.4-17.1c2.9-1.1,5.2-3.5,6.1-6.6.4-1.4.4-3,0-4.4l-7-20.4-17.2,7.3Z"/>
    <path class="cls-1" d="M541.8,293.2c-1.3-.9-2.8-1.6-4.2-2.3-1.5-.5-3.1-.9-4.7-1.2,1.6-.2,3.3.1,4.8.8,1.6.5,3,1.5,4.1,2.7Z"/>
    <path class="cls-6" d="M545.6,271.2c-.1,0-.3,0-.4.1l-1.2.5-4.3,1.8-14,6.1-1.7.8h.3c-2.3-4.9-4.4-9.4-5.8-12.6-.7-1.6-1.3-2.9-1.7-3.8l-.5-1c0-.1-.1-.2-.2-.4,0,.1,0,.3.1.4,0,.2.2.6.4,1.1.3.9.9,2.2,1.6,3.9,1.4,3.3,3.4,7.8,5.7,12.8v.2c0,0,.3,0,.3,0l1.7-.8,14-6.2,4.2-1.9,1.1-.5c.1,0,.2-.2.3-.3Z"/>
    <path class="cls-9" d="M469.6,316.9l8.9-4.1,17.3-1.1,1.4-1,4,9.7s-4.6,2.1-7,2.2l-14.5-.7-7.6.7-2.6-5.8Z"/>
    <path class="cls-8" d="M420.3,282l49.9,1.2c1.6,0,3.1.8,3.4,2.4l4.9,36.4,25.7.4c.8,0,1.5.7,1.5,1.5s-.7,1.5-1.5,1.5l-25.2-.4h-4.8c0-.1-52-1-52-1l-5-38.5c-.2-1.8,1-3.4,2.8-3.7.1,0,.3,0,.4,0Z"/>
    <path class="cls-6" d="M420.3,282c-.3,0-.5,0-.8,0-1.4.3-2.4,1.4-2.6,2.8,0,.7,0,1.4.1,2,.2,1.5.4,3.2.6,5.1,1,7.6,2.4,18.6,4.1,32.2h0c0,.1.2.1.2.1l79.6,1.3h2.1c.4,0,.8,0,1.1-.2.4-.2.6-.5.8-.9.3-.8,0-1.7-.7-2.1-.3-.2-.7-.3-1.1-.2h-9.4c0-.1-16-.4-16-.4l.2.2c-1.8-13-3.4-25.2-4.8-36.1,0-.7-.4-1.4-.9-1.9-.5-.5-1.2-.8-1.9-.9-.7,0-1.3-.1-2-.1h-2l-7.5-.2-13.3-.3-19-.4h-5.1c0-.1-1.8-.1-1.8-.1h1.8l5.1.2,19,.5,13.3.4,7.5.2h2c.7,0,1.3,0,2,.2.6,0,1.2.4,1.7.8.5.4.8,1.1.8,1.7,1.4,10.9,3.1,23.1,4.8,36.1v.2h.2l16,.3h8.3c0,.1,1.1.1,1.1.1.3,0,.6,0,.9.2.6.4.9,1.1.5,1.8-.1.2-.3.4-.5.5-.3.1-.6.2-.9.1h-2.1l-79.6-1.2h.1c-1.8-13.4-3.2-24.4-4.2-32-.2-1.9-.5-3.6-.7-5.1-.1-.7-.2-1.3-.2-2,0-.6.3-1.1.6-1.5.5-.6,1.1-1.1,1.9-1.2.5-.1.7-.1.7-.1Z"/>
    <path class="cls-14" d="M450.1,303c0,1.7-1.4,3.1-3.2,3.1-1.7,0-3.1-1.4-3.1-3.2,0-1.7,1.4-3.1,3.2-3.1,1.7,0,3.1,1.4,3.1,3.2Z"/>
    <path class="cls-6" d="M476.3,324.7c0,0-1.5-9.3-3.2-20.7s-3-20.8-3-20.8,1.5,9.3,3.2,20.7,3,20.7,3,20.8Z"/>
    <path class="cls-12" d="M483.5,273.2l-11.4-4.8s5.2-19,10.1-22.4,7.4-3.5,7.4-3.5l-6.1,30.8Z"/>
    <path class="cls-6" d="M501.7,185.1c4.7-.8,8.8,1,12.8,3.7,8.2,5.8,12,16.1,9.4,25.9-1.4,4.9-4.7,9-9.2,11.4-6.1,3.1-13.9,2-19.4-2.2-5.4-4.4-8.6-10.9-8.8-17.9-.2-4.8,1-9.5,3.6-13.4,2.6-4,6.8-6.7,11.5-7.5"/>
    <path class="cls-6" d="M515,201.2c-.7-1.8-.4-3.8-.7-5.7-.6-4.2-4-7.6-7.9-9.2-3.6-1.5-8.1-1.2-12.5.2-3,.9-5.8,2.7-7.9,5.1-2.7,3.3-3.6,7.7-2.5,11.8l21.5-3c1.9,1.8,4.1,3.2,6.5,4.3.7.3,1.5.4,2.2.4.8,0,1.4-.6,1.7-1.4,0-.8-.1-1.7-.6-2.4Z"/>
    <path class="cls-9" d="M515.2,240.4l.4-40.5c0-1.8-1.4-3.3-3.3-3.4l-18.7-4c-6-.4-9.7,7-9.8,13-.2,6.6-.1,14.8.8,19.7,1.9,9.9,9.6,10.9,9.6,10.9,0,0,.3,6.3.4,9.9,1.7,2.5,4.8,3.6,7.7,2.9,5.4-1.1,12.9-8.4,12.9-8.4Z"/>
    <path class="cls-6" d="M486.5,214.2c0,.7.6,1.2,1.3,1.2.7,0,1.2-.5,1.3-1.2,0,0,0,0,0,0,0-.7-.6-1.3-1.3-1.2-.7,0-1.2.5-1.3,1.2,0,0,0,0,0,0Z"/>
    <path class="cls-6" d="M485.6,209.5c.2.2,1.1-.6,2.5-.6s2.4.6,2.5.4-.1-.4-.5-.7c-1.2-.8-2.8-.7-4,.1-.4.3-.6.7-.5.7Z"/>
    <path class="cls-6" d="M498.6,214.2c0,.7.6,1.2,1.3,1.2.7,0,1.2-.5,1.3-1.1,0,0,0,0,0,0,0-.7-.6-1.2-1.3-1.2-.7,0-1.2.5-1.3,1.2Z"/>
    <path class="cls-6" d="M498.8,208.6c.2.2,1.1-.6,2.5-.6s2.4.6,2.5.4-.1-.4-.5-.7c-.6-.4-1.3-.6-2-.6-.7,0-1.4.3-2,.7-.4.3-.6.6-.5.7Z"/>
    <path class="cls-6" d="M494.5,219.6c-.7-.2-1.5-.3-2.2-.3-.4,0-.7,0-.8-.3,0-.4,0-.7.2-1.1.3-.9.6-1.8.9-2.7.9-2.3,1.6-4.7,2.1-7.1-.2,0-1.3,3-2.6,6.9-.3,1-.6,1.9-.9,2.7-.2.4-.3.9-.1,1.4.1.2.3.4.6.5.2,0,.4,0,.6,0,.8,0,1.5,0,2.3,0Z"/>
    <path class="cls-1" d="M494.1,235.9c4.7,0,9.2-1.5,13.2-4,0,0-3.1,7-13.1,6.4v-2.4Z"/>
    <path class="cls-6" d="M498.2,203.1c.1.4,1.5.1,3.1.3s2.9.5,3.1.2c0-.2-.1-.5-.7-.9-.7-.4-1.5-.7-2.3-.7-.8,0-1.7,0-2.4.4-.6.3-.9.6-.8.7Z"/>
    <path class="cls-6" d="M485.8,203.5c.2.3,1.2,0,2.3-.1s2.1.1,2.3-.2c0-.2,0-.5-.5-.8-.6-.3-1.2-.5-1.9-.4-.7,0-1.3.3-1.8.7-.4.3-.5.7-.4.8Z"/>
    <path class="cls-6" d="M518.5,198.3c-1.9-5.7-10.4-13.5-16.4-13l-9.5,5.9c.7,3.3,3.1,6,6.4,7,1.7.5,3.8.6,4.8,2.1s.5,3.6,1.5,5.2c1.4,2.1,5,2,6,4.2.5,1,.2,2.2.7,3.2.6,1.3,4,3,5.4,2.5s1.3-2.8,1.8-4.1c.5-1.4.6-3,.1-4.4-.6-2.9.1-5.9-.8-8.6Z"/>
    <path class="cls-9" d="M513.3,216.6c0-.7.8-2.5,1.5-2.6,2-.4,5.5-.3,5.7,4.6.3,6.8-6.6,5.7-6.6,5.5s-.5-4.9-.6-7.4Z"/>
    <path class="cls-1" d="M515.8,221.4s.1,0,.3.2c.3.1.6.1.9,0,.9-.6,1.3-1.6,1.2-2.7,0-.6-.1-1.2-.4-1.7-.1-.4-.5-.8-.9-.9-.3,0-.6,0-.7.4,0,.2,0,.3,0,.3s-.2-.1-.1-.4c0-.2.1-.3.2-.4.2-.2.4-.2.7-.2.6,0,1.1.5,1.3,1,.3.6.5,1.2.5,1.9.1,1.2-.5,2.4-1.6,3-.4.1-.8,0-1.1-.1-.2-.2-.3-.3-.2-.3Z"/>
    <path class="cls-6" d="M494.6,189.2c-.6,2.8-4.9,6.3-6.7,8.4-3.5,4.1-4.2,5.4-4.2,14.6-1.6-3.2-2.9-6.3-2.8-9.8.1-3.6,1.5-7.1,4-9.7,2.5-2.6,6.1-3.9,9.7-3.5"/>
    <path class="cls-5" d="M521.9,198.2c-.4.1-.8.2-1.2.3-.5.1-.9.2-1.4.2-.5,0-1.2.2-1.8.2-1.6.1-3.2.1-4.8,0-2-.1-3.9-.5-5.8-.9-1.9-.5-3.8-1.1-5.6-1.9-1.5-.7-2.9-1.4-4.2-2.3-.6-.4-1.1-.7-1.5-1-.4-.3-.8-.5-1.1-.8-.3-.2-.6-.5-.9-.8.4.2.7.4,1,.7.3.2.7.5,1.1.8s1,.6,1.5,1c1.4.8,2.8,1.5,4.2,2.2,1.8.8,3.6,1.4,5.5,1.9,1.9.5,3.8.8,5.8.9,1.6.1,3.2.1,4.8,0,.7,0,1.3,0,1.8-.1s1-.1,1.4-.2c.4,0,.8-.1,1.2-.1Z"/>
    <path class="cls-5" d="M522.6,203.1c-.3,0-.5.2-.8.2-.7.1-1.5.2-2.2.3-4.9.3-9.8-.6-14.1-2.8-.7-.3-1.3-.7-1.9-1.1-.2-.1-.5-.3-.6-.5,0,0,1,.5,2.7,1.3,2.2,1,4.5,1.7,6.8,2.2,2.4.5,4.8.7,7.2.6,1.8,0,3-.3,3-.2Z"/>
    <path class="cls-6" d="M511,177.2c1.1-1.8,3-3.1,5.1-3.5,2.1-.4,4.2-.3,6.3.3,2.7.7,5.2,2.2,7.1,4.3,1.8,2.2,2.5,5.1,1.7,7.9-.9,2.8-3.5,4.5-6.4,4.3,2.1,1.5,3.8,3.5,5.1,5.7.2.4.4.9.1,1.3s-1,.1-1.4-.2l-4.9-3.3c1.5,1.2,2.6,2.9,3.2,4.8.2.7.2,1.6-.5,1.8-.4,0-.9,0-1.2-.4l-3.5-2.5-7.4-9.3c-1.7-1.3-2.9-3.1-3.6-5.1-.7-2-.5-4.2.5-6.1Z"/>
    <path class="cls-12" d="M507.3,185.2c0,0,1.1.4,2.8,1.1,4.4,1.9,8.1,5.2,10.6,9.3.9,1.6,1.3,2.7,1.4,2.6,0-.3-.1-.5-.2-.8-.2-.7-.6-1.4-.9-2-2.3-4.3-6.1-7.7-10.7-9.5-.7-.3-1.4-.5-2.1-.7-.5,0-.8-.1-.8-.1Z"/>
    <path class="cls-6" d="M481.1,256c.1.4.2.8.2,1.2,0,.9.1,2.1.2,3.4.2,2.9.4,6.9.7,11.2s.8,8.3,1.2,11.2c.2,1.4.4,2.6.5,3.4.1.4.2.8.2,1.2-.2-.4-.3-.8-.4-1.2-.2-.8-.5-1.9-.7-3.3-.7-3.7-1.2-7.4-1.4-11.2-.3-4.4-.5-8.4-.5-11.3v-3.4c0-.4,0-.8,0-1.3Z"/>
    <path class="cls-1" d="M496,222.8c.6-.6,1.5-.8,2.3-.6.6.1,1.1.5,1.4,1,.3.5.3,1.2-.1,1.6-.5.4-1.2.5-1.8.2-.6-.3-1.2-.7-1.6-1.3-.1-.1-.3-.3-.3-.4,0-.2,0-.4,0-.5"/>
    <path class="cls-6" d="M499.8,220.9c-.2,0-.4,1.4-1.8,2.3s-3,.5-3,.7.3.3,1,.4c.9.1,1.7,0,2.5-.5.7-.5,1.2-1.2,1.4-2,.1-.6,0-1-.1-1Z"/>
  </g>
  <g id="freepik--character-2--inject-97">
    <path class="cls-6" d="M291.6,427.5l-1,18.6s18.6,7.3,18.7,10.8l-36.2-.7.4-29.1,18.1.4Z"/>
    <path class="cls-8" d="M279.4,444.4c-.7.2-1.2.9-1,1.7.2.7.9,1.2,1.6,1.1.8-.2,1.3-1,1.1-1.8-.3-.7-1.1-1.1-1.8-.9"/>
    <path class="cls-5" d="M273.1,456.2l.2-2.9,34.6,1.7s1.6.7,1.4,1.9l-36.2-.6Z"/>
    <path class="cls-14" d="M291.2,446c0,.2-.9.2-1.8.8s-1.4,1.2-1.5,1.2.1-1.1,1.2-1.7,2.1-.5,2.1-.3Z"/>
    <path class="cls-14" d="M295,447.6c0,.2-.7.5-1.4,1.2s-.8,1.5-1,1.5-.3-1,.5-1.9,1.8-1,1.8-.8Z"/>
    <path class="cls-14" d="M297,452.2c-.2,0-.4-.9,0-1.8s1.3-1.3,1.4-1.2-.5.7-.8,1.5-.4,1.5-.6,1.5Z"/>
    <path class="cls-14" d="M291,441.7c0,.2-.9-.1-1.9,0s-1.8.4-1.9.2.7-.8,1.9-.8,1.9.5,1.9.7Z"/>
    <path class="cls-6" d="M247.8,425.7l-2,22.5,3.6,18.2c.2,1.3-.6,2.5-1.8,2.7,0,0-.1,0-.2,0h0c-.7,0-1.5-.2-2-.7-3.2-3.5-15-16.5-14.8-18.1.3-1.9.5-23.9.5-23.9l16.7-.7Z"/>
    <path class="cls-5" d="M247.4,469.1l-16.7-20.4v1c-.1.8.1,1.6.6,2.3,1.3,1.8,5.1,6.6,14,16.4.5.6,1.3.8,2.1.7h0Z"/>
    <g class="cls-17">
      <path class="cls-14" d="M235.9,441.8c.5.5.7,1.3.3,1.9-.4.6-1.2.7-1.8.3-.6-.5-.7-1.4-.3-2,.5-.5,1.4-.6,1.9,0"/>
    </g>
    <path class="cls-14" d="M242.9,459c1.1-1.5,2.9-2.3,4.7-2,0,0-.2-.2-.8-.4-.7-.1-1.4,0-2,.2-.6.3-1.2.7-1.6,1.3-.3.4-.4.8-.3.8Z"/>
    <path class="cls-14" d="M244.4,462.1c.7-.3,1.4-.6,2.1-.8.7,0,1.5-.1,2.2-.1-.7-.5-1.5-.6-2.3-.3-1.4.3-2.1,1.2-1.9,1.3Z"/>
    <path class="cls-14" d="M240.2,454.9c1-.6,2-1.1,3.1-1.5,1.1-.3,2.2-.5,3.4-.6-2.4-.6-4.9.2-6.5,2.1h0Z"/>
    <path class="cls-14" d="M240.2,448c0,.1,1.3-.3,2.9-.2s2.9.5,2.9.4c-.8-.6-1.9-.9-2.9-.9-1-.1-2.1.2-3,.8Z"/>
    <path class="cls-14" d="M240.6,441.4c1-.3,2-.4,3.1-.4,1,.2,2,.5,2.9.9,0,0-.2-.3-.7-.7-1.3-.9-3-1-4.5-.5-.6.2-.8.5-.8.5Z"/>
    <path class="cls-14" d="M243.7,439.8c0-.3.1-.6,0-.9,0-.8-.2-1.6-.5-2.3-.2-.5-.5-1-1-1.3-.3-.2-.8-.1-1.1.1-.3.3-.4.6-.4,1,0,1.6,1.1,2.9,2.7,3.2,1.5.2,3-.4,3.8-1.7.2-.3.2-.7.1-1.1-.2-.4-.5-.6-.9-.5-.6,0-1.1.3-1.5.7-.6.4-1.2,1-1.6,1.6-.2.2-.3.5-.4.8.6-.8,1.4-1.5,2.2-2.1.4-.3.9-.5,1.4-.5.2,0,.4,0,.5.3,0,.2,0,.5-.1.7-.7,1.1-2,1.7-3.4,1.5-1.3-.2-2.3-1.4-2.3-2.7,0-.3,0-.5.3-.7.2-.2.4-.2.6,0,.4.3.7.7.9,1.1.4.9.6,1.9.7,3Z"/>
    <path class="cls-6" d="M307.2,268.2s5.1,13.5,4.1,26.5c-.4,5-17.3,143.6-17.3,143.6h-22.8l6.4-130.2-1.9.4s-12.5,55.5-13.5,64.5c-.9,8.1-11.4,66.8-11.4,66.8l-20.8.2,6.7-77.7,7.8-74.5,2.9-21.7,59.9,2.1Z"/>
    <path class="cls-6" d="M274,294.7c.3.2.6.4,1,.5.9.5,1.8.8,2.8,1,.7.1,1.4.1,2.1,0,.8-.1,1.6-.5,2.2-1.1.6-.6,1.1-1.5,1.3-2.3.3-.9.4-1.8.6-2.7.7-3.8,1.2-7.2,1.5-9.7.1-1.2.2-2.3.3-3,0-.4,0-.7,0-1.1-.1.3-.2.7-.2,1.1-.1.8-.3,1.8-.4,2.9-.4,2.5-.9,5.9-1.6,9.6-.4,1.9-.6,3.7-1.8,4.8-1.1.9-2.5,1.3-3.9,1-1-.2-1.9-.4-2.8-.8-.3-.1-.7-.2-1-.3Z"/>
    <path class="cls-6" d="M280.9,277s-.1-.1-.5-.1c-.5,0-.9.1-1.3.4-.6.4-1,1-1,1.8,0,1.2,1.2,2.2,2.4,2.1.5,0,1.1-.3,1.4-.7.5-.6.6-1.3.4-2-.1-.4-.3-.9-.7-1.1-.2-.2-.4-.2-.4-.2.4.4.7.9.8,1.4,0,.6,0,1.2-.4,1.6-.8.7-1.9.6-2.6-.1-.3-.3-.4-.6-.5-1,0-.6.3-1.1.7-1.5.5-.3,1-.5,1.6-.5Z"/>
    <path class="cls-6" d="M244.7,286.4c.3,0,.5.1.8.1.7,0,1.4,0,2.1,0,2.4-.1,4.7-.6,6.9-1.5,2.2-.9,4.2-2.2,5.9-3.8.5-.5,1-1,1.5-1.5.2-.2.3-.4.5-.6,0,0-.8.8-2.2,1.9-1.8,1.5-3.8,2.7-5.9,3.6-2.1.9-4.4,1.5-6.7,1.7-1.8.1-2.9,0-2.9.2Z"/>
    <path class="cls-6" d="M300.2,277.5c.2.8.6,1.6,1,2.3,1,1.8,2.2,3.4,3.5,4.9,1.3,1.5,2.8,2.7,4.5,3.8.6.5,1.3.9,2.1,1.1-.6-.5-1.3-1-1.9-1.4-1.6-1.1-3-2.4-4.3-3.9-1.3-1.5-2.5-3.1-3.6-4.8-.8-1.3-1.2-2.2-1.3-2.1Z"/>
    <path class="cls-11" d="M353,212.9l2.9-1.8s3.8-3.4,4.8-4.1c1.7-1.1,3.6-1.9,5.6-2.5.6,0,6-.3,7.3-.9s2.7-1.4,2.7-1.4c.5.7.6,1.6.1,2.3-.8,1.4-4.8,3.9-4.8,3.9l1.5,9.8s-3.7,2.9-6,3.1-4.6-.3-5.2,0-2.3.8-2.3.8l-6.7-9.2Z"/>
    <polygon class="cls-6" points="363.4 213.5 388.8 196.7 390.2 198.8 365 215.6 363.4 213.5"/>
    <path class="cls-11" d="M377.6,208.6c.9.3,1.4,1.3,1.1,2.2,0,.1-.1.3-.2.4-1,1.8-2.4,1.2-2.4,1.2.2,1.3-.5,2.5-1.7,2.9.1,1.2-.4,2.3-1.3,3l-1.2.6-.8-1.5s-4.6-.4-5.4-2.3v-1c-.5-.3-.8-.8-.8-1.4.1-.9,0-.9,1.8-1.5s5.5-.2,5.5-.2c0,0-2-.8-2-1.8s.8-1.7,3-1.5c1.4.1,2.8.4,4.2.8Z"/>
    <path class="cls-13" d="M377.6,208.6c-.3,0-.5,0-.8-.2-.5-.1-1.2-.3-2.2-.4-.5,0-1-.1-1.6-.1-.6,0-1.2,0-1.8.2-.3.1-.5.3-.7.6-.2.3-.2.6,0,.9.2.3.4.6.8.8.3.2.6.4,1,.5l.9.4h-1c-1.5-.2-3-.2-4.6,0-.4,0-.8.2-1.2.3-.4.1-.8.3-1.1.5-.1.1-.2.3-.2.5v.3c0,0,0,.2,0,.3,0,.4.3.7.7.9h0v1.1h0c0,0,0,.1.1.2.3.4.6.7,1,.9.4.2.9.4,1.3.5.9.3,1.8.4,2.7.5h0c.3.6.5,1.1.8,1.6h-.2c0,0,1.2-.7,1.2-.7h0c.9-.7,1.3-1.7,1.2-2.8h0c0-.1,0-.1,0-.1.6-.2,1.1-.7,1.4-1.2.3-.5.4-1.1.3-1.6v-.2h.2c.4.2.8.2,1.2,0,.3-.2.6-.4.8-.8.2-.3.4-.6.5-.9,0-.3,0-.5,0-.8-.1-.4-.4-.7-.7-.9-.2-.1-.4-.2-.3-.2.5.2.9.6,1.2,1.1.1.3.1.6,0,.9,0,.4-.2.7-.5,1-.2.3-.5.6-.9.8-.4.2-.9.3-1.4.1h.2c.1.5,0,1.1-.3,1.6-.3.6-.9,1-1.5,1.3h0c0,.4,0,1-.2,1.5-.2.6-.6,1.1-1.1,1.4h0l-1.2.5h-.1c0,0,0,0,0,0l-.8-1.5h.1c-.9,0-1.9-.2-2.8-.5-.5-.1-.9-.3-1.4-.6-.5-.2-.9-.6-1.2-1,0,0,0-.2-.1-.3h0v-1h0c-.5,0-.8-.5-.9-1,0-.1,0-.2,0-.4v-.3c0-.3.2-.5.4-.7.4-.2.8-.4,1.2-.5.4-.2.8-.3,1.2-.3,1.5-.2,3.1-.2,4.6,0v.3c-.5-.2-.8-.3-1.2-.6-.3-.2-.6-.5-.8-.9-.3-.8.1-1.6.9-1.9,0,0,0,0,0,0,.6-.2,1.3-.3,1.9-.2.5,0,1.1,0,1.6.2.7.1,1.5.3,2.2.5l.6.2h.2Z"/>
    <path class="cls-13" d="M373.9,215.3c-2.6-1.2-5.4-1.6-8.2-1.2.4-.2.8-.3,1.2-.3,1-.1,2-.1,3,0,1,.1,2,.4,2.9.9.4.2.8.4,1.1.7Z"/>
    <path class="cls-13" d="M376.1,212.5c0,0-.9-.5-2.1-.8s-2.2-.4-2.2-.5c.8-.1,1.6,0,2.3.2.8.2,1.5.6,2,1.2Z"/>
    <path class="cls-6" d="M269.4,114.9c.8-1.6,2.6-2.6,4.5-2.3,2.2-1.7,5.2-1.7,7.3,0,2.5-1.5,5.8-.8,7.3,1.7.5.7.7,1.6.8,2.5,2.4-.4,4.7,1.2,5.1,3.6.2,1.4-.2,2.7-1.1,3.7,2.2.7,3.5,3.1,2.8,5.3-.6,1.9-2.4,3.1-4.4,3l-21.4-12.6c-1.3-1.3-1.7-3.3-.9-5Z"/>
    <path class="cls-11" d="M292.3,133.1c-.9-9.4-8.9-16.4-18.3-16.3h-.9c-10.1.8-15,9.8-14,19.8l2.2,33.6,1.5,4.2,17.4,21.8,4.4-19.6v-9.1c0,0,9.8-1.7,9.7-11.4,0-4.7-.9-14.3-1.8-23Z"/>
    <path class="cls-13" d="M284.5,167.5c-4.5,0-8.9-1.2-12.7-3.5,0,0,3.1,6.9,12.7,5.9v-2.4Z"/>
    <path class="cls-6" d="M289.7,142.1c0,.8-.6,1.4-1.3,1.4-.7,0-1.4-.5-1.4-1.2,0,0,0,0,0,0,0-.7.6-1.4,1.3-1.4.7,0,1.4.4,1.5,1.2,0,0,0,0,0,0Z"/>
    <path class="cls-6" d="M290.4,138.4c-.2.2-1.2-.6-2.7-.5s-2.6.8-2.7.6,0-.4.6-.8c.6-.5,1.4-.7,2.2-.7.8,0,1.5.2,2.2.6.5.3.6.7.6.8Z"/>
    <path class="cls-6" d="M276.9,143c0,.7-.6,1.4-1.3,1.4-.7,0-1.4-.4-1.5-1.2,0,0,0,0,0,0,0-.8.6-1.4,1.3-1.4.7,0,1.4.5,1.4,1.2,0,0,0,0,0,0Z"/>
    <path class="cls-6" d="M276.2,138.4c-.2.2-1.2-.6-2.7-.5s-2.6.8-2.7.6,0-.4.6-.8c.6-.5,1.4-.7,2.2-.7.8,0,1.5.2,2.2.6.5.3.6.7.6.8Z"/>
    <path class="cls-6" d="M281.3,149.4c.8-.3,1.6-.4,2.4-.5.4,0,.7-.1.8-.4,0-.4,0-.8-.3-1.1-.4-.9-.8-1.9-1.2-2.9-1.6-4.1-2.9-7.5-2.7-7.5s1.6,3.2,3.3,7.3c.4,1,.8,2,1.1,2.9.2.5.3,1,.2,1.5-.1.3-.3.5-.6.6-.2,0-.4,0-.6.1-.8.1-1.6.1-2.5,0Z"/>
    <path class="cls-6" d="M276.1,134.2c-.2.4-1.5,0-3,.1s-2.9.4-3,0c0-.2.2-.5.7-.9.7-.4,1.5-.6,2.3-.7.8,0,1.6.2,2.3.5.5.3.8.7.7.9Z"/>
    <path class="cls-6" d="M290,134.3c-.2.4-1.3.1-2.5.2s-2.2.5-2.5.1c-.1-.2,0-.5.4-.9.6-.5,1.3-.7,2-.8.7,0,1.4.1,2.1.5.5.3.6.6.5.8Z"/>
    <path class="cls-6" d="M291.3,128.6s-2.7-6-5.6-7.4c-3.6-1.6-5,2.3-8.4,1.4s-6.8-2.4-10.2.2c-3.7,2.9-1.9,4.9-2,9.2-.6,17.5-3.7,22.5-4.8,14.3-.1-.9-2.6-1.6-3.1-5.4-.6-4.9-.9-10.9.1-14.4.9-3,2.5-5,5.5-7.3,4.7-3.7,11.2-3.9,15.7-3.5s13.1,5.3,12.9,12.9Z"/>
    <path class="cls-11" d="M260.8,146.1c0-1.5-1.3-2.6-2.8-2.5,0,0,0,0-.1,0-1.8.2-3.8,1.3-3.6,5,.4,6.6,6.9,4.9,6.9,4.7s-.2-4.5-.4-7.2Z"/>
    <path class="cls-13" d="M259.7,150.9s-.1,0-.3.2c-.3.1-.6.2-.9,0-.9-.5-1.5-1.5-1.5-2.5,0-.6,0-1.1.2-1.7.1-.4.4-.8.8-.9.3,0,.6,0,.7.3.1.2,0,.3.1.3s.1-.1,0-.4c0-.2-.1-.3-.3-.4-.2-.1-.4-.2-.6-.1-.5.1-1,.6-1.1,1.1-.3.6-.4,1.2-.3,1.9,0,1.2.7,2.3,1.8,2.8.4,0,.8,0,1-.2.2-.2.2-.3.2-.3Z"/>
    <path class="cls-6" d="M260.7,133.2c.8.6,1.8,1.1,2.8,1.2,1.1.1,2.1-.5,2.4-1.6,0-.5,0-1,.2-1.4s1-.3,1.6-.3c2,.1,3.8-1.2,4.3-3.1.6.7,1.7.7,2.4.2.7-.6,1.3-1.3,1.8-2,.5-.7,1.4-1.2,2.2-1.2.5.2,1,.3,1.5.3.9,0,1.3-1.1,1.4-2s.2-1.9.9-2.4c.8-.3,1.6-.4,2.4-.1.8,0,1.8-.1,2-.9,0-.4,0-.9-.3-1.2-1.1-1.6-3.3-2.3-5.1-1.5-1-3.1-4.3-4.8-7.3-3.8-1.5.5-2.7,1.5-3.4,2.9-2.5-2.1-6.2-1.9-8.3.6-.5.5-.8,1.1-1.1,1.8-2.3-.6-4.6.9-5.2,3.1-.3,1.1,0,2.2.5,3.2-1.2.6-2.1,1.9-2.2,3.3,0,1.3,1,2.3,2.3,2.4.1,0,.2,0,.4,0-.6,1.2,0,2.6,1.1,3.2,1.1.5,2.4.2,3.1-.9"/>
    <path class="cls-13" d="M277.7,151.8c-.1,0-.3-.1-.4,0-.1,0-.2.2-.2.3-.4,1.1-.3,2.3.4,3.2h0c.8,1,2.2,1.1,3.1.3.3-.2.5-.5.6-.8l.5-1.1-3.9-1.8Z"/>
    <path class="cls-6" d="M280.8,155.4s-.4.7-1.6.8c-.3,0-.7,0-1-.2-.4-.1-.7-.4-.9-.7-.5-.7-.7-1.6-.7-2.4,0-.2,0-.4,0-.7,0-.3.2-.5.4-.7.2-.1.5-.1.8,0l.5.3,1.8.9c.6.3,1.1.6,1.6.9-.6-.1-1.2-.4-1.7-.7l-1.8-.8c-.3-.1-.8-.4-.9-.3s-.2.6-.2,1c0,.8.2,1.5.5,2.2.2.3.5.5.8.6.2.1.5.2.8.2.6,0,1.2-.2,1.7-.5Z"/>
    <path class="cls-5" d="M256.4,130.8c0,.5.1.9.4,1.3.3.4.8.7,1.3.8.7,0,1.4-.1,1.9-.6h-.3c.4.6.8,1.2,1.4,1.6.4.3.8.6,1.2.7.4.1.9.2,1.3.1.8,0,1.5-.5,1.9-1.1.3-.4.4-.9.5-1.4,0-.3,0-.5,0-.5s0,.2-.2.5c-.1.5-.3.9-.6,1.3-1,1.1-2.7,1.3-3.8.4,0,0-.1-.1-.2-.2-.5-.4-.9-1-1.3-1.5v-.2c-.1,0-.3.1-.3.1-.4.4-1,.6-1.6.6-.5,0-.9-.3-1.2-.6-.3-.3-.5-.7-.6-1.1Z"/>
    <path class="cls-5" d="M268.6,115.4c.2,0,.3.1.5.2.4.2.8.5,1,.9h0c0,.1,0,0,0,0,.8-1.1,1.9-2.1,3.1-2.7.8-.4,1.7-.6,2.6-.6,1,0,2,.2,2.8.8.7.4,1.2.9,1.7,1.6.4.6.7,1.3.8,2v.2h.2c1.7-.6,3.5.2,4.3,1.8.3.6.4,1.3.5,2,0-.2,0-.4,0-.6,0-1.3-.7-2.6-1.9-3.2-.9-.5-2-.6-3-.4l.2.2c0-.8-.4-1.5-.8-2.2-1.1-1.6-2.9-2.5-4.9-2.4-.9,0-1.9.3-2.7.7-1.3.6-2.4,1.6-3.2,2.8h.2c-.3-.4-.7-.7-1.2-.8-.2,0-.3-.1-.5-.1Z"/>
    <path class="cls-5" d="M234.4,192.8s-11.3,48.6-10.1,63.4c1.2,14.8,3.5,36.6,3.5,36.6l15.9-.9-1.6-40.4,6.6-29.5-14.2-29.1Z"/>
    <path class="cls-5" d="M262.6,274.9s-16.2-2.4-16.8-6,3.3-30.8,3.3-30.8l-3-17.8-11.7-26.3c-.6-2.2,3.3-8.5,5.3-9.6l18.9-9.9,2.4-7,7.7,75.2-6.1,32.1Z"/>
    <path class="cls-5" d="M355.3,208.5l-23.9,11-.5-.8-17.1-31.7c-2.2-4-5.8-7-10.2-8.3l-14.9-4.4-4.1-3.6-3.3,5.1-1.8,7.5-2.9-7.1-15.4-8.6-.3,4.5-5.6,16.4,4.6,42.8v43.2s12.9,2.2,21,1.7c4.6-.3,11.8-2,17-3.3h0c1.9-.5,3.6-.9,4.8-1.3l3.4-.9,3.3-4.2-.7-25.2,1.2-19.5,9,13.4c3.9,5.2,11.2,6.4,16.6,2.9l26.2-15.2-6.4-14.4Z"/>
    <path class="cls-6" d="M284.4,275.6v-.9c0-.6,0-1.5-.1-2.6,0-2.3-.2-5.5-.3-9.6-.3-8.1-.7-19.2-1.4-31.6s-1.4-23.5-1.9-31.5c-.3-4-.5-7.3-.7-9.6,0-1.1-.1-2-.2-2.6v-.9c0,0,0,.2,0,.2,0,.2,0,.4,0,.7,0,.6.1,1.5.2,2.6.2,2.2.5,5.5.8,9.6.6,8.1,1.4,19.2,2,31.6s1,23.5,1.3,31.6c.1,4,.2,7.3.2,9.6v3.3c0,0,0,.2,0,.2Z"/>
    <path class="cls-6" d="M309.6,192.8c0,.2,0,.3,0,.5v1.4c0,1.2,0,3,0,5.1,0,4.3,0,10.2,0,16.7s-.2,12.4-.3,16.7c0,2.1-.1,3.8-.2,5.1,0,.6,0,1,0,1.4,0,.2,0,.3,0,.5,0-.2,0-.3,0-.5v-1.4c0-1.2,0-2.9,0-5.1,0-4.3.2-10.2.2-16.7s0-12.4,0-16.7v-6.4c0-.2,0-.3.2-.5Z"/>
    <path class="cls-6" d="M249.1,238.1c-.1,0-1.8-9.5-3.8-21.2s-3.4-21.3-3.3-21.3,1.8,9.5,3.8,21.2,3.4,21.3,3.3,21.3Z"/>
    <path class="cls-6" d="M276.2,176.6c-.3.6-.7,1.2-1.1,1.7-.8,1-1.9,2.5-3.2,4.2h-.1c0,.1-.2,0-.2,0-1.1-.5-2.3-1.1-3.5-1.7-2.3-1.2-4.6-2.5-6.8-4-.9-.6-1.8-1.2-2.6-2,1,.5,1.9,1.1,2.8,1.7,1.7,1.1,4.1,2.4,6.9,3.9,1.2.6,2.4,1.2,3.5,1.7h-.3c1.3-1.6,2.5-3,3.3-4,.4-.6.9-1.1,1.4-1.5Z"/>
    <path class="cls-6" d="M289,174.5c-.6,2.1-1.6,4.1-3,5.8l-.4.6-.2.3-.2-.2c-1.3-1.4-2.5-3-3.6-4.6,1.5,1.3,2.8,2.7,4,4.3h-.4l.4-.6c2.1-2.9,3.3-5.6,3.4-5.5Z"/>
    <path class="cls-6" d="M329.4,230.9c-.5-2-.4-4,0-6,.3-2,1.1-3.9,2.3-5.5-.7,1.8-1.3,3.7-1.8,5.6-.3,1.9-.5,3.9-.6,5.9Z"/>
    <rect class="cls-8" x="211.4" y="303.6" width="56.4" height="40.2" rx="4.5" ry="4.5"/>
    <path class="cls-6" d="M263.3,343.9c.6,0,1.2-.2,1.8-.4.7-.3,1.3-.8,1.7-1.4.6-.8.9-1.8.9-2.9,0-4.7,0-11.5,0-19.9v-10.1c0-.6,0-1.2,0-1.8-.3-1.8-1.7-3.2-3.5-3.5-.6,0-1.3,0-1.9,0h-46.2c-1.5,0-2.9.8-3.7,2.2-.4.6-.6,1.4-.6,2.1v31c0,.6.1,1.3.4,1.9.5,1.2,1.6,2,2.8,2.4.6.1,1.3.2,1.9.2h39.3c0,0,5.4.1,5.4.1h1.9-1.9l-5.4.3h-19.9c0,0-13.7,0-13.7,0h-5.7c-.7,0-1.3,0-2-.2-1.4-.4-2.5-1.3-3.1-2.6-.3-.7-.4-1.4-.4-2.1v-31c0-.8.2-1.7.6-2.4.9-1.5,2.4-2.4,4.2-2.4h46.2c.7,0,1.3,0,2,0,1.3.2,2.5,1,3.2,2.1.3.5.6,1.1.7,1.8,0,.6,0,1.2,0,1.8v10.1c0,8.4,0,15.2,0,19.9,0,1.1-.3,2.2-1,3-.5.6-1.1,1.1-1.8,1.4-.4.2-.9.3-1.4.3h-.5Z"/>
    <path class="cls-11" d="M246,303.6c-.6-.2-1.2.2-1.3.8,0,.1,0,.2,0,.3,0,1.1.9,8.7.9,8.7,0,0,2.4,8.4,1.7,9.4-.5.7-1.5.8-2.2.3,0,0-.2-.1-.3-.2-.3-.4-3-7.5-3-7.5l-.7-3.8s1.4,12.1.6,13.1c-.4.6-1.2.8-1.8.4-.1,0-.2-.2-.3-.3-.5-.5-1.1-5.9-1.1-5.9l-1.2-7.2.2,11.6s-.1,1.3-1.2,1.3c-1.4,0-1.7-1.5-1.7-1.5l-1.4-12s.5,7.8,0,8.2c-.7.5-1.4.4-1.6-.2-.5-1.2-1.1-8.3-1.1-8.3l-.6-13.4-.6-5,13-.7v2.2c0,0,5.1,3.7,6.1,5.2.8,1.3,1.5,2.7,1.9,4.2h-4.2Z"/>
  </g>
  <g id="freepik--character-1--inject-97">
    <path class="cls-8" d="M60,396.8h-4c-2.1,0-3.8-1.6-4.1-3.6-.8-6.5-2.3-24.5-2.4-24.7l2.8-.2c0,.2,1.6,18.2,2.3,24.6,0,.6.6,1.1,1.3,1.1h4v2.9Z"/>
    <path class="cls-6" d="M60,396.8v-2.9h0c0,0-2.2,0-2.2,0h-1.3c-.2,0-.5,0-.7,0-.2,0-.4-.2-.6-.3-.2-.2-.3-.4-.3-.6,0-.2,0-.5,0-.8,0-.5-.1-1.1-.2-1.7-.1-1.2-.2-2.4-.3-3.7-.5-5.3-1.1-11.6-1.7-18.5v-.2h-.2l-2.1.2h-.7c0,0-.2,0-.2,0v.2c.9,9.6,1.8,18.2,2.4,24.5.1,1.5,1,2.8,2.3,3.5.5.3,1.1.4,1.7.4h4-2.5c-1,.1-2.1,0-3.1-.5-1.2-.6-2.1-1.9-2.2-3.3-.6-6.3-1.4-14.9-2.3-24.5l-.2.2h.7c0,0,2.1-.2,2.1-.2l-.2-.2c.7,6.9,1.3,13.2,1.8,18.5.1,1.3.2,2.6.4,3.7,0,.6.1,1.1.2,1.7,0,.3,0,.5,0,.8,0,.3.2.5.4.7.2.2.4.3.7.4.2,0,.5,0,.7,0h3.5c0-.1,0-.2,0-.2v2.6c0,.1,0,.2,0,.2Z"/>
    <polygon class="cls-5" points="122.9 397.6 132.5 468.7 128.8 468.7 114.5 400.2 122.9 397.6"/>
    <path class="cls-6" d="M122.9,397.6h-.5c0,.1-1.6.6-1.6.6l-6.3,1.9h0c2.5,12.4,7.8,37.8,13.8,67l.3,1.6h0c0,.1,4.1.1,4.1.1v-.2c-2.7-19.9-5.2-37.7-6.9-50.6-.9-6.4-1.6-11.5-2.1-15.1-.2-1.8-.4-3.1-.6-4.1,0-.5-.1-.8-.2-1,0-.1,0-.2,0-.4v.4c0,.2,0,.6.1,1.1.1,1,.3,2.3.5,4.1.5,3.6,1.2,8.8,2,15.2,1.7,12.8,4.1,30.6,6.7,50.4l.2-.2h-3.8.2c-.1-.4-.2-.9-.3-1.4-6.1-29.2-11.5-54.6-14-66.9h0c0,.1,6.2-1.9,6.2-1.9l1.6-.5.6-.2Z"/>
    <path class="cls-5" d="M123.3,400.2h-63.4c-2.3,0-4.3-1.9-4.3-4.2h0c0-2.4,1.9-4.3,4.3-4.3h63.4c2.4,0,4.3,1.9,4.3,4.3h0c0,2.3-1.9,4.2-4.3,4.2Z"/>
    <path class="cls-5" d="M46.3,370.5l-8.7-67.9c-.3-2.3,1.4-4.5,3.7-4.8h0c2.3-.3,4.5,1.4,4.8,3.7,0,0,0,0,0,0l8.7,67.9c.3,2.3-1.4,4.5-3.7,4.8,0,0,0,0,0,0h0c-2.3.3-4.5-1.4-4.8-3.7Z"/>
    <polygon class="cls-5" points="60.6 397.6 51 468.7 54.8 468.7 69.1 400.2 60.6 397.6"/>
    <path class="cls-6" d="M123.9,400.2c0,0-14.5-.2-32.4-.2s-32.4,0-32.4.2,14.5.2,32.4.2,32.4,0,32.4-.2Z"/>
    <path class="cls-6" d="M77.1,215.8c-.3-2.2-2.3-3.8-4.6-3.5,0,0,0,0,0,0-1.4-2.4-4.4-3.4-6.9-2.1-1.1.6-2,1.6-3,2.3-1.1.5-2.2,1-3.4,1.5-1.2.4-2,1.4-2.3,2.7,0,1.4.9,2.6,2.2,3.1,1.3.4,2.7.5,4,.4-.6.4-.8,1.2-.4,1.8.3.6.9,1,1.6,1.3,2.2.8,4.7.4,6.4-1.2l2.5-2c2.2,0,4-1.9,4-4.1,0,0,0,0,0,0Z"/>
    <path class="cls-12" d="M70.7,224.3c-.5.5-1.3.5-1.8,0-.5-.5-.6-1.2-.4-1.8.2-.6.7-1.2,1.2-1.5.6-.3,1.2-.6,1.8-.8,1-.3,2-.5,3-.6.4,0,.7,0,1.1.1.3.1.6.4.7.8,0,.5-.4.9-.8,1.2-1.5,1.1-3.2,2.2-4.9,3"/>
    <path class="cls-6" d="M69.2,224.1c-2.4-2.7-8.4-2.3-9.8-.6-2.2-1.1-4.8-.2-6,1.9l-6.4,1.3c-1.1.1-2.2.5-3.1,1.2-.9.7-1.2,2-.6,3-1.8.6-2.8,2.6-2.1,4.4.1.4.4.8.6,1.1-.9,1-.8,2.5.2,3.4,0,0,0,0,.1,0-1.8,2.1-3.2,4.5-4.2,7.1-.5,1-.6,2.2-.3,3.4.4,1.1,1.8,1.8,2.7,1.2-.6.9-.7,2.1-.2,3-1.1,0-1.4,1.7-.7,2.5.8.7,1.9,1,3,.9,1.1-.1,2.2,0,3.1.6,0,.3-.2.5-.4.7-1.9,1.4-2.3,4.1-1,6l.3.5c.9.9,1.9,1.7,3.1,2.2,2.4,1.3,3.9,1.1,6.6,1.5-.8,1.8,3.7,5.7,8.7,1.9,9,2.7,18.4,4,27.8,4,1.5,0,3.3-.2,4-1.5,1.3.3,2.6-.2,3.4-1.1.8-.9,1.5-2,2-3.1,2.6-.7,4.5-3.1,4.7-5.8,1.8-1.4,2.9-3.5,3.1-5.7,2.5-.9,3.8-3.6,2.9-6,0-.1,0-.2-.1-.3-.5-3.1-1.5-6.1-3-8.8,1.7-.4,2.4-2.7,1.7-4.3s-2.2-2.6-3.7-3.6c1.3.4,2.4-1.2,2.1-2.5-.4-1.3-1.4-2.3-2.6-2.9-1.7-1-3.4-1.8-5.3-2.4-.6-2.3-3.5-4.8-5.6-5.9-8.5-4.1-14.4-5.1-25.3,2.7"/>
    <path class="cls-9" d="M62.3,237.7c-.1-1.8-.4-3.6,1.4-3.8l18.1-5.4c5.8-.9,10.1,6.1,10.7,12,.7,6.5,1.3,14.5.8,19.4-.6,5.7-4.4,10.6-9.8,12.5v8.6c-.7,4.6-1.7,7.2-3.6,9-6.4-1.2-16.9-15.3-16.9-15.3l-.7-37Z"/>
    <path class="cls-6" d="M83.3,255.4c.7-.3,1.4-.4,2.2-.5.3,0,.7-.1.7-.4,0-.4,0-.7-.3-1-.4-.8-.7-1.7-1.1-2.6-1.1-2.2-1.9-4.5-2.6-6.8,1.2,2.1,2.3,4.3,3.1,6.6.4.9.8,1.8,1.1,2.6.2.4.3.9.2,1.4,0,.3-.3.4-.5.5-.2,0-.4,0-.6.1-.7.1-1.5.2-2.2,0Z"/>
    <path class="cls-1" d="M83.4,272.4c-4.2-.5-8.3-1.9-12-4,0,0,2.2,6.3,12,7v-3Z"/>
    <path class="cls-6" d="M77.6,240.3c-.1.4-1.5.3-3,.5s-2.8.8-3.1.4c0-.1.1-.5.6-.9,1.4-.9,3.1-1.2,4.7-.7.6.2.9.5.8.7Z"/>
    <path class="cls-6" d="M90.6,240.1c-.2.3-1.2,0-2.3,0s-2.1.3-2.3,0c-.1-.1,0-.5.4-.8,1.1-.8,2.6-.8,3.7,0,.4.3.6.6.5.8Z"/>
    <path class="cls-6" d="M97.2,245.2c0-1.5-.6-3-1.6-4.2-.6-.6-1.2-1.1-1.8-1.8-1.1-1.4-1-3.5-1.4-5.2-.6-2.3-2.3-4.2-4.6-5-1.8-.7-3.9-.6-5.7-1.5-1.3-.7-2.2-1.9-3.6-2.4-2.6-1.2-5.5.1-8,1.6-.5,1.9.7,3.6,1.9,5.2,1.2,1.6,3,2.6,5,2.7,1.5,0,3.3-.2,4.4.8s.7,3.2,1.6,4.5c1.3,1.9,4.4,1.2,6.4,2.3,1.5.9,2.2,2.7,3,4.4s2.1,3.3,3.9,3.2c.3-1.5.5-3.1.5-4.6Z"/>
    <path class="cls-6" d="M74.4,230.1c-4.5,0-9,.7-13.1,2.4-1.3.4-2.4,1.2-3.2,2.2-.6,1-.8,2.2-.7,3.4,0,3.7,1.5,8.2,2.9,11.6l4.6,2.7c3.5-.8,1.9-6.9,1.7-10,2.5-1.1,4.1-3.6,4.2-6.4,2-1.3,3.4-3.5,3.6-6Z"/>
    <path class="cls-9" d="M64.8,251.1c-.1-2.1-2.7-2.5-4.5-1.4-1,.6-1.7,1.8-1.6,4,.3,6,6.2,4.4,6.2,4.2s0-4.3-.1-6.8Z"/>
    <path class="cls-1" d="M63,255.8s0,0-.3.2c-.2.1-.5.1-.7,0-.8-.5-1.3-1.3-1.3-2.2,0-.5,0-1,.2-1.5,0-.4.4-.7.7-.9.2,0,.5,0,.6.2,0,.2,0,.3,0,.3s.1-.1,0-.4c0-.1-.1-.3-.3-.4-.2-.1-.4-.2-.6-.1-.5.1-.9.5-1,1-.2.5-.3,1.1-.3,1.7,0,1.1.7,2.1,1.7,2.5.3,0,.7,0,.9-.2,0-.2,0-.3,0-.3Z"/>
    <path class="cls-5" d="M62.3,258.3s0,0,0,0c0,0,0,.2,0,.2-.2.3-.4.5-.7.6-.5.2-1,.3-1.5.3-.3,0-.6,0-1,0-.4,0-.7-.2-1-.3h0c-.3,1.6-1.9,2.7-3.5,2.4-.4,0-.9-.3-1.2-.5h.1c-.2.3-.5.5-.8.5-.3,0-.7,0-1,0-.3-.1-.6-.3-.8-.6-.2-.3-.3-.6-.3-1,0-.7.2-1.4.7-2,.5-.6,1-1.1,1.6-1.5h0c-.5-.2-.8-.7-.9-1.3-.1-.6,0-1.2.2-1.8.2-.6.6-1.1,1-1.5.4-.4.9-.8,1.4-1.2h0c-.4-.3-.6-.9-.6-1.6,0-.6.3-1.3.7-1.8.8-.9,1.8-1.6,2.9-2h0c-.5-2,.8-4.2,3-4.7.4,0,.9-.1,1.3,0h0c-.3-1.8,1-3.7,2.9-4,.1,0,.3,0,.4,0h0c0-.9.5-1.9,1.3-2.5.7-.6,1.6-.8,2.5-.7h0c0-.5.2-1,.5-1.5.2-.4.5-.8.9-1.1.6-.5,1.3-.8,2-.9h.8c.2,0,.4,0,.6.2h.3c0,.1.1.1.1.1h-.5c-.2-.2-.4-.2-.6-.3h-.8c-.7,0-1.4.4-2,.9-.3.3-.6.7-.9,1.1-.3.4-.4,1-.4,1.5h0c0,0,0,0,0,0-.9-.1-1.7.1-2.4.7-.8.6-1.3,1.5-1.3,2.5h0c0,0,0,0,0,0-.9,0-1.8.5-2.4,1.2-.7.8-.9,1.8-.8,2.8h0c0,.1-.1.1-.1.1-2.1-.2-3.9,1.3-4.2,3.3,0,.4,0,.9,0,1.3h0c0,0,0,0,0,0-1.1.4-2.1,1.1-2.8,2-.3.5-.5,1.1-.6,1.7,0,.6.1,1.2.5,1.6h0c0,0,0,.1,0,.1-1,.6-1.8,1.5-2.4,2.6-.2.5-.3,1.1-.2,1.6,0,.5.4,1,.9,1.3h.1c0,0,0,.1,0,.1-.6.4-1.1.9-1.5,1.5-.4.5-.6,1.2-.6,1.9,0,.7.4,1.2,1,1.5.6.3,1.2,0,1.6-.4h0c0,0,0,0,0,0,.9.7,2,.8,3,.3.8-.4,1.4-1.2,1.5-2.1h0s0,0,0,0c.3.2.7.3,1,.3.3,0,.6,0,.9,0,.5,0,1,0,1.5-.3.3-.1.5-.3.7-.6.1-.1.1-.2.1-.2Z"/>
    <path class="cls-5" d="M39.7,251.9c0-.1-.2-.2-.2-.4-.2-.4-.3-.8-.3-1.2,0-.7.1-1.3.5-1.9.5-.7,1.3-1.2,2.2-1.4h0c-.2-.9,0-2,.5-2.9.3-.5.7-.9,1.2-1.2.5-.3,1.1-.6,1.6-.8.3-.1.5-.3.8-.5.2-.2.4-.5.5-.7.3-.6.3-1.2.7-1.9.7-1.3,2.2-2,3.6-1.8h0c-.4-2.5,1.4-4.9,4-5.3.4,0,.8,0,1.2,0h0c-.2-1.6.7-3.3,2.3-4.1,1.4-.7,3-.6,4.3.2h0c.6-.6,1.3-1,2-1.3.7-.3,1.4-.4,2.1-.5,1.2-.1,2.4,0,3.5.2.7.2,1.4.5,2.1.9.2.1.3.2.5.4h.2c0,.1-.2,0-.7-.3-.6-.4-1.4-.7-2.1-.8-1.1-.3-2.3-.3-3.5-.2-.7,0-1.4.2-2.1.5-.7.3-1.4.7-2,1.2h0c-1.8-1.2-4.3-.8-5.6,1.1-.6.8-.8,1.8-.7,2.8h0c0,.1-.1.1-.1.1-2.5-.3-4.8,1.5-5.1,4,0,.4,0,.8,0,1.2h0c0,.1-.1.1-.1.1-1.4-.2-2.8.5-3.5,1.7-.3.6-.4,1.2-.7,1.8-.1.3-.3.6-.6.8-.3.2-.5.4-.8.5-.6.2-1.1.4-1.6.7-.5.3-.8.7-1.1,1.2-.5.8-.7,1.9-.5,2.8h0c0,0,0,0,0,0-1.5.2-2.7,1.6-2.6,3.1,0,.4.1.8.3,1.2,0,.2.1.3.1.3Z"/>
    <path class="cls-5" d="M96.6,253.5c0-.2,0-.3,0-.5,0-.2.2-.4.3-.5.2-.2.5-.3.7-.4.3,0,.6-.2.9-.4.3-.2.6-.6.7-1,.1-.4.2-.9.2-1.4,0-.5,0-1,0-1.6.1-1.2.4-2.4.8-3.5.2-.6.2-1.3,0-1.9-.1-.7-.5-1.3-1.1-1.7-.7-.3-1.4-.6-2.1-.7-.4-.1-.7-.3-1.1-.5-.3-.2-.6-.6-.8-.9-.3-.8-.5-1.5-.6-2.3,0-.4-.2-.8-.4-1.1-.2-.3-.5-.6-.9-.8-.5-.1-1.1-.2-1.7-.2-.3,0-.6,0-.8-.2-.3-.1-.5-.3-.7-.6-.3-.5-.5-1-.6-1.5-.1-.5-.4-1-.7-1.3-.7-.8-1.6-1.2-2.6-1.2-.9,0-1.8.3-2.5.9h0c0,0,0,0,0,0-.7-1.5-2-2.6-3.5-3.1-.6-.2-1.3-.2-2-.2-.6,0-1.1.2-1.6.4-.7.4-1.3.9-1.7,1.6-.1.2-.2.4-.3.6h0v.2h0c0,0,0-.2,0-.2,0-.2.2-.4.3-.6.4-.7,1-1.3,1.7-1.7.5-.3,1.1-.4,1.7-.5.7,0,1.3,0,2,.2,1.6.5,2.9,1.6,3.6,3.1h-.1c1.5-1.4,3.9-1.3,5.3.3,0,0,0,0,0,0,.4.4.6.9.8,1.4.1.5.3,1,.6,1.5.3.4.8.7,1.4.7.6,0,1.1,0,1.7.2.4.2.8.5,1,.9.2.4.3.8.4,1.2.1.8.3,1.6.6,2.3.2.3.4.7.7.9.3.2.6.4,1,.5.7.2,1.4.4,2.1.7.3.2.6.5.8.8.2.3.3.6.4,1,.1.7,0,1.3,0,2-.4,1.1-.6,2.3-.8,3.5,0,.6,0,1.1,0,1.6,0,.5,0,.9-.2,1.4-.1.4-.4.8-.7,1-.3.2-.6.3-1,.4-.3,0-.5.2-.7.4-.2.1-.3.3-.3.5,0,.2,0,.4,0,.5Z"/>
    <path class="cls-5" d="M108.1,244.3h0c0-.2,0-.3-.2-.4-.1-.3-.3-.7-.6-1.3s-.6-1.2-1-2c-.5-.9-1.1-1.6-2-2.1-.5-.3-1-.4-1.6-.7-.3-.1-.6-.3-.8-.5-.3-.2-.5-.5-.6-.8-.3-.6-.3-1.3-.5-2-.1-.3-.3-.6-.6-.8-.3-.2-.6-.4-1-.4-.3-.1-.7-.2-1-.4-.4-.2-.6-.5-.8-.8-.3-.7-.4-1.5-.5-2.3,0-.4-.2-.8-.4-1.1-.2-.3-.6-.5-.9-.6-.8-.2-1.6.1-2.5,0-.4,0-.8-.3-1.1-.6-.3-.3-.5-.6-.7-1-.2-.4-.4-.7-.7-1-.2-.3-.5-.6-.9-.8-.7-.2-1.5-.2-2.2,0-.7.2-1.5.3-2.3.2-.7-.2-1.4-.5-2-.9-.5-.4-1.1-.7-1.8-1-1.1-.4-2.4-.4-3.5-.1-1,.2-1.9.7-2.6,1.4-.6.5-1.1,1.1-1.4,1.7-.2.4-.4.8-.6,1.3,0,.1,0,.3-.1.4s0,.1,0,.1c0,0,0,0,0-.1v-.4c.3-.5.5-.9.7-1.3.4-.7.9-1.2,1.4-1.8.8-.7,1.7-1.1,2.7-1.4,1.2-.3,2.4-.3,3.6.1.6.3,1.2.6,1.8,1,.6.4,1.2.7,1.9.9.7,0,1.5,0,2.2-.2.4,0,.8-.2,1.2-.2.4,0,.8,0,1.2.2.4.2.7.5.9.8.2.3.5.7.7,1,.2.4.4.7.7,1,.3.3.6.5,1,.6.8.1,1.7-.1,2.5,0,.4,0,.8.3,1,.7.3.4.5.8.5,1.2,0,.8.2,1.5.5,2.3.2.3.4.6.7.8.3.2.7.3,1,.4.4.1.7.3,1,.5.3.2.5.5.6.9.2.7.2,1.4.5,2,.3.6.8,1,1.3,1.2.5.2,1.1.4,1.6.7.9.5,1.5,1.3,2,2.2.4.8.7,1.5,1,2l.6,1.3.2.3s0,0,0,.1Z"/>
    <path class="cls-5" d="M101.8,238.1h0c.1,0,.2,0,.3,0,.4.2.6.6.6,1.1,0,.3,0,.6-.1.9,0,.3-.2.7-.2,1,0,.4.2.8.4,1.1.2.4.5.7.8,1.1.3.4.3,1,.2,1.5-.2.5-.6.9-.7,1.4-.2.5-.1,1.1.2,1.6.2.5.6,1.1.8,1.7.1.3.2.7.2,1,0,.3,0,.7-.2,1-.3.6-.7,1.2-1.1,1.7-.4.5-.7,1.2-.6,1.9.2.7.4,1.4.7,2,.1.4.2.7.2,1.1,0,.4-.1.7-.3,1.1-.4.6-.8,1.2-1.3,1.7-.4.5-.8,1.1-1,1.7-.2.6-.4,1.3-.6,1.9-.1.3-.4.5-.6.8-.3.2-.5.3-.8.4-.3,0-.6.2-.8.3-.3.1-.5.3-.7.5-.4.4-.7.8-1,1.3-.3.5-.5.9-.8,1.3-.5.7-1.2,1.3-2.1,1.5-.6.2-1.3.3-1.9.2-.4,0-.8-.2-1.2-.3-.1,0-.3-.1-.4-.2,1.1.6,2.3.7,3.5.3.8-.3,1.5-.8,2-1.5.3-.4.5-.8.8-1.3.3-.5.6-.9,1-1.3.2-.2.5-.4.7-.5.3-.1.6-.2.8-.3.3,0,.5-.2.8-.4.2-.2.4-.4.6-.7.2-.6.4-1.2.6-1.8.2-.7.6-1.2,1.1-1.8.5-.5.9-1,1.3-1.6.2-.3.2-.7.3-1,0-.3,0-.7-.2-1-.3-.7-.6-1.3-.7-2.1,0-.4,0-.7.1-1.1.1-.3.3-.6.5-.9.4-.5.8-1.1,1.1-1.7.1-.3.2-.6.2-.9,0-.3,0-.6-.2-.9-.2-.6-.5-1.1-.8-1.7-.3-.5-.3-1.2-.2-1.8.2-.6.6-1,.8-1.4.2-.5.1-1-.1-1.4-.2-.4-.5-.8-.8-1.1-.2-.3-.4-.7-.4-1.2,0-.4,0-.7.2-1.1,0-.3.1-.6.1-.9,0-.4-.2-.8-.5-1-.1,0-.3-.1-.4-.2Z"/>
    <path class="cls-8" d="M58.8,257.3c-.3.1-.6.3-.9.5-.7.6-1.3,1.4-1.4,2.4-.2.7-.2,1.3,0,2,.2.7.6,1.4,1.1,2,.6.6,1.3,1.1,2.1,1.4.9.3,1.8.3,2.7,0,.9-.2,1.7-.7,2.3-1.4.6-.6,1-1.4,1.1-2.2.3-1.4-.1-2.9-1.1-4-.4-.4-.9-.7-1.4-.9-.4-.2-.8-.3-1.2-.3-.3,0-.5,0-.8,0,0,0-.2,0-.2,0,.3,0,.7,0,1,0,.4,0,.8.2,1.1.3.5.2.9.5,1.3.9.9,1,1.3,2.4,1.1,3.8-.1.8-.5,1.5-1,2.1-.6.6-1.3,1.1-2.2,1.3-.8.2-1.7.2-2.5,0-.8-.3-1.5-.7-2-1.3-.5-.5-.9-1.2-1.1-1.9-.2-.6-.2-1.2,0-1.9.2-.9.7-1.7,1.3-2.3.3-.2.5-.4.8-.6Z"/>
    <path class="cls-6" d="M78.6,249.2c0,.7-.5,1.3-1.2,1.4-.7,0-1.3-.4-1.4-1.1,0,0,0,0,0,0,0-.7.5-1.3,1.2-1.4.7,0,1.3.4,1.4,1.1,0,0,0,0,0,0Z"/>
    <path class="cls-6" d="M90.7,248.7c0,.7-.5,1.3-1.2,1.3-.7,0-1.3-.4-1.4-1.1,0,0,0,0,0,0,0-.7.5-1.3,1.2-1.4.7,0,1.3.4,1.4,1.1,0,0,0,0,0,0Z"/>
    <path class="cls-6" d="M90.4,244.6c-.1.2-1.1-.5-2.4-.3s-2.1,1-2.3.8,0-.4.4-.8c1-1,2.5-1.2,3.7-.4.4.3.6.6.5.7Z"/>
    <path class="cls-6" d="M78.3,245.6c-.2.2-1.3-.6-2.8-.6s-2.6.8-2.8.6,0-.4.6-.8c.6-.5,1.4-.8,2.2-.8.8,0,1.6.3,2.2.8.5.4.6.7.6.8Z"/>
    <path class="cls-6" d="M107.5,219.8c-.5-.4-1.1-.7-1.6-.9-.7-.3-1.4-.4-2.1-.4-1,0-1.9.3-2.7.8h-.1c0,0,0,0,0,0-.7-1.1-1.7-1.9-3-2.2-1.4-.4-3-.2-4.2.7h-.2c0,.1-.1,0-.1,0-1.2-1.6-3.1-2.8-5.1-3.1-1.6-.2-3.2,0-4.6.7-1.3.6-2.4,1.6-3.2,2.9h0c0,0,0,0,0,0-1.7,0-3.3.5-4.8,1.2-1.2.6-2.2,1.3-3.2,2.2-.8.8-1.5,1.7-2.2,2.6v-.2c.2-.1.3-.3.4-.6.5-.7,1-1.4,1.6-2,.9-.9,2-1.7,3.2-2.3,1.5-.8,3.2-1.2,4.9-1.3h-.2c.8-1.2,2-2.2,3.4-2.9,1.5-.8,3.2-1,4.9-.7,2.1.4,4,1.5,5.3,3.2h-.3c1.3-.9,3-1.1,4.5-.7,1.3.3,2.5,1.2,3.2,2.4h-.2c.9-.6,1.9-.8,2.9-.8.8,0,1.5.2,2.2.5.4.2.8.4,1.2.7.1,0,.3.2.4.3Z"/>
    <path class="cls-6" d="M67.2,217.7c-.5.2-1,.3-1.5.4-1.4,0-2.8-.4-3.9-1.4-.7-.7-1.2-1.6-1.5-2.6-.3-1.1-.1-2.3.3-3.4.5-1.2,1.5-2.1,2.7-2.6,1.3-.5,2.8-.5,4.1,0h-.2c.6-.7,1.4-1.1,2.2-1.3.7-.1,1.5,0,2.2.2.7.3,1.2.7,1.7,1.3.8,1.1.9,2.6.3,3.9l-.3-.2c1-.5,2.1-.5,3.1,0,.9.4,1.5,1.2,1.8,2.1.4,1.5,0,3.2-1.2,4.3-.7.7-1.6,1.2-2.6,1.4-.3,0-.5,0-.8.1h-.3s.4,0,1-.2c.9-.2,1.8-.7,2.5-1.4,1-1.1,1.4-2.6,1-4-.2-.8-.8-1.5-1.7-1.9-.9-.4-1.9-.4-2.7,0l-.5.3.3-.6c.5-1.1.4-2.5-.3-3.5-.4-.5-.9-1-1.5-1.2-.6-.2-1.3-.3-2-.2-.8.1-1.5.5-2,1.1h0c0,.1-.1,0-.1,0-1.2-.5-2.6-.5-3.8,0-1.1.4-2,1.3-2.6,2.4-.4,1-.6,2.1-.3,3.2.2.9.7,1.8,1.5,2.4,1,1,2.3,1.5,3.7,1.4.5,0,1-.1,1.4-.2Z"/>
    <path class="cls-6" d="M38.9,233.1c0,0,0-.1-.1-.2,0-.2-.2-.5-.2-.7-.2-.9-.2-1.8,0-2.7.3-1.4,1-2.7,2.1-3.6,1.4-1.2,3.2-1.7,5-1.5h-.2c.8-1.6,2.3-2.9,4-3.7,1.3-.6,2.8-.7,4.2-.5,1.3.2,2.5.7,3.5,1.5h-.2c1.3-.7,2.8-1,4.2-1,1.1,0,2.3.2,3.3.7.7.3,1.3.6,1.9,1.1.2.2.4.3.6.5-.8-.6-1.6-1.1-2.6-1.4-1-.4-2.1-.6-3.2-.6-1.4,0-2.8.3-4,1h-.2c-1-.8-2.1-1.3-3.4-1.5-1.4-.2-2.7,0-4,.5-1.7.7-3,2-3.8,3.6h0c0,.1-.1.1-.1.1-1.7-.2-3.4.3-4.8,1.4-1,.9-1.8,2.1-2.1,3.4-.2.9-.2,1.8,0,2.7,0,.7.2,1,.2,1Z"/>
    <path class="cls-9" d="M144.8,343.5l-3.4-5.1-5.4-2.7h-.2c-1.8-1.4-4-1.8-6.1-1.3-2.2.6-5.1,1.3-7.7,1.7l-5.8-1.6v11.3l29.2-1.8-.7-.6Z"/>
    <path class="cls-1" d="M144.6,343.1c-.4-.4-.8-.8-1.2-1.1-.8-.7-1.9-1.5-3.1-2.5l-1.2-.9h0c-1.2-.2-2.2-.4-3-.5-.4,0-.8-.1-1.2-.1.4.2.8.3,1.1.3.7.2,1.8.4,3,.6h0l1.1.9c1.2,1,2.4,1.8,3.2,2.4.4.3.8.6,1.3.9Z"/>
    <path class="cls-1" d="M142.4,344.1c-1.3-.9-2.7-1.8-4.2-2.5l-1-.6h0c-1.2-.1-2.5-.1-3.7,0,1.2.2,2.5.4,3.7.4h0l1,.6c1.4.8,2.8,1.6,4.3,2.2Z"/>
    <path class="cls-5" d="M178.8,311.5c-1-.6-2.2-.3-2.9.6l-23.5,31.9-37.2.5c-1.5,0-3.3,3.1-2,4.5l42-.6,24.3-33.7c.7-1,.6-2.4-.4-3.1,0,0-.1-.1-.2-.1Z"/>
    <path class="cls-6" d="M178.8,311.5h.2c.2.2.3.4.5.5.5.6.7,1.5.4,2.3-.3.5-.6,1-1,1.5l-1.2,1.7c-.9,1.3-1.9,2.7-3.1,4.3l-19.1,26.7h0c0,0,0,0,0,0l-41.3.6h-.9c-.4-.5-.5-1-.5-1.6,0-.5.2-1,.4-1.5.2-.5.5-.9.9-1.2.4-.4.9-.6,1.4-.7h5.8c0,0,11.1-.2,11.1-.2l20.3-.2h-.1c7.6-10.2,14-18.8,18.5-24.9l5.2-7c.5-.6,1.3-.9,2.1-.8.3,0,.5.1.7.3-.2-.1-.5-.2-.8-.2-.8-.1-1.5.2-2,.8l-5.1,7-18.4,25h0c0,0,0,0,0,0l-20.3.3-11.1.2h-5.8c-.4.1-.9.3-1.2.6-.3.3-.6.7-.8,1.1-.5.8-.5,1.8,0,2.5h-.1c0,0,.6,0,.6,0l41.3-.5h-.1c0,0,19.2-26.5,19.2-26.5,1.2-1.6,2.2-3,3.1-4.3l1.3-1.7c.4-.5.7-1,1-1.5.3-.7.2-1.6-.3-2.2-.2-.2-.4-.4-.6-.5Z"/>
    <path class="cls-12" d="M63.3,274.8c-1.7.9-3.2,1.9-4.6,3.1-2.2,2.2-3.8,5-4.4,8.1-.8,3.9-.2,18.2-.2,22.4s1.1,20.3,1.6,22.9-.3,6.6-1.6,9.2c-2.2,4.6,1.2,7,1.2,7l45.7-.3-.2-1.7c-.3-3,.8-6-.3-8.8s-2.9-9-2-14.3c0,0,5.7-7.1,1-18.5-2.7-6.5-6.9-17.9-15.4-24.5l-10.2-3.3c.4,0-8-1.7-10.7-1.4Z"/>
    <path class="cls-12" d="M119.8,333.3l-39-8.1-1-33.9s-1.4-13.8-8.3-15.1l-16.7,20.7c.9,10.5,0,30.2,4.9,37.8,4.8,7.6,9.5,13.7,21.3,13.2s37.9-.8,37.9-.8l.9-13.9Z"/>
    <path class="cls-6" d="M80.8,325.2c0,0-.8,1.3-1.6,3s-1.1,3.2-1.2,3.2c.2-2.3,1.2-4.5,2.9-6.2Z"/>
    <g class="cls-16">
      <path class="cls-10" d="M79.5,289.8c3.9,12,3,30.4,10.5,37.2l-9.2-1.9c.2-2.2.2-4.3,0-6.5-.8-9.5-.8-19.1-1.3-28.8"/>
    </g>
    <path class="cls-6" d="M78.6,285.5c.3.9.5,1.8.7,2.7.2.9.3,2,.5,3.4s.2,2.9.2,4.6c.2,6.9.5,16.8.9,28.9h-.1c0-.1,39,8,39,8h.2v.2c-.3,4.4-.6,9.1-.9,13.9v.2h-4.9c-6.8.1-13.4.2-19.8.4-3.2,0-6.3.1-9.4.3-3,.2-6,.2-9-.1-1.5-.2-2.9-.6-4.2-1.1-1.3-.5-2.6-1.2-3.7-2-2.2-1.6-4.1-3.6-5.6-5.8-.8-1.1-1.5-2.1-2.2-3.2l-.5-.8c-.2-.3-.3-.5-.5-.8l-.4-.8-.3-.9c-.8-2.2-1.4-4.5-1.8-6.8-.6-4-1-8-1.1-12-.2-3.5-.2-6.6-.3-9s-.2-4.4-.2-5.7c0-.6,0-1.1,0-1.5s0-.5,0-.5v.5c0,.3,0,.8.1,1.5,0,1.3.2,3.2.3,5.7s.2,5.5.4,9c.2,4,.6,8,1.2,11.9.3,2.3.9,4.5,1.8,6.7l.3.9.4.8c.2.3.3.5.4.8l.5.8c.7,1.1,1.4,2.1,2.2,3.2,1.5,2.2,3.4,4.2,5.6,5.8,1.1.8,2.4,1.5,3.7,2,1.4.5,2.8.9,4.2,1.1,3,.3,6,.3,9,0,3.1-.1,6.2-.2,9.4-.3,6.4-.1,13-.2,19.8-.3h4.7s-.2.1-.2.1c.3-4.8.6-9.4.9-13.9l.2.2-39-8.2h-.1c-.3-12.2-.6-22.1-.8-29.1,0-1.7,0-3.3-.2-4.6,0-1.1-.2-2.2-.4-3.4-.2-.9-.3-1.6-.4-2v-.5c-.2-.2-.3-.2-.3-.2Z"/>
    <polygon class="cls-9" points="141.2 416.4 135.5 459.1 150.6 461.5 161.4 423.7 141.2 416.4"/>
    <path class="cls-6" d="M95.3,350.8s55.4-3.6,66.9-1.8c6.9,1.1,12.9,12,9.2,18.5-1.8,3.1-4.6,12.7-4.6,12.7l-29.7-6.8-41.7-22.6Z"/>
    <polygon class="cls-9" points="137 380.2 125 398.5 139.1 407.7 154.4 384.2 137 380.2"/>
    <path class="cls-6" d="M56.5,347.5s-5.6,25.6,3.6,35.9,22.8,10.4,36.7,8.4,47.2-2.7,47.2-2.7c0,0-1.5,9.1-2.6,19.4s-1.3,16.9-1.3,16.9l20.8,1.7s11.6-35.2,13.4-42.2,1.2-16.4-5-19.8c-5.2-3-46.3-14.4-66-16l-2.1-1.8-44.6.3Z"/>
    <path class="cls-5" d="M154.2,380.6c0,0-.8.2-2,.6-.7.3-1.4.6-2.1,1-.8.5-1.6,1-2.3,1.6-.7.6-1.3,1.3-1.9,2.1-.4.6-.8,1.3-1.2,2-.6,1.2-.8,2-.8,2,0-.2,0-.4,0-.6.1-.5.3-1,.5-1.5.3-.7.7-1.4,1.1-2.1.6-.8,1.2-1.5,1.9-2.2.7-.6,1.5-1.2,2.4-1.7.7-.4,1.4-.7,2.1-1,.5-.2,1-.3,1.6-.3.2,0,.4,0,.6,0Z"/>
    <path class="cls-5" d="M151.7,359.4c.5-1.5,1.5-2.9,2.7-4-.8,1.4-1.7,2.7-2.7,4Z"/>
    <path class="cls-5" d="M175.1,375.1c0,0,0-.1,0-.2,0-.2,0-.4-.1-.6-.1-.5-.3-1.3-.6-2.2-.4-1.2-.9-2.3-1.5-3.4-.8-1.4-1.9-2.6-3.4-3.4-3.9-1.7-7.9-3.1-12-4.2-4.6-1.4-9.7-2.8-15-4.2-10.7-2.8-20.5-4.8-27.6-6.1-3.6-.6-6.5-1-8.5-1.3l-2.3-.3h-.6c0,0-.2,0-.2,0h.8c0,0,2.3.3,2.3.3,2,.2,4.9.6,8.5,1.2,9.3,1.5,18.6,3.5,27.7,6,5.4,1.4,10.4,2.9,15,4.3,4.1,1.2,8.1,2.6,12,4.4,1.5.8,2.6,2,3.4,3.5.6,1.1,1.1,2.2,1.4,3.4.2.7.4,1.5.6,2.3,0,.2,0,.4.1.6,0,0,0,.1,0,.2Z"/>
    <path class="cls-5" d="M151.8,460.5l.5-1.9c-6.2-.5-12.1-3.1-16.7-7.2l-5.1,11.1,34.2,15.2c1.3-3.3-12.9-17.3-12.9-17.3Z"/>
    <path class="cls-8" d="M130.4,462.5l1.2-2.7,32.4,15.6s1.2,1.3.6,2.3l-34.2-15.2Z"/>
    <path class="cls-6" d="M151.3,460.2c0,.2-1-.1-2,0s-1.8.6-1.9.5.6-1,1.9-1.1,2.2.5,2.1.6Z"/>
    <path class="cls-8" d="M138,459c-.2.5-.8.7-1.3.5-.5-.2-.7-.8-.5-1.3.2-.5.8-.7,1.3-.5.5.2.7.8.5,1.2,0,0,0,0,0,0Z"/>
    <path class="cls-6" d="M151.1,460c-.3,0-.5,0-.8-.1-.7-.2-1.4-.5-1.9-1-.2-.2-.3-.4-.4-.6-.2-.2-.3-.5-.3-.8,0-.4.2-.7.5-.9.3-.1.7,0,1,0,1.3.6,2.1,1.9,2.1,3.3h-.5c0-.3.2-.6.3-.8.8-1.3,2.2-2.1,3.7-2.1.2,0,.4,0,.6.1.2.1.3.3.4.5,0,.4,0,.7-.2,1-.3.5-.8.8-1.3,1-.7.3-1.6.4-2.4.4-.3,0-.6,0-.9,0,.3,0,.6-.1.9-.1.8,0,1.5-.2,2.2-.5.4-.2.8-.5,1.1-1,.1-.2.2-.4.2-.7,0-.2-.2-.3-.5-.2-1.3,0-2.6.7-3.3,1.9-.1.2-.2.4-.3.7,0,.1-.2.2-.3.2-.1,0-.2-.1-.2-.2,0-1.2-.7-2.4-1.8-2.9-.5-.2-1,0-1,.4,0,.4.3.8.6,1.2.5.5,1.1.9,1.7,1.1.3,0,.5.2.8.3Z"/>
    <path class="cls-6" d="M154,462.6c-.8,0-1.5,0-2.3.2-.7.2-1.4.5-2.1.9,1-1.3,2.8-1.8,4.3-1.1h0Z"/>
    <path class="cls-6" d="M155.9,464.8c0,.1-.9,0-2,.4s-1.8.8-1.9.8c.4-.6,1.1-1,1.8-1.1.7-.3,1.4-.3,2.1,0Z"/>
    <path class="cls-5" d="M141.8,405.6l.8-1.7c-6-1.6-11.4-5-15.3-9.9l-6.9,10.1,31.2,20.8c1.8-3-9.8-19.2-9.8-19.2Z"/>
    <path class="cls-8" d="M120.4,404l1.7-2.5,29.3,20.9s1,1.5.2,2.4l-31.2-20.8Z"/>
    <path class="cls-6" d="M141.4,405.3c-.1.1-.9-.3-2-.3s-1.9.3-2,.2.7-.9,2-.8,2.1.8,2,.9Z"/>
    <path class="cls-8" d="M128.4,401.9c-.3.4-.9.5-1.4.2-.4-.3-.5-.9-.2-1.4.3-.4.9-.5,1.4-.2.4.3.5.9.2,1.3Z"/>
    <path class="cls-6" d="M141.2,405c-.3,0-.5-.1-.7-.3-.7-.3-1.3-.7-1.7-1.3-.1-.2-.3-.4-.4-.7-.1-.3-.2-.5-.1-.8,0-.4.3-.7.7-.7.3,0,.7,0,1,.2,1.1.8,1.7,2.2,1.5,3.6l-.5-.2c.1-.2.3-.5.5-.7,1-1.2,2.5-1.7,4-1.4.2,0,.4,0,.6.2.2.1.3.3.3.6,0,.4-.2.7-.4.9-.4.4-.9.7-1.5.8-.8.2-1.6.2-2.4,0-.3,0-.6-.1-.8-.2.3,0,.6,0,.9,0,.7.1,1.5,0,2.2-.1.5-.1.9-.4,1.3-.8.2-.2.3-.4.3-.6s-.2-.3-.5-.3c-1.3-.2-2.7.3-3.5,1.3-.2.2-.3.4-.4.6,0,.1-.2.2-.3.1,0,0,0,0,0,0,0,0-.2-.2-.1-.3.2-1.2-.3-2.4-1.3-3.2-.4-.3-1-.2-1,.2,0,.4.1.9.4,1.2.4.6.9,1,1.5,1.4.2.1.5.3.7.5Z"/>
    <path class="cls-6" d="M143.5,408.1c-.7-.1-1.5-.2-2.3-.2-.7.1-1.5.3-2.2.6.5-.6,1.3-1,2.2-1,.8-.1,1.7.1,2.3.7Z"/>
    <path class="cls-6" d="M145.1,410.6c0,.1-.9,0-2.1,0s-1.9.5-2,.4c.5-.5,1.3-.8,2-.8.7-.1,1.4,0,2.1.3Z"/>
    <path class="cls-1" d="M81.3,258.2c-.5-.6-1.4-.9-2.2-.8-.6,0-1.1.4-1.5.9-.3.5-.3,1.1,0,1.6.5.5,1.2.6,1.8.4.6-.3,1.2-.6,1.7-1.1.1-.1.3-.3.4-.4,0-.1,0-.3,0-.5"/>
    <path class="cls-6" d="M77.8,256c.2,0,.3,1.4,1.6,2.4s2.8.8,2.8,1-.3.3-1,.3c-.9,0-1.7-.2-2.4-.7-.6-.5-1.1-1.2-1.2-2,0-.7,0-1,.2-1Z"/>
  </g>
</svg>