<?xml version="1.0" encoding="UTF-8"?>
<svg id="Ebene_1" data-name="Ebene 1" xmlns="http://www.w3.org/2000/svg" version="1.1" viewBox="0 0 500 500">
  <defs>
    <style>
      .cls-1 {
        fill: #f5f5f5;
      }

      .cls-1, .cls-2, .cls-3, .cls-4, .cls-5, .cls-6, .cls-7, .cls-8, .cls-9, .cls-10, .cls-11, .cls-12 {
        stroke-width: 0px;
      }

      .cls-2 {
        fill: #ebebeb;
      }

      .cls-3, .cls-13 {
        fill: #455a64;
      }

      .cls-4 {
        fill: #263238;
      }

      .cls-5 {
        fill: #ffbe9d;
      }

      .cls-6 {
        fill: #fafafa;
      }

      .cls-7 {
        fill: #e0e0e0;
      }

      .cls-8 {
        fill: #000;
      }

      .cls-9 {
        fill: #0f9fdb;
      }

      .cls-14 {
        opacity: .2;
      }

      .cls-15 {
        opacity: .3;
      }

      .cls-16 {
        opacity: .6;
      }

      .cls-17 {
        opacity: .5;
      }

      .cls-10 {
        fill: #6e6af6;
      }

      .cls-13 {
        font-family: Inter-Black, Inter;
        font-size: 36px;
        font-weight: 800;
      }

      .cls-11 {
        fill: #fff;
      }

      .cls-18 {
        opacity: 0;
      }

      .cls-12 {
        fill: #eb996e;
      }
    </style>
  </defs>
  <g id="freepik--background-complete--inject-199">
    <path class="cls-7" d="M388.6,242.6c1.7-2,3.7-3.8,5.8-5.2l-.8-7.2,11.3-4,3.9,6.2c2.6-.2,5.3,0,7.8.4l4.5-5.7,10.8,5.2-1.6,7.1c2,1.7,3.8,3.7,5.2,5.8l7.2-.8,4,11.3-6.1,3.8c.2,2.6,0,5.2-.4,7.8l5.7,4.5-5.2,10.8-7.1-1.6c-1.7,2-3.7,3.7-5.8,5.2l.8,7.2-11.3,4-3.9-6.1c-2.6.2-5.2,0-7.8-.4l-4.5,5.7-10.8-5.2,1.6-7.1c-2-1.7-3.7-3.7-5.2-5.8l-7.2.8-4-11.3,6.1-3.9c-.2-2.6,0-5.2.4-7.8l-5.7-4.5,5.2-10.8,7.1,1.6h0ZM398.5,251.7c-5.6,7-4.5,17.2,2.5,22.8,1.9,1.5,4.2,2.6,6.6,3.2,6,1.4,12.3-.8,16.1-5.6,5.5-7.1,4.3-17.3-2.8-22.8-6.9-5.4-16.9-4.3-22.5,2.4h0Z"/>
    <path class="cls-7" d="M80.4,232.1c.7-.8,1.5-1.5,2.4-2.1l-.3-2.9,4.5-1.6,1.6,2.5c1.1,0,2.1,0,3.2.2l1.8-2.3,4.4,2.1-.7,2.9c.8.7,1.5,1.5,2.1,2.4l2.9-.3,1.6,4.6-2.5,1.5c0,1.1,0,2.1-.2,3.2l2.3,1.8-2.1,4.4-2.8-.6c-.7.8-1.5,1.5-2.4,2.1l.3,2.9-4.6,1.6-1.6-2.5c-1.1,0-2.1,0-3.2-.2l-1.8,2.3-4.4-2.1.7-2.9c-.8-.7-1.5-1.5-2.1-2.4l-2.9.3-1.6-4.6,2.5-1.6c0-1.1,0-2.1.2-3.2l-2.3-1.8,2.1-4.4s2.8.7,2.9.7ZM84.4,235.8c-2.3,2.8-1.8,6.9,1,9.2,2.8,2.3,6.9,1.8,9.2-1,2.3-2.8,1.8-6.9-1-9.2-.8-.6-1.7-1.1-2.7-1.3-2.4-.6-5,.3-6.5,2.3h0Z"/>
    <path class="cls-9" d="M447.6,88.2l-2.6-4.2c-1.6,0-3.1,0-4.7-.3l-3,3.8-7.8-3.8,1.1-4.8c-1.2-1-2.2-2.2-3.1-3.5l-4.8.6-2.9-8.2,4.1-2.6c-.1-1.6,0-3.1.2-4.7l-3.8-3,3.7-7.8,4.8,1.1c1-1.2,2.2-2.2,3.5-3.1l-.5-4.8,8.2-2.9,2.6,4.1c1.6,0,3.1,0,4.7.3l3-3.8,7.9,3.8-1,4.8c1.2,1,2.2,2.2,3.1,3.5l4.8-.6,2.9,8.2-4.1,2.6c0,1.6,0,3.1-.3,4.7l3.8,3-3.8,7.8-4.7-1.1c-1,1.2-2.2,2.2-3.5,3.1l.5,4.8-8.2,2.9ZM445.5,83l2.5,4,6.7-2.3-.6-4.7.2-.2c1.4-.9,2.6-2.1,3.7-3.3l.2-.2,4.6,1,3.1-6.4-3.7-2.9v-.3c.4-1.6.5-3.3.3-5v-.3l4-2.5-2.4-6.7-4.6.5-.2-.2c-.9-1.4-2.1-2.7-3.3-3.7l-.2-.2,1-4.6-6.4-3.1-2.9,3.7h-.3c-1.6-.4-3.3-.5-5-.3h-.3l-2.5-4-6.7,2.3.5,4.6-.2.2c-1.4.9-2.7,2.1-3.7,3.3l-.2.2-4.6-1-3.1,6.4,3.7,2.9v.3c-.4,1.6-.5,3.3-.3,5v.3l-4,2.5,2.4,6.7,4.6-.5.2.2c.9,1.4,2.1,2.6,3.3,3.7l.2.2-1,4.6,6.4,3.1,2.9-3.7h.3c1.6.4,3.3.5,5,.3h.3ZM443.7,75.3c-.8,0-1.6,0-2.4-.3-6-1.3-9.8-7.3-8.5-13.3.4-1.7,1.1-3.2,2.2-4.6h0c3.9-4.8,10.9-5.6,15.7-1.7s5.6,10.9,1.7,15.7c-2.1,2.6-5.3,4.2-8.7,4.2h0ZM443.7,53.9c-5.7,0-10.3,4.5-10.3,10.2,0,5.7,4.5,10.3,10.2,10.3,5.7,0,10.3-4.5,10.3-10.2,0-4.8-3.3-9-8-10.1-.7-.2-1.4-.3-2.2-.3h0Z"/>
    <path class="cls-2" d="M156,333.9c1.6-1.8,3.4-3.5,5.4-4.8l-.8-6.7,10.4-3.7,3.6,5.7c2.4-.2,4.8,0,7.2.4l4.2-5.2,10,4.8-1.5,6.5c1.8,1.6,3.5,3.4,4.8,5.4l6.7-.8,3.7,10.5-5.7,3.6c.2,2.4,0,4.8-.4,7.2l5.2,4.2-4.8,10-6.5-1.5c-1.6,1.8-3.4,3.5-5.4,4.8l.8,6.7-10.5,3.7-3.6-5.7c-2.4.2-4.8,0-7.2-.4l-4.2,5.2-10-4.8,1.5-6.5c-1.8-1.6-3.5-3.4-4.8-5.4l-6.7.8-3.7-10.5,5.7-3.6c-.2-2.4,0-4.8.4-7.2l-5.2-4.2,4.8-10,6.5,1.5h0ZM165.1,342.2c-5.2,6.4-4.2,15.9,2.2,21.1s15.9,4.2,21.1-2.2c5.2-6.4,4.2-15.9-2.2-21.1-1.8-1.5-4-2.5-6.3-3-5.6-1.3-11.3.8-14.9,5.2h0Z"/>
    <path class="cls-1" d="M51.8,71.9c1.9-2.3,4.1-4.2,6.6-5.9l-.9-8.1,12.8-4.5,4.3,6.9c2.9-.2,5.9,0,8.8.5l5.1-6.4,12.2,5.9-1.8,8c2.2,1.9,4.2,4.1,5.9,6.6l8.1-.9,4.5,12.8-6.9,4.3c.2,2.9,0,5.9-.5,8.8l6.4,5.1-5.9,12.2-8-1.8c-1.9,2.2-4.1,4.2-6.6,5.9l.9,8.1-12.7,4.5-4.3-6.9c-2.9.2-5.9,0-8.8-.5l-5.1,6.4-12.2-5.9,1.8-8c-2.2-1.9-4.2-4.1-5.9-6.6l-8.1.9-4.5-12.8,6.9-4.3c-.2-2.9,0-5.9.5-8.8l-6.4-5.1,5.9-12.2,8,1.8h0ZM62.8,82.1c-6.3,7.9-5.1,19.4,2.8,25.7,2.2,1.8,4.7,3,7.5,3.6,6.8,1.5,13.8-.9,18.2-6.4,6.3-7.9,5.1-19.4-2.8-25.7-2.2-1.8-4.7-3-7.5-3.6-6.8-1.5-13.8.9-18.2,6.4Z"/>
    <path class="cls-7" d="M135.2,40.5c1.1-1.3,2.5-2.5,3.9-3.5l-.6-4.8,7.6-2.7,2.6,4.1c1.8-.1,3.5,0,5.3.3l3-3.8,7.3,3.5-1.1,4.8c1.3,1.1,2.5,2.5,3.5,3.9l4.8-.6,2.7,7.6-4.1,2.6c.1,1.8,0,3.5-.3,5.2l3.8,3-3.5,7.3-4.8-1.1c-1.1,1.3-2.5,2.5-3.9,3.5l.6,4.8-7.6,2.7-2.6-4.1c-1.8.1-3.5,0-5.2-.3l-3,3.8-7.3-3.5,1.1-4.8c-1.3-1.1-2.5-2.5-3.5-3.9l-4.9.6-2.7-7.6,4.1-2.5c-.1-1.8,0-3.5.3-5.3l-3.8-3,3.5-7.3,4.8,1.1h0ZM141.8,46.6c-3.8,4.7-3.1,11.6,1.6,15.3,4.7,3.8,11.6,3.1,15.3-1.6s3.1-11.6-1.6-15.3c-1.3-1.1-2.9-1.8-4.5-2.2-4-.9-8.3.6-10.8,3.8h0Z"/>
    <path class="cls-7" d="M323.2,421c.2-.4.5-.7.9-1,.7-.7,1.5-1.5,2.5-2.5,2.1-2.1,5-4.9,8.3-8h0c0,0,0,.4,0,.4-3.3-3.1-6.2-5.9-8.4-7.9l-2.5-2.4c-.3-.3-.6-.6-.9-1,.4.2.7.5,1,.8.7.6,1.6,1.4,2.6,2.3,2.2,2,5.2,4.7,8.5,7.8l.2.2-.2.2h0c-3.3,3.2-6.2,6-8.4,8-1,.9-1.9,1.7-2.6,2.4-.3.3-.6.6-1,.8Z"/>
    <path class="cls-7" d="M297.8,398.6c-.2.4-.5.7-.9,1l-2.5,2.5c-2.1,2.1-5,4.9-8.3,8h0c0,0,0-.4,0-.4,3.3,3,6.2,5.8,8.4,7.9l2.5,2.4c.3.3.6.6.9,1-.4-.2-.7-.5-1-.8l-2.7-2.3c-2.2-2-5.2-4.7-8.5-7.8l-.2-.2.2-.2h0c3.3-3.2,6.2-6,8.4-8l2.6-2.4c.3-.3.6-.6,1-.8Z"/>
    <path class="cls-7" d="M304.3,426.3c-.1,0,2.5-7.6,6-16.8s6.4-16.6,6.5-16.5-2.5,7.5-6,16.7-6.4,16.6-6.5,16.6Z"/>
    <path class="cls-7" d="M352.1,442.4v-4.9c0-3.2,0-7.8,0-13.7,0-11.8,0-28.6-.1-48.8l.2.2h-82.7s.3-.2.3-.2v67.4l-.3-.3h59.7c0,.1,16.9.2,16.9.2h6.1-22.8c0,0-59.9.2-59.9.2h-.2v-67.9h83.2v.4c0,20.3-.1,37.2-.1,49,0,5.9,0,10.5,0,13.6v3.6c0,.8-.2,1.2-.2,1.2Z"/>
    <path class="cls-7" d="M352.8,385c0,.1-18.7.3-41.7.3s-41.7-.1-41.7-.3,18.7-.3,41.7-.3,41.7.1,41.7.3Z"/>
    <path class="cls-7" d="M276.2,380.1c0,.6-.5,1.1-1.1,1.1-.6,0-1.1-.5-1.1-1.1,0-.6.5-1.1,1.1-1.1,0,0,0,0,0,0,.6,0,1.1.5,1.1,1.1Z"/>
    <path class="cls-7" d="M280.2,380.1c0,.6-.5,1.1-1.1,1.1s-1.1-.5-1.1-1.1.5-1.1,1.1-1.1h0c.6,0,1.1.5,1.1,1.1Z"/>
    <path class="cls-7" d="M284.3,380.1c0,.6-.5,1.1-1.1,1.1s-1.1-.5-1.1-1.1.5-1.1,1.1-1.1h0c.6,0,1.1.5,1.1,1.1Z"/>
    <polygon class="cls-1" points="66 447 66 475.8 108.2 475.8 154.7 475.8 154.7 447 66 447"/>
    <polygon class="cls-7" points="62.3 438.9 62.3 447 157.8 447 157.8 438.9 108.2 438.9 62.3 438.9"/>
    <polygon class="cls-7" points="110 475.8 154.7 475.8 154.7 447 157.8 447 157.8 438.9 108.2 438.9 108.2 446.2 110 475.8"/>
    <rect class="cls-7" x="78.4" y="451.6" width="18" height="4.3"/>
    <rect class="cls-11" x="76.1" y="461.4" width="23.1" height="9.2"/>
    <polygon class="cls-1" points="86.2 414.4 86.2 438.9 122.1 438.9 161.7 438.9 161.7 414.4 86.2 414.4"/>
    <polygon class="cls-7" points="83 407.5 83 414.4 164.3 414.4 164.3 407.5 122.1 407.5 83 407.5"/>
    <polygon class="cls-7" points="123.7 438.9 161.7 438.9 161.7 414.4 164.3 414.4 164.3 407.5 122.1 407.5 122.1 413.7 123.7 438.9"/>
    <rect class="cls-7" x="96.7" y="418.3" width="15.3" height="3.7"/>
    <rect class="cls-11" x="94.8" y="426.6" width="19.7" height="7.8"/>
  </g>
  <g id="freepik--Floor--inject-199">
    <path class="cls-4" d="M472.4,476.2c0,.1-99.6.3-222.4.3s-222.4-.1-222.4-.3,99.6-.3,222.4-.3,222.4.1,222.4.3Z"/>
  </g>
  <g id="freepik--Screens--inject-199">
    <rect class="cls-6" x="96.8" y="58.5" width="310.1" height="267.8"/>
    <rect class="cls-2" x="96.8" y="57.7" width="310.1" height="25.4"/>
    <path class="cls-6" d="M111.8,70.4c0,1.8-1.5,3.3-3.3,3.3s-3.3-1.5-3.3-3.3,1.5-3.3,3.3-3.3c0,0,0,0,0,0,1.8,0,3.3,1.5,3.3,3.3Z"/>
    <path class="cls-6" d="M123.8,70.4c0,1.8-1.5,3.3-3.3,3.3s-3.3-1.5-3.3-3.3,1.5-3.3,3.3-3.3h0c1.8,0,3.3,1.5,3.3,3.3Z"/>
    <path class="cls-6" d="M135.8,70.4c0,1.8-1.5,3.3-3.3,3.3s-3.3-1.5-3.3-3.3,1.5-3.3,3.3-3.3c0,0,0,0,0,0,1.8,0,3.3,1.5,3.3,3.3Z"/>
    <text/>
    <rect class="cls-11" x="181.7" y="300.7" width="189" height="53.5"/>
    <path class="cls-4" d="M370.7,354.1v-14.1c0-9.1,0-22.5,0-39.4l.2.2h-189c0,.1.3-.2.3-.2v53.5l-.2-.3h135c0,.1,39.6.2,39.6.2h14.4-53.8c0,0-135.2.2-135.2.2h-.3v-54h189.3c0,0,.2,0,.2,0v.2c0,16.9,0,30.3,0,39.5v13.1c0,.6-.2,1-.2,1Z"/>
    <path class="cls-10" d="M203.3,330.5c-1.7,0-3.1-1.3-3.1-3s1.3-3.1,3-3.1c1.7,0,3.1,1.3,3.1,3,0,0,0,0,0,0,0,1.6-1.4,3-3,3ZM203.3,325.3c-1.2,0-2.1.9-2.1,2.1s.9,2.1,2.1,2.1,2.1-.9,2.1-2.1h0c0-1.2-.9-2.1-2.1-2.1Z"/>
    <path class="cls-4" d="M336.4,327.9h-124.6c-.3,0-.5-.2-.5-.5s.2-.5.5-.5h124.6c.3,0,.5.2.5.5s-.2.5-.5.5Z"/>
    <path class="cls-10" d="M295.6,327.5c0,2.3-1.8,4.1-4.1,4.1-2.3,0-4.1-1.8-4.1-4.1,0-2.3,1.8-4.1,4.1-4.1h0c2.3,0,4.1,1.8,4.1,4.1h0Z"/>
    <path class="cls-10" d="M344.7,330c-1.7,0-3.1-1.4-3.1-3.1s1.4-3.1,3.1-3.1,3.1,1.4,3.1,3.1h0c0,1.7-1.4,3.1-3.1,3.1ZM344.7,324.8c-1.2,0-2.1,1-2.1,2.2,0,1.2,1,2.1,2.2,2.1,1.2,0,2.1-1,2.1-2.1s0,0,0,0c0-1.2-1-2.1-2.1-2.1h0Z"/>
    <path class="cls-10" d="M349.3,327.9c-.4,0-.7-.3-.7-.5s.4-.4.8-.4.7.2.7.5-.4.5-.8.4Z"/>
    <path class="cls-10" d="M347.3,330.9c-.2-.3-.3-.7-.1-.9s.5,0,.8.3.3.7.1.9-.6,0-.8-.3Z"/>
    <path class="cls-10" d="M343.8,331.6c0-.4.3-.7.5-.7s.4.4.4.8-.2.7-.5.7-.5-.4-.4-.8Z"/>
    <path class="cls-10" d="M340.7,329.6c.3-.2.7-.3.9-.1s0,.5-.3.8-.7.3-.9.1,0-.6.3-.8Z"/>
    <path class="cls-10" d="M340,326c.4,0,.7.3.7.5s-.4.4-.8.4-.7-.2-.7-.5.4-.5.8-.4Z"/>
    <path class="cls-10" d="M342,323c.2.3.3.7.1.9s-.5,0-.8-.3-.3-.7-.1-.9.6-.1.8.3Z"/>
    <path class="cls-10" d="M345.6,322.3c0,.4-.3.7-.5.7s-.4-.4-.4-.8.2-.7.5-.7.5.4.4.8Z"/>
    <path class="cls-10" d="M348.6,324.3c-.3.2-.7.3-.9.1s0-.5.3-.8.7-.3.9-.1.1.6-.3.8Z"/>
    <path class="cls-10" d="M291,328.5h-79c-.5,0-.9-.4-.9-.9s.4-.9.9-.9h79c.5,0,.9.4.9.9s-.4.9-.9.9Z"/>
    <polygon class="cls-11" points="398.4 100.8 398.4 209.2 405.5 209.2 420.3 209.2 472 209.2 472 100.8 398.4 100.8"/>
    <path class="cls-4" d="M398.4,100.8h73.6c0-.1.2-.1.2-.1v.2c0,29.9,0,67.6,0,108.3h0v.3h-74.1v-.2c0-32,0-59.1.1-78.2,0-9.5,0-17.1,0-22.2v-7.9,8c0,5.2,0,12.8,0,22.3,0,19.1,0,46.1.1,78.1l-.2-.2h73.6l-.3.3h0c0-40.8,0-78.4,0-108.3l.2.2h-53.5c0-.1-14.8-.2-14.8-.2h-3.9l-1.2-.2Z"/>
    <path class="cls-7" d="M418.8,119.6h.2c1.1,0,2,.9,2,2v67.7c0,1.1-.9,2-2,2h-.2c-1.1,0-2-.9-2-2v-67.7c0-1.1.9-2,2-2h0Z"/>
    <path class="cls-4" d="M419,191.4c.5,0,1-.2,1.3-.6.9-.7.5-2.3.6-4.1,0-3.8,0-9.2,0-15.9s0-14.7,0-23.6v-25.1c0-.3,0-.6,0-.9,0-.3-.2-.5-.4-.7-.4-.4-1-.6-1.5-.6-.6,0-1.1.3-1.4.7-.2.2-.3.5-.3.8v26c0,8.9,0,16.9,0,23.6s0,12.1,0,15.9v2.5c0,.6.3,1.2.8,1.5.3.2.6.4,1,.4h.4c-.1,0-.3,0-.4,0-1.1,0-1.9-.9-1.9-2v-2.5c0-3.8,0-9.2,0-15.9s0-14.7,0-23.6v-25.1c0-.3,0-.7,0-1,0-.4.2-.7.4-1,.4-.6,1.1-1,1.8-1,.7,0,1.4.2,1.9.8.2.3.4.6.5.9,0,.3,0,.7,0,1v25.1c0,8.9,0,16.9,0,23.6s0,12.1,0,15.9v2.5c0,.6-.2,1.3-.7,1.7-.4.5-1,.7-1.5.7Z"/>
    <rect class="cls-7" x="433.1" y="119.6" width="4.2" height="71.8" rx="2" ry="2"/>
    <path class="cls-4" d="M435.3,191.4c.5,0,1-.2,1.3-.6.9-.7.5-2.3.6-4.1,0-3.8,0-9.2,0-15.9s0-14.7,0-23.6v-25.1c0-.3,0-.6,0-.9,0-.3-.2-.5-.4-.7-.4-.4-1-.7-1.5-.6-.6,0-1.1.3-1.4.7-.2.2-.3.5-.3.8v26c0,8.9,0,16.9,0,23.6s0,12.1,0,15.9v2.5c0,.6.3,1.2.8,1.5.3.2.6.4,1,.4h.4c-.1,0-.3,0-.4,0-.4,0-.7-.1-1.1-.4-.5-.4-.8-1-.9-1.6v-2.5c0-3.8,0-9.2,0-15.9s0-14.7,0-23.6v-25c0-.3,0-.7,0-1,0-.4.2-.7.4-1,.8-1.1,2.4-1.3,3.5-.4,0,0,.2.1.2.2.2.3.4.6.5.9,0,.3,0,.7,0,1v3.8c0,2.5,0,5,0,7.4v13.9c0,8.9,0,16.9,0,23.6s0,12.1,0,15.9v2.5c0,.6-.2,1.3-.7,1.7-.4.4-1,.6-1.6.5Z"/>
    <rect class="cls-7" x="449.4" y="119.6" width="4.2" height="71.8" rx="2" ry="2"/>
    <path class="cls-4" d="M451.6,191.4c.5,0,1-.2,1.3-.6.9-.7.5-2.3.6-4.1,0-3.8,0-9.2,0-15.9s0-14.7,0-23.6v-25.1c0-.3,0-.6,0-.9,0-.3-.2-.5-.4-.7-.4-.4-1-.7-1.5-.6-.6,0-1.1.3-1.4.7-.2.2-.3.5-.3.8,0,.3,0,.6,0,.9v25.1c0,8.9,0,16.9,0,23.6s0,12.1,0,15.9v2.5c0,1,.8,1.8,1.8,1.9h.4c-.1,0-.3,0-.4,0-.4,0-.8-.1-1.1-.4-.5-.4-.8-1-.9-1.6v-2.5c0-3.8,0-9.2,0-15.9s0-14.7,0-23.6v-26c.2-1.1,1.1-1.9,2.2-1.9.7,0,1.4.2,1.9.8.2.3.4.6.5.9,0,.3,0,.7,0,1v25.1c0,8.9,0,16.9,0,23.6s0,12.1,0,15.9v2.5c0,.6-.2,1.3-.7,1.7-.4.4-1,.6-1.6.5Z"/>
    <path class="cls-10" d="M418.6,153.3h-.8c-2.3,0-4.1-1.8-4.1-4.1h0c0-2.3,1.8-4.1,4.1-4.1h.8c2.3,0,4.1,1.8,4.1,4.1h0c0,2.3-1.8,4.1-4.1,4.1Z"/>
    <path class="cls-10" d="M436,168.8h-.8c-2.3,0-4.1-1.8-4.1-4.1h0c0-2.3,1.8-4.1,4.1-4.1s0,0,0,0h.8c2.3,0,4.1,1.8,4.1,4.1,0,0,0,0,0,0h0c0,2.3-1.8,4.1-4.1,4.1,0,0,0,0,0,0Z"/>
    <path class="cls-10" d="M451.7,139.5h-.7c-2.3,0-4.1-1.8-4.1-4.1h0c0-2.3,1.8-4.1,4.1-4.1h.8c2.3,0,4.1,1.8,4.1,4.1h0c0,2.3-1.8,4.1-4.1,4.1,0,0,0,0,0,0Z"/>
    <rect class="cls-11" x="234.3" y="191.4" width="151.7" height="88.6"/>
    <text/>
    <text class="cls-13" transform="translate(238.9 252.8)"><tspan x="0" y="0">Art.</tspan></text>
    <path class="cls-3" d="M347.7,248.6c-.6-.4-1.4-.7-2.4-1s-2-.6-3-.9c-1.1-.4-2.2-.8-3.1-1.4s-1.8-1.3-2.4-2.2-.9-2.1-.9-3.5.2-2.2.6-2.9.9-1.4,1.5-1.9,1.2-.9,1.7-1.3h0c-.7-.5-1.3-1-1.8-1.6s-1-1.2-1.3-2-.5-1.7-.5-2.7c0-1.8.5-3.2,1.4-4.4s2.2-2.1,3.7-2.7,3.3-.9,5.2-.9,3.8.3,5.2,1,2.6,1.6,3.3,2.8,1.2,2.6,1.2,4.2h-7c0-.5-.2-.9-.4-1.2s-.6-.6-1-.8-.9-.3-1.5-.3-1.3.2-1.7.6-.6.8-.6,1.3.3,1.2.9,1.5,1.4.7,2.3,1,2,.6,3,.9c1.1.3,2.1.8,3.1,1.3s1.8,1.2,2.4,2.1.9,2,.9,3.5-.2,2.1-.6,2.9-.9,1.6-1.5,2.2-1.2,1.1-1.7,1.5h0c.7.5,1.3,1,1.9,1.5s.9,1.1,1.2,1.8.4,1.5.4,2.5c0,1.6-.4,3-1.2,4.3s-2,2.2-3.5,2.9-3.4,1.1-5.5,1.1-3.8-.3-5.3-1-2.7-1.6-3.5-2.8-1.3-2.6-1.3-4.3h7c0,.6.4,1.2.9,1.7.5.5,1.2.7,2.1.7s1.1,0,1.5-.3.7-.4.8-.7c.2-.3.3-.6.3-.9,0-.6-.3-1.1-.9-1.5ZM348.3,240.9c.3-.3.5-.6.7-1s.2-.8.2-1.2c0-.8-.3-1.4-.9-1.9s-1.3-.8-2-1c-.2,0-.4,0-.6-.1s-.4,0-.6-.1c-.4.2-.8.5-1,.8s-.5.6-.6,1-.2.7-.2,1.1c0,.8.3,1.4.9,1.8s1.3.7,2.1.9c.2,0,.4.1.6.2s.4,0,.6.1c.4-.2.7-.4,1-.7Z"/>
    <text/>
    <path class="cls-4" d="M314.4,263.5c-.1,0-.3-11.4-.3-25.5s.1-25.5.3-25.5.3,11.4.3,25.5-.1,25.5-.3,25.5Z"/>
    <rect class="cls-11" x="226.6" y="106.3" width="156.9" height="68.7"/>
    <path class="cls-4" d="M383.5,175v-18.5c0-11.9,0-29-.1-50.2l.2.2h-156.9c0,0,.3-.2.3-.2v68.7l-.2-.2h112.6c0,.1,32.6.2,32.6.2h11.7-44.2c0,0-112.8.2-112.8.2h-.2v-69.1h157.2c0,0,.2,0,.2,0v.2c0,21.2,0,38.4-.1,50.3,0,5.9,0,10.5,0,13.6v3.5c0,.8-.1,1.2-.1,1.2Z"/>
    <rect class="cls-11" x="244.2" y="143.3" width="16.6" height="13.5"/>
    <path class="cls-4" d="M260.8,156.8v-3.7c0-2.4,0-5.8,0-9.8h0c0,0-16.6,0-16.6,0h.1c0-.1,0,6.9,0,6.9v6.4h0c0-.1,12,0,12,0h4.6-16.6c0,0,0,0,0,0h0v-13.5h0c-.1,0,.1-.1.1-.1h16.7c0,4.1,0,7.5,0,9.9v2.7c0,.7-.2,1.1-.2,1.1Z"/>
    <rect class="cls-10" x="246.9" y="142.6" width="11.3" height="15" transform="translate(101.4 401.9) rotate(-89.8)"/>
    <g class="cls-14">
      <polygon class="cls-8" points="245 155.6 250.2 148.6 253.5 153 255.7 150.7 260 155.7 245 155.6"/>
    </g>
    <g class="cls-14">
      <path class="cls-8" d="M254.9,147.8c0,.6-.5,1.2-1.2,1.2-.7,0-1.2-.5-1.2-1.2s.5-1.2,1.2-1.2c.7,0,1.2.5,1.2,1.2Z"/>
    </g>
    <rect class="cls-11" x="275.1" y="132.4" width="31.5" height="25.6"/>
    <path class="cls-4" d="M306.6,158v-25.6h0c0,0-31.6,0-31.6,0,0,0,.2-.2.1-.1h0v25.6h0c0,0,22.8,0,22.8,0h8.8-31.6v-25.4h0c0,0,.1-.1.1-.1h31.6c0,7.8,0,14.2,0,18.7v5.2c0,1.2,0,1.8,0,1.8Z"/>
    <rect class="cls-10" x="280.2" y="131" width="21.4" height="28.4" transform="translate(144.4 435.5) rotate(-89.8)"/>
    <g class="cls-14">
      <polygon class="cls-8" points="276.6 155.8 286.6 142.6 292.7 150.9 296.9 146.5 305 156 276.6 155.8"/>
    </g>
    <g class="cls-14">
      <path class="cls-8" d="M295.4,141c0,1.2-1,2.2-2.2,2.2-1.2,0-2.2-1-2.2-2.2,0-1.2,1-2.2,2.2-2.2s2.2,1,2.2,2.2h0Z"/>
    </g>
    <rect class="cls-11" x="321" y="121.1" width="48.3" height="39.2"/>
    <path class="cls-4" d="M369.3,160.3c0-1.8,0-15.9,0-39.2h0c0,0-48.3,0-48.3,0h.1c0,0,0,10.4,0,10.4v28.7h-.1c0,0,48.3,0,48.3,0h-48.3c0,0,0,0,0,0h0v-39.3h0c-.1,0,.1-.1.1-.1h48.4c0,23.5,0,37.5-.1,39.3Z"/>
    <rect class="cls-10" x="328.8" y="118.9" width="32.8" height="43.6" transform="translate(203.1 485.3) rotate(-89.8)"/>
    <g class="cls-14">
      <polygon class="cls-8" points="323.3 156.9 338.6 136.6 348 149.4 354.4 142.6 366.9 157.1 323.3 156.9"/>
    </g>
    <g class="cls-14">
      <path class="cls-8" d="M352.1,134.2c0,1.9-1.5,3.4-3.4,3.4s-3.4-1.5-3.4-3.4,1.5-3.4,3.4-3.4c0,0,0,0,0,0,1.9,0,3.4,1.5,3.4,3.4h0Z"/>
    </g>
    <rect class="cls-11" x="18.9" y="116.6" width="186.8" height="116.8"/>
    <path class="cls-4" d="M205.7,233.4v-31.7c0-20.3,0-49.4-.1-85.1l.2.2H18.9c0,0,.3-.2.3-.2v116.8l-.2-.2h134.5c0,.1,38.5.2,38.5.2h13.8-52.2c0,0-134.6.2-134.6.2h-.2v-117.3h187.1c0,0,.2,0,.2,0v.2c0,35.7,0,65-.1,85.2,0,10.1,0,18,0,23.4v6.1c0,1.4-.2,2.2-.2,2.2Z"/>
    <path class="cls-7" d="M116.5,165.6h-9.1c-4.4,0-8-3.6-8-8v-19.5h25v19.5c0,4.4-3.6,7.9-7.9,8Z"/>
    <path class="cls-4" d="M116.5,165.6c.8,0,1.6-.2,2.3-.4.9-.3,1.7-.7,2.4-1.3,1-.8,1.8-1.8,2.3-2.9.6-1.4.9-3,.7-4.5v-18.4l.2.2h-25l.3-.3v19.9c0,1.1.3,2.2.8,3.2.9,1.8,2.4,3.1,4.3,3.8,1.6.4,3.2.6,4.8.5h6.8c0,0-.1,0-.2,0h-9c-.9,0-1.8-.2-2.6-.5-2-.7-3.6-2.1-4.5-4-.5-1-.8-2.2-.9-3.3v-20.1h25.5v18.6c.1,1.6-.2,3.2-.8,4.6-.6,1.2-1.4,2.2-2.4,3-.8.6-1.6,1-2.6,1.3-.8.4-1.7.6-2.5.6Z"/>
    <path class="cls-10" d="M99.6,138.3c3.6,2.6,7.4,4.4,11.9,4.3,4.7,0,9.2-1.6,13-4.3h-24.9Z"/>
    <path class="cls-4" d="M124.5,142.1c0,.2.1.4.2.5l.4,1.6c.4,1.4.9,3.4,1.5,5.8.3,1.2.6,2.6,1,4,.2.7.4,1.4.5,2.2.1.9,0,1.7-.3,2.5-.4.8-.9,1.5-1.7,2.1-.8.5-1.7.8-2.7.8h-8.4c-.9,0-1.9,0-2.8-.2-1.8-.4-3.4-1.3-4.5-2.7-.5-.6-1-1.4-1.3-2.1-.3-.8-.5-1.5-.8-2.2-.5-1.4-.9-2.7-1.3-3.9-.8-2.3-1.4-4.2-1.9-5.6l-.5-1.5c0-.2-.1-.4-.1-.6.1.2.2.3.2.5l.6,1.5,2.1,5.6,1.4,3.9c.4,1.5,1.1,2.9,2,4.2,1.1,1.3,2.6,2.2,4.3,2.5.9.2,1.8.2,2.7.1h8.4c.8,0,1.7-.2,2.4-.7,1.3-.9,2.1-2.5,1.8-4.1-.1-.7-.3-1.5-.5-2.2-.3-1.4-.7-2.8-.9-4-.5-2.4-1-4.4-1.3-5.8-.1-.7-.2-1.2-.3-1.6,0-.2,0-.4-.1-.6Z"/>
    <path class="cls-4" d="M103.3,143.2c0,.8-.6,1.4-1.4,1.4-.8,0-1.4-.6-1.4-1.4,0-.8.6-1.4,1.4-1.4s1.4.6,1.4,1.4h0Z"/>
    <path class="cls-10" d="M124.2,138.4c.1.6-.7,1.1-.7,1.8,0,1.1-.7,2.2-1.7,2.6,0,0-.2,0-.2.1-.4.5-.7,1.1-.7,1.7l-.5,3.1c0,.7-.2,1.3-.5,1.9-.3.6-.9,1-1.6,1-.9,0-1.5-1.1-1.7-2-.2-1.2,0-2.4-.8-3.4-.4-.5-1-.7-1.6-.5-1.4.5-.6,2.8-1.9,3.3-.4.1-.8,0-1.2-.2-.6-.5-1-1.3-1.1-2.1-.3-1.2-.6-2.4-.9-3.7l15-3.6"/>
    <circle class="cls-10" cx="46.4" cy="195.5" r="10.5"/>
    <circle class="cls-10" cx="79" cy="195.5" r="10.5"/>
    <circle class="cls-10" cx="111.6" cy="195.5" r="10.5"/>
    <circle class="cls-10" cx="144.2" cy="195.5" r="10.5"/>
    <circle class="cls-10" cx="176.7" cy="195.5" r="10.5"/>
    <g class="cls-17">
      <circle class="cls-8" cx="176.7" cy="195.5" r="10.5"/>
    </g>
    <g class="cls-16">
      <circle class="cls-11" cx="46.4" cy="195.5" r="10.5"/>
    </g>
    <g class="cls-18">
      <circle class="cls-11" cx="79" cy="195.5" r="10.5"/>
    </g>
    <g class="cls-14">
      <circle class="cls-8" cx="144.2" cy="195.5" r="10.5"/>
    </g>
    <path class="cls-4" d="M56.9,195.5c0-.9-.2-1.7-.4-2.5-1.4-5.5-7.1-8.8-12.6-7.4-.3,0-.6.2-1,.3-.9.3-1.8.8-2.6,1.4-.8.6-1.6,1.4-2.2,2.2-1.3,1.8-2,3.9-2,6.1,0,2.2.7,4.3,2,6.1.6.8,1.3,1.6,2.2,2.2.8.6,1.7,1.1,2.6,1.4,3.3,1.2,7,.7,9.8-1.4,1.9-1.4,3.2-3.4,3.8-5.7.2-.8.3-1.7.4-2.5,0,.9,0,1.7-.2,2.6-.5,2.4-1.9,4.5-3.8,5.9-1.3,1-2.9,1.7-4.5,2-1.9.4-3.8.2-5.7-.4-2-.7-3.7-2-5-3.7-2.8-3.8-2.8-9,0-12.7.6-.9,1.4-1.6,2.2-2.3.8-.6,1.7-1.1,2.7-1.4,1.8-.7,3.8-.8,5.7-.4,4.1.8,7.3,3.9,8.3,7.9.2.8.3,1.7.3,2.6Z"/>
    <path class="cls-4" d="M89.5,195.5c0-.9-.2-1.7-.4-2.5-1.4-5.5-7.1-8.8-12.6-7.4-.3,0-.6.2-1,.3-.9.3-1.8.8-2.6,1.4-.8.6-1.6,1.3-2.2,2.2-2.7,3.6-2.7,8.5,0,12.1.6.8,1.3,1.6,2.2,2.2.8.6,1.7,1.1,2.6,1.4,3.3,1.2,7,.7,9.8-1.4,1.9-1.4,3.2-3.4,3.8-5.7.2-.8.3-1.7.4-2.5,0,.9,0,1.7-.2,2.6-.5,2.4-1.9,4.5-3.8,5.9-1.3,1-2.9,1.7-4.5,2-1.9.4-3.8.2-5.7-.4-2-.7-3.7-2-5-3.7-2.8-3.8-2.8-8.9,0-12.7.6-.9,1.4-1.6,2.3-2.3.8-.6,1.8-1.1,2.7-1.4,1.8-.7,3.8-.8,5.7-.4,4.1.8,7.3,3.9,8.3,7.9.2.9.3,1.7.2,2.6Z"/>
    <path class="cls-4" d="M122.1,195.5c0-.9-.2-1.7-.4-2.5-1.4-5.5-7.1-8.9-12.6-7.4-.3,0-.6.2-.9.3-.9.3-1.8.8-2.6,1.4-.8.6-1.6,1.3-2.2,2.2-2.7,3.6-2.7,8.5,0,12.1.6.8,1.3,1.6,2.2,2.2.8.6,1.7,1.1,2.6,1.4,3.3,1.2,7,.7,9.8-1.4,1.9-1.4,3.2-3.4,3.8-5.7.2-.8.3-1.7.4-2.5,0,.9,0,1.7-.2,2.6-.5,2.4-1.9,4.4-3.8,5.9-1.3,1-2.9,1.7-4.5,2-1.9.4-3.8.2-5.6-.4-1-.3-1.9-.8-2.7-1.5-.9-.6-1.7-1.4-2.3-2.3-2.8-3.8-2.8-8.9,0-12.7,1.3-1.7,3-3,5-3.7,1.8-.7,3.8-.8,5.6-.4,4.1.8,7.3,3.9,8.3,7.9.2.9.3,1.7.2,2.6Z"/>
    <path class="cls-4" d="M154.7,195.5c0-.9-.2-1.7-.4-2.5-1.4-5.5-7.1-8.9-12.6-7.4-.3,0-.6.2-.9.3-.9.3-1.8.8-2.6,1.4-.8.6-1.6,1.3-2.2,2.2-2.7,3.6-2.7,8.5,0,12.1.6.8,1.3,1.6,2.2,2.2.8.6,1.7,1.1,2.6,1.4,3.3,1.2,7,.7,9.8-1.4,1.9-1.4,3.2-3.4,3.8-5.7.2-.8.3-1.7.4-2.5,0,.9,0,1.7-.2,2.6-.5,2.4-1.9,4.4-3.8,5.9-1.3,1-2.9,1.7-4.5,2-1.9.4-3.8.2-5.6-.4-1-.3-1.9-.8-2.7-1.5-.9-.6-1.7-1.4-2.3-2.3-2.8-3.8-2.8-8.9,0-12.7,1.3-1.7,3-3,5-3.7,1.8-.7,3.8-.8,5.6-.4,4.1.8,7.3,3.9,8.3,7.9.2.9.3,1.7.2,2.6Z"/>
    <path class="cls-4" d="M187.2,195.5c0-.9-.2-1.7-.4-2.5-1.4-5.5-7.1-8.9-12.6-7.4-.3,0-.6.2-.9.3-.9.3-1.8.8-2.6,1.4-.8.6-1.6,1.3-2.2,2.2-2.7,3.6-2.7,8.5,0,12.1.6.8,1.3,1.6,2.2,2.2.8.6,1.7,1.1,2.6,1.4,3.3,1.2,7,.7,9.8-1.4,1.9-1.4,3.2-3.4,3.8-5.7.2-.8.3-1.7.4-2.5,0,.9,0,1.7-.2,2.6-.5,2.4-1.9,4.4-3.8,5.9-1.3,1-2.9,1.7-4.5,2-1.9.4-3.8.2-5.6-.4-1-.3-1.9-.8-2.7-1.5-.9-.6-1.7-1.4-2.3-2.3-2.8-3.8-2.8-8.9,0-12.7,1.3-1.7,3-3,5-3.7,1.8-.7,3.8-.8,5.6-.4,4.1.8,7.3,3.9,8.3,7.9.2.9.3,1.7.2,2.6Z"/>
    <circle class="cls-2" cx="197.1" cy="125.4" r="6.4"/>
    <path class="cls-4" d="M195,127.8c0,0-.2,0-.3-.1-.1-.1-.1-.4,0-.5,0,0,0,0,0,0l4-4.1c.1-.1.4-.2.5,0,0,0,0,0,0,0,.1.1.1.4,0,.5l-4.1,4.1c0,0-.1,0-.2.1Z"/>
    <path class="cls-4" d="M199.1,127.8c-.1,0-.2,0-.3-.1l-4-4.1c-.1-.1-.1-.4,0-.5s.4-.1.5,0h0l4.1,4.1c.1.1.1.4,0,.5,0,0-.2.1-.3.1Z"/>
  </g>
  <g id="freepik--Icons--inject-199">
    <path class="cls-10" d="M146.6,337.6l-11.8,11.4c-1.2,1.2-3.1,1.2-4.3,0l-81.1-77.6c-1.2-1.2-1.3-3.1-.1-4.4,0,0,0,0,0,0l12.3-12.8c1.2-1.2,3.2-1.3,4.4-.1,0,0,0,0,0,0l80.6,79c1.2,1.2,1.3,3.1.2,4.4,0,0,0,0-.2,0Z"/>
    <path class="cls-4" d="M71.1,259.4c-1,1.3-2.1,2.6-3.3,3.7-1.1,1.3-2.3,2.4-3.6,3.4,1-1.4,2.1-2.6,3.3-3.7,1.1-1.3,2.3-2.4,3.6-3.4Z"/>
    <path class="cls-4" d="M84,271.8c-1,1.3-2.1,2.6-3.3,3.7-1.1,1.3-2.3,2.4-3.6,3.4,1-1.4,2.1-2.6,3.3-3.8,1.1-1.3,2.3-2.4,3.6-3.4Z"/>
    <path class="cls-4" d="M77.2,265c-1.4,1.8-2.8,3.5-4.4,5-1.5,1.6-3.1,3.2-4.8,4.6,1.4-1.8,2.8-3.4,4.4-4.9,1.5-1.7,3.1-3.2,4.8-4.7Z"/>
    <path class="cls-4" d="M90.5,278.3c-1.4,1.8-2.9,3.4-4.5,4.9-1.5,1.6-3.1,3.2-4.8,4.6,1.4-1.8,2.8-3.4,4.4-4.9,1.5-1.6,3.1-3.2,4.8-4.6Z"/>
    <path class="cls-4" d="M96.6,284.4c-1,1.4-2.1,2.6-3.3,3.8-1.1,1.2-2.3,2.4-3.6,3.4,1-1.4,2.1-2.6,3.3-3.7,1.1-1.3,2.3-2.4,3.6-3.4Z"/>
    <path class="cls-4" d="M103.1,290.9c-1.4,1.7-2.9,3.4-4.5,4.9-1.5,1.6-3.1,3.2-4.8,4.6,1.4-1.7,2.8-3.4,4.4-4.9,1.5-1.6,3.1-3.2,4.8-4.6Z"/>
    <path class="cls-4" d="M109.2,297c-1,1.3-2.1,2.6-3.3,3.7-1.1,1.3-2.3,2.4-3.6,3.4,1-1.4,2.1-2.6,3.3-3.8,1.1-1.3,2.3-2.4,3.6-3.4Z"/>
    <path class="cls-4" d="M115.7,303.5c-1.4,1.7-2.8,3.4-4.4,4.9-1.5,1.6-3.1,3.2-4.8,4.6,1.4-1.8,2.8-3.4,4.4-4.9,1.5-1.6,3.1-3.2,4.8-4.6Z"/>
    <path class="cls-4" d="M121.8,309.6c-1,1.4-2.1,2.6-3.3,3.8-1.1,1.2-2.3,2.4-3.6,3.4,1-1.4,2.1-2.6,3.3-3.7,1.1-1.3,2.3-2.4,3.6-3.4Z"/>
    <path class="cls-4" d="M128.3,316.1c-1.4,1.8-2.8,3.4-4.4,4.9-1.5,1.6-3.1,3.2-4.8,4.6,1.4-1.7,2.8-3.4,4.4-4.9,1.5-1.6,3.1-3.2,4.8-4.6Z"/>
    <path class="cls-4" d="M134.4,322.2c-1,1.3-2.1,2.6-3.3,3.7-1.1,1.3-2.3,2.4-3.6,3.4,1-1.4,2.1-2.6,3.3-3.8,1.1-1.3,2.3-2.4,3.6-3.4Z"/>
    <path class="cls-4" d="M106.3,288c.3.5,11.3,10.6,11.3,10.6l7.2-7s12.3,3.8,20.2-4.9c4.6-5.1,5.4-11.7,5.3-15.7,0-2.2-.8-4.3-2.2-6h0l-11.3,14-11.2-11.2,11.8-12.2s-1.2-2.9-2.6-2.9c-4.1,0-12,2.6-18,9.4-7.1,8-3.4,18.6-3.4,18.6l-7.1,7.3Z"/>
    <path class="cls-3" d="M103.8,285.8l11.4,10.6,7.7-7.5s12.3,3.8,20.2-4.9c7.2-7.9,5-19.4,5-19.4l-13.2,11.7-11.2-11.2,11.8-12.2c-7.5-2-15.5.6-20.6,6.5-7.1,8-3.4,18.6-3.4,18.6l-7.6,7.7Z"/>
    <path class="cls-4" d="M91.8,318.9c-.3-.5-11.3-10.6-11.3-10.6l-7.2,7s-13.5-2.7-20.2,4.9c-5.1,5.8-7.4,13.6-7.2,17.4,0,1.7,2.1,2,2.1,2l13.2-11.7,11.2,11.2-13.9,10.2h0c1.7,1.6,3.9,2.6,6.2,2.7,6.3.3,12.4-2.3,16.5-7.2,7.1-8,3.4-18.6,3.4-18.6l7.1-7.3Z"/>
    <path class="cls-3" d="M89.7,316.8c-.3-.5-11.3-10.6-11.3-10.6l-7.2,7s-13.5-2.7-20.2,4.9c-7.5,8.5-5,19.4-5,19.4l13.2-11.7,11.2,11.2-11.8,12.2c7.5,2,15.6-.6,20.6-6.5,7.1-8,3.4-18.6,3.4-18.6l7.1-7.3Z"/>
  </g>
  <g id="freepik--Plant--inject-199">
    <path class="cls-10" d="M377.1,394c-3.8-2.4-8-3.8-12.5-4.3-2-.2-4.3-.1-5.9,1.1-.4.2-.6.6-.6,1.1,0,.3.3.6.6.7,5.4,3.8,12.5,4.4,18.4,1.4"/>
    <path class="cls-10" d="M376.8,393.6c-2.9-2.1-5.6-4.5-8-7.1-2.5-2.6-4.2-5.8-5-9.3-.3-1-.2-2.2.4-3.1,6.4,5,11.5,11.5,12.7,19.5"/>
    <path class="cls-10" d="M377,393.9c-.6-3.5-.5-7.1.1-10.6.7-3.5,2.7-6.6,5.6-8.7,1.1,2.6.6,5.6-.1,8.3-1.2,4.2-3.1,8.2-5.6,11.8"/>
    <path class="cls-10" d="M383.3,405.2c-3.8.6-7.3,2.4-10,5.1-2.9,2.6-4.9,6-5.7,9.8,3.7-.2,6.9-2.9,9.2-5.8s3.9-6.2,6.4-9"/>
    <path class="cls-10" d="M384.7,407c-3.1-7.8-2-16.5,2.8-23.3,2.2,7.7,1.4,16.5-2.8,23.3"/>
    <path class="cls-10" d="M393,416.9c-7.1-.4-13.8,3.4-17,9.8-.3.4-.3.9-.1,1.3.3.3.7.4,1.1.3,3.4-.2,6.3-2.2,8.8-4.5s4.6-5,7.3-6.9"/>
    <path class="cls-10" d="M392.8,416.4c-1.8-5.8-1.9-11.9-.3-17.7.6-2.3,1.7-4.7,3.8-5.8.2-.2.6-.2.8,0,0,0,.1.2.1.2.7,1.6,1,3.3.9,5.1-.1,1.7-.4,3.5-.8,5.1-.7,3.1-1,6.5-2.8,9.2-.4.6-.8,1.3-1.1,2-.3.7-.3.9-.6,1.5"/>
    <path class="cls-10" d="M414.8,419.6c-1.5-6.5,0-13.4,4-18.8.3-.4.7-.8,1.1-.7.7,0,.9,1,.9,1.7-.3,6.4-2.4,12.5-6,17.8"/>
    <path class="cls-10" d="M416.7,421c7.8,1.8,16,.2,22.4-4.6-3.8-1.9-8.1-2.4-12.2-1.5-4.1.9-7.8,2.7-10.3,6"/>
    <path class="cls-10" d="M418.4,416.9c4.5-7,12.1-11.3,20.4-11.8-.9,3.3-3.6,5.8-6.7,7.4-3.1,1.4-6.4,2.4-9.8,2.9-1.3.2-3.1.5-3.9,1.5"/>
    <path class="cls-10" d="M415.2,396.8c1.3-3.9,2.1-7.9,2.6-11.9.4-4.1-.4-8.2-2.4-11.8-3.9,7.6-4.3,16.5-.4,24.1"/>
    <path class="cls-10" d="M428.4,390.1c4.6-8.4,14-15.1,23.5-16-3.7,9.1-13.7,16.2-23.5,16"/>
    <path class="cls-10" d="M425.5,391.8c6.9,1,12.7,5.4,19.1,8.1,1.3.6,2.8.9,4.3.8,1.9,0,3.4-1.5,3.4-3.4,0-1-.5-2-1.2-2.6-.9-.8-2-1.5-3.1-1.9-7-2.9-14.5-3-21.9-1.2"/>
    <path class="cls-10" d="M421.6,396.6c1.5.4,2.1,1.2,3.3,2.3,4.2,3.6,9.2,6.1,14.5,7.5.5.1,1.3.2,1.5-.3s0-1-.4-1.4c-2.3-2.7-5.4-4.8-8.8-6-3.4-1.2-6.2-2.8-10.2-2.4"/>
    <path class="cls-10" d="M417.1,367.5c5.7,5.3,13.3,7.9,21.1,7.2.4,0,.7-.1,1-.4.5-.6-.1-1.5-.7-2-6.2-4.8-13.7-6.8-21.3-4.9"/>
    <path class="cls-10" d="M422.4,365.5c7.6-5.6,17.3-7.2,26.3-4.3-3.4,3.2-7.9,5.1-12.5,5.5-4.6.4-9.3,0-13.8-1.2"/>
    <path class="cls-10" d="M420.3,352.1c-.6-6.2-.2-11.1-.6-17.3,0-.5-.1-1.1-.6-1.3-.6-.2-1.2.5-1.4,1.2-1.8,5.8-.8,12.2,2.6,17.2"/>
    <path class="cls-10" d="M419.8,352.8c4-2.6,7.5-6,10.2-10,2-2.8,3.7-6.1,3.3-9.5-2.9,0-5.6,1.4-7.4,3.7-1.8,2.2-3,4.8-3.8,7.6-.8,2.7-1.4,5.5-2.4,8.2"/>
    <path class="cls-10" d="M429.9,350c9.2-3.4,17.8-8.4,25.2-14.9-3-1.2-6.5-.5-9.5.7-6.8,2.6-12.5,7.6-15.9,14.1"/>
    <path class="cls-10" d="M422.7,356.2c4.6.7,9.4.7,14,0,4.5-.8,8.8-2.6,13.1-4.3.4-.1.7-.4.9-.7.1-.4,0-.8-.3-1.1-.3-.3-.7-.4-1.1-.5-4.7-1.1-9.6-.8-14.1.9-4.3,1.5-8.5,3.4-12.4,5.7"/>
    <path class="cls-10" d="M396.1,367.7c-3-6.5-3.1-13.9-.2-20.5,1.9,2.9,2.2,6.7,1.8,10.2s-1.4,7.1-1.5,10.6"/>
    <path class="cls-10" d="M383.4,361.3c-8-.1-15.7,3.1-21.2,9,4,.5,8.1-.3,11.6-2.1,3.5-1.9,6.9-4.1,10-6.7"/>
    <path class="cls-10" d="M374.9,358.4c-3.9-.3-7.6-.8-11.3.4-3.8,1.1-7,3.7-8.6,7.3,3.7.3,7.3-.4,10.6-2,3.3-1.6,6.4-3.5,9.4-5.7"/>
    <path class="cls-10" d="M387.5,358.6c-3.5-2.3-7.1-4.6-11.1-5.5s-8.8-.2-11.6,2.8c3.3,1.9,7.3,2.2,11.1,2.1s8.5,0,12.1,1.2"/>
    <path class="cls-10" d="M387.5,358.8c-6-5.9-8.2-16.4-5.8-24.4,4.7,7.2,6.8,15.8,5.8,24.4"/>
    <path class="cls-10" d="M403.9,342.2c1.1-2.6,1.9-5.4,2.9-8,.9-2.7,2.3-5.2,4.2-7.4,1.9-2.2,4.5-3.6,7.4-3.8-1.9,8.2-7.1,15.2-14.3,19.3"/>
    <path class="cls-10" d="M401,345.6c-1.9-2.6-4-6-6.5-8s-5.8-3.1-8.9-2.3c3.2,5.7,8.9,9.5,15.4,10.3"/>
    <path class="cls-10" d="M401.5,342.4c-1.3-3.1-2.3-6.2-2.9-9.5-.6-3.3,0-6.7,1.5-9.7,3.3,6.2,4.3,12.8,1.6,19.3"/>
    <path class="cls-10" d="M404,323.2c1.9-6.1,7.5-10.6,13.5-12.7.8-.3,1.6-.4,2.4-.4.8,0,1.5.7,1.8,1.5.2,1-.6,2-1.5,2.7-4.7,4.1-10.2,7.1-16.2,9"/>
    <path class="cls-10" d="M404,318.1c.2-4,.5-8,1.8-11.7s3.8-7.3,7.4-8.9c.6,4-1.1,8-3.3,11.4s-4.7,6.7-6,10.5"/>
    <path class="cls-10" d="M403.9,320.9c-1.5-4.5-1.7-10.1-4.4-14-1.9-2.7-4.9-4.6-6.5-7.5-1,2.8-.8,5.8.4,8.5,1.2,2.6,2.9,5,5,7.1,2,2.1,3.7,3.7,5.5,6"/>
    <path class="cls-4" d="M404,452.5c-.1,0-.2-29.8-.2-66.6s0-66.6.2-66.6.2,29.8.2,66.6-.1,66.6-.2,66.6Z"/>
    <path class="cls-4" d="M430,363.2c-.4.2-.7.3-1.1.4l-3.1,1c-2.6.9-6.2,2.2-10.1,3.8s-7.5,3-9.5,4.8c-.8.7-1.5,1.6-1.9,2.5-.3.7-.4,1.1-.4,1.1s0-.1,0-.3c0-.3.1-.6.2-.9.4-1,1-1.9,1.9-2.6,1.2-1.1,2.6-1.9,4.1-2.6,1.6-.8,3.5-1.6,5.4-2.4,3.9-1.6,7.5-2.8,10.1-3.6,1.3-.4,2.4-.7,3.1-.9.4-.1.8-.2,1.2-.3Z"/>
    <path class="cls-4" d="M438.6,342.2c0,.1-.2.2-.3.3l-1,.9-3.6,3.2-11.9,10.6c-4.6,4.1-8.6,8.1-11.4,11-1.4,1.5-2.5,2.7-3.2,3.6l-.9,1c0,.1-.2.2-.3.3,0-.1.2-.3.3-.4.2-.2.4-.6.8-1,.7-.9,1.8-2.1,3.1-3.7,3.6-3.9,7.4-7.6,11.4-11.2,4.6-4.1,8.9-7.8,12-10.5l3.7-3.1,1-.8c.1-.1.2-.2.4-.3Z"/>
    <path class="cls-4" d="M416.8,361.5c-.1,0,.9-2.3,1.8-5.1s1.4-5.2,1.6-5.2c-.1,1.8-.5,3.6-1.1,5.3-.4,1.2-.9,2.4-1.5,3.6-.2.5-.5,1-.8,1.4Z"/>
    <path class="cls-4" d="M404,379.5c-.3-.3-.5-.5-.7-.8l-1.8-2.4c-1.5-2-3.7-4.7-6-7.7s-4.6-5.7-6.2-7.7l-1.9-2.3c-.2-.3-.5-.6-.6-.9.3.2.5.5.8.8.5.5,1.1,1.3,2,2.2,1.6,1.9,3.9,4.6,6.3,7.6s4.5,5.8,6,7.8c.7,1,1.3,1.9,1.7,2.4.2.3.4.6.5.9Z"/>
    <path class="cls-4" d="M398.3,372.2c-1.2-1.3-2-2.8-2.4-4.5-.4-1.5-.6-3-.5-4.5h.2c0,.3-.1.5-.2.5s0-.2,0-.5h.2c0,1.5.3,3,.8,4.4.5,1.6,1.2,3.1,2,4.6Z"/>
    <path class="cls-4" d="M390.9,362.9c-.5-.4-1.1-.7-1.7-1-1.5-.4-3.1-.6-4.6-.4-1.6.1-3.1.4-4.7.8-.6.2-1.3.4-1.9.5.6-.3,1.2-.6,1.8-.8,1.5-.5,3.1-.8,4.7-.9,1.6-.2,3.3,0,4.8.5.7.2,1.2.7,1.6,1.3Z"/>
    <path class="cls-4" d="M389.1,360.6c0,0-1-.4-2.6-.9-4.1-1.4-8.6-1.8-12.9-1-1.6.3-2.6.6-2.7.5.2-.1.4-.2.7-.3.6-.2,1.3-.4,1.9-.5,2.2-.5,4.4-.6,6.6-.5,2.2.2,4.4.7,6.5,1.5.6.2,1.2.5,1.8.8.2.1.4.2.6.4Z"/>
    <path class="cls-4" d="M403.9,351.1c-.8-2.1-1.4-4.3-1.9-6.5-.6-2.2-1.1-4.4-1.5-6.6.8,2.1,1.4,4.3,1.9,6.5.6,2.2,1.1,4.4,1.5,6.6Z"/>
    <path class="cls-4" d="M404,351.1c-.6-1.3-1.3-2.6-2.1-3.9-.9-1.2-1.9-2.2-3-3.1.4.1.8.3,1.2.6.9.6,1.6,1.4,2.2,2.3.9,1.2,1.5,2.6,1.7,4.1Z"/>
    <path class="cls-4" d="M404,436.6s-.1-.7-.5-2c-.5-1.8-1.2-3.5-2-5.2-2.9-5.4-6.4-10.4-10.6-14.9-2.4-2.7-4.6-5.2-6.6-7.7-1.7-2.1-3.3-4.4-4.7-6.8-.9-1.6-1.7-3.3-2.4-5-.2-.6-.4-1.1-.5-1.4,0-.2,0-.3-.1-.5,0,0,.3.7.8,1.9.7,1.7,1.5,3.4,2.5,5,1.4,2.3,3,4.6,4.8,6.7,2,2.4,4.2,4.9,6.6,7.6,4.2,4.5,7.7,9.6,10.5,15,.8,1.7,1.4,3.4,1.9,5.3.1.5.2,1,.3,1.5,0,.2,0,.3,0,.5Z"/>
    <path class="cls-4" d="M427.5,410c-.4.3-.8.5-1.2.7-1.1.6-2.2,1.3-3.2,2.1-1.5,1.2-2.9,2.4-4.2,3.8-1.5,1.6-3,3.4-4.5,5.3-3.1,3.9-6,7.3-7.7,10.1-.9,1.4-1.5,2.5-1.9,3.3-.2.4-.4.8-.7,1.2,0,0,0-.1.1-.4s.2-.6.4-1c.5-1.2,1.2-2.3,1.8-3.4,2.4-3.5,4.9-6.9,7.7-10.1,1.6-1.9,3.1-3.8,4.6-5.3,1.3-1.4,2.8-2.7,4.3-3.8,1-.8,2.1-1.4,3.3-2,.4-.2.8-.3,1-.4,0,0,.2-.1.3-.2Z"/>
    <path class="cls-4" d="M428,418.6c-.9.2-1.7.3-2.6.4-2.1.2-4.2.6-6.2,1.2-2,.7-3.9,1.6-5.5,2.9-1.3,1-1.9,1.8-1.9,1.8,0-.2.2-.4.4-.6.4-.5.9-1,1.4-1.4,1.7-1.4,3.6-2.4,5.6-3.1,2-.6,4.2-1,6.3-1.1.9-.1,1.8-.1,2.6,0Z"/>
    <path class="cls-4" d="M412.5,424c-.1,0,1-1.9,2-4.3s1-4.6,1.2-4.5c0,.5,0,.9,0,1.4-.1,1.1-.4,2.2-.8,3.3-.4,1.1-.9,2.1-1.5,3-.2.4-.5.8-.9,1.1Z"/>
    <path class="cls-4" d="M435.1,386.9c-.1,0-.3.2-.4.2l-1.2.6c-.5.2-1.2.5-1.9.9s-1.6.8-2.5,1.3l-1.4.8c-.5.3-1,.6-1.5,1-1,.6-2.1,1.4-3.2,2.2-4.8,3.6-9,7.9-12.4,12.8-.8,1.1-1.5,2.2-2.1,3.3-.3.5-.6,1-.9,1.5s-.5,1-.8,1.5c-.5.9-.9,1.8-1.2,2.5s-.6,1.4-.8,2l-.5,1.2c0,.1-.1.3-.2.4,0-.2,0-.3.1-.5l.4-1.3c.2-.6.4-1.2.8-2s.7-1.6,1.2-2.6c.2-.5.5-1,.7-1.5s.6-1,.9-1.6c.6-1.1,1.3-2.2,2.1-3.3,3.4-5,7.6-9.4,12.5-12.9,1.1-.8,2.2-1.6,3.3-2.2.5-.3,1-.6,1.5-.9l1.5-.8c.9-.5,1.8-.9,2.5-1.3s1.4-.6,2-.9l1.3-.5c.1,0,.3-.2.4-.2Z"/>
    <path class="cls-4" d="M416.5,399.3c.2-.6.5-1.1,1-1.5,1.1-1,2.6-1.6,4.1-1.6,1.5,0,3,.3,4.3.9.6.2,1.1.5,1.6.8-.6-.1-1.2-.3-1.8-.5-1.4-.5-2.8-.7-4.2-.7-1.4,0-2.8.5-3.9,1.4-.4.4-.8.8-1.2,1.3Z"/>
    <path class="cls-4" d="M413.7,402.2c.5-1.2.9-2.5,1.2-3.8,0-1.3,0-2.7-.3-4,.2.3.4.7.5,1.1.3,1,.3,1.9.2,2.9-.1,1-.4,1.9-.9,2.8-.4.7-.7,1-.7,1Z"/>
    <path class="cls-3" d="M383.4,440.9c.6,11.4,4.1,23,9.4,34.7h23c5-11.6,8.2-23.2,8.8-34.7h-41.2Z"/>
    <path class="cls-6" d="M420.8,459.3c0,.1-7.6.2-16.9.2s-16.9-.1-16.9-.2,7.6-.2,16.9-.2,16.9,0,16.9.2Z"/>
    <path class="cls-6" d="M420.3,463.5c0,.1-7.1.2-15.8.2s-15.8-.1-15.8-.2,7.1-.2,15.8-.2,15.8,0,15.8.2Z"/>
    <path class="cls-6" d="M393.1,448.4c.3,3.5.3,7.1,0,10.6-.3-3.5-.3-7.1,0-10.6Z"/>
    <path class="cls-6" d="M405.4,448.4c.3,3.7.3,7.3,0,11-.3-3.7-.3-7.3,0-11Z"/>
    <path class="cls-6" d="M417,448.3c.3,3.7.3,7.5,0,11.2-.3-3.7-.3-7.5,0-11.2Z"/>
    <path class="cls-6" d="M423.8,448.4c0,.1-8.9.2-19.8.2s-19.8-.1-19.8-.2,8.9-.2,19.8-.2,19.8,0,19.8.2Z"/>
  </g>
  <g id="freepik--Character--inject-199">
    <path class="cls-5" d="M252,178.1c-2-1.7-3.6-3.8-4.7-6.2-1.6-3.8-2.8-12-2.8-12,0,0,.4-9.7,1.2-10s1.7,0,1.7,1.4,1,7.6,1,7.6c0,0,1.6-.9,2.5-.1.5.3.8.8,1.1,1.4.8-.4,1.7-.5,2.6-.4.6.2,1.1.4,1.6.8.5-.4,1.2-.4,1.7,0,.6.4,1.2.9,1.6,1.6,0,0,.6,4.4.2,5.5s-1.1,2.7-1.1,2.7l.4,1.7,2.9,2.5-9.8,3.7Z"/>
    <polygon class="cls-10" points="219 449.2 215.3 476.2 200.7 474.6 204.3 447.5 219 449.2"/>
    <path class="cls-4" d="M208.3,474.4c-.1,0,.6-5.9,1.7-13.2s2-13.2,2.2-13.2-.6,5.9-1.7,13.2-2,13.2-2.2,13.2Z"/>
    <polygon class="cls-4" points="215.6 474.4 201 472.7 200.7 474.6 215.3 476.2 215.6 474.4"/>
    <path class="cls-4" d="M201.9,465.9s.1-.2.5-.5c.5-.4,1-.9,1.5-1.2.8-.5,1.7-1,2.6-1.2,1.1-.4,2.3-.5,3.5-.3,2.2.3,4.1,1.5,5.3,3.3.4.5.6,1.1.8,1.7,0,.2.1.5.1.7-.3-.8-.7-1.6-1.2-2.3-1.3-1.6-3.1-2.7-5.1-3-2-.2-4.1.3-5.8,1.4-1.4.9-2.1,1.6-2.2,1.5Z"/>
    <g class="cls-15">
      <polygon class="cls-8" points="217.5 460 217.1 462.7 202.5 461.4 202.8 458.6 217.5 460"/>
    </g>
    <polygon class="cls-10" points="247 451.2 245.4 477 231.4 476.5 233 450.6 247 451.2"/>
    <path class="cls-4" d="M238.6,475.8c-.1,0,.2-5.7.7-12.6s1-12.6,1.1-12.6-.2,5.6-.7,12.6-1,12.6-1.1,12.6Z"/>
    <polygon class="cls-4" points="245.5 475.2 231.6 474.6 231.4 476.5 245.4 477 245.5 475.2"/>
    <path class="cls-4" d="M231.9,468.2s.1-.2.4-.5c1-1.1,2.3-2,3.7-2.6,3-1.2,6.5-.4,8.6,2.2.4.5.7,1,.9,1.6.1.4.2.6.2.6-.4-.7-.8-1.4-1.3-2-1.3-1.5-3.1-2.4-5.1-2.5-2,0-3.9.5-5.4,1.7-1.2.9-1.8,1.6-1.9,1.5Z"/>
    <g class="cls-15">
      <polygon class="cls-8" points="246.4 461.7 246.2 464 232.2 463.7 232.3 461.4 246.4 461.7"/>
    </g>
    <path class="cls-4" d="M193,310c-.4,0-1,15.6-.7,22.1s10.4,58.6,10.4,58.6c0,0-1.6,12.4-2.4,23.6-.2,3,.7,44,.7,44l16.7,3s8.4-60.7,8.7-69.1,1.2-62.4,1.2-62.4c0,0,2.8,49.8,2.8,58.2s-.1,73.1-.1,73.1c0,0,12.4,1.9,18.3.4,0,0,4.1-54.9,5.8-70.9,1.6-14.9,7.9-65.2,7.9-65.2h0c.5-10.3,0-20.7-1.4-30.9l-48.5-6.1-19.4,21.6Z"/>
    <path class="cls-10" d="M281.6,208.8c-3.8-10.6-11-21.9-16.3-32.2-1-1.9-2.7-4.7-2.7-4.7l-14.3,6.9s7.8,16.2,11.8,22.4c-2.5-2.1-12-9.8-15.2-9.4l6.3,32.5s8.8,4.7,14,6.4c6.2,2,13.4,2.9,16.4-1.5,2.5-3.8,2.1-14.5,0-20.3Z"/>
    <path class="cls-10" d="M181.2,206.1s-26.4,45.1-26.5,52.3c-.2,12.8,34.4,20.9,34.4,20.9l6.6-12.5-18.3-12.7,13.5-29.3-9.7-18.7Z"/>
    <path class="cls-10" d="M252,264.1s-.2-55.5-.9-60-1.2-9.9-3.8-11.7c-5.9-3.9-39.7,1.1-39.7,1.1-5.3,1.3-10.6,2.3-16,3-7.5.9-11.3,11.5-11.3,11.5-1.9,4.9,20.6,59.9,21.1,62.1,1.2,4.9-13,32.4-9.4,45.4,0,0,15.2-1.6,33.8-3,19.9-1.5,37.8-2.5,37.8-3.5.1-14.3-11.6-45-11.6-45Z"/>
    <path class="cls-4" d="M231.7,264.1c-.2.4-.4.8-.6,1.1-.4.7-1.1,1.7-2,2.9-2.4,3.1-5.1,5.9-8.1,8.3-3,2.5-6.3,4.6-9.7,6.3-1.3.7-2.4,1.1-3.2,1.4-.4.2-.8.3-1.2.4.4-.2.8-.4,1.1-.6.8-.3,1.8-.9,3.1-1.6,6.8-3.6,12.8-8.5,17.7-14.5.9-1.1,1.6-2.1,2.1-2.8.2-.4.5-.7.8-1.1Z"/>
    <path class="cls-4" d="M252,264.1c0-.2,0-.4,0-.5,0-.4,0-1,0-1.6,0-1.5,0-3.5-.1-5.9,0-5,0-11.9-.1-19.4s-.1-14.4-.2-19.4c0-2.4-.1-4.4-.2-5.9,0-.6,0-1.2,0-1.6,0-.2,0-.4,0-.6,0,.2,0,.4,0,.6,0,.4,0,.9.1,1.6.1,1.4.2,3.4.3,5.9.2,5,.3,11.8.4,19.4s0,14.4,0,19.4,0,4.4,0,5.9v1.6c0,.2,0,.4,0,.5Z"/>
    <path class="cls-4" d="M189.8,239.9c-.1,0-2.2-5.2-4.7-11.6s-4.4-11.8-4.2-11.8,2.2,5.2,4.7,11.6,4.4,11.8,4.2,11.8Z"/>
    <path class="cls-11" d="M248.8,193.2c-.2,0-.5.1-.7.2l-2,.4-7.6,1.3c-6.4,1.1-15.1,2.9-24.8,5.1s-18.2,4.7-24.4,6.5l-7.4,2.2-2,.6c-.2,0-.5.1-.7.2.2-.1.4-.2.7-.3l2-.7c1.7-.6,4.2-1.4,7.3-2.4,6.2-1.9,14.8-4.4,24.4-6.6s18.4-4,24.8-5c3.2-.5,5.8-.9,7.6-1.2l2.1-.3c.2,0,.5,0,.7,0Z"/>
    <path class="cls-11" d="M251.6,219.1c-.2,0-.4.1-.6.2l-1.9.4-6.9,1.5c-5.9,1.2-14,2.8-23,4.4s-17.1,3-23,3.9l-7,1-1.9.3c-.2,0-.4,0-.7,0,.2,0,.4-.1.6-.2l1.9-.4,7-1.2c5.9-1,14-2.4,23-4.1s17.1-3.2,23-4.3l7-1.3,1.9-.3c.2,0,.4,0,.6,0Z"/>
    <path class="cls-11" d="M251.6,249.2c-.2,0-.4.1-.6.1l-1.6.3c-1.4.2-3.4.5-5.8.9-4.9.7-11.8,1.6-19.3,2.6l-19.3,2.4-5.9.8-1.6.2c-.2,0-.4,0-.6,0,.2,0,.4-.1.6-.1l1.6-.3c1.4-.2,3.4-.6,5.8-.9,4.9-.7,11.8-1.6,19.3-2.6l19.3-2.4,5.9-.7,1.6-.2c.2,0,.4,0,.6,0Z"/>
    <g class="cls-15">
      <path class="cls-8" d="M217.1,195.8c-1.5-2.6-3.4-4.9-5.1-7.3-1.8-2.4-3.1-5.1-3.8-8,0-.4-.2-.8-.4-1.1-.5-.5-1.2-.7-1.8-.5-1.2.3-2.2,1.2-2.7,2.4-.5,1.2-.7,2.4-.7,3.7-.1,3.6.4,7.1,1.6,10.5,1.1,3.3,2.9,6.4,3.4,9.9s-.5,7-.6,10.5c-.1,4.7,1.2,9.2,2.5,13.7,4.4-5,6.3-11.8,5-18.4,2.8-1,4.6-3.9,4.9-6.9.1-3-.6-6-2.2-8.5Z"/>
    </g>
    <path class="cls-11" d="M215.6,279.5c-2.7.2-5.4.3-8.1.2-2.7,0-5.4,0-8.1-.3,2.7-.2,5.4-.3,8.1-.2,2.7,0,5.4,0,8.1.3Z"/>
    <path class="cls-11" d="M254.7,272.4c-.4.1-.9.2-1.4.2l-3.7.4c-3.1.4-7.5.8-12.2,1.4s-9.1,1.2-12.2,1.6l-3.7.5c-.4,0-.9.1-1.4.1.4-.2.9-.3,1.3-.3.9-.2,2.1-.4,3.7-.7,3.1-.5,7.4-1.2,12.2-1.8s9.1-1,12.2-1.3c1.6-.1,2.8-.2,3.7-.3.5,0,.9,0,1.4,0Z"/>
    <path class="cls-11" d="M262.9,301.5c-.2,0-.5.1-.7.1l-2.1.3c-1.8.3-4.4.7-7.6,1.1-6.4.9-15.3,2-25.1,3s-18.7,1.8-25.2,2.2c-3.2.2-5.8.4-7.6.5h-2.1c-.2.1-.5.1-.7,0,.2,0,.5,0,.7-.1l2.1-.2,7.6-.6c6.4-.5,15.4-1.3,25.2-2.4s18.7-2.1,25.1-2.9l7.6-.9,2.1-.2c.2,0,.5,0,.7,0Z"/>
    <g class="cls-15">
      <path class="cls-8" d="M209.6,287.5c9.6,3.3,19.9-1.8,23.2-11.4.3-.9.5-1.7.7-2.6-7.3,5-15.9,10.4-23.9,14Z"/>
    </g>
    <path class="cls-11" d="M182.8,242c-.8-.5-1.5-1.1-2.2-1.7-1.3-1.1-3.1-2.5-5.2-4.1s-4-2.9-5.3-3.9c-.8-.5-1.5-1.1-2.2-1.7.9.4,1.7.8,2.4,1.4,1.4.9,3.4,2.2,5.4,3.8s3.9,3.1,5.1,4.2c.7.6,1.4,1.2,1.9,2Z"/>
    <path class="cls-11" d="M176.9,253.8c0,.1-4.9,1.6-10.9,3.2s-11,2.8-11.1,2.7,4.9-1.5,10.9-3.2,11-2.8,11.1-2.7Z"/>
    <path class="cls-11" d="M189.2,262.9c-.2.8-.5,1.5-.9,2.2-.8,1.8-1.7,3.5-2.7,5.1-1,1.7-2.1,3.3-3.2,4.8-.4.7-1,1.3-1.6,1.8.4-.7.8-1.4,1.3-2,.8-1.2,1.9-3,3.1-4.9s2.1-3.7,2.8-5c.3-.8.7-1.5,1.2-2.2Z"/>
    <path class="cls-11" d="M267.4,207.5c-.4,1-.8,2-1.4,2.9-.9,1.7-2.3,4.1-3.9,6.7s-3.2,4.8-4.4,6.3c-.6.9-1.3,1.7-2,2.5.5-.9,1.1-1.8,1.7-2.7,1.1-1.6,2.6-3.9,4.2-6.4s3-4.9,4-6.6c.5-.9,1-1.8,1.6-2.7Z"/>
    <path class="cls-11" d="M281.6,228.5c-.5-2.3-1.1-4.5-1.9-6.8-.9-2.1-2-4.2-3.1-6.3.5.5,1,1,1.3,1.6.9,1.4,1.7,2.9,2.3,4.5.6,1.6,1,3.2,1.3,4.9.1.7.2,1.4.1,2.1Z"/>
    <path class="cls-11" d="M271.2,187.5c-2.3,1.4-4.7,2.7-7.2,3.8-2.4,1.3-4.9,2.4-7.4,3.4,2.3-1.4,4.7-2.7,7.2-3.8,2.4-1.3,4.9-2.4,7.4-3.4Z"/>
    <path class="cls-5" d="M188.9,279.4s.3,2.1,3.7.3c0,0,4.5-.2,7.1-2.1s3.1-3.1,4.7-3,6.3.1,6.3.2,1.6-2.4.2-3.1-7.8-1-7.8-1h-1.9c0-.1-.3-2-.3-2l-1.3-2.8s-1.8.8-1.8,1.8c0,0-2.6-1.2-3.3.6l-5.8,11.1Z"/>
    <path class="cls-4" d="M241.8,191.1c.1,0,.3,0,.4,0,.4,0,.8,0,1.3,0,1.5.2,3,.7,4.5,1.3,2.1,1,4,2.3,5.9,3.7,2.1,1.5,4.4,3.2,6.8,5,4.8,3.6,9,7,11.9,9.6,1.2,1,2.3,2.1,3.3,3.3.3.3.5.7.7,1.1,0,.1.1.3.2.4-.3-.5-.6-.9-1-1.3-1.1-1.1-2.2-2.2-3.4-3.1-3-2.6-7.2-5.9-12-9.5-2.4-1.8-4.7-3.5-6.8-5-1.8-1.4-3.7-2.6-5.7-3.7-1.4-.7-2.8-1.2-4.3-1.5-1.1-.3-1.7-.3-1.7-.3Z"/>
    <path class="cls-5" d="M229.9,147.6c2.4,5,2.8,7.6,4.5,14.4.2.9,1.6,8.4,1.6,10.8-.3,2.9-1.7,5.5-4,7.2-1.1.8-4.2,2.7-4.2,2.7l.4,8.7-21.5,2.3s-2.8-17.9-3.1-26.7"/>
    <path class="cls-4" d="M232,157.7c-.4-3.9-1.3-7.7-2.6-11.3-1.3-3.7-3.7-6.9-7-9.1-2.8-1.8-6.1-1.8-9.4-1.9-4.7,0-9.3,1.5-13,4.5-4.7,4-7.7,9.7-8.2,15.9,0,1.1,0,2.2,0,3.3l.4,6.6,13.9,15.5c4.1,3.6,10.9,2.8,14.9-.9s5.6-9.5,5.2-14.9c-.2-1.5-.3-2.9-.2-4.4,0-1.5.8-2.9,2-3.8,1.3-.9,3-.7,4,.5Z"/>
    <path class="cls-12" d="M232.4,165.1s-.1.2-.4.6c-.4.5-1,.8-1.6,1.1-.4.2-.9.2-1.4.1-.5-.1-1-.4-1.4-.8-.8-.9-1.4-1.9-1.7-3.1-.4-1.1-.4-2.4,0-3.5.3-.9.9-1.8,1.7-2.3.5-.4,1.2-.6,1.8-.6.5,0,.7.1.7.1-.8,0-1.6.3-2.3.8-.7.5-1.2,1.3-1.5,2.1-.3,1.1-.2,2.2.1,3.2.3,1.1.8,2,1.5,2.9.6.7,1.5.9,2.3.7.6-.2,1.1-.5,1.6-.9.3-.3.5-.4.6-.4Z"/>
    <path class="cls-12" d="M230.3,163.6c0,0-.3.1-.7-.1-.5-.3-.9-.8-1-1.4,0-.6.1-1.2.6-1.7.3-.3.6-.4.6-.3s-.1.2-.4.6c-.3.4-.4.9-.3,1.4,0,.5.3.9.7,1.2.3.3.5.4.5.4Z"/>
    <path class="cls-4" d="M240.7,173.6s0,0-.2.2c-.3.2-.5.2-.8.3-1.1,0-2.1-.7-2.6-1.7-.6-1.3-.2-3,.2-4.6.3-.8.5-1.7.5-2.6,0-.9-.2-1.8-.8-2.5-1.2-1.4-3.1-2.1-4.3-3.5-1.1-1.2-1.8-2.6-2.1-4.1-.2-1-.3-2.1-.1-3.1,0-.3,0-.6.2-.8,0-.2,0-.3.1-.3-.2,1.4,0,2.8.2,4.1.4,1.4,1.1,2.8,2.1,3.9.6.6,1.3,1.2,2.1,1.6.9.5,1.6,1.1,2.3,1.9.6.8,1,1.9.9,2.9,0,.9-.3,1.8-.6,2.7-.5,1.6-.9,3.1-.4,4.3.4.9,1.2,1.5,2.2,1.6.4,0,.7,0,1-.3Z"/>
    <path class="cls-3" d="M206,160.7c-2.8-3-7.2-3.7-10.9-1.8-1.8.9-2.9,2.8-2.9,4.8l1,1c3.2.8,6,2.8,7.9,5.5.5.9,1.1,1.7,1.8,2.4.7.7,1.8,1,2.8.8.7-.3,1.3-.9,1.6-1.6,1.9-3.6,1.4-8-1.3-11.1Z"/>
    <path class="cls-3" d="M206.7,159.2c0-.1,1.4,0,3.6-.3,3.1-.6,5.9-2,8.3-4,2.7-2.3,4.8-5.1,6.4-8.2,1.3-2.5,1.8-4.3,1.9-4.2,0,.4-.1.9-.3,1.3-.3,1.1-.8,2.2-1.2,3.2-1.5,3.3-3.7,6.2-6.4,8.6-2.4,2.1-5.4,3.4-8.6,3.9-.9,0-1.8,0-2.7,0-.3,0-.6,0-1-.1Z"/>
    <path class="cls-3" d="M230.4,151.1c-.1.5-.3.9-.5,1.3-.5,1.1-1.1,2.2-1.8,3.2-2,3.1-4.9,5.6-8.3,7.1-3,1.3-6.5,1.3-9.5,0-.9-.4-1.8-.9-2.6-1.5-.6-.4-.9-.7-.8-.8,1.1.7,2.3,1.2,3.6,1.7,3,1.1,6.3,1,9.3-.3,3.3-1.5,6.1-3.8,8.1-6.8,1.7-2.4,2.4-4.3,2.5-4.2Z"/>
    <path class="cls-4" d="M216.1,205.8c-.2-1.7-.9-3.3-1.9-4.7-1.9-3.1-4.2-6.1-6-9.3s-3.1-6.9-2.8-10.6c.3-4.7,3.1-9.3,1.7-13.8-1-2.7-3.2-4.9-6-5.7-2.8-.8-5.7-.8-8.5,0-6.1,2.6-10.9,9.1-12.1,15.7s.2,13.4,2.6,19.6c1.2,3.1,2.7,6.4,1.9,9.7-.4,1.3-.9,2.7-1.5,3.9-.6,1.3-.6,2.8-.1,4.1.6,1.3,2.4,2,3.5,1.2-.4,2-.2,4,.6,5.9.9,1.8,3.1,3,5,2.4,0,3.2,1.2,6.5,3.7,8.4,3.3,2.5,8.4,1.7,11.5-1s4.5-7.1,4.6-11.2c0-3.9-.6-7.7-1.7-11.4.7,1.2,2.2,1.7,3.5,1.2,1.5-.9,2.3-2.5,2.1-4.3Z"/>
    <path class="cls-4" d="M174.4,203.1s0,.2.2.5c.3.5.6.9,1.1,1.2.8.4,1.6.6,2.5.5,1.1-.2,2.1-.9,2.7-1.9.7-1.2,1-2.6.9-4-.2-1.6-.6-3.2-1.3-4.7-1.6-3.5-2.5-7.2-2.8-11-.2-3.8.5-7.6,2-11.1,1.3-2.8,3.2-5.4,5.6-7.4,1.6-1.4,3.4-2.4,5.4-3.1.5-.2,1.1-.3,1.6-.5.2,0,.4,0,.6-.1,0,0-.8.2-2.1.8-1.9.8-3.7,1.9-5.2,3.2-2.3,2-4.2,4.5-5.4,7.3-1.5,3.4-2.1,7.2-1.9,10.9.2,3.7,1.2,7.4,2.7,10.8.7,1.5,1.1,3.2,1.2,4.8.1,1.5-.2,3-1,4.2-1.1,1.9-3.6,2.6-5.6,1.4,0,0,0,0,0,0-.5-.3-.9-.8-1.1-1.3,0-.2-.2-.4-.2-.6Z"/>
    <path class="cls-3" d="M233.8,164.8c-.4-.8-1.3-1.2-2.1-.9-.7.4-1,1.3-.7,2.1.4.7,1.3,1.1,2.1.8.8-.4,1.1-1.3.8-2Z"/>
    <path class="cls-4" d="M213.9,188.5c-.3.2-.5.3-.8.3-.8.2-1.7.1-2.5-.1-1.2-.4-2.3-1.1-3.1-2-1-1.2-1.6-2.6-1.9-4.1-.4-2.7-.3-5.4.2-8,.3-2,.4-3.3.4-3.3.1,1.1,0,2.2,0,3.3-.1,2-.6,4.9,0,7.9.3,1.4.9,2.7,1.8,3.9.8.9,1.7,1.6,2.8,2,1,.3,2.1.3,3.1,0Z"/>
  </g>
</svg>