<svg id="Component_81_1" data-name="Component 81 – 1" xmlns="http://www.w3.org/2000/svg" width="40" height="40" viewBox="0 0 40 40">
  <rect id="Rectangle_1304" data-name="Rectangle 1304" width="40" height="40" rx="5" fill="#5E5E5F"/>
  <g id="highlighter" transform="translate(5.565 3.336)">
    <rect id="Rectangle_1305" data-name="Rectangle 1305" width="28.869" height="33.328" transform="translate(0 0)" opacity="0"/>
    <path id="Path_256" data-name="Path 256" d="M6.827,23.735l4.626-1.909a1.872,1.872,0,0,0,.724-.474L25.511,8.116a2.676,2.676,0,0,0-.028-4.152L22.557,1.01A2.7,2.7,0,0,0,18.391.955L5.044,14.191a1.663,1.663,0,0,0-.474.7L2.619,19.513a1.665,1.665,0,0,0,.307,1.923L4.9,23.428A1.657,1.657,0,0,0,6.827,23.735Zm-.209-2.16a.611.611,0,0,1-.738-.153l-.947-.947a.575.575,0,0,1-.139-.724L6.521,15.7,19.8,2.515a.838.838,0,0,1,1.254-.028l2.94,2.968a.829.829,0,0,1-.042,1.254L10.673,19.89ZM1.393,24.432H3.079a1.12,1.12,0,0,0,.864-.32l1.31-1L3.246,21.06.989,23.442A.55.55,0,0,0,1.393,24.432ZM5.253,15.7l5.7,5.726,1.31-1.3-5.7-5.74ZM16.817,4.229l5.7,5.726,1.31-1.282-5.7-5.74ZM1.115,29.406H27.74a1.142,1.142,0,0,0,1.129-1.129,1.13,1.13,0,0,0-1.129-1.115H1.115A1.118,1.118,0,0,0,0,28.277,1.13,1.13,0,0,0,1.115,29.406Z" transform="translate(0 0)" fill="rgba(255,255,255,0.85)"/>
  </g>
</svg>