<svg id="character.book.closed" xmlns="http://www.w3.org/2000/svg" width="105.499" height="134.414" viewBox="0 0 105.499 134.414">
  <rect id="Rectangle_1301" data-name="Rectangle 1301" width="105.499" height="134.414" fill="#fff" opacity="0"/>
  <path id="Path_255" data-name="Path 255" d="M19.256,134.414h81.225A4.993,4.993,0,0,0,105.5,129.4a5.209,5.209,0,0,0-3.512-4.829c-7.9-3.136-9.534-13.36-1.756-21.2,2.383-2.383,5.269-5.457,5.269-11.729V19.695C105.5,6.649,99.039,0,86.055,0H19.444Q-.031,0,0,19.695v95.338C0,127.953,6.523,134.414,19.256,134.414ZM10.1,98.16V19.883c0-6.272,3.324-9.785,9.785-9.785h65.67c6.523,0,9.847,3.512,9.847,9.785V90.257c0,3.387-1.944,5.331-5.457,5.331H20.322A19.166,19.166,0,0,0,10.1,98.16Zm9.722,26.155c-6.335,0-9.722-3.387-9.722-9.346,0-5.645,4.014-9.283,10.286-9.283H84.738a11.456,11.456,0,0,0,2.2-.188,19.888,19.888,0,0,0,.878,18.817ZM17.5,100.983h8.217V7.652H17.5ZM42.9,78.4c1.944,0,3.324-.941,4.2-3.449l3.951-11.541H70.437l3.951,11.541c.816,2.509,2.2,3.449,4.2,3.449a3.641,3.641,0,0,0,3.951-3.763,7.2,7.2,0,0,0-.564-2.76L66.8,30.922a6.062,6.062,0,0,0-6.084-4.265,5.988,5.988,0,0,0-6.022,4.265L39.452,71.88a8.618,8.618,0,0,0-.565,2.76C38.888,76.9,40.456,78.4,42.9,78.4ZM53.189,56.889,60.464,35.94h.564l7.213,20.949Z" fill="#fff"/>
</svg>