<?xml version="1.0" encoding="UTF-8"?>
<svg id="Ebene_2" data-name="Ebene 2" xmlns="http://www.w3.org/2000/svg" xmlns:xlink="http://www.w3.org/1999/xlink" viewBox="0 0 95 27">
  <defs>
    <style>
      .cls-1 {
        fill: none;
      }

      .cls-2 {
        clip-path: url(#clippath);
      }

      .cls-3 {
        fill: #f0f0f9;
      }

      .cls-4 {
        fill: #212121;
      }

      .cls-5 {
        fill: #5d64ab;
      }
    </style>
    <clipPath id="clippath">
      <rect class="cls-1" width="95" height="27"/>
    </clipPath>
  </defs>
  <g id="Ebene_1-2" data-name="Ebene 1">
    <g class="cls-2">
      <g id="Gruppe_2" data-name="Gruppe 2">
        <path id="Pfad_1" data-name="Pfad 1" class="cls-4" d="m1.44,10.77l-.09.05v-.04h.09"/>
        <path id="Pfad_3" data-name="Pfad 3" class="cls-4" d="m1.44,10.77l-.09.05v-.04h.09"/>
        <g id="Gruppe_77" data-name="Gruppe 77">
          <path id="Pfad_4" data-name="Pfad 4" class="cls-3" d="m.73,25.32c-1.48-2.01-1.05-4.84.96-6.33,0,0,0,0,0,0l1.55-1.14c-1.89,1.39-2.3,4.06-.9,5.95,1.39,1.89,4.06,2.3,5.95.9.07-.05.14-.1.2-.16l.07-.06L.73,13.14c-.89-1.21-.63-2.91.58-3.8,0,0,0,0,0,0l9.75,13.99-4.01,2.95c-2.01,1.48-4.84,1.05-6.33-.96,0,0,0,0,0,0"/>
          <path id="Pfad_5" data-name="Pfad 5" class="cls-5" d="m10.2,1.74c1.48,2.01,1.05,4.84-.96,6.33,0,0,0,0,0,0l-1.55,1.14c1.89-1.39,2.3-4.06.9-5.95-1.39-1.89-4.06-2.3-5.95-.9-.07.05-.14.1-.2.16l-.07.06,7.98,11.32c.89,1.21.63,2.91-.58,3.8,0,0,0,0,0,0L-.15,3.73,3.86.77c2.01-1.48,4.84-1.05,6.33.96,0,0,0,0,0,0"/>
        </g>
        <g id="Gruppe_83" data-name="Gruppe 83">
          <path id="Pfad_6" data-name="Pfad 6" class="cls-3" d="m21.55,18.85c-.42-.21-.78-.52-1.07-.89-.22-.28-.4-.59-.54-.92h-.04v5.26h-.7v-13.4h.69v2.05h.04c.07-.21.17-.41.29-.6.17-.27.38-.52.62-.74.3-.27.64-.48,1.01-.63,1.13-.42,2.39-.32,3.44.26.58.35,1.06.86,1.37,1.47.35.7.52,1.48.5,2.26v1.98c.03.83-.16,1.65-.54,2.38-.33.6-.82,1.09-1.42,1.42-.58.31-1.24.48-1.9.47-.6.02-1.2-.11-1.74-.37m3.27-.68c.51-.29.92-.72,1.18-1.24.33-.67.48-1.41.45-2.16v-1.64c.02-.71-.13-1.41-.43-2.05-.25-.53-.65-.97-1.15-1.28-.49-.29-1.05-.44-1.62-.43-.65-.02-1.29.16-1.83.52-.5.34-.89.81-1.14,1.37-.26.57-.39,1.19-.38,1.82v1.8c0,.65.13,1.3.41,1.88.26.54.66,1,1.17,1.33,1.02.62,2.28.66,3.33.09"/>
          <path id="Pfad_7" data-name="Pfad 7" class="cls-3" d="m30.71,18.42c-.63-.56-.96-1.38-.92-2.22-.03-.77.29-1.52.87-2.03.73-.57,1.65-.85,2.58-.79h3.16v-1.49c.06-.72-.23-1.43-.78-1.91-.58-.42-1.28-.63-2-.6-.51-.02-1.02.08-1.48.28-.34.15-.63.38-.86.67-.18.22-.29.49-.34.77h-.7c.03-.31.12-.61.27-.88.17-.29.39-.55.66-.76.32-.24.67-.42,1.05-.54.47-.14.96-.21,1.45-.2.62-.01,1.23.1,1.79.34.49.21.91.56,1.2,1.01.31.51.46,1.1.43,1.7v7.28h-.69v-1.69h-.05c-.12.28-.28.53-.49.75-.3.33-.66.59-1.06.78-.53.24-1.11.36-1.7.34-.87.04-1.73-.25-2.4-.81m4.06-.21c.47-.24.88-.59,1.17-1.03.31-.46.46-1,.45-1.56v-1.61h-3.16c-.74-.06-1.47.16-2.05.61-.43.41-.67.98-.65,1.57-.03.66.25,1.31.75,1.74.53.44,1.21.67,1.9.64.56,0,1.1-.12,1.6-.37"/>
          <path id="Pfad_8" data-name="Pfad 8" class="cls-3" d="m40.78,8.9h.7v2.01h.04c.08-.34.23-.67.44-.95.26-.36.59-.65.98-.86.49-.25,1.04-.38,1.59-.36.18,0,.37,0,.55.03.14.02.24.04.3.05v.68c-.05-.01-.16-.03-.31-.06-.2-.03-.4-.04-.6-.04-.51,0-1.02.12-1.47.36-.47.25-.85.64-1.1,1.12-.3.6-.44,1.26-.41,1.92v6.25h-.7v-10.15Z"/>
          <path id="Pfad_9" data-name="Pfad 9" class="cls-3" d="m48.05,18.42c-.63-.56-.96-1.38-.92-2.22-.03-.77.29-1.52.87-2.03.73-.57,1.65-.85,2.58-.79h3.16v-1.49c.06-.72-.23-1.43-.78-1.91-.58-.42-1.28-.63-2-.6-.51-.02-1.02.08-1.48.28-.34.15-.63.38-.86.67-.18.22-.29.49-.34.77h-.7c.03-.31.12-.61.27-.88.17-.29.39-.55.66-.76.32-.24.67-.42,1.05-.54.47-.14.96-.21,1.45-.2.61-.01,1.23.1,1.79.34.49.21.91.56,1.2,1.01.31.51.46,1.1.43,1.7v7.28h-.69v-1.69h-.05c-.12.28-.28.53-.49.75-.3.33-.66.59-1.06.78-.53.24-1.11.36-1.7.34-.87.04-1.73-.25-2.4-.81m4.06-.21c.47-.24.88-.59,1.17-1.03.31-.46.46-1,.45-1.56v-1.61h-3.16c-.74-.06-1.47.16-2.05.61-.43.41-.67.98-.65,1.57-.03.66.25,1.31.75,1.74.53.44,1.21.67,1.9.64.56,0,1.1-.12,1.6-.37"/>
          <path id="Pfad_10" data-name="Pfad 10" class="cls-3" d="m58.1,8.9h.7v2.04h.04c.13-.37.32-.72.56-1.03.29-.36.66-.65,1.08-.85.53-.25,1.11-.36,1.7-.34,1.81-.11,3.37,1.27,3.48,3.09.01.17,0,.34,0,.51v6.73h-.7v-6.61c0-.54-.1-1.07-.32-1.56-.21-.45-.54-.84-.96-1.1-.47-.28-1.01-.42-1.56-.4-1.27-.05-2.43.68-2.93,1.84-.25.55-.37,1.14-.37,1.74v6.1h-.7v-10.16Z"/>
          <path id="Pfad_11" data-name="Pfad 11" class="cls-3" d="m75.01,9.24c.63.35,1.15.87,1.49,1.5.4.75.59,1.6.56,2.45v1.6c.03.85-.16,1.7-.56,2.45-.34.63-.86,1.14-1.49,1.48-1.31.66-2.86.66-4.17,0-.63-.34-1.14-.85-1.48-1.48-.39-.75-.57-1.59-.55-2.43v-1.61c-.03-.85.16-1.7.55-2.46.34-.63.85-1.16,1.48-1.5,1.31-.67,2.86-.67,4.16,0m-3.81.57c-.53.31-.95.77-1.22,1.32-.32.68-.48,1.42-.45,2.17v1.4c-.03.74.13,1.48.45,2.15.27.54.69,1,1.21,1.3,1.09.58,2.41.58,3.5,0,.53-.3.95-.75,1.22-1.3.32-.67.47-1.42.45-2.16v-1.4c.02-.74-.13-1.48-.45-2.16-.27-.55-.69-1.02-1.22-1.33-1.08-.6-2.4-.6-3.48,0"/>
          <path id="Pfad_12" data-name="Pfad 12" class="cls-3" d="m80.91,6.44h.7v2.47h2.86v.6h-2.86v7.29c-.05.49.1.97.42,1.34.44.29.96.43,1.48.37.14,0,.33,0,.57-.03s.41-.04.53-.05v.63c-.14.02-.33.04-.57.05-.24.02-.44.02-.59.02-.52.02-1.04-.06-1.53-.23-.35-.14-.63-.41-.79-.75-.17-.44-.25-.91-.23-1.38v-7.27h-2v-.6h2v-2.47Z"/>
          <path id="Pfad_13" data-name="Pfad 13" class="cls-3" d="m88.73,18.68c-.61-.37-1.1-.91-1.39-1.57-.34-.79-.51-1.64-.49-2.5v-1.14c-.03-.9.14-1.8.5-2.63.29-.66.77-1.21,1.39-1.59,1.27-.71,2.82-.71,4.09,0,.61.38,1.09.93,1.38,1.59.36.83.53,1.72.5,2.62v.53h-7.16v.59c-.07,1.06.25,2.11.9,2.95.62.69,1.51,1.07,2.44,1.03.55.02,1.1-.09,1.61-.32.38-.18.72-.45.97-.79.2-.27.33-.58.38-.91h.72c-.04.31-.13.61-.28.88-.17.33-.4.62-.68.87-.33.29-.71.51-1.12.66-.51.18-1.05.27-1.59.26-.76.02-1.5-.16-2.16-.54m5.28-5.27v-.06c.02-.74-.12-1.48-.4-2.16-.23-.55-.62-1.03-1.12-1.36-1.05-.62-2.35-.62-3.4,0-.5.33-.9.8-1.13,1.36-.28.68-.42,1.42-.4,2.16v.06h6.46Z"/>
        </g>
      </g>
    </g>
  </g>
</svg>