<?xml version="1.0" encoding="UTF-8"?>
<svg id="Ebene_1" data-name="Ebene 1" xmlns="http://www.w3.org/2000/svg" version="1.1" viewBox="0 0 750 500">
  <defs>
    <style>
      .cls-1 {
        fill: #ff9a6c;
      }

      .cls-1, .cls-2, .cls-3, .cls-4, .cls-5, .cls-6, .cls-7, .cls-8, .cls-9, .cls-10, .cls-11, .cls-12, .cls-13, .cls-14, .cls-15 {
        stroke-width: 0px;
      }

      .cls-2 {
        fill: #f5f5f5;
      }

      .cls-3 {
        fill: #ebebeb;
      }

      .cls-4 {
        fill: #455a64;
      }

      .cls-5 {
        fill: #263238;
      }

      .cls-6 {
        fill: #fafafa;
      }

      .cls-7 {
        fill: #e0e0e0;
      }

      .cls-8 {
        fill: #ffbf9d;
      }

      .cls-9, .cls-12 {
        fill: #000;
      }

      .cls-10 {
        fill: #6d6aee;
      }

      .cls-11 {
        fill: #ae7461;
      }

      .cls-12 {
        isolation: isolate;
      }

      .cls-12, .cls-16 {
        opacity: .3;
      }

      .cls-17 {
        opacity: .6;
      }

      .cls-13 {
        fill: #6e6af6;
      }

      .cls-14 {
        fill: #6f4439;
      }

      .cls-15 {
        fill: #fff;
      }
    </style>
  </defs>
  <g id="freepik--background-complete--inject-71">
    <path class="cls-10" d="M609,290.8c1.2-.7,2.5-1.3,3.8-1.7l.8-3.8h6.4c0-.1.9,3.6.9,3.6,1.4.3,2.7.8,3.9,1.5l3.2-2.1,4.6,4.4-2,3.3c.7,1.2,1.3,2.5,1.7,3.8l3.8.8v6.4c.1,0-3.6.9-3.6.9-.3,1.4-.8,2.7-1.5,3.9l2.1,3.2-4.4,4.6-3.3-2c-1.2.7-2.5,1.3-3.8,1.6l-.8,3.8h-6.4c0,.1-.9-3.6-.9-3.6-1.4-.3-2.7-.8-3.9-1.5l-3.2,2.1-4.6-4.4,2-3.3c-.7-1.2-1.3-2.5-1.7-3.8l-3.8-.8v-6.4c-.1,0,3.6-.9,3.6-.9.3-1.4.8-2.7,1.5-3.9l-2.1-3.2,4.4-4.6,3.3,2h0ZM612.4,299.2c-2.6,2.7-2.5,7.1.2,9.7s7.1,2.5,9.7-.2c2.6-2.7,2.5-7.1-.2-9.7-2.7-2.6-7-2.5-9.7.2h0Z"/>
    <path class="cls-7" d="M612,72.8c0,0-1.3-1.1-3.6-3.1-1.2-1-2.6-2.2-4.3-3.5-2-1.4-4-2.7-6.2-3.9-1.2-.7-2.5-1.2-3.9-1.7-1.4-.5-2.9-.8-4.4-.8-.7,0-1.5.2-2.1.5-.7.3-1.2.9-1.5,1.6-.3.7-.5,1.5-.4,2.3,0,.8.1,1.7.3,2.5.4,1.8,1.1,3.5,1.9,5.1.8,1.7,1.8,3.4,2.9,5,2.2,3.3,4.8,6.5,7.6,9.4,2.8,2.9,5.8,5.5,9.1,7.8,1.6,1.1,3.2,2.1,4.9,3,1.6.9,3.3,1.5,5,2,.8.2,1.7.4,2.5.4.8,0,1.6,0,2.3-.4.7-.3,1.2-.8,1.6-1.4.3-.6.5-1.4.6-2.1,0-1.5-.2-3-.6-4.4-.4-1.3-.9-2.6-1.5-3.8-1.1-2.2-2.3-4.3-3.7-6.3-1.2-1.8-2.4-3.3-3.3-4.4-1.9-2.4-3.1-3.6-3-3.7s.4.2,1,.8,1.4,1.4,2.4,2.6,2.2,2.6,3.5,4.4c1.5,2,2.8,4.1,3.9,6.3.7,1.3,1.2,2.6,1.7,4,.5,1.5.8,3.1.8,4.8,0,.9-.3,1.8-.7,2.6-.5.9-1.2,1.5-2.1,1.9-.9.4-1.8.5-2.8.5-.9,0-1.9-.2-2.8-.4-1.8-.5-3.6-1.2-5.3-2.1-1.7-.9-3.4-1.9-5-3.1-6.7-4.8-12.5-10.8-17.1-17.6-1.1-1.6-2.1-3.4-2.9-5.1-.8-1.7-1.5-3.5-1.9-5.3-.2-.9-.3-1.9-.3-2.8,0-1,.2-1.9.6-2.8.4-.9,1.1-1.6,2-2.1.8-.4,1.7-.6,2.6-.6,1.6,0,3.2.3,4.8.9,1.4.5,2.7,1.1,4,1.8,2.2,1.2,4.3,2.6,6.2,4.1,1.7,1.3,3.1,2.6,4.2,3.7s1.9,1.9,2.5,2.5.7,1,.7,1Z"/>
    <path class="cls-7" d="M596.5,76.7c.1,0-.4,1.6-1,4.5-.3,1.4-.7,3.2-.9,5.3-.3,2.3-.4,4.7-.4,7.1,0,1.4.2,2.7.4,4.1.2,1.4.7,2.8,1.5,4,.4.6.9,1.1,1.4,1.5.6.4,1.3.6,2,.5.8,0,1.5-.3,2.2-.6.7-.4,1.4-.8,2-1.4,1.3-1.1,2.5-2.4,3.5-3.8,1.1-1.5,2.1-3,3-4.7,1.8-3.4,3.4-7,4.5-10.8,1.2-3.7,2-7.5,2.5-11.4.2-1.8.3-3.7.3-5.5,0-1.7-.2-3.5-.7-5.2-.2-.8-.5-1.6-.9-2.3-.3-.7-.8-1.3-1.4-1.8-.6-.4-1.2-.7-1.9-.7-.7,0-1.4.1-2.1.4-1.3.6-2.5,1.5-3.5,2.5-1,.9-1.9,2-2.7,3.1-1.4,1.9-2.7,3.9-3.8,6-1,1.8-1.7,3.5-2.3,4.9-1.2,2.7-1.7,4.3-1.8,4.2,0-.4.1-.8.2-1.2.2-.8.5-1.9,1.1-3.3.6-1.7,1.3-3.4,2.1-5,1-2.2,2.3-4.3,3.7-6.3.8-1.2,1.7-2.2,2.7-3.2,1.1-1.1,2.4-2.1,3.8-2.7.8-.4,1.7-.6,2.5-.5.9,0,1.9.3,2.6.9.7.6,1.3,1.3,1.8,2.1.4.8.8,1.7,1,2.5.5,1.8.7,3.6.8,5.5,0,1.9,0,3.8-.2,5.7-.9,7.9-3.4,15.6-7.2,22.6-.9,1.7-1.9,3.3-3.1,4.8-1.1,1.5-2.4,2.8-3.8,4-.7.6-1.5,1.1-2.3,1.5-.8.4-1.7.7-2.7.7-.9,0-1.9-.2-2.7-.8-.7-.5-1.3-1.2-1.8-1.9-.8-1.4-1.3-2.9-1.5-4.4-.2-1.4-.4-2.8-.3-4.2,0-2.4.2-4.8.6-7.2.3-2.1.8-3.9,1.2-5.3s.8-2.5,1-3.3c.1-.4.3-.7.5-1.1Z"/>
    <path class="cls-7" d="M601.8,69.2c0,.1-1.6.5-4.3,1.5-1.4.5-3.1,1.2-5,2-2.2,1-4.2,2.1-6.2,3.4-1.1.7-2.2,1.6-3.2,2.5-1.1,1-2,2.1-2.7,3.4-.3.6-.5,1.3-.5,2,0,.7.2,1.4.6,2,.4.6,1,1.1,1.6,1.5.7.4,1.4.8,2.2,1,1.7.5,3.4.9,5.1,1,1.8.1,3.7.2,5.5,0,7.8-.5,15.4-2.4,22.5-5.7,1.7-.8,3.3-1.7,4.8-2.7,1.5-.9,2.8-2,4.1-3.3.6-.6,1.1-1.2,1.5-1.9.4-.6.6-1.4.7-2.1,0-.7,0-1.4-.4-2-.4-.6-.9-1.1-1.5-1.5-1.2-.8-2.5-1.4-3.9-1.7-1.3-.3-2.7-.5-4-.7-2.4-.2-4.7-.2-7.1,0-2.1.1-3.9.4-5.3.6-2.9.4-4.5.8-4.5.7.4-.2.7-.3,1.1-.4.8-.2,1.9-.5,3.3-.8s3.2-.6,5.4-.8c2.4-.3,4.8-.3,7.2-.2,1.4,0,2.8.3,4.2.6,1.5.3,3,.9,4.3,1.8.7.5,1.3,1.1,1.8,1.9.5.8.7,1.8.6,2.7,0,.9-.4,1.8-.9,2.6-.5.8-1,1.5-1.6,2.2-1.3,1.3-2.7,2.5-4.3,3.5-1.6,1-3.3,2-5,2.8-3.6,1.7-7.4,3-11.2,4-3.9,1-7.8,1.6-11.8,1.8-1.9,0-3.8,0-5.7,0-1.8-.2-3.7-.5-5.4-1.1-.9-.3-1.7-.7-2.5-1.2-.8-.5-1.5-1.1-2-1.9-.5-.8-.8-1.7-.8-2.7,0-.9.3-1.7.7-2.5.8-1.4,1.8-2.6,3-3.6,1.1-.9,2.2-1.8,3.4-2.5,2.1-1.3,4.2-2.4,6.4-3.3,2-.8,3.7-1.4,5.1-1.8s2.5-.7,3.3-.9c.4-.1.8-.2,1.1-.2Z"/>
    <path class="cls-7" d="M609.9,78.6c.6,2.3-.8,4.7-3.2,5.3-2.3.6-4.7-.8-5.3-3.2-.6-2.3.8-4.7,3.1-5.3,2.3-.6,4.7.8,5.3,3.1,0,0,0,0,0,0Z"/>
    <polygon class="cls-7" points="634.5 136.1 708.5 163.4 710.6 164.4 692.3 212.5 652.9 198.2 614.8 183.6 634.5 136.1"/>
    <polygon class="cls-7" points="691.7 209.7 690.6 210.7 617.1 183.2 617.5 181.6 647.6 188.5 688 202 691.7 209.7"/>
    <path class="cls-6" d="M709,163.5s-6.9-13.1-36.8-14.6c0,0-14.8-15.7-36.2-12.9l-18.5,45.5s25.4,5.4,32,13.4l9.6,3.5s24.4.4,32.5,11.2l17.3-46.2Z"/>
    <path class="cls-7" d="M709,163.5l-.3.8-.9,2.4-3.5,9.2c-3,8-7.3,19.6-12.7,33.7h0c-.8-1.1-1.8-2-2.8-2.9-1.1-.9-2.2-1.6-3.4-2.3-2.5-1.4-5.2-2.5-8-3.3-2.9-.8-5.9-1.5-8.9-1.9-3.1-.5-6.3-.8-9.5-.9h0l-9.7-3.5h0c-.9-1.1-1.9-2-3.1-2.8-1.2-.8-2.4-1.5-3.6-2.2-2.6-1.3-5.2-2.5-7.9-3.5-2.8-1-5.6-1.9-8.5-2.8s-5.8-1.6-8.8-2.2h-.2,0c6.6-16,12.8-31.4,18.6-45.4h0c1.8-.2,3.7-.3,5.5-.3h1.3c.4,0,.9,0,1.3,0h1.3c0,.1,1.3.3,1.3.3,3.4.5,6.7,1.4,9.9,2.7,3,1.2,5.8,2.7,8.5,4.5,2.5,1.6,4.8,3.5,6.9,5.6h0c5.7.2,11.3,1.1,16.8,2.5,4.2,1.1,8.3,2.7,12,4.9,2.4,1.3,4.5,3,6.4,5,.5.5.9,1.1,1.3,1.6.3.4.4.6.4.6-.1-.2-.2-.4-.4-.6-.4-.6-.8-1.1-1.3-1.6-1.9-2-4-3.7-6.3-5-3.7-2.2-7.7-3.8-11.9-4.8-5.5-1.4-11.1-2.2-16.8-2.5h0c-2.1-2.1-4.4-4-7-5.6-2.7-1.8-5.5-3.3-8.5-4.5-3.2-1.3-6.5-2.2-9.9-2.7l-1.3-.2h-1.3c-.4-.1-.9-.2-1.3-.2s-.9,0-1.4,0c-1.8,0-3.7.1-5.5.3h0c-5.7,14-12,29.4-18.6,45.5h0c0,0,0,0,0,0h.2c3,.7,5.9,1.4,8.8,2.2s5.7,1.7,8.4,2.8c2.7,1,5.3,2.1,7.9,3.5,1.2.6,2.5,1.4,3.6,2.2,1.1.8,2.2,1.7,3.1,2.7h0l9.6,3.5h0c3.2.1,6.3.4,9.5.9,3,.4,6,1.1,8.9,1.9,2.8.8,5.5,1.9,8,3.2,1.2.7,2.3,1.4,3.4,2.3,1,.8,2,1.8,2.8,2.9h0c0,0,0,0,0,0l12.6-33.7c1.5-4,2.7-7.1,3.5-9.3.4-1.1.7-1.9.9-2.4s.3-.8.3-.8Z"/>
    <path class="cls-7" d="M653.5,196.6s4.3-10.6,9.5-23.8,9.4-23.8,9.4-23.8-4.3,10.6-9.5,23.8-9.4,23.8-9.4,23.8Z"/>
    <path class="cls-7" d="M638.4,142.6h2.7c.6.1,1.2.2,1.9.2h1.1c0,.1,1.2.4,1.2.4.8.1,1.7.3,2.6.5,2,.5,3.9,1.1,5.8,1.9,1.9.8,3.7,1.7,5.5,2.7.8.5,1.6.9,2.3,1.4.3.2.7.4,1,.7l.9.7c.6.4,1.1.8,1.5,1.2.2.2.4.3.6.5l.5.4.7.6h.2c0,.1,0,.2,0,.2h0c0,0-.2-.2-.2-.2l-.7-.6-.5-.4-.6-.5c-.4-.4-.9-.8-1.5-1.2l-.9-.7c-.3-.2-.7-.4-1-.7-.7-.5-1.5-.9-2.3-1.4-1.8-1-3.6-1.9-5.5-2.7-1.9-.8-3.9-1.4-5.8-1.9-.9-.2-1.8-.4-2.6-.5-.4,0-.8-.1-1.2-.2h-1.1c-.7-.2-1.4-.3-1.9-.3h-.8c0,0-.7,0-.7,0h-1.2Z"/>
    <path class="cls-7" d="M636.3,148.1h2.7c.6.1,1.2.1,2,.3h1.1c.4.2.8.3,1.2.3.8.1,1.7.4,2.7.6,2,.5,4,1.1,5.9,1.9,1.9.8,3.8,1.7,5.6,2.7.8.5,1.6.9,2.3,1.4.3.2.7.5,1,.7l.9.7c.6.4,1.1.8,1.5,1.2l.6.5.5.4.7.6.2.2h0,0c0,0-.2-.2-.2-.2l-.7-.6-.5-.5c-.2-.2-.4-.3-.6-.5-.5-.4-.9-.8-1.5-1.2l-.9-.7c-.3-.2-.7-.5-1-.7-.7-.5-1.5-.9-2.3-1.4-3.7-2-7.6-3.5-11.7-4.5-.9-.2-1.8-.4-2.7-.5-.4,0-.8-.1-1.2-.2h-1.1c-.7-.2-1.4-.3-2-.3h-2.7,0Z"/>
    <path class="cls-7" d="M633.3,153.3h2.7c.6.1,1.2.1,2,.3h1.1c0,.1,1.2.4,1.2.4.8.1,1.7.4,2.7.6,2,.5,4,1.1,5.9,1.9,1.9.8,3.8,1.7,5.6,2.7.8.5,1.6,1,2.3,1.4.4.2.7.5,1,.7l.9.7c.6.4,1.1.8,1.5,1.2l.6.5.5.4.7.6.2.2h0,0c0-.1,0-.2-.2-.2l-.7-.6-.5-.5-.6-.5c-.5-.4-1-.8-1.5-1.2l-.9-.7c-.3-.2-.7-.5-1-.7-.7-.5-1.5-.9-2.3-1.4-1.8-1-3.7-1.9-5.6-2.7-2-.8-4-1.4-6-1.9-.9-.2-1.8-.4-2.7-.5-.4,0-.8-.1-1.2-.2h-1.1c-.7-.2-1.4-.3-2-.3h-.8c0,0-.7,0-.7,0h-1.2s0,.1,0,.1Z"/>
    <path class="cls-7" d="M631.4,158.8h2.7c.6.1,1.2.2,1.9.3h1.1c.4.2.8.3,1.2.4.8.1,1.7.3,2.7.6,4,1,7.9,2.5,11.5,4.6.8.5,1.6.9,2.3,1.4.3.2.7.4,1,.7l.9.7c.6.4,1.1.8,1.5,1.2l.6.5.5.4.7.6h.2c0,.1,0,.2,0,.2h0c0,0-.2-.2-.2-.2l-.7-.6-.5-.4-.6-.5c-.5-.4-1-.8-1.5-1.2l-.9-.7c-.3-.2-.7-.4-1-.7-.7-.5-1.5-1-2.3-1.4-1.8-1-3.7-1.9-5.6-2.7-2-.8-4-1.4-6-1.9-.9-.2-1.8-.4-2.7-.5-.4,0-.8-.1-1.2-.2h-1.1c-.7-.2-1.4-.3-2-.3h-.8c0,0-1.9,0-1.9,0h0Z"/>
    <path class="cls-7" d="M628.8,164.2h2.7c.6.1,1.2.1,2,.3h1.1c0,.1,1.2.4,1.2.4.8.1,1.7.4,2.7.6,2,.5,4,1.1,5.9,1.9,1.9.8,3.8,1.7,5.6,2.7.8.5,1.6.9,2.3,1.4.4.2.7.5,1,.7l.9.7c.6.4,1.1.8,1.5,1.2l.6.5.5.4.7.6.2.2h0c0,0,0,0,0,0,0,0,0-.1-.2-.2l-.7-.6-.5-.5-.6-.5c-.5-.4-1-.8-1.5-1.2l-.9-.7c-.3-.2-.7-.5-1-.7-.7-.5-1.5-.9-2.3-1.4-1.8-1-3.7-1.9-5.6-2.7-2-.8-4-1.4-6-1.9-.9-.2-1.8-.4-2.7-.5-.4,0-.8-.1-1.2-.2h-1.1c-.7-.2-1.4-.3-2-.3h-2.7Z"/>
    <path class="cls-7" d="M626.7,169.6h2.7c.6,0,1.2.2,2,.3h1.1c.4.1.8.3,1.2.4.8.1,1.7.3,2.7.6,2,.5,4,1.1,5.9,1.9,1.9.8,3.8,1.7,5.6,2.7.8.5,1.6.9,2.3,1.4.3.2.7.4,1,.7l.9.7c.6.4,1.1.8,1.5,1.2l.6.5.5.4.7.6h.2c0,.1,0,.2,0,.1h0c0,0-.2-.2-.2-.2l-.7-.6-.5-.4c-.2-.2-.4-.3-.6-.5-.4-.4-.9-.8-1.5-1.2l-.9-.7c-.3-.2-.7-.4-1-.7-.7-.5-1.5-.9-2.3-1.4-3.6-2.1-7.5-3.6-11.6-4.6-.9-.2-1.8-.4-2.7-.5-.4,0-.8-.1-1.2-.2h-1.1c-.7-.2-1.4-.3-2-.3h-.8c0,0-.7,0-.7,0h-1.3Z"/>
    <path class="cls-7" d="M624.3,175h2.7c.6.1,1.2.1,2,.3h1.1c.4.2.8.3,1.2.3.8.1,1.7.4,2.7.6,2,.5,4,1.1,5.9,1.9,1.9.8,3.8,1.7,5.6,2.7.8.5,1.6.9,2.3,1.4l1,.7.9.7c.6.4,1.1.8,1.5,1.2l.6.5.5.4.7.6.2.2h0c0,0,0,0,0,0l-.2-.2-.7-.6-.5-.5c-.2-.2-.4-.3-.6-.5-.4-.4-.9-.8-1.5-1.2l-.9-.7c-.3-.2-.7-.4-1-.7-.7-.5-1.5-1-2.3-1.4-3.6-2.1-7.5-3.6-11.6-4.6-.9-.2-1.8-.4-2.7-.5-.4,0-.8-.1-1.2-.2h-1.1c-.7-.2-1.4-.3-2-.3h-2.7,0Z"/>
    <path class="cls-7" d="M702.5,168.2h0c0,0-.2-.2-.2-.2l-.7-.6-.5-.4-.6-.5c-.4-.4-.9-.8-1.5-1.2l-.9-.7c-.3-.2-.7-.4-1-.7-.7-.5-1.5-.9-2.3-1.4-1.8-1-3.6-1.9-5.5-2.7-1.9-.8-3.9-1.4-5.8-1.9-.9-.2-1.8-.4-2.6-.5-.4,0-.8-.1-1.2-.2h-1.1c-.7-.2-1.3-.3-1.9-.3h-.8c0,0-1.6,0-1.6,0h2.4c.6,0,1.2.1,1.9.2h1.1c.4.2.8.3,1.2.3.8.1,1.7.3,2.6.6,2,.5,3.9,1.1,5.8,1.9,1.9.8,3.7,1.7,5.5,2.7.8.5,1.6.9,2.3,1.4.3.2.7.4,1,.7l.9.7c.6.4,1.1.8,1.5,1.2.2.2.4.3.6.5l.5.4.7.6h.2c0,.1,0,.3,0,.3Z"/>
    <path class="cls-7" d="M700.2,173.6h0c0,0-.2-.2-.2-.2l-.7-.6-.5-.5-.6-.5c-.5-.4-.9-.8-1.5-1.2l-.9-.7c-.3-.2-.7-.4-1-.7-.7-.5-1.5-1-2.3-1.5-1.8-1-3.7-2-5.6-2.8-2-.8-4-1.4-6-1.9-.9-.2-1.8-.4-2.7-.6l-1.2-.2h-1.1c-.7-.2-1.4-.3-2-.3h-.8c0,0-.7,0-.7,0h-1.2,2.6c.6,0,1.2.2,1.9.3h1.1c.4.2.8.3,1.2.4.8.1,1.7.4,2.7.6,4,1,7.9,2.6,11.5,4.7.8.5,1.6,1,2.3,1.4.3.2.7.5,1,.7l.9.7c.6.4,1.1.9,1.5,1.2l.6.5.5.4.7.6.2.2h.2Z"/>
    <path class="cls-7" d="M698.8,179.5h0c0,0-.2-.2-.2-.2l-.7-.6-.5-.5c-.2-.2-.4-.3-.6-.5-.5-.4-.9-.8-1.5-1.2l-.9-.7c-.3-.2-.7-.5-1-.7-.7-.5-1.5-1-2.3-1.5-1.8-1-3.7-2-5.6-2.8-1.9-.8-3.9-1.4-5.9-1.9-.9-.2-1.8-.4-2.7-.6-.4,0-.8-.2-1.2-.2h-1.1c-.7-.3-1.4-.3-2-.3h-.8c0,0-.7,0-.7,0h-1.2,1.2c0,0,.7,0,.7,0,.2,0,.5,0,.8,0,.6,0,1.2.1,2,.2l1.1.2c.4,0,.8.1,1.2.2.8.1,1.7.4,2.7.6,2,.5,4,1.2,5.9,1.9,1.9.8,3.8,1.7,5.6,2.8.8.5,1.6,1,2.3,1.4.3.2.7.5,1,.7l.9.7c.6.4,1.1.9,1.5,1.2l.6.5.5.4.7.6.2.2s0,0,0,0Z"/>
    <path class="cls-7" d="M696.3,184.8h0c0,0-.2-.2-.2-.2l-.7-.6-.5-.5-.6-.5c-.4-.4-.9-.8-1.5-1.2l-.9-.7c-.3-.2-.7-.4-1-.7-.7-.5-1.5-1-2.3-1.5-1.8-1-3.7-2-5.6-2.8-1.9-.8-3.9-1.4-5.9-1.9-.9-.2-1.8-.4-2.7-.6-.4,0-.8-.2-1.2-.2h-1.1c-.7-.3-1.4-.3-2-.3h-.8c0,0-.7,0-.7,0h-1.2,1.8c.2,0,.5,0,.8,0,.6,0,1.2,0,2,.2h1.1c.4.2.8.3,1.2.4.8.1,1.7.4,2.7.6,2,.5,4,1.2,5.9,1.9,1.9.8,3.8,1.7,5.6,2.8.8.5,1.6,1,2.3,1.4.3.2.7.5,1,.7l.9.7c.6.4,1.1.9,1.5,1.2.2.2.4.4.6.5l.5.4.7.6.2.2h0Z"/>
    <path class="cls-7" d="M694.5,190.4h0c0,0-.2-.2-.2-.2l-.7-.6-.5-.5-.6-.5c-.5-.4-.9-.8-1.5-1.2l-.9-.7c-.3-.2-.7-.4-1-.7-.7-.5-1.5-1-2.3-1.5-3.6-2.1-7.5-3.7-11.5-4.7-.9-.2-1.8-.4-2.7-.6l-1.2-.2h-1.1c-.7-.2-1.4-.3-2-.3h-.8c0,0-.7,0-.7,0h-1.2,2.6c.6,0,1.2.2,1.9.3h1.1c.4.2.8.3,1.2.4.8.1,1.7.4,2.7.6,4,1,7.9,2.6,11.5,4.7.8.5,1.6,1,2.3,1.4.3.2.7.5,1,.7l.9.7c.6.4,1.1.9,1.5,1.2l.6.5.5.4.7.6.2.2h.1Z"/>
    <path class="cls-7" d="M692.2,195.8h0c0,0-.2-.2-.2-.2l-.7-.6-.5-.4c-.2-.2-.4-.3-.6-.5-.5-.4-.9-.8-1.5-1.2l-.9-.7c-.3-.2-.7-.5-1-.7-.7-.5-1.5-1-2.3-1.5-1.8-1-3.7-2-5.6-2.8-1.9-.8-3.9-1.4-5.9-1.9-.9-.2-1.8-.4-2.7-.6-.4,0-.8-.2-1.2-.2h-1.1c-.7-.3-1.4-.3-2-.3h-.8c0,0-.7,0-.7,0h-1.2,1.8c.2,0,.5,0,.8,0,.6,0,1.2,0,2,.2h1.1c.4.2.8.3,1.2.4.8.1,1.7.4,2.7.6,4,1,7.9,2.6,11.5,4.7.8.5,1.6,1,2.3,1.4.3.2.7.5,1,.7l.9.7c.6.4,1.1.9,1.5,1.2l.6.5.5.4.7.6.2.2h0Z"/>
    <path class="cls-7" d="M690.2,201.4h0c0,0-.2-.2-.2-.2l-.7-.6-.5-.5c-.2-.2-.4-.3-.6-.5-.5-.4-.9-.8-1.5-1.2l-.9-.7c-.3-.2-.7-.5-1-.7-.7-.5-1.5-1-2.3-1.5-1.8-1-3.7-2-5.6-2.8-2-.8-4-1.4-6-1.9-.9-.2-1.8-.4-2.7-.6-.4,0-.8-.2-1.2-.2h-1.1c-.7-.3-1.4-.3-2-.3h-.8c0,0-.7,0-.7,0h-1.2,1.8c.2,0,.5,0,.8,0,.6,0,1.2.1,1.9.2l1.1.2c.4,0,.8.1,1.2.2.8.1,1.7.4,2.7.6,2,.5,4,1.2,5.9,1.9,1.9.8,3.8,1.7,5.6,2.8.8.5,1.6.9,2.3,1.4.3.2.7.5,1,.7l.9.7c.6.4,1.1.9,1.5,1.2l.6.5.5.4.7.6.2.2s.2.1.2.1Z"/>
    <path class="cls-3" d="M624.4,184.8c-1.2,2.3-2.8,4.4-4.7,6.2,1.9-.1,3.8-.7,5.4-1.8,0,1.4-.2,2.7-.8,4,2.8-1.3,5.2-3.4,6.8-6.1l-6.7-2.4Z"/>
    <path class="cls-3" d="M618.9,183h.2c0,0,.7.3.7.3l2.5.9c2.1.7,5,1.8,8.3,3s6.1,2.3,8.2,3.1l2.5,1,.7.3h.2c0,0,0,0,0,0h-.2c0,0-.7-.4-.7-.4l-2.5-1c-2.1-.9-5-2-8.2-3.2s-6.2-2.2-8.3-2.9c-1.1-.4-1.9-.6-2.5-.8l-.7-.2h-.1c0-.1-.1-.1-.1-.1Z"/>
    <path class="cls-10" d="M281,56.5c1.2-.7,2.5-1.3,3.8-1.7l.8-3.8h6.4c0-.1.9,3.6.9,3.6,1.4.3,2.7.8,3.9,1.5l3.2-2.1,4.6,4.4-2,3.3c.7,1.2,1.3,2.5,1.7,3.8l3.8.8v6.4c.1,0-3.6.9-3.6.9-.3,1.4-.8,2.7-1.5,3.9l2.1,3.2-4.4,4.6-3.3-2c-1.2.7-2.5,1.3-3.8,1.7l-.8,3.8h-6.4c0,.1-.9-3.6-.9-3.6-1.4-.3-2.7-.8-3.9-1.5l-3.2,2.1-4.6-4.4,2-3.3c-.7-1.2-1.3-2.5-1.7-3.8l-3.8-.8v-6.4c-.1,0,3.6-.9,3.6-.9.3-1.4.8-2.7,1.5-3.9l-2.1-3.2,4.4-4.6s3.3,2,3.3,2ZM284.4,65c-2.6,2.7-2.6,7.1.2,9.7,2.7,2.6,7.1,2.6,9.7-.2,2.6-2.7,2.6-7.1-.2-9.7,0,0,0,0,0,0-2.7-2.6-7-2.6-9.7.2,0,0,0,0,0,0h0Z"/>
    <path class="cls-10" d="M524.7,138.6c1.9-1.2,4-2.1,6.2-2.7l1.3-6.1,10.4-.2,1.5,6.1c2.2.5,4.3,1.4,6.3,2.5l5.2-3.4,7.5,7.2-3.2,5.4c1.2,1.9,2.1,4,2.7,6.2l6.1,1.3.2,10.4-6.1,1.5c-.5,2.2-1.4,4.3-2.5,6.3l3.4,5.2-7.2,7.5-5.4-3.2c-1.9,1.2-4,2.1-6.2,2.7l-1.3,6.1-10.4.2-1.5-6.1c-2.2-.5-4.3-1.4-6.3-2.5l-5.2,3.4-7.5-7.2,3.3-5.4c-1.2-1.9-2.1-4-2.7-6.2l-6.1-1.3-.2-10.4,6.1-1.5c.5-2.2,1.4-4.3,2.5-6.3l-3.4-5.2,7.2-7.5,5.4,3.3ZM530.2,152.4c-4.3,4.4-4.1,11.5.3,15.8,4.4,4.3,11.5,4.1,15.8-.3,4.3-4.4,4.1-11.5-.3-15.8,0,0,0,0,0,0-4.4-4.3-11.5-4.1-15.8.3Z"/>
    <path class="cls-3" d="M431.5,45.6c1.9-1.2,4-2.1,6.2-2.7l1.3-6.2,10.4-.2,1.5,6.1c2.2.5,4.3,1.4,6.3,2.5l5.2-3.4,7.5,7.2-3.3,5.4c1.2,1.9,2.1,4,2.7,6.2l6.1,1.3.2,10.4-6.1,1.5c-.5,2.2-1.4,4.3-2.5,6.3l3.4,5.2-7.2,7.5-5.4-3.2c-1.9,1.2-4,2.1-6.2,2.7l-1.3,6.2-10.5.2-1.5-6.1c-2.2-.5-4.3-1.4-6.3-2.5l-5.2,3.4-7.5-7.2,3.2-5.4c-1.2-1.9-2.1-4-2.7-6.2l-6.1-1.3-.2-10.4,6.1-1.5c.5-2.2,1.4-4.3,2.5-6.3l-3.4-5.2,7.2-7.5s5.4,3.3,5.4,3.3ZM437,59.4c-4.3,4.4-4.1,11.5.3,15.8,4.4,4.3,11.5,4.1,15.8-.3s4.1-11.5-.3-15.8c0,0,0,0,0,0-4.4-4.3-11.5-4.1-15.8.3Z"/>
    <path class="cls-3" d="M148.7,232.2c1.9-1.2,4-2.1,6.2-2.7l1.3-6.1,10.4-.2,1.5,6.1c2.2.5,4.3,1.4,6.3,2.5l5.2-3.4,7.4,7.2-3.2,5.4c1.2,1.9,2.1,4,2.7,6.2l6.1,1.3.2,10.4-6.1,1.5c-.5,2.2-1.4,4.3-2.5,6.3l3.4,5.2-7.2,7.5-5.3-3.2c-1.9,1.2-4,2.1-6.2,2.7l-1.3,6.1-10.4.2-1.5-6.1c-2.2-.5-4.3-1.4-6.3-2.5l-5.2,3.4-7.5-7.2,3.2-5.4c-1.2-1.9-2.1-4-2.7-6.2l-6.1-1.3-.2-10.4,6.1-1.5c.5-2.2,1.4-4.3,2.5-6.3l-3.4-5.2,7.2-7.5,5.4,3.2h0ZM154.2,246c-4.3,4.4-4.1,11.5.3,15.8s11.5,4.1,15.8-.3c4.3-4.4,4.1-11.5-.3-15.8,0,0,0,0,0,0-4.4-4.3-11.5-4.1-15.8.3Z"/>
    <path class="cls-2" d="M241.6,99.6c1.3-.8,2.8-1.4,4.3-1.8l.9-4.2h7.1c0-.1,1,4.1,1,4.1,1.5.4,3,.9,4.3,1.7l3.6-2.3,5.1,5-2.2,3.7c.8,1.3,1.4,2.8,1.9,4.2l4.2.9v7.1c.1,0-4.1,1-4.1,1-.4,1.5-.9,3-1.7,4.3l2.4,3.6-4.9,5.1-3.7-2.2c-1.3.8-2.8,1.4-4.3,1.9l-.9,4.2h-7.1c0,.1-1-4-1-4-1.5-.4-3-.9-4.3-1.7l-3.6,2.4-5.1-5,2.2-3.7c-.8-1.3-1.4-2.8-1.9-4.3l-4.2-.9v-7.1c-.1,0,4.1-1,4.1-1,.4-1.5.9-3,1.7-4.3l-2.4-3.6,4.9-5.1,3.7,2.2h0ZM245.4,109.1c-2.9,3-2.8,7.9.2,10.8s7.9,2.8,10.8-.2c2.9-3,2.8-7.9-.2-10.8,0,0,0,0,0,0-3-2.9-7.9-2.9-10.8.2,0,0,0,0,0,0h0Z"/>
    <path class="cls-10" d="M91.4,223.3c1.3-.8,2.8-1.4,4.3-1.9l.9-4.2h7.1c0-.1,1,4.1,1,4.1,1.5.4,2.9.9,4.3,1.7l3.6-2.4,5.1,4.9-2.2,3.7c.8,1.3,1.4,2.8,1.8,4.3l4.2.9v7.1c.1,0-4.1,1-4.1,1-.4,1.5-.9,3-1.7,4.3l2.4,3.6-4.9,5.1-3.7-2.2c-1.3.8-2.8,1.4-4.3,1.9l-.9,4.2h-7.1c0,.1-1-4-1-4-1.5-.4-3-.9-4.3-1.7l-3.6,2.4-5.1-4.9,2.2-3.7c-.8-1.3-1.4-2.8-1.8-4.3l-4.2-.9v-7.1c-.1,0,4.1-1,4.1-1,.4-1.5.9-3,1.7-4.3l-2.3-3.6,4.9-5.1,3.7,2.2h0ZM95.2,232.8c-2.9,3-2.8,7.9.2,10.8,3,2.9,7.9,2.8,10.8-.2,2.9-3,2.8-7.9-.2-10.8,0,0,0,0,0,0-3-2.9-7.9-2.8-10.8.2Z"/>
    <path class="cls-7" d="M39.6,386.9c-3.7-2.3-7.9-3.8-12.2-4.2-2-.2-4.2-.1-5.8,1.1-.3.3-.7.6-.6,1.1,0,.3.3.6.6.7,5.3,3.8,12.3,4.3,18.1,1.4"/>
    <path class="cls-7" d="M39.3,386.5c-2.8-2.1-5.5-4.4-7.9-7-2.4-2.6-4.2-5.7-5-9.2-.3-1-.2-2.1.4-3.1,6.3,4.9,11.3,11.3,12.5,19.2"/>
    <path class="cls-7" d="M39.6,386.8c-.6-3.4-.5-7,.2-10.4.7-3.5,2.7-6.5,5.5-8.6,1.1,2.5.6,5.5-.1,8.1-1.2,4.1-3,8-5.5,11.5"/>
    <path class="cls-7" d="M45.7,397.9c-3.7.6-7.1,2.4-9.8,5-2.8,2.6-4.8,5.9-5.6,9.6,3.7-.2,6.8-2.8,9.1-5.7s3.8-6.1,6.3-8.8"/>
    <path class="cls-7" d="M47.1,399.7c-3-7.6-2-16.2,2.8-22.9,2.1,7.6,1.4,16.2-2.8,22.9"/>
    <path class="cls-7" d="M55.2,409.4c-7-.4-13.6,3.3-16.8,9.6-.2.4-.4.9-.1,1.3.3.3.7.4,1.1.3,3.3-.2,6.2-2.2,8.6-4.5s4.5-4.9,7.2-6.8"/>
    <path class="cls-7" d="M55,408.9c-1.8-5.7-1.9-11.7-.3-17.4.6-2.2,1.7-4.6,3.7-5.6.2-.1.4-.1.6-.1.2,0,.3.2.4.4.7,1.6,1,3.3.9,5-.1,1.7-.4,3.4-.8,5.1-.7,3.1-1,6.4-2.7,9.1-.4.6-.8,1.3-1.1,2-.3.7-.3.9-.6,1.5"/>
    <path class="cls-10" d="M76.6,412.1c-1.5-6.4,0-13.2,3.9-18.5.3-.4.7-.8,1.1-.7.7,0,.9,1,.9,1.7-.3,6.3-2.3,12.3-5.9,17.5"/>
    <path class="cls-10" d="M78.6,413.4c7.6,1.8,15.7.2,22-4.5-3.7-1.9-7.9-2.4-11.9-1.5-4,.9-7.6,2.7-10.1,6"/>
    <path class="cls-10" d="M80.2,409.4c4.4-6.8,11.9-11.1,20-11.6-.9,3.2-3.6,5.7-6.6,7.2-3.1,1.4-6.3,2.3-9.6,2.8-1.3.2-3,.5-3.9,1.5"/>
    <path class="cls-7" d="M77,389.7c1.3-3.8,2.1-7.7,2.6-11.7.4-4-.4-8.1-2.3-11.6-4,7.4-4.1,16.2-.3,23.7"/>
    <path class="cls-7" d="M90.1,383.1c4.5-8.2,13.8-14.8,23.1-15.7-3.6,9-13.4,15.9-23.1,15.7"/>
    <path class="cls-7" d="M87.2,384.7c6.8,1,12.5,5.4,18.8,8,1.3.6,2.8.9,4.3.8,1.8,0,3.3-1.5,3.3-3.4,0-1-.5-1.9-1.2-2.5-.9-.8-1.9-1.5-3.1-1.9-6.9-2.9-14.2-2.9-21.5-1.2"/>
    <path class="cls-7" d="M83.3,389.4c1.5.4,2.1,1.2,3.3,2.3,4.1,3.5,9,6,14.3,7.3.5.1,1.3.2,1.5-.3s0-1-.4-1.3c-2.3-2.7-5.3-4.7-8.6-5.8-3.3-1.2-6.1-2.7-10.1-2.4"/>
    <path class="cls-7" d="M78.9,360.8c5.6,5.2,13.1,7.7,20.7,7,.3,0,.7-.1.9-.3.5-.6,0-1.4-.7-1.9-6.1-4.7-13.5-6.7-20.9-4.8"/>
    <path class="cls-7" d="M84.1,358.9c7.4-5.5,17.1-7.1,25.9-4.3-3.4,3.1-7.7,5-12.3,5.4-4.5.4-9.1,0-13.5-1.1"/>
    <path class="cls-7" d="M82,345.8c-.6-6.1-.2-10.9-.6-17,0-.5-.1-1.1-.6-1.2-.6-.2-1.2.5-1.4,1.2-1.8,5.7-.8,12,2.6,16.9"/>
    <path class="cls-7" d="M81.6,346.4c4-2.6,7.4-5.9,10.1-9.8,2-2.7,3.7-6,3.2-9.3-2.8,0-5.5,1.4-7.3,3.7-1.7,2.2-3,4.7-3.7,7.5-.8,2.7-1.4,5.4-2.3,8"/>
    <path class="cls-7" d="M91.5,343.7c9.1-3.4,17.4-8.3,24.8-14.6-3-1.2-6.3-.5-9.3.7-6.7,2.5-12.3,7.5-15.6,13.8"/>
    <path class="cls-7" d="M84.4,349.8c4.6.6,9.2.7,13.8,0,4.5-.7,8.7-2.5,12.8-4.3.4-.1.7-.3.9-.7.1-.4,0-.8-.3-1.1-.3-.3-.7-.4-1.1-.5-4.6-1.1-9.4-.8-13.9.8-4.2,1.5-8.3,3.3-12.2,5.6"/>
    <path class="cls-10" d="M58.3,361c-3-6.4-3.1-13.7-.2-20.1,1.9,2.9,2.1,6.6,1.8,10s-1.4,7-1.5,10.4"/>
    <path class="cls-10" d="M45.8,354.8c-7.9,0-15.4,3.1-20.8,8.9,3.9.5,7.9-.3,11.4-2.1,3.5-1.8,6.8-4,9.8-6.6"/>
    <path class="cls-10" d="M37.4,352c-3.8-.3-7.5-.8-11.1.3-3.7,1.1-6.8,3.7-8.5,7.2,3.6.3,7.2-.4,10.5-2,3.2-1.6,6.3-3.4,9.2-5.5"/>
    <path class="cls-10" d="M49.8,352.1c-3.4-2.2-7-4.5-10.9-5.5s-8.6-.2-11.4,2.8c3.2,1.9,7.1,2.1,10.9,2.1s8.3,0,11.9,1.2"/>
    <path class="cls-10" d="M49.9,352.3c-5.9-5.8-8.1-16.1-5.7-24,4.6,7.1,6.7,15.6,5.7,24"/>
    <path class="cls-7" d="M66,336c1.1-2.6,1.9-5.3,2.9-7.9.9-2.7,2.3-5.1,4.1-7.3,1.8-2.2,4.4-3.5,7.3-3.8-1.8,8-7,14.9-14.1,18.9"/>
    <path class="cls-7" d="M63.1,339.4c-1.8-2.5-3.9-5.9-6.4-7.8s-5.7-3-8.7-2.3c3.2,5.6,8.8,9.3,15.2,10.1"/>
    <path class="cls-7" d="M63.6,336.2c-1.3-3-2.3-6.1-2.9-9.4-.6-3.2,0-6.6,1.5-9.5,3.2,6.1,4.2,12.6,1.6,19"/>
    <path class="cls-10" d="M66,317.3c1.8-6,7.3-10.5,13.3-12.5.7-.3,1.5-.4,2.3-.4.8,0,1.5.6,1.7,1.4.2,1-.6,2-1.4,2.6-4.7,4-10.1,7-15.9,8.8"/>
    <path class="cls-10" d="M66.1,312.4c.2-3.9.5-7.8,1.7-11.5s3.7-7.1,7.2-8.8c.6,3.9-1.1,7.8-3.2,11.2s-4.6,6.6-5.9,10.3"/>
    <path class="cls-10" d="M66,315c-1.5-4.4-1.7-10-4.3-13.8-1.8-2.7-4.8-4.5-6.4-7.3-1,2.7-.8,5.7.4,8.3,1.2,2.6,2.8,5,4.9,7,2,2.1,3.6,3.6,5.4,5.8"/>
    <path class="cls-10" d="M66,444.4c-.1,0-.2-29.3-.2-65.5s0-65.5.2-65.5.2,29.3.2,65.5,0,65.5-.2,65.5Z"/>
    <path class="cls-7" d="M91.6,356.6c-.4.2-.7.3-1.1.4l-3,1c-2.6.9-6.1,2.1-9.9,3.7s-7.3,2.9-9.4,4.7c-.8.7-1.5,1.5-1.9,2.5-.3.7-.3,1.1-.4,1.1s0-.1,0-.3c0-.3.1-.6.2-.9.4-1,1-1.9,1.8-2.6,1.2-1,2.6-1.9,4.1-2.5,1.6-.8,3.4-1.5,5.3-2.3,3.8-1.6,7.4-2.8,10-3.6,1.3-.4,2.3-.7,3.1-.9.4-.1.8-.2,1.1-.3Z"/>
    <path class="cls-7" d="M100,336c0,.1-.2.2-.3.3l-.9.9-3.5,3.2-11.7,10.4c-4.6,4.1-8.5,7.9-11.2,10.9-1.4,1.5-2.4,2.7-3.2,3.5l-.8,1c0,.1-.2.2-.3.3,0,0,0-.1.2-.4s.4-.6.8-1c.7-.9,1.7-2.1,3.1-3.6,3.5-3.9,7.3-7.5,11.2-11,4.6-4,8.7-7.7,11.8-10.3l3.6-3.1,1-.8c.1-.1.2-.2.3-.3Z"/>
    <path class="cls-7" d="M78.6,354.9c-.1,0,.8-2.2,1.8-5s1.4-5.1,1.5-5.1c-.1,1.8-.5,3.5-1.1,5.2-.4,1.2-.9,2.4-1.4,3.5-.2.5-.4,1-.8,1.4Z"/>
    <path class="cls-7" d="M66,372.7c-.3-.2-.5-.5-.7-.8l-1.8-2.3c-1.5-2-3.6-4.7-6-7.6s-4.5-5.6-6.1-7.5l-1.8-2.3c-.2-.3-.5-.6-.6-.9.3.2.5.5.8.8.5.5,1.1,1.3,1.9,2.2,1.6,1.9,3.8,4.5,6.2,7.5s4.4,5.7,5.9,7.7c.7,1,1.3,1.8,1.7,2.4.2.3.5.6.6.9Z"/>
    <path class="cls-7" d="M60.4,365.5c-1.1-1.2-1.9-2.8-2.3-4.4-.4-1.4-.6-2.9-.5-4.4h.2c0,.3-.2.5-.2.5s0-.2,0-.5h.2c0,1.5.3,2.9.8,4.3.5,1.6,1.2,3.1,1.9,4.5Z"/>
    <path class="cls-7" d="M53.2,356.3c-.5-.4-1.1-.7-1.6-1-1.5-.4-3-.6-4.5-.4-1.6.1-3.1.4-4.6.7-.6.2-1.3.3-1.9.5.6-.3,1.2-.6,1.8-.7,1.5-.5,3.1-.8,4.6-.9,1.6-.2,3.2,0,4.7.5.6.2,1.2.7,1.5,1.3Z"/>
    <path class="cls-7" d="M51.5,354.1c0,0-1-.4-2.5-.9-2-.7-4.1-1.1-6.3-1.3-2.1-.2-4.3,0-6.4.3-1.6.3-2.6.6-2.6.5.2-.1.4-.2.7-.3.6-.2,1.3-.4,1.9-.5,2.1-.5,4.3-.6,6.5-.5,2.2.2,4.3.7,6.3,1.4.6.2,1.2.5,1.8.8.2,0,.5.2.7.4Z"/>
    <path class="cls-7" d="M66,344.8c-.8-2.1-1.4-4.2-1.8-6.4-.6-2.1-1.1-4.3-1.4-6.5.7,2.1,1.4,4.2,1.8,6.4.6,2.1,1.1,4.3,1.4,6.5Z"/>
    <path class="cls-7" d="M66.1,344.8c-.6-1.3-1.2-2.6-2-3.8-.9-1.2-1.9-2.2-3-3.1.4.1.8.3,1.2.6.9.6,1.6,1.4,2.2,2.2.9,1.2,1.5,2.6,1.7,4.1Z"/>
    <path class="cls-7" d="M66,428.8c0,0-.1-.7-.5-2-.5-1.8-1.2-3.4-2-5.1-2.8-5.3-6.3-10.2-10.3-14.6-2.3-2.6-4.6-5.1-6.5-7.5-1.7-2.1-3.3-4.3-4.6-6.7-.9-1.6-1.7-3.3-2.3-5-.2-.6-.4-1.1-.5-1.4,0-.2,0-.3-.1-.5,0,0,.2.7.7,1.9.7,1.7,1.5,3.3,2.5,4.9,1.4,2.3,2.9,4.5,4.7,6.6,1.9,2.4,4.2,4.9,6.5,7.5,4.1,4.4,7.6,9.4,10.3,14.8.8,1.6,1.4,3.4,1.8,5.2.1.5.2,1,.3,1.5,0,.2,0,.3,0,.5Z"/>
    <path class="cls-7" d="M89.2,402.6c-.4.3-.8.5-1.2.7-1.1.6-2.1,1.3-3.2,2.1-1.5,1.1-2.9,2.4-4.1,3.8-1.4,1.5-2.9,3.3-4.5,5.2-3,3.8-5.9,7.2-7.6,9.9-.9,1.3-1.5,2.5-1.9,3.3-.2.4-.4.8-.7,1.2,0,0,0-.1.1-.3s.2-.5.4-1c.5-1.2,1.1-2.3,1.8-3.4,2.3-3.5,4.8-6.8,7.5-10,1.5-1.9,3-3.7,4.5-5.2,1.3-1.4,2.7-2.6,4.2-3.7,1-.8,2.1-1.4,3.2-2,.4-.2.7-.3,1-.4,0,0,.2,0,.3-.1Z"/>
    <path class="cls-7" d="M89.6,411.1c-.8.2-1.7.3-2.6.4-2,.2-4.1.6-6,1.2-2,.6-3.8,1.6-5.4,2.9-1.2,1-1.8,1.8-1.9,1.7,0-.2.2-.4.4-.6.4-.5.8-1,1.3-1.4,1.6-1.3,3.5-2.4,5.5-3,2-.6,4.1-1,6.1-1.1.9-.1,1.7-.1,2.6,0Z"/>
    <path class="cls-7" d="M74.4,416.3c-.1,0,1-1.8,1.9-4.2s1-4.5,1.2-4.5c0,.5,0,.9,0,1.4-.1,1.1-.4,2.2-.8,3.2-.4,1.1-.9,2.1-1.5,3-.2.4-.5.8-.9,1.1Z"/>
    <path class="cls-7" d="M96.6,379.9c-.1,0-.3.2-.4.2l-1.2.5c-.5.2-1.2.5-1.9.9s-1.6.8-2.4,1.3l-1.4.8c-.5.3-1,.6-1.5.9-1,.6-2.1,1.4-3.2,2.2-2.4,1.8-4.6,3.7-6.7,5.8-2,2.1-3.9,4.4-5.6,6.8-.8,1.1-1.5,2.2-2.1,3.2-.3.5-.6,1-.9,1.5s-.5,1-.7,1.4c-.5.9-.9,1.8-1.2,2.5s-.6,1.4-.8,1.9l-.5,1.2c0,.1-.1.3-.2.4,0-.2,0-.3.1-.5.1-.3.3-.7.4-1.2.2-.7.5-1.3.8-2,.3-.8.7-1.6,1.2-2.5.2-.5.5-.9.7-1.4s.6-1,.9-1.5c.6-1.1,1.3-2.1,2-3.3,1.7-2.4,3.6-4.7,5.6-6.9,2.1-2.1,4.3-4.1,6.7-5.8,1.1-.8,2.2-1.5,3.2-2.2.5-.3,1-.6,1.5-.9l1.4-.8c.9-.5,1.8-.9,2.5-1.2s1.4-.6,1.9-.8l1.3-.5c.1,0,.3-.1.4-.1Z"/>
    <path class="cls-7" d="M78.3,392.1c.2-.6.5-1.1,1-1.5,1.1-1,2.5-1.5,4-1.6,1.5,0,2.9.3,4.3.8.6.2,1.1.4,1.6.8-.6-.1-1.2-.3-1.7-.5-1.3-.5-2.7-.7-4.2-.7-1.4,0-2.8.5-3.9,1.4-.4.4-.8.8-1.1,1.3Z"/>
    <path class="cls-7" d="M75.6,395c.5-1.2.9-2.5,1.2-3.8,0-1.3,0-2.6-.2-3.9.2.3.4.7.5,1.1.2.9.3,1.9.2,2.9-.1,1-.4,1.9-.8,2.8-.3.7-.7,1-.8,1Z"/>
    <path class="cls-10" d="M45.8,433c.6,11.2,4,22.6,9.2,34.1h22.6c4.9-11.4,8.1-22.8,8.7-34.1h-40.4Z"/>
    <path class="cls-6" d="M82.5,451.1c0,.1-7.4.2-16.6.2s-16.6-.1-16.6-.2,7.4-.2,16.6-.2,16.6.1,16.6.2Z"/>
    <path class="cls-6" d="M82,455.2c0,.1-7,.2-15.6.2s-15.6,0-15.6-.2,7-.2,15.6-.2,15.6,0,15.6.2Z"/>
    <path class="cls-6" d="M55.3,440.3c.3,3.5.3,6.9,0,10.4-.3-3.5-.3-6.9,0-10.4Z"/>
    <path class="cls-6" d="M67.4,440.3c.3,3.6.3,7.2,0,10.8-.3-3.6-.3-7.2,0-10.8Z"/>
    <path class="cls-6" d="M78.8,440.2c.3,3.7.3,7.3,0,11-.3-3.7-.3-7.3,0-11Z"/>
    <path class="cls-6" d="M85.5,440.3c0,.1-8.7.2-19.5.2s-19.5-.1-19.5-.2,8.7-.2,19.5-.2,19.5.1,19.5.2Z"/>
    <rect class="cls-2" x="49.4" y="117.9" width="41.9" height="33.5" transform="translate(-39.3 29.5) rotate(-18.6)"/>
    <rect class="cls-3" x="50.4" y="120" width="38.8" height="29.2" transform="translate(-39.1 29) rotate(-18.5)"/>
    <polygon class="cls-7" points="56 154.6 63.1 133.1 74.7 141.2 78.2 133.7 92.8 142.3 56 154.6"/>
    <path class="cls-7" d="M73.8,127.2c.5,1.6-.3,3.3-1.9,3.9-1.6.5-3.3-.3-3.9-1.9-.5-1.6.3-3.3,1.9-3.9,0,0,0,0,0,0,1.6-.5,3.3.3,3.9,1.9,0,0,0,0,0,0Z"/>
    <rect class="cls-2" x="101.6" y="53.7" width="42.5" height="53.2" transform="translate(20.4 185.4) rotate(-78.9)"/>
    <path class="cls-7" d="M153,64.6h-1c0-.1-2.8-.7-2.8-.7l-10.7-2.1-37.7-7.3h.2c-2.4,12.3-5.2,26.5-8.2,41.6h0v-.2c-.1,0,52.1,10.2,52.1,10.2h-.2c2.5-12.4,4.6-22.9,6-30.2.7-3.6,1.3-6.5,1.7-8.4.2-1,.4-1.7.5-2.2s.2-.8.2-.8c0,0,0,.2-.1.8s-.2,1.2-.4,2.2c-.4,1.9-.9,4.8-1.6,8.4-1.4,7.3-3.4,17.8-5.9,30.4h0c0,.1-.1.1-.1.1l-52.2-10.2h-.2v-.2h0c3-15.1,5.8-29.3,8.2-41.7h0c0-.1.1-.1.1-.1l37.8,7.5,10.6,2.1,2.8.6.7.2h.3Z"/>
    <rect class="cls-3" x="104.2" y="55.6" width="37.2" height="49.5" transform="translate(20.4 185.4) rotate(-78.9)"/>
    <polygon class="cls-7" points="94.9 93.8 116.3 74.4 124.1 90.7 132.7 84.5 143.5 103.3 94.9 93.8"/>
    <path class="cls-7" d="M131.8,74.6c-.4,2.1-2.5,3.5-4.6,3.1-2.1-.4-3.5-2.5-3.1-4.6.4-2.1,2.5-3.5,4.6-3.1,2.1.4,3.5,2.5,3.1,4.6Z"/>
    <path class="cls-4" d="M676.8,286.7c-.4-.3-1-.6-1.7-.8s-1.5-.4-2.3-.7c-1-.3-1.9-.6-2.7-1s-1.5-.9-2-1.6-.8-1.6-.8-2.7.2-1.5.5-2.1.7-1,1.1-1.4.9-.7,1.3-.9h0c-.5-.4-.9-.7-1.3-1.1s-.8-.9-1-1.5-.4-1.3-.4-2.1c0-1.3.3-2.4,1-3.2s1.5-1.5,2.6-2,2.2-.7,3.5-.7,2.6.2,3.6.7,1.8,1.2,2.4,2,.8,1.8.8,3h-3.8c0-.4-.2-.8-.4-1.1s-.6-.7-1-.9-1-.4-1.6-.4-1.5.2-2,.7-.8,1-.8,1.7.2,1.1.7,1.5,1,.6,1.7.9,1.4.4,2.2.6c.9.2,1.8.5,2.6.9s1.5.9,2.1,1.6.8,1.6.8,2.8-.1,1.4-.4,2-.6,1.1-1,1.5-.8.8-1.3,1.1h0c.5.4.9.7,1.3,1.1s.7.8.9,1.3.4,1.2.4,1.9c0,1.2-.3,2.3-.9,3.2s-1.4,1.6-2.5,2.1-2.4.8-3.8.8-2.6-.2-3.6-.7-1.9-1.1-2.5-2-.9-1.9-1-3h3.9c0,.7.4,1.3.9,1.7s1.3.7,2.3.7,1.3-.1,1.8-.3.8-.5,1-.9.3-.8.3-1.2c0-.6-.2-1.1-.7-1.5ZM676.9,281.8c.3-.3.5-.6.6-1s.2-.8.2-1.2c0-.8-.3-1.4-.9-1.9s-1.4-.7-2.3-1c-.2,0-.4,0-.6-.1s-.4,0-.6-.1c-.3.1-.6.3-.9.6s-.5.6-.7,1-.3.8-.3,1.2c0,.8.3,1.4.9,1.8s1.3.7,2.2.9c.2,0,.4.1.7.2s.5,0,.7.2c.3-.2.6-.4.9-.7Z"/>
    <g>
      <path class="cls-4" d="M129.3,131.8l8.3-24h4.4l8.3,24h-4.2l-2.1-6.6h-8.4l-2.1,6.6h-4.1ZM139.6,112l-3.2,10.1h6.6l-3.2-10.1h-.2Z"/>
      <path class="cls-4" d="M154.4,113.3h3.9v2.9h.2c.1-.4.4-.9.8-1.4s.9-.9,1.6-1.3,1.5-.5,2.5-.5.5,0,.7,0,.4,0,.6,0v3.4c-.2,0-.4,0-.7-.1s-.6,0-.9,0c-1,0-1.9.2-2.6.6s-1.2.9-1.5,1.6-.5,1.4-.5,2.2v11.1h-4v-18.6Z"/>
      <path class="cls-4" d="M170.8,108.7h3.8v4.6h4.1v3.1h-4.1v9.9c0,1,.2,1.7.6,2s1.2.5,2.2.5.6,0,.9,0,.5,0,.7,0v3c-.2,0-.5,0-1,0s-1,0-1.5,0c-1.5,0-2.7-.2-3.5-.6s-1.4-1-1.7-1.7-.5-1.8-.5-3v-10.2h-2.8v-3.1h2.9v-4.6Z"/>
      <path class="cls-4" d="M184.2,127.4c.5-.5,1.2-.8,2-.8s1.5.3,2,.8.8,1.2.8,2-.3,1.5-.8,2-1.2.8-2,.8-1.4-.3-2-.8-.8-1.2-.8-2,.3-1.5.8-2Z"/>
    </g>
  </g>
  <g id="freepik--Floor--inject-71">
    <path class="cls-5" d="M727.3,466.8c0,.1-157.8.3-352.3.3s-352.4-.1-352.4-.3,157.7-.3,352.4-.3,352.3.1,352.3.3Z"/>
  </g>
  <g id="freepik--Books--inject-71">
    <rect class="cls-5" x="265.5" y="86.9" width="198.3" height="66.4"/>
    <path class="cls-5" d="M358.4,121.7s-178.2-24.9-182.5-25.7,194.4-40.4,194.4-40.4l194.6,43.6-206.5,22.5Z"/>
    <path class="cls-4" d="M463.8,108.9l-.5-.2c-.3-.2-.8-.4-1.4-.7-1.2-.6-3-1.6-5.4-2.6-6.7-3-13.5-5.5-20.5-7.6-10.4-3.1-21-5.4-31.7-7.1-13.1-2-26.3-3.2-39.6-3.5-13.3-.3-26.5.5-39.7,2.4-10.7,1.6-21.3,3.9-31.7,7-7,2.1-13.9,4.5-20.6,7.4l-3.1,1.4-2.3,1.1-1.4.7c-.3.2-.5.2-.5.2l.5-.3,1.4-.7,2.3-1.1,3.1-1.4c6.7-2.9,13.6-5.5,20.6-7.6,10.4-3.1,21-5.5,31.7-7.1,13.2-1.9,26.4-2.8,39.7-2.5,13.3.3,26.5,1.5,39.7,3.6,10.7,1.7,21.3,4.1,31.7,7.2,7,2.1,13.9,4.7,20.5,7.7,2.4,1.1,4.1,2,5.3,2.7.6.3,1,.6,1.4.8l.4.3Z"/>
    <path class="cls-13" d="M486.3,91.9c-.8-5.2-1.4-8.5-3.5-11.7-2.7-3.8-8-4.7-11.9-2.1l5,1.2c3.8,2.1,4.8,7,5.2,11.4.8,9.5.5,19.1-.8,28.5,1.7.2,4.1-.3,5.8-.2.9-9.1,1.6-18,.2-27.2Z"/>
    <circle class="cls-13" cx="483.6" cy="117.1" r="6"/>
    <path class="cls-13" d="M496.6,144.6c-.1-4.9-.2-9.9-1.5-14.6s-3.8-9.3-7.9-12l-5.8.2c-3.4.8-5.7,4.1-6.5,7.4s-.6,6.9-.7,10.4-.7,7.1-2.9,9.8c1.9.5,3.7,1.5,5.5,2.1,1.9.8,3.9.7,5.8,0,2.1-1.2,3-3.7,3.7-6.1.9,2.2,1,4.6.6,6.9,1.6-.2,3.2.3,4.8.5s3.5-.1,4.4-1.5c.5-.9.6-2,.5-3Z"/>
    <rect class="cls-2" x="222.9" y="152.6" width="294.8" height="26.8"/>
    <rect class="cls-12" x="435.5" y="152.6" width="82.3" height="26.8"/>
    <path class="cls-5" d="M517.8,157.3c0,.1-66,.3-147.4.3s-147.4-.1-147.4-.3,66-.3,147.4-.3,147.4.1,147.4.3Z"/>
    <path class="cls-5" d="M517.8,161.8c0,.1-66,.3-147.4.3s-147.4-.1-147.4-.3,66-.3,147.4-.3,147.4.1,147.4.3Z"/>
    <path class="cls-5" d="M517.8,166.4c0,.1-66,.3-147.4.3s-147.4-.1-147.4-.3,66-.3,147.4-.3,147.4.1,147.4.3Z"/>
    <path class="cls-5" d="M517.8,171c0,.1-66,.3-147.4.3s-147.4-.1-147.4-.3,66-.3,147.4-.3,147.4,0,147.4.3Z"/>
    <path class="cls-5" d="M517.8,175.4c0,.1-66,.3-147.4.3s-147.4-.1-147.4-.3,66-.3,147.4-.3,147.4.1,147.4.3Z"/>
    <rect class="cls-4" x="173.4" y="221.9" width="382.2" height="47.7"/>
    <path class="cls-5" d="M471.2,260.2c0-.2,0-.4,0-.5v-1.5c0-1.4,0-3.3,0-5.6,0-4.9-.1-11.6-.2-19.6l.3.3h-18.1c0,0,.7-.7.4-.3h0v14.7c0,4.6,0,8.8,0,12.6l-.3-.3h13.1c0,.1,3.7.2,3.7.2.4,0,.9,0,1.3,0-.4,0-.8,0-1.2,0h-3.6c0,0-13.3.2-13.3.2h-.3v-.3c0-3.8,0-8,0-12.6v-14.6h0c-.3.3.4-.4.4-.4h18.4v.3c0,8-.1,14.9-.2,19.8,0,2.3,0,4.2,0,5.6v1.5c0,.2-.1.3-.2.5Z"/>
    <rect class="cls-15" x="496.6" y="229.3" width="59" height="32.3"/>
    <rect class="cls-12" x="488.9" y="221.9" width="66.7" height="47.7"/>
    <path class="cls-5" d="M488.6,269.3c-.2,0-.4-10.5-.4-23.5s.2-23.5.4-23.5.4,10.5.4,23.5-.2,23.5-.4,23.5Z"/>
    <path class="cls-5" d="M556,237c0,.2-13.4.3-29.9.3s-29.9-.1-29.9-.3,13.4-.4,29.9-.4,29.9.1,29.9.4Z"/>
    <path class="cls-5" d="M556,245.5c0,.2-13.4.3-29.9.3s-29.9-.1-29.9-.3,13.4-.4,29.9-.4,29.9.2,29.9.4Z"/>
    <path class="cls-5" d="M556,254.1c0,.2-13.4.4-29.9.4s-29.9-.2-29.9-.4,13.4-.3,29.9-.3,29.9.1,29.9.3Z"/>
    <rect class="cls-1" x="177.6" y="270" width="382.2" height="23.5"/>
    <rect class="cls-7" x="474.3" y="272.9" width="85.4" height="17.8"/>
    <rect class="cls-12" x="469.5" y="270" width="90.3" height="23.5"/>
    <path class="cls-5" d="M469.5,293.5c-.2,0-.3-5.1-.3-11.3s.2-11.3.4-11.3.3,5.1.3,11.3-.2,11.3-.4,11.3Z"/>
    <rect class="cls-7" x="205.1" y="279" width="230.2" height="5.6"/>
    <path class="cls-5" d="M460.2,293.3c0,.2-63.3.3-141.4.3s-141.5-.1-141.5-.3,63.3-.4,141.5-.4,141.4.2,141.4.4Z"/>
    <path class="cls-5" d="M470.5,293.5c0,.2-63.3.3-141.5.3s-141.5-.1-141.5-.3,63.3-.4,141.5-.4,141.5.2,141.5.4Z"/>
    <path class="cls-5" d="M559.8,269.8c0,.2-83.3.3-186.1.3s-186.1-.1-186.1-.3,83.3-.4,186.1-.4,186.1.2,186.1.4Z"/>
    <rect class="cls-7" x="147.9" y="419.4" width="382.2" height="23.5"/>
    <rect class="cls-7" x="444.7" y="422.4" width="85.4" height="17.8"/>
    <rect class="cls-12" x="439.9" y="419.4" width="90.3" height="23.5"/>
    <path class="cls-5" d="M439.9,443c-.2,0-.3-5.1-.3-11.3s.2-11.3.4-11.3.3,5.1.3,11.3-.2,11.3-.4,11.3Z"/>
    <rect class="cls-15" x="175.4" y="428.5" width="230.2" height="5.6"/>
    <path class="cls-5" d="M430.6,442.8c0,.2-63.3.4-141.5.4s-141.5-.1-141.5-.4,63.3-.3,141.5-.3,141.5.1,141.5.3Z"/>
    <path class="cls-5" d="M440.8,442.9c0,.2-63.3.4-141.5.4s-141.5-.1-141.5-.4,63.3-.3,141.5-.3,141.5.1,141.5.3Z"/>
    <path class="cls-5" d="M530.1,419.2c0,.2-83.3.4-186.1.4s-186.1-.1-186.1-.4,83.3-.3,186.1-.3,186.1.1,186.1.3Z"/>
    <rect class="cls-4" x="110" y="443.1" width="541.2" height="23.5"/>
    <rect class="cls-7" x="535.6" y="446" width="115.6" height="17.8"/>
    <rect class="cls-12" x="529" y="443.1" width="122.2" height="23.5"/>
    <path class="cls-5" d="M529,466.6c-.3,0-.5-5.1-.4-11.3s.2-11.3.5-11.3.5,5.1.4,11.3-.2,11.3-.5,11.3Z"/>
    <rect class="cls-7" x="171.2" y="452.1" width="311.5" height="5.6"/>
    <path class="cls-5" d="M530.3,466.5c0,.2-85.7.4-191.4.4s-191.4-.1-191.4-.4,85.7-.3,191.4-.3,191.4.1,191.4.3Z"/>
    <path class="cls-5" d="M651.2,442.9c0,.2-112.8.4-251.9.4s-251.9-.1-251.9-.4,112.8-.3,251.9-.3,251.9.1,251.9.3Z"/>
    <rect class="cls-3" x="420.4" y="300.2" width="126.2" height="46.3"/>
    <rect class="cls-4" x="144.3" y="292.2" width="402.3" height="9.7"/>
    <rect class="cls-4" x="144.3" y="344.4" width="402.3" height="9.7"/>
    <polygon class="cls-4" points="424.5 294.6 423.9 352.3 144.3 352.3 144.3 294.6 424.5 294.6"/>
    <ellipse class="cls-5" cx="355" cy="326" rx="13.3" ry="14.4"/>
    <path class="cls-7" d="M339.6,326c0-9.1,6.9-16.4,15.4-16.4s15.4,7.4,15.4,16.4-6.9,16.4-15.3,16.4-15.4-7.4-15.4-16.4ZM343.8,326c0,6.8,5,12.3,11.2,12.3s11.2-5.5,11.2-12.3-5-12.3-11.2-12.3-11.2,5.5-11.2,12.3Z"/>
    <rect class="cls-15" x="187.4" y="309.4" width="110.9" height="30.9"/>
    <path class="cls-7" d="M281,337.2c.6,0,1.1-5.5,1.1-12.3s-.5-12.3-1.1-12.3-1.1,5.5-1.1,12.3.5,12.3,1.1,12.3Z"/>
    <path class="cls-7" d="M266.4,337.2c.6,0,1.1-5.5,1.1-12.3s-.5-12.3-1.1-12.3-1.1,5.5-1.1,12.3.5,12.3,1.1,12.3Z"/>
    <path class="cls-7" d="M251.7,337.2c.6,0,1.1-5.5,1.1-12.3s-.5-12.3-1.1-12.3-1.1,5.5-1.1,12.3.5,12.3,1.1,12.3Z"/>
    <path class="cls-7" d="M237.1,337.2c.6,0,1.1-5.5,1.1-12.3s-.5-12.3-1.1-12.3-1.1,5.5-1.1,12.3.5,12.3,1.1,12.3Z"/>
    <path class="cls-7" d="M222.4,337.2c.6,0,1.1-5.5,1.1-12.3s-.5-12.3-1.1-12.3-1.1,5.5-1.1,12.3.5,12.3,1.1,12.3Z"/>
    <path class="cls-7" d="M207.7,337.2c.6,0,1.1-5.5,1.1-12.3s-.5-12.3-1.1-12.3-1.1,5.5-1.1,12.3.5,12.3,1.1,12.3Z"/>
    <path class="cls-5" d="M423.8,345.4c-.1,0-.3-9.7-.3-21.7s.1-21.7.3-21.7.3,9.7.3,21.7-.1,21.7-.3,21.7Z"/>
    <path class="cls-5" d="M544.3,309.3c0,.1-26.8.3-59.9.3s-59.9-.1-59.9-.3,26.8-.3,59.9-.3,59.9.1,59.9.3Z"/>
    <path class="cls-5" d="M544.3,316.3c0,.1-26.8.3-59.9.3s-59.9-.1-59.9-.3,26.8-.3,59.9-.3,59.9.1,59.9.3Z"/>
    <path class="cls-5" d="M544.3,323.3c0,.1-26.8.3-59.9.3s-59.9-.1-59.9-.3,26.8-.3,59.9-.3,59.9.1,59.9.3Z"/>
    <path class="cls-5" d="M544.3,330.3c0,.1-26.8.3-59.9.3s-59.9-.1-59.9-.3,26.8-.3,59.9-.3,59.9.1,59.9.3Z"/>
    <path class="cls-5" d="M544.3,337.3c0,.1-26.8.3-59.9.3s-59.9-.1-59.9-.3,26.8-.3,59.9-.3,59.9.1,59.9.3Z"/>
    <rect class="cls-12" x="416.4" y="292.1" width="130.3" height="62"/>
    <rect class="cls-13" x="212.2" y="179.3" width="325.7" height="42.7"/>
    <rect class="cls-2" x="466" y="185.4" width="71.9" height="30.3"/>
    <rect class="cls-12" x="458.1" y="179.3" width="79.9" height="42.7"/>
    <path class="cls-5" d="M436.2,212.6v-4.6c0-3,0-7.5,0-13.2h.1c0,.1-205.4.2-205.4.2h0l.3-.2v17.9l-.3-.2h145.9c0,.1,43.6.2,43.6.2h15.9-59.3c0,0-146.1.2-146.1.2h-.3v-18.2h205.7c0,.1.1.1.1.1h0c0,5.9,0,10.4,0,13.4v3.4c0,.8-.2,1.1-.2,1.1Z"/>
    <path class="cls-5" d="M458.4,221.7c-.2,0-.3-9.6-.3-21.4s.1-21.4.3-21.4.3,9.6.3,21.4-.1,21.4-.3,21.4Z"/>
    <rect class="cls-13" x="132.3" y="353.1" width="472.5" height="65.9"/>
    <rect class="cls-2" x="132.3" y="361.4" width="464.8" height="49.2"/>
    <path class="cls-5" d="M597.1,372.1h-18.3c0,0-49.8.2-49.8.2h-164.5c0,.1-164.5,0-164.5,0h-49.8c0-.1-13.6-.2-13.6-.2h-4.7,18.3c0,0,49.9-.2,49.9-.2h164.5c0-.1,164.5,0,164.5,0h49.8c0,.1,13.6.2,13.6.2h4.7Z"/>
    <path class="cls-5" d="M597.1,385.3h-18.3c0,0-49.8.2-49.8.2h-164.5c0,.1-164.5,0-164.5,0h-49.8c0-.1-13.6-.2-13.6-.2h-4.7,18.3c0,0,49.9-.2,49.9-.2h164.5c0-.1,164.5,0,164.5,0h49.8c0,.1,13.6.2,13.6.2h4.7Z"/>
    <path class="cls-5" d="M597.1,398.4h-18.3c0,0-49.8.2-49.8.2h-164.5c0,.1-164.5,0-164.5,0h-49.8c0-.1-13.6-.2-13.6-.2h-4.7,18.3c0,0,49.9-.2,49.9-.2h164.5c0-.1,164.5,0,164.5,0h49.8c0,.1,13.6.2,13.6.2h3.5c.8,0,1.2,0,1.2,0Z"/>
    <rect class="cls-12" x="474.4" y="353.1" width="130.3" height="65.9"/>
    <path class="cls-4" d="M555.4,238.3s.7.2,1.4,1.2c.9,1.4.9,3.3,0,4.7v-.4c1.1.6,1.9,1.9,1.7,3.3,0,1.4-.9,2.7-2.1,3.4-1,.6-2.1.9-3.2.9-.7,0-1.5,0-2.2-.2-.5,0-.8-.1-.8-.2s1.2,0,3,0c1.1,0,2.1-.4,3-.9,1.1-.7,1.8-1.8,1.9-3.1.1-1.2-.5-2.3-1.5-2.8h-.3c0-.1.2-.4.2-.4.8-1.3.9-2.9.2-4.2-.3-.5-.7-1-1.2-1.4Z"/>
  </g>
  <g id="freepik--speech-bubble-2--inject-71">
    <path class="cls-15" d="M603.6,262l6.2-.4c10.5,7.8,25.3,5.6,33.1-4.8,7.8-10.5,5.6-25.3-4.8-33.1-10.5-7.8-25.3-5.6-33.1,4.8-5.9,7.9-6.3,18.6-.9,26.9h0l-.4,6.6Z"/>
    <path class="cls-5" d="M603.6,262c0-.1,0-.3,0-.4,0-.3,0-.7,0-1.3,0-1.2.1-2.8.2-5,0,0,0-.1.1-.1,0,0,0,0,0,0,0,0,0,0,0,0h-.2c-2.1-3.1-3.4-6.8-3.8-10.7-.2-2.5,0-5.1.5-7.5.7-2.8,1.8-5.5,3.5-7.9,1.8-2.6,4.1-4.9,6.8-6.6,2.9-1.9,6.2-3.1,9.6-3.6,3.7-.5,7.4-.2,10.9,1,7.5,2.5,13.2,8.6,15.4,16.2,1,3.6,1.1,7.4.4,11-.7,3.4-2.1,6.7-4.2,9.5-3.7,5-9.1,8.4-15.2,9.4l-2,.2c-.7,0-1.3,0-1.9,0-1.2,0-2.4,0-3.7-.3-3.8-.6-7.4-2.1-10.5-4.5h0l-4.6.2-1.2.2h-.4.4s1.2-.1,1.2-.1l4.5-.4s0,0,0,0c3.1,2.2,6.6,3.7,10.4,4.3,1.2.2,2.4.3,3.6.2.6,0,1.3,0,1.9,0l2-.2c6-1,11.3-4.4,14.9-9.3,2-2.7,3.5-5.9,4.1-9.3.7-3.6.5-7.3-.4-10.8-2.1-7.4-7.7-13.4-15-15.9-3.4-1.1-7.1-1.5-10.6-1-3.4.5-6.6,1.6-9.4,3.5-2.6,1.7-4.9,3.9-6.7,6.5-1.6,2.3-2.8,4.9-3.5,7.7-.6,2.4-.8,4.9-.6,7.4.3,3.8,1.5,7.5,3.6,10.7,0,0,0,.1,0,.2,0,0,0,0-.1,0h.2c-.2,2-.3,3.7-.4,4.8,0,.5,0,1-.1,1.3s-.1.4-.1.4Z"/>
    <path class="cls-5" d="M618.7,243.6c0,1.4-1.1,2.6-2.6,2.6s-2.6-1.1-2.6-2.6c0-1.4,1.1-2.6,2.6-2.6,0,0,0,0,0,0,1.4,0,2.6,1.2,2.6,2.6h0Z"/>
    <path class="cls-5" d="M627.4,243.6c0,1.4-1.1,2.6-2.6,2.6s-2.6-1.1-2.6-2.6c0-1.4,1.1-2.6,2.6-2.6,0,0,0,0,0,0,1.4,0,2.6,1.2,2.6,2.6h0Z"/>
    <path class="cls-5" d="M635.8,243.6c0,1.4-1.1,2.6-2.6,2.6s-2.6-1.1-2.6-2.6c0-1.4,1.1-2.6,2.6-2.6,0,0,0,0,0,0,1.4,0,2.6,1.2,2.6,2.6h0Z"/>
  </g>
  <g id="freepik--speech-bubble-1--inject-71">
    <path class="cls-15" d="M144.2,189.5l-6.2-.4c-10.5,7.8-25.3,5.6-33.1-4.8-7.8-10.5-5.6-25.3,4.8-33.1,10.5-7.8,25.3-5.6,33.1,4.8,5.9,7.9,6.3,18.6.9,26.9h0l.4,6.6Z"/>
    <path class="cls-5" d="M144.2,189.5v-.4c0-.3,0-.7,0-1.3,0-1.2-.1-2.8-.2-5,0,0,0-.1-.1-.1h0s0,0,0,0h.2c2.1-3.1,3.4-6.8,3.7-10.7.5-5.4-.9-10.9-4-15.4-1.8-2.6-4.1-4.9-6.8-6.6-2.9-1.9-6.2-3.1-9.6-3.6-3.7-.5-7.4-.1-10.9,1-7.5,2.5-13.2,8.6-15.4,16.2-1,3.6-1.1,7.4-.4,11,.7,3.4,2.1,6.7,4.2,9.5,1.9,2.6,4.3,4.8,7.1,6.4,2.5,1.5,5.3,2.5,8.1,3l2,.2c.7,0,1.3,0,1.9,0,1.2,0,2.5,0,3.7-.3,3.8-.6,7.4-2.1,10.4-4.4h0l4.6.3h1.6c-.1,0-.3,0-.4,0h-1.2c0-.1-4.5-.4-4.5-.4h0c-3.1,2.2-6.6,3.7-10.4,4.3-1.2.2-2.4.3-3.6.2-.6,0-1.3,0-1.9,0l-2-.2c-2.8-.5-5.5-1.5-8-2.9-2.7-1.6-5.1-3.8-7-6.3-2-2.7-3.5-5.9-4.1-9.3-.7-3.6-.5-7.3.4-10.8,2.1-7.4,7.7-13.4,15-15.9,3.4-1.1,7.1-1.5,10.6-1,3.4.5,6.6,1.7,9.4,3.5,2.6,1.7,4.9,3.9,6.7,6.5,1.6,2.3,2.8,5,3.4,7.7.6,2.4.8,4.9.6,7.4-.3,3.8-1.5,7.5-3.6,10.7,0,0,0,.1,0,.2,0,0,0,0,.1,0h-.2c.1,2,.3,3.7.4,4.8,0,.5,0,1,.1,1.3,0,.1.1.3.2.4Z"/>
    <path class="cls-5" d="M129.1,171.1c0,1.4,1.1,2.6,2.6,2.6s2.6-1.1,2.6-2.6c0-1.4-1.1-2.6-2.6-2.6,0,0,0,0,0,0-1.4,0-2.6,1.2-2.6,2.6Z"/>
    <path class="cls-5" d="M120.4,171.1c0,1.4,1.1,2.6,2.6,2.6,1.4,0,2.6-1.1,2.6-2.6,0-1.4-1.1-2.6-2.6-2.6,0,0,0,0,0,0-1.4,0-2.6,1.2-2.6,2.6Z"/>
    <path class="cls-5" d="M112,171.1c0,1.4,1.1,2.6,2.6,2.6,1.4,0,2.6-1.1,2.6-2.6,0-1.4-1.1-2.6-2.6-2.6,0,0,0,0,0,0-1.4,0-2.6,1.2-2.6,2.6Z"/>
  </g>
  <g id="freepik--character-2--inject-71">
    <path class="cls-5" d="M583.3,257.7c.9-1,1.3-2.3,1.3-3.6-.1-1.8-1-2.5-2.4-3.6h0c.7-1.5,1.6-3.8.8-5.2-1-1.6-2.7-2.7-4.6-2.7.5-2.9-3.1-5.5-6.2-5.7-2.3-.1-4.6-.8-7,2.4,0,0-.7-2.5-5.1-1.9-2.2.3-4.6,2.3-4.8,4.5-1.2-2.2-4-2.6-6.4-1.7s-4,2.9-3.4,5.3c-2,0-3.8.9-4.9,2.6-1,1.7-1,3.8,0,5.5-2,.7-3,2.9-2.3,4.9.4,1.1,1.3,2,2.4,2.4l36.8,2.4h0l1.8,1.3c1.9.6,4-.5,4.6-2.4,1-2.1-.2-3.4-.8-4.5Z"/>
    <path class="cls-11" d="M580.1,265.3c-.1-10.3-8.1-18.8-18.4-19.5h-1c-11.1-.3-17.5,8.9-17.5,19.8l-1.3,38.6,1.2,2.5,16.7,25.3,6.9-20.7,1.1-9.8s10.8-.8,11.8-11.3c.4-5.1.5-15.5.5-25Z"/>
    <path class="cls-14" d="M567.8,301.6c-4.9-.4-9.6-2.2-13.5-5.1,0,0,2.7,7.8,13.3,7.7l.3-2.6Z"/>
    <path class="cls-5" d="M576,275.1c0,.8-.8,1.4-1.6,1.4-.8,0-1.4-.6-1.5-1.4,0,0,0,0,0,0,0-.8.8-1.4,1.6-1.4.8,0,1.4.6,1.5,1.4,0,0,0,0,0,0Z"/>
    <path class="cls-5" d="M577.5,270.8c-.2.2-1.3-.7-2.9-.9s-2.9.6-3.1.4.1-.4.7-.8c.8-.4,1.6-.6,2.5-.5.8,0,1.7.4,2.3.9.5.4.6.8.5.9Z"/>
    <path class="cls-5" d="M562.1,274.4c0,.8-.8,1.4-1.6,1.4-.8,0-1.4-.6-1.5-1.4,0,0,0,0,0,0,0-.8.8-1.4,1.6-1.4.8,0,1.4.6,1.5,1.4,0,0,0,0,0,0Z"/>
    <path class="cls-5" d="M561.8,269.4c-.2.2-1.3-.7-2.9-.9s-2.9.6-3.1.4.1-.4.7-.8c.7-.4,1.6-.6,2.5-.5.9,0,1.7.4,2.3.9.5.4.6.8.5.9Z"/>
    <path class="cls-5" d="M566.2,281.7c.9-.2,1.8-.3,2.7-.3.4,0,.8,0,.9-.3,0-.4,0-.9-.2-1.2-.3-1-.6-2.1-1-3.2-1.4-4.6-2.3-8.4-2.1-8.4s1.4,3.6,2.8,8.2l.9,3.2c.2.5.3,1.1,0,1.6-.1.3-.4.5-.7.5-.2,0-.5,0-.7,0-.9,0-1.8,0-2.7-.2Z"/>
    <path class="cls-5" d="M562.2,264.8c-.2.4-1.6,0-3.3-.2s-3.2.1-3.3-.3c0-.2.2-.6.9-.9.8-.4,1.7-.5,2.6-.5.9,0,1.7.3,2.5.8.6.4.8.8.7,1Z"/>
    <path class="cls-5" d="M577.4,266.3c-.3.4-1.4,0-2.8,0s-2.5.2-2.8-.1c-.1-.2,0-.5.6-.9,1.4-.9,3.1-.8,4.5.1.5.4.6.7.5.9Z"/>
    <path class="cls-11" d="M544.1,276c0-1.6-1.2-2.9-2.8-3,0,0-.1,0-.2,0-2,0-4.3,1-4.5,5-.3,7.2,7.1,6,7.1,5.8s.2-4.8.3-7.8Z"/>
    <path class="cls-14" d="M542.3,281.1s-.1,0-.3.2c-.3.1-.7.1-1,0-.9-.6-1.4-1.7-1.3-2.8,0-.6.2-1.2.4-1.8.2-.5.5-.8,1-.9.3,0,.6,0,.7.4,0,.2,0,.4,0,.4s.2-.1.1-.4c0-.2-.1-.3-.3-.5-.2-.2-.4-.2-.7-.2-.6,0-1.1.5-1.4,1-.3.6-.5,1.3-.5,2-.1,1.3.5,2.6,1.7,3.2.4.1.8,0,1.2-.1.3-.2.3-.4.3-.4Z"/>
    <path class="cls-14" d="M562,284c-.1-.1-.3-.2-.5-.1-.1,0-.3.2-.3.3-.6,1.1-.6,2.4,0,3.5h0c.8,1.1,2.3,1.4,3.4.7.3-.2.6-.5.7-.8l.7-1.1-4.1-2.4Z"/>
    <path class="cls-5" d="M565,288.1c0,0-.6.7-1.9.7-.4,0-.7,0-1-.3-.4-.2-.7-.5-.9-.8-.4-.8-.6-1.8-.5-2.7,0-.2,0-.5.1-.7,0-.3.2-.5.5-.7.3-.1.6,0,.8.1l.5.3,1.8,1.2c.6.3,1.1.7,1.6,1.2-.6-.2-1.2-.5-1.8-.9l-1.9-1.1c-.3-.2-.8-.5-.9-.4s-.3.6-.4,1c-.1.8,0,1.7.4,2.4.2.3.4.5.8.7.3.2.6.3.9.3.6,0,1.3,0,1.9-.4Z"/>
    <path class="cls-5" d="M565.3,272c0,0,0-.6-.4-1.6-.5-1.4-1.4-2.6-2.6-3.5-1.8-1.2-4.2-1.5-6.2-.6-1.2.5-2.3,1.3-3,2.4-1.6,2.3-1.5,5.4.3,7.6.8,1,1.9,1.7,3.1,2.1,3.5,1.1,7.3-.8,8.4-4.3,0-.1,0-.3.1-.4.2-1,.2-1.6.2-1.6,0,.1,0,.3,0,.4,0,.4,0,.8,0,1.2-.3,1.5-1.1,2.9-2.3,3.9-3,2.5-7.4,2-9.9-1-2.4-2.9-1.9-7.3,1-9.7.6-.5,1.2-.8,1.9-1.1,2.2-.9,4.7-.6,6.6.8,1.3.9,2.2,2.2,2.6,3.7.1.4.2.8.2,1.2,0,.1,0,.3,0,.4Z"/>
    <path class="cls-5" d="M582.4,273.5s0-.6-.4-1.6c-1.2-3.5-5-5.4-8.5-4.2-.1,0-.2,0-.4.1-1.2.5-2.2,1.3-3,2.4-1.6,2.3-1.5,5.4.3,7.6.8,1,1.9,1.7,3.1,2.1,3.5,1.1,7.3-.8,8.4-4.3,0-.1,0-.3.1-.4.2-1,.2-1.6.2-1.6,0,.1,0,.3,0,.4,0,.4,0,.8,0,1.2-.3,1.5-1.1,2.9-2.4,3.9-3,2.5-7.4,2-9.9-1-2.4-3-1.9-7.3,1.1-9.6.6-.4,1.2-.8,1.8-1,2.2-.9,4.7-.6,6.6.8,1.3.9,2.2,2.2,2.6,3.7.1.4.2.8.2,1.2,0,.1,0,.3,0,.4Z"/>
    <path class="cls-5" d="M569,273.1c-.1,0-.7-.8-1.8-1s-1.9.3-2,.2.1-.3.5-.5c.5-.3,1.1-.4,1.6-.2.6.1,1.1.4,1.4.9.2.3.2.6.2.6Z"/>
    <path class="cls-5" d="M551.7,271.6c-1.6.6-3.2.9-4.8,1.2-1.6.4-3.2.6-4.9.7,3.2-1,6.4-1.6,9.7-1.8h0Z"/>
    <path class="cls-5" d="M575.9,250.6c.2-.2.3-.4.4-.6.1-.5,0-1.1-.2-1.6-1-2.1-3.5-3.2-5.8-2.5-.5-2.8-2.6-5-5.4-5.7-2.8-.4-5.6.9-7,3.3-1.5-1.7-3.8-2.5-6-2.2-2.3.4-4.3,2-5.2,4.1-1.9-.6-4.1,0-5.4,1.5-1.3,1.7-1.7,3.9-.9,5.9-1.3.5-2.2,1.8-2.3,3.3-.2,1.7.6,4.2,2.2,3.9-.7,1.2.2,3.2,1,4.2,0,2.2.2,3.6.2,5.6,0,4.1,2.1,3.8,2.1,3.8.3,8.3,3.5,7,6-8.6.5-.3.8-.7.9-1.3.1-.6,0-1.3.5-1.7.2-.2.4-.3.6-.3,1.3.5,2.7.6,4,0,1.4-.6,2.5-1.7,2.9-3.1.7.7,1.8.8,2.6.2,0,0,.2-.1.3-.2,1.4-.5,2.6-1.6,3.2-3,.2,0,.3-.2.5-.2,1.1.9,2.6,1,3.8.2,1.3-.9,2.1-2.3,2.2-3.8,0-.2,0-.5,0-.8,1-.2,2,0,2.9.6,3.1,1.8,5.4,8.6,5.4,8.6.6-3.8-1.1-7.2-3.5-9.8Z"/>
    <path class="cls-5" d="M580.8,385.6s46.3-5.2,53.9-6.4c14.5-2.4,29-.1,35.1,12.1,2.8,5.6-.7,16.3-9.2,24.3-6.3,6-37.8,37.2-37.8,37.2l-27-22.1,33.4-25.5-64.7,8.9,16.3-28.5Z"/>
    <path class="cls-5" d="M628.9,437.6l-17.3,18s13.1,23.6,10.2,27.3l-37.3-32.4,25.8-29.2,18.6,16.2Z"/>
    <path class="cls-7" d="M601.4,444c-.9-.4-2-.1-2.6.8-.5.9,0,2,.8,2.5,1,.5,2.1,0,2.7-.8.4-1-.1-2.1-1.1-2.5"/>
    <path class="cls-7" d="M584.4,450.5l2.6-2.9,35,32.3c.3,1,.2,2.1-.3,3l-37.4-32.4Z"/>
    <path class="cls-15" d="M612.3,455.9c-.2.2-1.2-.5-2.6-.8s-2.5.1-2.7-.1,1.1-1,2.8-.7,2.6,1.4,2.4,1.6Z"/>
    <path class="cls-15" d="M614.8,460.9c-.1.2-1.2-.2-2.5,0s-2.2.9-2.3.7.6-1.3,2.2-1.5,2.7.6,2.6.8Z"/>
    <path class="cls-15" d="M613,467.3c-.2-.1.3-1.2,1.7-1.8s2.5-.2,2.5,0-1,.3-2.1.8-1.8,1.2-2,1Z"/>
    <path class="cls-15" d="M615.8,451.4c-.2,0-.8-.9-1.9-1.7s-2.2-1.2-2.1-1.4,1.4-.2,2.7.8,1.6,2.3,1.4,2.3Z"/>
    <path class="cls-4" d="M641.4,434.4c0,.1-.2.3-.3.4l-1,1.1-3.9,3.9-13.2,13.2-.2.2h-.2c0-.1-3.4-2.9-3.4-2.9l-16.7-13.8-5-4.2-1.3-1.2c-.2-.1-.3-.3-.5-.4.2.1.4.2.5.4l1.4,1.1,5.1,4.1,16.7,13.6,3.4,2.8h-.3l13.3-13,4-3.8,1.1-1c.1-.1.2-.2.3-.4Z"/>
    <path class="cls-5" d="M680.9,433l22.8,19.7,22.6,10.5c1.5.7,2.2,2.4,1.5,4,0,.1,0,.2-.2.3h0c-.5.9-1.4,1.4-2.4,1.5-6.4.7-29.9,3-31.5,1.5-1.8-1.8-25.4-19.2-25.4-19.2l12.5-18.3Z"/>
    <path class="cls-7" d="M727.6,467.5l-35.4,1.7,1.6,1.3c.7.5,1.6.8,2.5.6,3,0,11.2-.2,29-2,1-.1,1.9-.7,2.4-1.6h0Z"/>
    <g class="cls-17">
      <path class="cls-15" d="M692.2,460.7c.9-.2,1.9.3,2.2,1.2.3.9-.3,1.9-1.2,2.2-1,.2-2-.3-2.3-1.2-.2-1,.5-1.9,1.5-2.1"/>
    </g>
    <path class="cls-15" d="M713,464.3c.2,0-.6-1.6,0-3.5s1.9-2.9,1.7-3-.5,0-1,.5c-.7.6-1.2,1.4-1.4,2.4-.2.9-.2,1.8.1,2.7.2.6.5,1,.6.9Z"/>
    <path class="cls-15" d="M717.5,465.3c.2,0,0-1.4.7-2.9s1.7-2.3,1.6-2.5-1.5.5-2.2,2.2-.3,3.2-.1,3.1Z"/>
    <path class="cls-15" d="M706.4,464c.2,0,0-2.1.8-4.5s2.2-3.9,2.1-4-1.9,1.3-2.7,3.8-.4,4.8-.2,4.7Z"/>
    <path class="cls-15" d="M699,458.6c.2,0,.7-1.6,2.1-3.3s2.9-2.7,2.8-2.8-1.9.6-3.3,2.4-1.8,3.7-1.6,3.7Z"/>
    <path class="cls-15" d="M693.9,455.1c.2,0,.5-1.9,2.1-3.5s3.4-2.2,3.4-2.4-.5,0-1.3.2c-2,.7-3.5,2.4-4.1,4.4-.2.8-.2,1.3,0,1.3Z"/>
    <path class="cls-5" d="M506.9,405.8c.5,1.1-1.6,37.8,33.8,38,31.7.2,74.4-28.4,79.3-26.6,3.2,1.2,58,48,58,48l19.8-22.8s-50.7-47.6-55.7-51c-10.7-7.3-18.2-7.3-35.7-4.1-15.7,2.8-54.2,15.4-54.2,15.4l-3.7-3.1-41.5,6.3Z"/>
    <path class="cls-4" d="M594.9,391l.6-.2c.4-.1,1-.4,1.8-.7,1.6-.5,3.9-1.3,6.9-2.2,3.7-1,7.5-1.8,11.3-2.3,2.4-.4,4.8-.5,7.2-.5,2.7,0,5.4.4,8,1,6,1.4,11.7,4.3,16.4,8.3,4.9,4.5,10,9.4,15.4,14.5l35.4,33.4.2.2-.2.2-2.7,3.1c-2.9,3.4-6,6.8-9,10s-5.7,6.4-8.5,9.5v.2c0,0-30.9-26.4-30.9-26.4l-13.3-11.3-6-5.1-2.8-2.4c-.5-.4-.9-.8-1.4-1.1-.5-.3-1-.6-1.5-.8-2-.8-4.3-.8-6.2.1l-5.2,2.5-8.3,4-5.2,2.5-1.4.6-.5.2.5-.2,1.3-.7,5.2-2.6,8.3-4.1,5.2-2.6c2.1-1,4.4-1,6.5-.1.5.2,1.1.5,1.5.9.5.4.9.8,1.4,1.1l2.8,2.4,6,5.1,13.4,11.3,31.1,26.4v.2c2.8-3.2,5.7-6.5,8.4-9.9s5.4-6.6,8.3-10l2.7-3.1v.3l-35.3-33.4c-5.4-5.1-10.5-10-15.4-14.5-4.7-4-10.2-6.9-16.2-8.3-2.6-.6-5.3-1-8-1-2.4,0-4.8.1-7.2.5-3.8.5-7.6,1.3-11.3,2.2-3,.8-5.4,1.6-6.9,2.1l-1.8.6-.6.2Z"/>
    <path class="cls-13" d="M575.5,309.7s11.7,4.6,13.1,14.3c1.2,8.1-1.4,29.8-1.4,31.2,0,1.3.4,2.5,1.2,3.5,1.4,1.5,2.2,3.5,2.2,5.6,0,1.4-.2,2.8-.7,4-1.3,2.2-14.3,17-14.3,17l-11.5-23.6s7.6-22.1,7.6-22.6,3.8-29.4,3.8-29.4Z"/>
    <path class="cls-11" d="M588.8,367.4c.5,0,17.4,11.9,17.4,11.9,0,0,4.1-7.8,6-8.1s7.5,1.9,8,2.5,1.6.7,2.7.8,3.1,2.9,3.1,2.9l3.8,2.8s-1.2,2.2-1.5,2.6-2.9-.7-2.8-1.1.3,2.5-1.7,2.5c-1.6,0-3.1-.5-4.5-1.2l-.7-3.3-4.4-1.3-1.1,1.4s5,1,4.8,2.6c-.1.9-.7,1.7-1.6,2.1h-4.1c0,0-9,2-9,2,0,0-23.7-5.1-24.5-7.8s3.1-12.2,10.1-11.2Z"/>
    <path class="cls-13" d="M588.9,361.9c2.1,1.7,3.7,3.9,4.7,6.4,1,2.4,12.3,10.5,12.3,10.5l-9.2,7.3s-19.1.8-20-2,2.1-15.2,2.1-15.2l10-6.9Z"/>
    <path class="cls-13" d="M577.6,387.6s-2.8-11.5-2.2-13.5c1.6-6,8.3-36.2,7.6-45.3s-7.5-19-7.5-19l-7.9-2.8c-3.2,6.9-15.5,4.7-25.6-3.4l-14.1,3.2-13.7,62.7-6.2,25.2c-3.3,12.8-1,11.2-1,11.2,0,0,15.4,4.8,27.5,2.6,9.1-1.6,22.3-7.9,25.3-10.2,7.1-5.5,18.4-5.1,18.4-5.1l-.6-5.7Z"/>
    <path class="cls-11" d="M555.3,388.1l8.3,3.3s4.6-2.7,5.3-3c3.9-.7,7.8-1.2,11.7-1.4,1.3,0,2.6,0,3.8-.2l-11,6.7-7,9.1c-1.9.6-3.9,1-5.9,1-3.1,0-10.3-1.7-10.3-1.7l5-13.7Z"/>
    <path class="cls-13" d="M519.2,373.3h0l7.7-33.7,2.1-32.8s-17.5,2.3-22.3,18.1c-2.4,8-10.5,41.3-11.5,47.4s0,13.6,5,17.5,52.6,13.8,52.6,13.8l6.2-15.6-39.8-14.7Z"/>
    <path class="cls-11" d="M586.6,389c-.1.7-.8,1.3-1.5,1.2-.9,0-1.3-1.7-1.3-1.7l-4.1.5s-5.9,7.3-8,9.4c-8.2,8.2-10.3,2.3-10.3,2.3l2.5-9.6,5.2-8.6s-.3.5-.2-.8,2.5-1.6,2.5-1.6c.2-.7,1.6-1.4,1.6-1.4l6.6-1.2c1.3-.2,2.7.1,3.8,1l4,3.4s2.3,2.6,2.3,3.3c0,.7-.6,1.2-1.2,1.3,0,0,.3,2.1-.2,2.3-.5.1-1.1.2-1.7.1h0Z"/>
    <path class="cls-14" d="M571.3,387.2c0,0,.8-.3,2.2-.6,1.8-.4,3.6-.6,5.5-.6,1,0,2,.1,3,.3.9.2,1.8.3,2.2.8.2.2.2.5.2.8,0,.2-.2.4-.3.5-.3.2-.5.2-.5.2s.2.1.6-.1c.2-.1.4-.4.5-.6.1-.3,0-.7-.2-1-.3-.3-.7-.5-1.1-.6-.4-.1-.8-.2-1.3-.3-1-.2-2.1-.3-3.1-.4-1.9,0-3.8.2-5.6.7-.8.2-1.5.4-2.1.8Z"/>
    <path class="cls-14" d="M572.1,391.3c0,.1,2.6-.8,5.8-1.5s5.9-1.2,5.9-1.3c-.6,0-1.2,0-1.8.1-1.4.2-2.8.4-4.2.8-1.4.3-2.8.7-4.1,1.2-.6.2-1.1.4-1.6.7Z"/>
    <path class="cls-14" d="M586.5,388.9c0-.2,0-.5-.1-.7-.1-.6-.3-1.2-.6-1.8-.2-.4-.3-.8-.6-1.2-.3-.4-.6-.8-1-1.2-.9-.8-2-1.3-3.1-1.7-1.1-.4-2.3-.6-3.5-.6-1,0-1.9.2-2.9.4-.8.2-1.4.4-1.8.6-.2,0-.5.1-.7.3.9-.1,1.7-.3,2.6-.5.9-.2,1.9-.3,2.8-.3,1.1,0,2.3.3,3.4.6,1.1.3,2.1.9,3,1.6.7.6,1.3,1.3,1.6,2.2.6,1.5.8,2.4.9,2.4Z"/>
    <path class="cls-14" d="M573.8,380.3c0,0,1-.2,2.5-.5s3.9-.8,5.8.8c1.7,1.1,3.3,2.4,4.7,3.9.5.7,1,1.4,1.3,2.1,0,0,0-.2-.2-.7-.2-.6-.5-1.2-.9-1.7-1.3-1.6-2.9-3-4.7-4.1-.5-.3-1-.6-1.6-.9-.6-.2-1.1-.3-1.7-.2-.9,0-1.9.2-2.8.4-.9.2-1.7.4-2.5.8Z"/>
    <path class="cls-14" d="M575.4,394.9c.1-.1.2-.3.3-.4l.8-1.2c1-1.4,2.1-2.8,3.3-4.1h0l4.1-.5h-.2c0,.2.2.5.4.8.2.3.4.6.7.8.2,0,.4.1.6,0,.2,0,.4,0,.6-.1.4-.2.7-.5.8-.8,0,0,0-.2,0-.3h0c0-.1-.2,0-.2,0h.7c.2,0,.4,0,.6,0h.3c.1,0,.2-.1.3-.2.1-.2.2-.4.2-.6,0-.2,0-.4,0-.6,0-.4,0-.8,0-1.2l-.2.2c.6,0,1.1-.4,1.3-.9.1-.3.1-.6,0-.9,0-.2-.2-.5-.4-.7-.6-.9-1.3-1.7-2-2.5h0l-2.1-1.8c-.4-.4-.9-.8-1.3-1.1-.4-.4-.9-.8-1.4-1.1-.5-.3-1.1-.4-1.7-.5-.6,0-1.2,0-1.7.2l-6.1,1.2h0c-.4.2-.7.4-1,.6-.3.2-.6.5-.7.9h.2c-.7-.2-1.5,0-2,.6-.4.5-.6,1.2-.5,1.9h0c-1.5,2.4-2.7,4.4-3.6,5.8l-1,1.6c-.1.2-.2.4-.3.6.1-.2.3-.4.4-.5l1-1.6c.9-1.4,2.2-3.4,3.7-5.8h0c0-.6.1-1.2.5-1.7.4-.5,1.1-.7,1.7-.6h.2c.1-.4.3-.7.6-.9.3-.2.6-.4.9-.5h0l6.2-1.1c.5-.1,1.1-.2,1.6-.1.5,0,1.1.2,1.5.5.5.3.9.6,1.3,1l1.3,1.1,2.1,1.8h0c.7.7,1.3,1.5,1.9,2.4.1.2.2.4.3.6,0,.2,0,.4,0,.6-.2.4-.6.7-1,.7h-.2v.2c0,.4,0,.7,0,1.1,0,.3,0,.7-.2,1,0,0-.1,0-.2,0,0,0-.2,0-.2,0-.2,0-.3,0-.5,0-.2,0-.4,0-.5,0h-.1c.2-.1-.2.2-.2.1h0c0,.2,0,.2,0,.3-.1.3-.3.5-.6.6-.1,0-.3,0-.4.1-.1,0-.3,0-.4,0-.5-.4-.8-.9-.9-1.5h0c0-.1-.1-.1-.1-.1l-4.1.6h0c-1.2,1.3-2.2,2.7-3.2,4.2-.3.5-.6.9-.8,1.2,0,.2-.1.4-.2.5Z"/>
    <path class="cls-5" d="M583.7,327.4c0,.2,0,.4,0,.5,0,.4,0,.9-.1,1.5-.1,1.3-.3,3.2-.6,5.5-.5,4.6-1.4,11-2.6,18s-2.5,13.3-3.7,17.8c-.6,2.3-1,4.1-1.4,5.3-.2.6-.3,1-.4,1.4,0,.2-.1.3-.2.5,0-.2,0-.4,0-.5,0-.4.2-.9.3-1.5.3-1.3.7-3.2,1.2-5.4,1-4.5,2.3-10.8,3.5-17.8s2.1-13.4,2.7-18c.3-2.2.6-4.1.8-5.5l.2-1.5c0-.2,0-.3.1-.5Z"/>
    <path class="cls-5" d="M552.8,403.6c0-.1,0-.2,0-.3l.3-.9,1.2-3.3c1.1-2.9,2.6-6.9,4.5-11.9v.3c.1,0-27-9.5-27-9.5l-12.7-4.5h-.2c0,0,0-.3,0-.3l5.6-22.7,1.7-6.6c.2-.7.3-1.3.5-1.8,0-.2.1-.4.2-.6,0,.2,0,.4-.1.6,0,.4-.2,1-.4,1.8-.4,1.6-.9,3.8-1.5,6.6l-5.4,22.8-.2-.3,12.7,4.5,27,9.6h.2c0,0,0,.3,0,.3l-4.6,11.8-1.3,3.2c-.1.3-.3.6-.3.8s0,.3,0,.3Z"/>
    <path class="cls-5" d="M546.5,402.8c-.6,0-1.2-.2-1.7-.3l-4.7-1c-4-.8-9.5-2-15.5-3.5s-11.4-3.1-15.3-4.4c-1.9-.6-3.5-1.2-4.5-1.6-.6-.2-1.1-.4-1.6-.7.6.1,1.1.3,1.7.5l4.6,1.5c3.9,1.2,9.3,2.7,15.3,4.2s11.5,2.7,15.4,3.6l4.7,1.1c.6.1,1.1.3,1.7.5Z"/>
    <path class="cls-7" d="M577,393.6h0c.2.8,1.1,1.3,1.9,1.1l33.2-7.1,28.5-5.1.2-2.5-27.3,3.9-35.4,7.8c-.9.2-1.4,1-1.2,1.9,0,0,0,0,0,0Z"/>
    <path class="cls-7" d="M628.9,345.4l-15.3,38.6c-.4,1.1.1,2.3,1.2,2.8.4.1.8.2,1.1.1l33.9-6.1c.8-.1,1.4-.6,1.7-1.3l15.4-38.3c.2-.6,0-1.3-.7-1.5-.2,0-.3,0-.5,0l-35,4.5c-.8,0-1.5.6-1.8,1.3Z"/>
    <path class="cls-5" d="M632.4,344.1c.1,0-3.5,9.7-8.2,21.5s-8.5,21.4-8.7,21.3,3.5-9.7,8.2-21.5,8.5-21.4,8.7-21.3Z"/>
    <path class="cls-15" d="M640.9,362.4c-1,1.9-.9,3.8.1,4.3s2.6-.6,3.6-2.5.9-3.8-.1-4.3-2.6.6-3.6,2.5Z"/>
  </g>
  <g id="freepik--character-1--inject-71">
    <path class="cls-5" d="M228.6,190.3c3.2-1.8,4.3-5.8,2.5-9-1.1-1.9-3.1-3.2-5.3-3.3,2.8-2.8,2.9-7.4,0-10.3-1.5-1.5-3.5-2.2-5.5-2.1,1.8-1.8,2.3-4.5,1.4-6.9-1-2.3-2.9-4.2-5.2-5.1-6.5-2.7-14,0-17.3,6.3l3.2,56.8c3.9,3.7,10.1,3.5,13.8-.4,1-1.1,1.8-2.4,2.2-3.8,2-.1,4-.6,5.9-1.4,1.9-.8,3.3-2.5,3.8-4.5.4-2-.9-4.3-2.9-4.6,2.2-1.4,4.5-2.9,5.6-5.3s.2-5.8-2.3-6.4Z"/>
    <path class="cls-4" d="M213.8,161.4c-.7-2.9-2.9-5.2-5.3-7-1-.8-2.1-1.4-3.4-1.6-1.3-.2-2.5.3-3.3,1.4l.2,2.1c-.2,3.3,2.4,6.1,3.7,9.2.6,1.3,1,3,2.4,3.5.7.3,1.5.2,2.2,0,2.8-1.1,4.1-4.6,3.4-7.5Z"/>
    <path class="cls-5" d="M214.3,176.8c1.8-2.7,1.5-6.3-.8-8.5,1.2-1.6.7-3.9-.6-5.4-1.4-1.4-3.1-2.4-5-3.1-1.3-4.6-6-7.3-10.7-6.3-2.4-3.4-7.4-3.7-11.3-2.5-.9.4-1.9.6-2.9.7-.7,0-1.5-.1-2.2-.2-4.1-.4-8,2.5-9.4,6.4-.2.6-.5,1.2-.8,1.8-.6.6-1.2,1.2-1.9,1.7-1.4,1.2-2.3,3-2.3,4.8,0,1.6.5,3.2,0,4.7-.3.7-.9,1.3-1.1,2.1-.7,2.2,1.8,4.3,1.4,6.6,0,.5-.3.9-.4,1.3-.2.9-.1,1.9.3,2.8.4.6.8,1.3.9,2,0,.6-.1,1.1-.3,1.6-.2,1.3,2.8,6.4,4,7.1l34.5-.7c2.7-.7,4.6-3,4.8-5.7,0-.4,0-.9.3-1.3.3-.3.6-.5.9-.6,2.2-1.3,2.4-4.3,2.1-6.8,0-.3,0-.7,0-1.1.2-.5.4-.9.8-1.3Z"/>
    <path class="cls-8" d="M204.5,177.1c-.3-6.8-4.2-12.8-10.3-15.8-2.8-1.2-5.8-1.8-8.9-1.9-2.8-.2-5.7.5-8.1,1.9-1.9.5-8.7,7.1-8.8,14-.2,7.7,0,17.1,1.1,22.8,2.3,11.5,11.2,12.6,11.2,12.6v9.2l-.8,7.2,23.3-5.8,1.2-44.3Z"/>
    <path class="cls-5" d="M172.6,185.4c0,.8.7,1.4,1.5,1.4.8,0,1.4-.6,1.5-1.4,0,0,0,0,0,0,0-.8-.7-1.4-1.5-1.4-.8,0-1.4.6-1.5,1.3,0,0,0,0,0,0Z"/>
    <path class="cls-5" d="M171.2,179.7c.2.2,1.3-.7,2.9-.7s2.8.7,2.9.5-.1-.4-.6-.8c-.7-.4-1.5-.7-2.4-.6-.8,0-1.6.3-2.3.8-.5.4-.6.8-.5.8Z"/>
    <path class="cls-5" d="M181,191.9c-.8-.2-1.7-.3-2.6-.4-.4,0-.8,0-.9-.4,0-.4,0-.8.2-1.2.4-1,.7-2,1.1-3.1,1.5-4.5,2.6-8.1,2.4-8.2s-1.5,3.5-3,8l-1,3.2c-.2.5-.3,1.1-.1,1.6.1.3.4.5.7.6.2,0,.5,0,.7,0,.9,0,1.7,0,2.6-.1Z"/>
    <path class="cls-1" d="M180.6,210.8c5.4-.1,10.7-1.8,15.3-4.8,0,0-3.7,8.4-15.3,7.8v-3.1Z"/>
    <path class="cls-5" d="M171.6,173.7c.3.4,1.5,0,2.9.1s2.6.4,2.9,0c.1-.2,0-.6-.5-.9-1.4-.9-3.2-1-4.7-.1-.5.4-.7.7-.6.9Z"/>
    <path class="cls-5" d="M188.9,185.3c0,.8-.6,1.5-1.4,1.5-.8,0-1.5-.5-1.5-1.3,0,0,0,0,0,0,0-.8.6-1.5,1.4-1.5.8,0,1.5.5,1.5,1.3,0,0,0,0,0,0Z"/>
    <path class="cls-5" d="M193,179.5c-.2.2-1.3-.6-2.9-.6s-2.8.8-2.9.6.1-.4.6-.8c.7-.5,1.5-.7,2.4-.7.8,0,1.6.3,2.3.7.5.3.6.7.6.8Z"/>
    <path class="cls-5" d="M193.2,174.1c-.3.4-1.6,0-3,0s-2.7.2-3-.1c-.1-.2,0-.5.6-.9.7-.4,1.6-.6,2.5-.6.9,0,1.7.3,2.4.7.5.4.7.8.5.9Z"/>
    <path class="cls-8" d="M203,188.1c0-.9.9-2.9,1.7-3.1,2.2-.4,6.3-.4,6.6,5.3.4,7.9-7.6,6.6-7.6,6.4s-.6-5.7-.7-8.6Z"/>
    <path class="cls-1" d="M205.7,193.8s.1,0,.4.2c.3.1.7.1,1,0,.8-.3,1.4-1.7,1.4-3.1,0-.7-.2-1.3-.5-1.9-.2-.5-.6-.9-1.1-1-.3,0-.7.1-.8.4-.1.2,0,.4,0,.4s-.2-.1-.1-.4c0-.2.1-.4.3-.5.2-.2.5-.3.8-.2.7,0,1.2.5,1.5,1.1.4.7.6,1.4.6,2.2,0,1.6-.7,3.1-1.8,3.5-.4.1-.9,0-1.3-.1-.2-.2-.3-.4-.2-.4Z"/>
    <path class="cls-5" d="M166.6,175.6c1.6-.9,2.5-2.5,2.3-4.3,1.1.3,2.1-1.1,2.7-2.1s1.3-1.4,1.2-2.5c0-.2,0-.4,0-.6.1-.3.5-.4.8-.5,1.7-.6,2.9-2,3.3-3.8,1.7.7,3.6.9,5.4.7,1.4,1.9,4.1,2.3,6,.8.5-.4.9-.9,1.2-1.4.6,1,1.5,1.6,2.6,1.8,1.1.2,2.2.2,3.3,0-.3,2.2,1,4.4,3.2,5,.3,0,.6.1.8.4,0,.3,0,.6,0,.9-.5,1.9.6,3.8,2.4,4.4,0,0,0,0,.1,0-1.1,1-1.1,2.7,0,3.7.1.1.3.3.5.4.3.2.7.4.6.7,0,.1,0,.2-.1.3-.6.8-1,1.7-1.1,2.6,0,1,.7,1.9,1.6,2-.5.4-.9,1.1-.9,1.8,0,.7.7,1.4,1.4,1.1,1.5-.4,2.9-.8,4.3-1.3,2.1-3.1-.8-6.3-1.2-10.1-.4-3.7-1.8-7.3-3.8-10.5-.8-1.4-1.8-2.6-2.9-3.7-1.4-1.2-2.9-2.2-4.4-3-2-1.3-4.2-2.2-6.4-2.8-4.3-.8-8.6.9-12.5,2.9-1.5.7-2.9,1.6-4.2,2.7-1.4,1.4-2.6,3-3.4,4.9-1.4,2.5-2.3,5.3-2.5,8.2"/>
    <path class="cls-4" d="M164.9,172.9c0-.3.2-.6.4-.9.2-.3.4-.6.6-1,.2-.5.4-1,.4-1.5,0-.7,0-1.3-.1-2-.1-.8-.1-1.6,0-2.3.1-.9.5-1.8.9-2.5.3-.4.6-.8.9-1.1.4-.4.8-.7,1.2-1,.4-.3.8-.7,1.2-1.1.3-.5.5-1,.7-1.5.4-1.1,1-2.2,1.8-3.1.8-1,1.9-1.8,3-2.5.6-.3,1.2-.6,1.9-.8.7-.2,1.4-.3,2.1-.3.4,0,.7,0,1.1,0,.4,0,.7.1,1.1.1.7.1,1.4,0,2.1,0,.7-.2,1.4-.4,2.1-.6.7-.2,1.5-.4,2.2-.5.8-.1,1.5-.1,2.3-.1.8,0,1.6.1,2.3.3,1.6.4,3,1.2,4.1,2.5l.3.4h-.1c4.7-1.1,9.5,1.8,10.8,6.4h0c1,.3,1.9.8,2.8,1.3.9.5,1.7,1.2,2.3,1.9.6.8,1,1.7,1.1,2.7.1.9,0,1.9-.6,2.7h0c1.1.9,1.8,2.3,2,3.9.2,1.4,0,2.7-.7,3.9-.1.3-.3.5-.5.8-.2.2-.4.5-.5.7-.1.2-.2.5-.2.8,0,.3,0,.5,0,.8.1,1,.1,2,0,3,0,.8-.3,1.6-.7,2.3-.3.5-.7,1-1.2,1.3-.4.3-.8.4-.9.6-.1,0-.2.2-.3.2,0-.1.2-.2.3-.3.2-.2.6-.3.9-.6.5-.3.9-.8,1.1-1.3.4-.7.6-1.5.6-2.3.1-1,0-2,0-3,0-.3,0-.6,0-.8,0-.3.1-.6.3-.9.2-.3.3-.5.5-.7.2-.2.3-.5.5-.8.6-1.2.8-2.5.6-3.8-.2-1.5-.9-2.8-1.9-3.9h0c0,0,0-.1,0-.1.5-.7.7-1.7.6-2.6-.1-.9-.5-1.8-1.1-2.6-.6-.8-1.4-1.4-2.3-1.9-.9-.5-1.8-.9-2.8-1.3h0c-.6-2.1-2-4-3.9-5.1-2-1.2-4.4-1.6-6.6-1.1h-.1c0,0-.3-.4-.3-.4-1-1.2-2.4-2-3.9-2.4-.7-.2-1.5-.3-2.3-.3-.8,0-1.5,0-2.3.1-.7,0-1.5.2-2.2.5-.7.2-1.4.5-2.1.6-.4,0-.7.1-1.1.2-.4,0-.7,0-1.1,0h-1.1c-1-.3-2-.2-3,.1-.6.2-1.2.5-1.8.8-1.1.6-2.1,1.4-2.9,2.4-.8.9-1.4,1.9-1.8,3-.2.5-.4,1.1-.7,1.6-.3.4-.7.8-1.2,1.1-.4.3-.8.6-1.2,1-.3.3-.7.7-.9,1.1-.5.7-.8,1.6-.9,2.5-.1.8-.1,1.5,0,2.3,0,.7.1,1.3,0,2,0,.5-.2,1-.4,1.5-.2.4-.4.7-.6,1-.1.2-.2.4-.3.6-.1,0-.1.1-.2,0Z"/>
    <path class="cls-4" d="M193.4,151.9s-.2-.1-.6-.3c-.5-.2-1.1-.4-1.7-.4-.9,0-1.8,0-2.6.5-1,.5-1.8,1.3-2.3,2.2-.2.3-.3.6-.4.9,0,.3,0,.6,0,.8l.2.3h-.3c-.8-.3-1.7-.1-2.4.3-.6.3-1,.9-1.3,1.5-.2.4-.3.9-.3,1.3,0,.2,0,.3,0,.5h0c0-.2,0-.4,0-.5,0-.5,0-.9.2-1.4.2-.7.7-1.2,1.3-1.6.8-.5,1.7-.6,2.6-.4v.2c-.3-.3-.4-.7-.2-1,0-.3.2-.7.4-1,.5-1,1.4-1.8,2.4-2.3,1.4-.7,3-.6,4.4,0,.2,0,.3.2.4.3,0,0,.1.1.1.1Z"/>
    <path class="cls-4" d="M206.5,160.5s0,.1-.3.3c-.3.2-.6.5-.9.6-.5.3-1,.5-1.6.5-.7,0-1.4,0-2-.5h.2l-.2.3c0,.1-.2.2-.3.3-.5.6-1.2,1-1.9,1.3-.6.2-1.2.3-1.9.3-.4,0-.8-.1-1.2-.2-.1,0-.3-.1-.4-.2.5.2,1.1.2,1.7.3.6,0,1.2-.1,1.8-.3.7-.3,1.3-.7,1.8-1.2l.2-.3.2-.3h0c0-.1.1,0,.1,0,.5.4,1.2.6,1.8.5.5,0,1-.2,1.5-.4.8-.5,1.2-.9,1.2-.9Z"/>
    <path class="cls-4" d="M211,167.6h0c0,.3,0,.4-.2.5-.3.4-.7.8-1.2.9-.7.2-1.5.1-2.2-.2-.4-.1-.8-.3-1.3-.4-.5-.2-.9-.5-1.1-1h0c0-.1.2,0,.2,0-.7.6-1.4,1.1-2.3,1.5-.7.3-1.5.4-2.2.3-.5,0-1-.3-1.4-.6-.1,0-.2-.2-.3-.3,0,0,0-.1,0-.1s.1.1.4.3c.4.3.9.4,1.4.5.7,0,1.4,0,2.1-.4.8-.4,1.6-.9,2.2-1.5h.1c0-.1,0,0,0,0h0c.2.5.6.8,1,.9.4.2.8.3,1.2.4.7.3,1.4.3,2.1.2.5-.1.9-.4,1.2-.8,0-.1.2-.3.2-.4Z"/>
    <path class="cls-1" d="M186.3,195.5c0-.4-.2-.7-.4-1-.2-.3-.5-.5-.9-.5-.3,0-.5.1-.7.3l-2.8,1.7-.2.7c.6.9,1.3,1.6,2.2,2.2.3.2.6.3.9.3.4,0,.8-.2,1.1-.5,1.1-.7,1.6-2.1.9-3.3h0Z"/>
    <path class="cls-5" d="M184.2,199.5c.5-.2,1-.6,1.4-.9,1-1,1.2-2.4.5-3.6,0-.2-.2-.3-.3-.5,0-.1-.2-.3-.4-.3-.1,0-.3,0-.4,0-.1,0-.3.1-.4.2l-1.6,1c-.5.3-1,.6-1.5.8.4-.4.9-.7,1.4-1,.4-.3,1-.7,1.6-1.1.2-.1.3-.2.5-.3.2,0,.5,0,.7,0,.2.1.4.3.5.4.1.2.3.3.4.5.4.7.5,1.6.3,2.4-.1.6-.5,1.2-1,1.7-.3.3-.7.5-1.1.7-.3,0-.5,0-.5,0Z"/>
    <path class="cls-8" d="M111,296.1l3.9-5.9,6.3-3.2.2-.2c2.1-1.5,4.7-2,7.1-1.3,2.6.7,6,1.5,9,2l6.8-1.9v13.2l-34.2-2.2.8-.6Z"/>
    <path class="cls-1" d="M111.3,295.8c.4-.5.9-.9,1.4-1.3.9-.8,2.2-1.8,3.7-3l1.3-1h0c1.4-.3,2.6-.5,3.5-.6.5-.1.9-.2,1.4-.1-.4.2-.9.3-1.3.4-.8.2-2.1.5-3.5.8h0l-1.3,1.1c-1.4,1.1-2.8,2.1-3.8,2.9-.5.4-1,.8-1.5,1Z"/>
    <path class="cls-1" d="M113.9,296.9c1.6-1.1,3.2-2.1,4.9-3l1.2-.7h0c1.5-.1,2.9-.2,4.4,0-1.4.3-2.9.4-4.3.5h0l-1.2.7c-1.6,1-3.3,1.9-5,2.6Z"/>
    <path class="cls-4" d="M71.2,258.7c1.1-.7,2.6-.3,3.4.7l27.6,37.3,43.6.6c1.7.1,3.9,3.6,2.3,5.3l-49.2-.6-28.4-39.5c-.9-1.2-.6-2.8.5-3.6,0,0,.2-.1.3-.2Z"/>
    <path class="cls-5" d="M71.2,258.7s0,0-.2.1c-.2.1-.4.3-.6.5-.7.8-.8,1.8-.4,2.7.3.6.7,1.2,1.2,1.8l1.4,2,3.6,5.1,22.4,31.2h0c0,0,0,0,0,0l48.3.7h1.1c.4-.6.6-1.2.6-1.8,0-.6-.2-1.2-.5-1.8-.3-.5-.6-1-1.1-1.4-.4-.5-1-.7-1.6-.8h-6.7c0,0-13-.3-13-.3l-23.7-.3h.2c0,0-21.7-29.1-21.7-29.1l-6.1-8.2c-.6-.7-1.5-1-2.4-.9-.3,0-.6.2-.9.3.3-.1.6-.2.9-.3.9-.1,1.8.2,2.3.9l6,8.2,21.6,29.3h0c0,0,0,0,0,0l23.7.3,13,.2h6.7c.5.1,1,.4,1.4.7.4.4.7.8.9,1.3.6.9.6,2.1,0,3h.2c0,0-.9,0-.9,0l-48.3-.6h.2c0,0-22.5-31.1-22.5-31.1l-3.7-5-1.5-2c-.4-.5-.8-1.1-1.2-1.7-.4-.9-.3-1.9.3-2.6.2-.3.4-.5.7-.7Z"/>
    <path class="cls-13" d="M206.6,215.6c1.9,1,3.8,2.2,5.4,3.7,2.6,2.6,4.4,5.9,5.1,9.5.9,4.5.2,21.3.2,26.3s-1.3,23.7-1.9,26.9.4,7.8,1.9,10.8c2.6,5.4-1.4,8.2-1.4,8.2l-53.5-.4.2-2c.4-3.5-.9-7,.4-10.3s3.4-10.5,2.3-16.7c0,0-6.7-8.3-1.2-21.7,3.1-7.6,11.3-17.8,18.9-28.9,0,0,12.8-4.2,11-3.6-.5.1,9.4-2,12.5-1.6Z"/>
    <path class="cls-13" d="M140.4,284.2l45.7-9.5,1.2-39.7s1.6-16.2,9.7-17.7l19.5,24.3c-1.1,12.2-.1,35.4-5.7,44.3s-11.1,16.1-24.9,15.5-44.4-.9-44.4-.9l-1.1-16.2Z"/>
    <path class="cls-5" d="M186,274.8c-.1,0,1,1.5,1.9,3.5s1.3,3.8,1.5,3.7c0-1.4-.4-2.7-1-3.9-.5-1.3-1.3-2.4-2.4-3.3Z"/>
    <g class="cls-16">
      <path class="cls-9" d="M187.6,233.2c-4.6,14-3.6,35.7-12.3,43.6l10.8-2.3c-.2-2.5-.2-5.1,0-7.6.9-11.1,1-22.4,1.6-33.8"/>
    </g>
    <path class="cls-5" d="M188.6,228.2c-.3,1-.6,2.1-.8,3.2-.3,1.3-.4,2.6-.6,3.9-.1,1.6-.2,3.4-.2,5.4-.3,8.1-.6,19.7-1.1,33.9v-.2c.1,0-45.6,9.6-45.6,9.6h-.2v.2c.3,5.2.7,10.7,1.1,16.2v.2h5.8c7.9.2,15.7.3,23.2.5,3.8,0,7.4.2,11,.3s7.1.4,10.6-.1c1.7-.2,3.4-.7,5-1.3,1.5-.6,3-1.4,4.4-2.4,2.6-1.9,4.8-4.2,6.6-6.9.9-1.2,1.7-2.5,2.5-3.8l.6-.9c.2-.3.4-.6.5-1l.5-1,.4-1c.9-2.6,1.6-5.2,2-7.9.7-4.6,1.2-9.3,1.3-14,.2-4.1.3-7.7.4-10.6s.2-5.2.3-6.7c0-.8,0-1.3.1-1.7s0-.6,0-.6c0,0,0,.2,0,.6s0,1-.1,1.7c-.1,1.5-.2,3.8-.4,6.7s-.2,6.5-.5,10.6c-.2,4.7-.7,9.3-1.4,14-.4,2.7-1,5.4-1.9,7.9-.1.3-.2.6-.4,1s-.3.6-.5,1-.3.6-.5,1l-.6.9c-.8,1.2-1.6,2.5-2.5,3.7-1.8,2.6-4,4.9-6.5,6.7-1.3.9-2.8,1.7-4.3,2.3-1.6.6-3.2,1-4.9,1.2-3.4.5-6.9.2-10.5,0s-7.3-.2-11-.3c-7.5-.2-15.2-.3-23.2-.4h-5.6c0,0,.2.2.2.2-.4-5.6-.7-11-1.1-16.2l-.2.2,45.7-9.6h.1c.4-14.3.7-25.9.9-34,0-2,0-3.8.2-5.4s.3-2.9.5-3.9.4-1.9.5-2.4c0-.3.1-.4.1-.6s0-.3,0-.3Z"/>
    <polygon class="cls-8" points="111.6 372.1 118.2 422.1 101.1 425 88.9 380.6 111.6 372.1"/>
    <path class="cls-5" d="M165.8,304.7s-62.6-4.3-75.6-2.1c-7.9,1.3-14.6,14-10.3,21.7,2,3.6,5.2,14.9,5.2,14.9l33.7-8,47.1-26.5Z"/>
    <polygon class="cls-8" points="118.7 339.2 132.3 360.6 116.3 371.3 99 343.8 118.7 339.2"/>
    <path class="cls-5" d="M209.7,300.8s6.3,29.9-4.1,42.1-25.7,12.2-41.5,9.8-53.3-3.1-53.3-3.1c0,0,1.7,10.6,2.9,22.7s1.5,19.8,1.5,19.8l-23.5,2s-13.1-41.3-15.1-49.4-1.3-19.1,5.6-23.2c5.9-3.5,52.4-16.8,74.7-18.8l2.4-2.1,50.4.4Z"/>
    <path class="cls-4" d="M99.2,339.7c0,0,.9.2,2.3.7.8.3,1.6.7,2.3,1.1.9.6,1.8,1.2,2.6,1.9.8.7,1.5,1.6,2.1,2.4.5.7.9,1.5,1.3,2.3.6,1.4.9,2.3,1,2.3,0-.2,0-.5,0-.7-.1-.6-.3-1.2-.6-1.8-.3-.8-.8-1.7-1.3-2.4-.6-.9-1.3-1.8-2.2-2.5-.8-.8-1.7-1.4-2.7-2-.8-.4-1.6-.8-2.4-1.1-.6-.2-1.2-.3-1.8-.4-.2,0-.5,0-.7,0Z"/>
    <path class="cls-4" d="M102,314.7c-.2-.9-.7-1.8-1.2-2.5-.4-.8-1-1.5-1.8-2.1.4.9.9,1.6,1.4,2.4.4.8,1,1.6,1.6,2.3Z"/>
    <path class="cls-4" d="M75.5,333.2c0,0,0-.1,0-.2,0-.2,0-.4.2-.7.1-.6.4-1.5.7-2.6.4-1.4,1-2.7,1.7-3.9.9-1.7,2.2-3,3.8-4,4.4-2,8.9-3.7,13.5-5,5.2-1.6,10.9-3.3,17-5,12.1-3.3,23.2-5.7,31.3-7.1,4-.7,7.3-1.2,9.6-1.5l2.6-.4h.7c0-.1.2-.2.2-.2h-.9c0,0-2.6.4-2.6.4-2.3.3-5.6.7-9.6,1.4-10.6,1.8-21,4.1-31.3,7-6.1,1.7-11.8,3.4-17,5-4.6,1.4-9.2,3.1-13.6,5.1-1.7,1-3,2.4-3.9,4.1-.7,1.3-1.2,2.6-1.6,4-.3,1.1-.5,2-.6,2.7,0,.3,0,.5-.1.7v.3Z"/>
    <path class="cls-4" d="M99.7,423.7l-.6-2.2c7.1-.6,13.7-3.6,18.9-8.5l5.8,13-38.7,17.9c-1.5-3.9,14.6-20.3,14.6-20.3Z"/>
    <path class="cls-7" d="M123.9,426.1l-1.4-3.2-36.7,18.3s-1.4,1.5-.6,2.7l38.7-17.8Z"/>
    <path class="cls-5" d="M100.2,423.5c0,.2,1.1-.2,2.3,0s2.1.8,2.2.6-.6-1.1-2.1-1.3-2.5.6-2.4.7Z"/>
    <path class="cls-7" d="M115.3,422.1c.3.6.9.8,1.5.5,0,0,0,0,0,0,.6-.3.8-.9.5-1.5-.3-.6-.9-.8-1.5-.5,0,0,0,0,0,0-.6.3-.8.9-.5,1.5Z"/>
    <path class="cls-5" d="M100.5,423.2c.3,0,.6,0,.9-.2.8-.2,1.6-.6,2.2-1.2.2-.2.4-.4.5-.7.2-.3.3-.6.3-.9,0-.4-.2-.8-.6-1-.4-.2-.8-.2-1.2,0-1.5.8-2.4,2.3-2.4,3.9h.6c0-.4-.2-.7-.4-1-.8-1.5-2.5-2.5-4.2-2.5-.2,0-.4,0-.7.1-.2.1-.4.3-.4.6,0,.4,0,.8.3,1.2.4.5.9,1,1.5,1.2.8.3,1.7.5,2.7.4.3,0,.7,0,1,0-.3-.1-.7-.2-1-.1-.9,0-1.7-.2-2.5-.6-.5-.2-1-.6-1.3-1.1-.2-.2-.2-.5-.2-.8,0-.2.2-.3.6-.3,1.5,0,2.9.9,3.7,2.2.1.3.2.5.3.8,0,.1.2.2.3.2,0,0,0,0,0,0,.1,0,.2-.2.2-.3,0-1.4.8-2.7,2-3.4.5-.3,1.1,0,1.1.4,0,.5-.3,1-.7,1.4-.6.6-1.2,1-2,1.3-.3.1-.5.3-.7.4Z"/>
    <path class="cls-5" d="M97.3,426.2c.9,0,1.7,0,2.6.2.8.3,1.6.6,2.3,1.1-.5-.8-1.3-1.4-2.2-1.5-.9-.3-1.9-.2-2.7.2Z"/>
    <path class="cls-5" d="M95.1,428.8c0,.1,1.1.1,2.3.5s2.1,1,2.2.9c-.5-.7-1.2-1.1-2-1.3-.8-.3-1.6-.3-2.4,0Z"/>
    <path class="cls-4" d="M113.3,368.9l-.9-2c6.9-1.9,12.9-6,17.3-11.6l7.8,11.8-35.3,24.3c-2.1-3.5,11.1-22.5,11.1-22.5Z"/>
    <path class="cls-7" d="M137.4,367.1l-1.9-2.9-33.2,24.5s-1.1,1.8-.2,2.8l35.3-24.3Z"/>
    <path class="cls-5" d="M113.7,368.6c.1.2,1-.4,2.3-.4s2.2.4,2.3.2-.8-1-2.3-.9-2.4,1-2.2,1.1Z"/>
    <path class="cls-7" d="M128.4,364.6c.3.5,1,.6,1.5.3,0,0,0,0,0,0,.5-.4.6-1.1.3-1.6-.3-.5-1-.6-1.5-.3,0,0,0,0,0,0-.5.4-.6,1.1-.3,1.6Z"/>
    <path class="cls-5" d="M113.9,368.3c.3,0,.6-.2.8-.3.8-.3,1.4-.9,1.9-1.6.2-.2.3-.5.4-.8.1-.3.2-.7.2-1,0-.4-.3-.8-.8-.9-.4,0-.8,0-1.2.3-1.3,1-2,2.6-1.7,4.3l.6-.2c-.1-.3-.3-.6-.5-.8-1.1-1.4-2.8-2-4.5-1.7-.2,0-.4.1-.6.2-.2.2-.3.4-.3.7,0,.4.2.8.5,1.1.4.5,1,.8,1.7,1,.9.2,1.8.2,2.7,0,.3,0,.6-.1.9-.2-.3,0-.7,0-1,0-.8.1-1.7,0-2.5-.1-.5-.2-1-.5-1.4-.9-.2-.2-.3-.5-.3-.7,0-.2.2-.3.5-.4,1.5-.3,3,.3,4,1.5.2.2.3.5.5.7,0,.1.2.2.4.1,0,0,0,0,0,0,.1,0,.2-.2.2-.3-.2-1.4.3-2.8,1.4-3.7.5-.4,1.1-.2,1.1.2,0,.5-.1,1-.4,1.5-.4.7-1,1.2-1.7,1.6-.5.3-.7.5-.7.5Z"/>
    <path class="cls-5" d="M111.3,371.8c.8-.2,1.7-.2,2.6-.3.8.1,1.7.4,2.5.6-.6-.7-1.5-1.1-2.5-1.1-.9-.2-1.9.1-2.6.7Z"/>
    <path class="cls-5" d="M109.5,374.7c0,.1,1.1,0,2.3,0s2.2.6,2.3.5c-.6-.6-1.4-.9-2.2-1-.8-.2-1.7,0-2.4.4Z"/>
  </g>
</svg>