<?xml version="1.0" encoding="UTF-8" standalone="no"?>
<svg
   xmlns:dc="http://purl.org/dc/elements/1.1/"
   xmlns:cc="http://creativecommons.org/ns#"
   xmlns:rdf="http://www.w3.org/1999/02/22-rdf-syntax-ns#"
   xmlns:svg="http://www.w3.org/2000/svg"
   xmlns="http://www.w3.org/2000/svg"
   viewBox="0 0 793.70001 1122.5"
   height="1122.5"
   width="793.70001"
   xml:space="preserve"
   id="svg2"
   version="1.1"><metadata
     id="metadata8"><rdf:RDF><cc:Work
         rdf:about=""><dc:format>image/svg+xml</dc:format><dc:type
           rdf:resource="http://purl.org/dc/dcmitype/StillImage" /></cc:Work></rdf:RDF></metadata><defs
     id="defs6"><clipPath
       id="clipPath30"
       clipPathUnits="userSpaceOnUse"><path
         id="path28"
         d="M 36,805.875 H 559.27502 V 36.03748 H 36 Z" /></clipPath></defs><g
     transform="matrix(1.3333333,0,0,-1.3333333,0,1122.5)"
     id="g10"><text
       id="text14"
       style="font-variant:normal;font-weight:normal;font-size:7.8375001px;font-family:Helvetica;-inkscape-font-specification:Helvetica;writing-mode:lr-tb;fill:#000000;fill-opacity:1;fill-rule:nonzero;stroke:none"
       transform="matrix(1,0,0,-1,289.95001,16.16248)"><tspan
         id="tspan12"
         y="0"
         x="0">1</tspan></text>
<text
       id="text18"
       style="font-variant:normal;font-weight:normal;font-size:7.8375001px;font-family:Helvetica;-inkscape-font-specification:Helvetica;writing-mode:lr-tb;fill:#000000;fill-opacity:1;fill-rule:nonzero;stroke:none"
       transform="matrix(1,0,0,-1,296.51632,16.16248)"><tspan
         id="tspan16"
         y="0"
         x="0 2.1788249">/ </tspan></text>
<text
       id="text22"
       style="font-variant:normal;font-weight:normal;font-size:7.8375001px;font-family:Helvetica;-inkscape-font-specification:Helvetica;writing-mode:lr-tb;fill:#000000;fill-opacity:1;fill-rule:nonzero;stroke:none"
       transform="matrix(1,0,0,-1,300.9375,16.16248)"><tspan
         id="tspan20"
         y="0"
         x="0">1</tspan></text>
<g
       id="g24"><g
         clip-path="url(#clipPath30)"
         id="g26"><path
           id="path32"
           style="fill:#bbbbbb;fill-opacity:1;fill-rule:nonzero;stroke:none"
           d="m 353.70001,430.64999 v -31.35 h 210.1875 v 31.35 z" /><path
           id="path34"
           style="fill:#000000;fill-opacity:1;fill-rule:nonzero;stroke:none"
           d="m 563.88751,397.16248 h -210.1875 v 2.13751 h 210.1875 z" /><path
           id="path36"
           style="fill:#ececec;fill-opacity:1;fill-rule:nonzero;stroke:none"
           d="M 353.70001,397.16248 V 365.8125 h 210.1875 v 31.34998 z" /><text
           id="text40"
           style="font-variant:normal;font-weight:bold;font-size:11.39999962px;font-family:Helvetica;-inkscape-font-specification:Helvetica-Bold;writing-mode:lr-tb;fill:#000000;fill-opacity:1;fill-rule:nonzero;stroke:none"
           transform="matrix(1,0,0,-1,360.82501,412.23749)"><tspan
             id="tspan38"
             y="0"
             x="0 6.9654002 13.9308 17.726999 24.065399">Total</tspan></text>
<text
           id="text44"
           style="font-variant:normal;font-weight:normal;font-size:11.39999962px;font-family:Helvetica;-inkscape-font-specification:Helvetica;writing-mode:lr-tb;fill:#000000;fill-opacity:1;fill-rule:nonzero;stroke:none"
           transform="matrix(1,0,0,-1,360.82501,378.75)"><tspan
             id="tspan42"
             y="0"
             x="0 7.6037998 17.1 23.4384 29.7768 36.1152 39.284401 42.453602 48.792 55.130402 57.661201">Amount paid</tspan></text>
<text
           id="text48"
           style="font-variant:normal;font-weight:normal;font-size:11.39999962px;font-family:Helvetica;-inkscape-font-specification:Helvetica;writing-mode:lr-tb;fill:#000000;fill-opacity:1;fill-rule:nonzero;stroke:none"
           transform="matrix(1,0,0,-1,494.66251,378.75)"><tspan
             id="tspan46"
             y="0"
             x="0 6.3383999 12.6768 19.0152 22.184401 28.5228 34.861198 38.030399 46.2612 53.865002">832.40 USD</tspan></text>
<text
           id="text52"
           style="font-variant:normal;font-weight:bold;font-size:11.39999962px;font-family:Helvetica;-inkscape-font-specification:Helvetica-Bold;writing-mode:lr-tb;fill:#000000;fill-opacity:1;fill-rule:nonzero;stroke:none"
           transform="matrix(1,0,0,-1,494.66251,412.23749)"><tspan
             id="tspan50"
             y="0"
             x="0 6.3383999 12.6768 19.0152 22.184401 28.5228 34.861198 38.030399 46.2612 53.865002">832.40 USD</tspan></text>
<path
           id="path54"
           style="fill:#000000;fill-opacity:1;fill-rule:nonzero;stroke:none"
           d="M 36,696.29999 V 674.625 h 407.40002 v 21.67499 z" /><path
           id="path56"
           style="fill:#000000;fill-opacity:1;fill-rule:nonzero;stroke:none"
           d="M 443.40002,696.29999 V 674.625 h 131.17499 v 21.67499 z" /><path
           id="path58"
           style="fill:#808080;fill-opacity:1;fill-rule:nonzero;stroke:none"
           d="M 443.40002,593.66248 H 36 v 0.71252 h 407.40002 z" /><path
           id="path60"
           style="fill:#808080;fill-opacity:1;fill-rule:nonzero;stroke:none"
           d="M 574.57501,593.66248 H 443.40002 v 0.71252 h 131.17499 z" /><path
           id="path62"
           style="fill:#808080;fill-opacity:1;fill-rule:nonzero;stroke:none"
           d="M 443.40002,535.72498 H 36 v 0.71252 h 407.40002 z" /><path
           id="path64"
           style="fill:#808080;fill-opacity:1;fill-rule:nonzero;stroke:none"
           d="M 574.57501,535.72498 H 443.40002 v 0.71252 h 131.17499 z" /><path
           id="path66"
           style="fill:#dddddd;fill-opacity:1;fill-rule:nonzero;stroke:none"
           d="M 36,491.02499 V 478.5 h 407.40002 v 12.52499 z" /><path
           id="path68"
           style="fill:#808080;fill-opacity:1;fill-rule:nonzero;stroke:none"
           d="M 443.40002,477.78751 H 36 V 478.5 h 407.40002 z" /><path
           id="path70"
           style="fill:#dddddd;fill-opacity:1;fill-rule:nonzero;stroke:none"
           d="M 443.40002,491.02499 V 478.5 h 131.17499 v 12.52499 z" /><path
           id="path72"
           style="fill:#808080;fill-opacity:1;fill-rule:nonzero;stroke:none"
           d="M 574.57501,477.78751 H 443.40002 V 478.5 h 131.17499 z" /><path
           id="path74"
           style="fill:#808080;fill-opacity:1;fill-rule:nonzero;stroke:none"
           d="M 443.40002,464.54999 H 36 v 0.71249 h 407.40002 z" /><path
           id="path76"
           style="fill:#808080;fill-opacity:1;fill-rule:nonzero;stroke:none"
           d="M 574.57501,464.54999 H 443.40002 v 0.71249 h 131.17499 z" /><path
           id="path78"
           style="fill:#808080;fill-opacity:1;fill-rule:nonzero;stroke:none"
           d="M 443.40002,451.3125 H 36 v 0.71249 h 407.40002 z" /><path
           id="path80"
           style="fill:#808080;fill-opacity:1;fill-rule:nonzero;stroke:none"
           d="M 574.57501,451.3125 H 443.40002 v 0.71249 h 131.17499 z" /><text
           id="text84"
           style="font-variant:normal;font-weight:normal;font-size:7.98750019px;font-family:Helvetica;-inkscape-font-specification:Helvetica;writing-mode:lr-tb;fill:#000000;fill-opacity:1;fill-rule:nonzero;stroke:none"
           transform="matrix(1,0,0,-1,36,798.82501)"><tspan
             id="tspan82"
             y="0"
             x="0 6.2142749 10.655325 12.87585 17.3169 21.75795 26.198999 28.419525 32.860577 35.0811 37.301624 39.522148 43.9632 47.956951 50.177475 52.397999 59.051586 60.824814 65.265862 71.919449 73.692673 75.9132 78.133728 83.014084 84.787315 89.228363 91.888199 93.661423 98.102478 102.54353 104.76405 109.2051 113.64615 118.0872 122.52825 126.9693 129.18982 131.41035 137.17732 142.50499">Gotogate, Inc. Miami, Florida 33137, USA</tspan></text>
<text
           id="text88"
           style="font-variant:normal;font-weight:bold;font-size:7.98750019px;font-family:Helvetica;-inkscape-font-specification:Helvetica-Bold;writing-mode:lr-tb;fill:#000000;fill-opacity:1;fill-rule:nonzero;stroke:#000000;stroke-width:0.3195;stroke-linecap:square;stroke-linejoin:miter;stroke-miterlimit:10;stroke-dasharray:none;stroke-opacity:1"
           transform="matrix(1,0,0,-1,36,774.86249)"><tspan
             id="tspan86"
             y="0"
             x="0 5.7669749 7.9875002 10.208025 12.42855 16.8696 21.749962 23.970488 26.630325 31.510687">Billed to:</tspan></text>
<text
           id="text92"
           style="font-variant:normal;font-weight:normal;font-size:7.98750019px;font-family:Helvetica;-inkscape-font-specification:Helvetica;writing-mode:lr-tb;fill:#000000;fill-opacity:1;fill-rule:nonzero;stroke:none"
           transform="matrix(1,0,0,-1,36,764.58752)"><tspan
             id="tspan90"
             y="0"
             x="0 5.3276625 9.768712 14.209763 18.650812 21.31065 27.964237 32.405289 36.846336 41.287388 45.281139 47.501663 50.161499 54.602551 58.596298 62.59005 67.031097 69.251625 73.692673">Sudermannstrasse 34</tspan></text>
<text
           id="text96"
           style="font-variant:normal;font-weight:normal;font-size:7.98750019px;font-family:Helvetica;-inkscape-font-specification:Helvetica;writing-mode:lr-tb;fill:#000000;fill-opacity:1;fill-rule:nonzero;stroke:none"
           transform="matrix(1,0,0,-1,36,754.3125)"><tspan
             id="tspan94"
             y="0"
             x="0 5.3276625 7.1008873 11.541938 13.762463 16.4223 18.642824 24.8571 29.298149 33.291901 35.065125 39.506176 45.273151 49.266899 53.260651">Piotr Gosiewski</tspan></text>
<text
           id="text100"
           style="font-variant:normal;font-weight:normal;font-size:7.98750019px;font-family:Helvetica;-inkscape-font-specification:Helvetica;writing-mode:lr-tb;fill:#000000;fill-opacity:1;fill-rule:nonzero;stroke:none"
           transform="matrix(1,0,0,-1,36,744.03748)"><tspan
             id="tspan98"
             y="0"
             x="0 5.3276625 9.768712 14.209763 18.650812 21.31065 27.964237 32.405289 36.846336 41.287388 45.281139 47.501663 50.161499 54.602551 58.596298 62.59005 67.031097 69.251625 73.692673">Sudermannstrasse 34</tspan></text>
<text
           id="text104"
           style="font-variant:normal;font-weight:normal;font-size:7.98750019px;font-family:Helvetica;-inkscape-font-specification:Helvetica;writing-mode:lr-tb;fill:#000000;fill-opacity:1;fill-rule:nonzero;stroke:none"
           transform="matrix(1,0,0,-1,36,733.76251)"><tspan
             id="tspan102"
             y="0"
             x="0 5.7669749 10.208025 16.861612 21.302662 25.743713 28.403549">Hamburg</tspan></text>
<text
           id="text108"
           style="font-variant:normal;font-weight:normal;font-size:7.98750019px;font-family:Helvetica;-inkscape-font-specification:Helvetica;writing-mode:lr-tb;fill:#000000;fill-opacity:1;fill-rule:nonzero;stroke:none"
           transform="matrix(1,0,0,-1,36,723.48749)"><tspan
             id="tspan106"
             y="0"
             x="0 4.4410501 8.8821001 13.32315 17.7642">21077</tspan></text>
<text
           id="text112"
           style="font-variant:normal;font-weight:normal;font-size:7.98750019px;font-family:Helvetica;-inkscape-font-specification:Helvetica;writing-mode:lr-tb;fill:#000000;fill-opacity:1;fill-rule:nonzero;stroke:none"
           transform="matrix(1,0,0,-1,36,713.21252)"><tspan
             id="tspan110"
             y="0"
             x="0 5.7669749 11.094638">USA</tspan></text>
<text
           id="text116"
           style="font-variant:normal;font-weight:bold;font-size:19.98749924px;font-family:Helvetica;-inkscape-font-specification:Helvetica-Bold;writing-mode:lr-tb;fill:#000000;fill-opacity:1;fill-rule:nonzero;stroke:#000000;stroke-width:0.79949999;stroke-linecap:square;stroke-linejoin:miter;stroke-miterlimit:10;stroke-dasharray:none;stroke-opacity:1"
           transform="matrix(1,0,0,-1,468.63751,783.5625)"><tspan
             id="tspan114"
             y="0"
             x="0 5.5565252 19.987499 33.319164 48.869438 54.425964 68.856941">INVOICE</tspan></text>
<text
           id="text120"
           style="font-variant:normal;font-weight:bold;font-size:10.01249981px;font-family:Helvetica;-inkscape-font-specification:Helvetica-Bold;writing-mode:lr-tb;fill:#000000;fill-opacity:1;fill-rule:nonzero;stroke:#000000;stroke-width:0.4005;stroke-linecap:square;stroke-linejoin:miter;stroke-miterlimit:10;stroke-dasharray:none;stroke-opacity:1"
           transform="matrix(1,0,0,-1,428.92502,768.41248)"><tspan
             id="tspan118"
             y="0"
             x="0 2.7834749 8.9011126 14.468062 20.585699 23.369175 28.936125 34.503075 37.286549 43.404186 49.521824 58.422939 64.540573 70.107529 74.002388">Invoice number:</tspan></text>
<text
           id="text124"
           style="font-variant:normal;font-weight:normal;font-size:10.01249981px;font-family:Helvetica;-inkscape-font-specification:Helvetica;writing-mode:lr-tb;fill:#000000;fill-opacity:1;fill-rule:nonzero;stroke:none"
           transform="matrix(1,0,0,-1,509.07098,768.41248)"><tspan
             id="tspan122"
             y="0"
             x="0 8.3404121 16.130138 21.697088 28.926113 34.493061">MO4U3N</tspan></text>
<text
           id="text128"
           style="font-variant:normal;font-weight:bold;font-size:10.01249981px;font-family:Helvetica;-inkscape-font-specification:Helvetica-Bold;writing-mode:lr-tb;fill:#000000;fill-opacity:1;fill-rule:nonzero;stroke:#000000;stroke-width:0.4005;stroke-linecap:square;stroke-linejoin:miter;stroke-miterlimit:10;stroke-dasharray:none;stroke-opacity:1"
           transform="matrix(1,0,0,-1,436.20001,754.72498)"><tspan
             id="tspan126"
             y="0"
             x="0 7.7897248 11.684587 17.802225 23.369175 27.264038 30.047512 36.16515 42.282787 51.183899 57.301537 62.868488 66.763351">Order number:</tspan></text>
<text
           id="text132"
           style="font-variant:normal;font-weight:normal;font-size:10.01249981px;font-family:Helvetica;-inkscape-font-specification:Helvetica;writing-mode:lr-tb;fill:#000000;fill-opacity:1;fill-rule:nonzero;stroke:none"
           transform="matrix(1,0,0,-1,509.10848,754.72498)"><tspan
             id="tspan130"
             y="0"
             x="0 8.3404121 16.130138 21.697088 28.926113 34.493061">MO4U3N</tspan></text>
<text
           id="text136"
           style="font-variant:normal;font-weight:bold;font-size:10.01249981px;font-family:Helvetica;-inkscape-font-specification:Helvetica-Bold;writing-mode:lr-tb;fill:#000000;fill-opacity:1;fill-rule:nonzero;stroke:#000000;stroke-width:0.4005;stroke-linecap:square;stroke-linejoin:miter;stroke-miterlimit:10;stroke-dasharray:none;stroke-opacity:1"
           transform="matrix(1,0,0,-1,442.80002,741.03748)"><tspan
             id="tspan134"
             y="0"
             x="0 7.7897248 11.684587 17.802225 23.369175 27.264038 30.047512 36.16515 41.732101 45.066261 50.633213">Order date:</tspan></text>
<text
           id="text140"
           style="font-variant:normal;font-weight:normal;font-size:10.01249981px;font-family:Helvetica;-inkscape-font-specification:Helvetica;writing-mode:lr-tb;fill:#000000;fill-opacity:1;fill-rule:nonzero;stroke:none"
           transform="matrix(1,0,0,-1,499.5835,741.03748)"><tspan
             id="tspan138"
             y="0"
             x="0 5.5669498 11.1339 16.70085 22.267799 25.601963 31.168913 36.735863 40.070026 45.636974">2023-12-01</tspan></text>
<text
           id="text144"
           style="font-variant:normal;font-weight:bold;font-size:12px;font-family:Helvetica;-inkscape-font-specification:Helvetica-Bold;writing-mode:lr-tb;fill:#000000;fill-opacity:1;fill-rule:nonzero;stroke:#000000;stroke-width:0.47999999;stroke-linecap:square;stroke-linejoin:miter;stroke-miterlimit:10;stroke-dasharray:none;stroke-opacity:1"
           transform="matrix(1,0,0,-1,421.42502,715.42499)"><tspan
             id="tspan142"
             y="0"
             x="0 8.6639996 19.332001 26.664 33.995998 41.327999 45.324001 48.66 55.992001 63.324001 69.996002">Amount due:</tspan></text>
<text
           id="text148"
           style="font-variant:normal;font-weight:normal;font-size:12px;font-family:Helvetica;-inkscape-font-specification:Helvetica;writing-mode:lr-tb;fill:#000000;fill-opacity:1;fill-rule:nonzero;stroke:none"
           transform="matrix(1,0,0,-1,498.78601,715.42499)"><tspan
             id="tspan146"
             y="0"
             x="0 6.6719999 10.008 16.68 23.351999 26.688 35.352001 43.355999">0.00 USD</tspan></text>
<text
           id="text152"
           style="font-variant:normal;font-weight:bold;font-size:7.98750019px;font-family:Helvetica;-inkscape-font-specification:Helvetica-Bold;writing-mode:lr-tb;fill:#ffffff;fill-opacity:1;fill-rule:nonzero;stroke:none"
           transform="matrix(1,0,0,-1,41.7,683.54999)"><tspan
             id="tspan150"
             y="0"
             x="0 5.3276625 8.4348001 13.315163 18.195524 23.075888 27.516937">Product</tspan></text>
<text
           id="text156"
           style="font-variant:normal;font-weight:bold;font-size:7.98750019px;font-family:Helvetica;-inkscape-font-specification:Helvetica-Bold;writing-mode:lr-tb;fill:#ffffff;fill-opacity:1;fill-rule:nonzero;stroke:none"
           transform="matrix(1,0,0,-1,523.01251,683.54999)"><tspan
             id="tspan154"
             y="0"
             x="0 4.8803625 11.094638 15.975 21.741976">TOTAL</tspan></text>
<text
           id="text160"
           style="font-variant:normal;font-weight:normal;font-size:12px;font-family:Helvetica;-inkscape-font-specification:Helvetica;writing-mode:lr-tb;fill:#000000;fill-opacity:1;fill-rule:nonzero;stroke:none"
           transform="matrix(1,0,0,-1,41.7,642.78748)"><tspan
             id="tspan158"
             y="0"
             x="0 8.6639996 15.336 22.007999 28.68 31.344">Hanoi </tspan></text>
<text
           id="text164"
           style="font-variant:normal;font-weight:normal;font-size:12px;font-family:NotoSansCJKSC;-inkscape-font-specification:NotoSansCJKSC;writing-mode:lr-tb;fill:#000000;fill-opacity:1;fill-rule:nonzero;stroke:none"
           transform="matrix(1,0,0,-1,76.38,642.78748)"><tspan
             id="tspan162"
             y="0"
             x="0">→</tspan></text>
<text
           id="text168"
           style="font-variant:normal;font-weight:normal;font-size:12px;font-family:Helvetica;-inkscape-font-specification:Helvetica;writing-mode:lr-tb;fill:#000000;fill-opacity:1;fill-rule:nonzero;stroke:none"
           transform="matrix(1,0,0,-1,87.216,642.78748)"><tspan
             id="tspan166"
             y="0"
             x="0 7.3319998 11.328 18 24.672001 30.672001 34.007999 40.68 44.675999">Frankfurt</tspan></text>
<text
           id="text172"
           style="font-variant:normal;font-weight:normal;font-size:7.98750019px;font-family:Helvetica;-inkscape-font-specification:Helvetica;writing-mode:lr-tb;fill:#000000;fill-opacity:1;fill-rule:nonzero;stroke:none"
           transform="matrix(1,0,0,-1,79.958025,630.90002)"><tspan
             id="tspan170"
             y="0"
             x="0 6.6535873 12.420563 14.641088 17.300924 19.52145 25.288425 29.729475 31.502701 35.943748 40.3848 42.605324 47.932987 52.374039 56.367786 58.588314 63.029362 65.689201 70.130249 72.350777 77.678436 79.45166 82.111504 83.884727 85.657951 90.098999 94.540047">MU - China Eastern Airlines</tspan></text>
<text
           id="text176"
           style="font-variant:normal;font-weight:bold;font-size:9px;font-family:Helvetica;-inkscape-font-specification:Helvetica-Bold;writing-mode:lr-tb;fill:#000000;fill-opacity:1;fill-rule:nonzero;stroke:none"
           transform="matrix(1,0,0,-1,41.7,630.67499)"><tspan
             id="tspan174"
             y="0"
             x="0 6.4980001 9 12.501 15.003 17.504999 23.004 28.007999 33.012001">Airlines:</tspan></text>
<text
           id="text180"
           style="font-variant:normal;font-weight:normal;font-size:7.98750019px;font-family:Helvetica;-inkscape-font-specification:Helvetica;writing-mode:lr-tb;fill:#000000;fill-opacity:1;fill-rule:nonzero;stroke:none"
           transform="matrix(1,0,0,-1,88.770525,618.375)"><tspan
             id="tspan178"
             y="0"
             x="0 4.4410501 8.8821001 13.32315 17.7642 20.424038 24.865088 29.306137 31.965975 36.407024">2023-12-19</tspan></text>
<text
           id="text184"
           style="font-variant:normal;font-weight:bold;font-size:7.98750019px;font-family:Helvetica;-inkscape-font-specification:Helvetica-Bold;writing-mode:lr-tb;fill:#000000;fill-opacity:1;fill-rule:nonzero;stroke:none"
           transform="matrix(1,0,0,-1,41.7,618.375)"><tspan
             id="tspan182"
             y="0"
             x="0 4.8803625 7.9875002 12.42855 16.8696 21.31065 23.531176 25.751699 30.632063 35.073112 37.732948 42.174">Travel date:</tspan></text>
<text
           id="text188"
           style="font-variant:normal;font-weight:bold;font-size:7.98750019px;font-family:Helvetica;-inkscape-font-specification:Helvetica-Bold;writing-mode:lr-tb;fill:#000000;fill-opacity:1;fill-rule:nonzero;stroke:none"
           transform="matrix(1,0,0,-1,41.7,598.72498)"><tspan
             id="tspan186"
             y="0"
             x="0 5.3276625 7.5481877 12.42855 15.088387 18.195524 20.41605 26.630325 31.510687 35.951736 38.172264 42.613312 48.827587 53.268639 57.709686">Piotr Gosiewski</tspan></text>
<text
           id="text192"
           style="font-variant:normal;font-weight:normal;font-size:7.98750019px;font-family:Helvetica;-inkscape-font-specification:Helvetica;writing-mode:lr-tb;fill:#000000;fill-opacity:1;fill-rule:nonzero;stroke:none"
           transform="matrix(1,0,0,-1,41.7,585.48749)"><tspan
             id="tspan190"
             y="0"
             x="0 5.3276625 7.9875002 9.760725 13.754475">Price</tspan></text>
<text
           id="text196"
           style="font-variant:normal;font-weight:normal;font-size:7.98750019px;font-family:Helvetica;-inkscape-font-specification:Helvetica;writing-mode:lr-tb;fill:#000000;fill-opacity:1;fill-rule:nonzero;stroke:none"
           transform="matrix(1,0,0,-1,509.66251,585.48749)"><tspan
             id="tspan194"
             y="0"
             x="0 4.4410501 8.8821001 13.32315 15.543675 19.984726 24.425776 26.646299 32.413277 37.740936">293.50 USD</tspan></text>
<text
           id="text200"
           style="font-variant:normal;font-weight:normal;font-size:7.98750019px;font-family:Helvetica;-inkscape-font-specification:Helvetica;writing-mode:lr-tb;fill:#000000;fill-opacity:1;fill-rule:nonzero;stroke:none"
           transform="matrix(1,0,0,-1,41.7,572.96246)"><tspan
             id="tspan198"
             y="0"
             x="0 4.8803625 9.3214121 13.315163 17.756212 21.749962 23.970488 26.191013 30.632063 32.405289 35.065125 36.838348 38.611576 43.052624 47.493675 49.714199 51.934727 56.375774 60.816826 63.03735 67.478401 71.919449 76.360497 78.581024 83.022072 87.463127 91.904175 96.345222 98.56575 100.78628 105.22733 109.66837 114.10943 118.10317 119.8764 124.31745 128.7585 130.97902 133.19955 137.64059">Taxes, airline fee and agent booking fee</tspan></text>
<text
           id="text204"
           style="font-variant:normal;font-weight:normal;font-size:7.98750019px;font-family:Helvetica;-inkscape-font-specification:Helvetica;writing-mode:lr-tb;fill:#000000;fill-opacity:1;fill-rule:nonzero;stroke:none"
           transform="matrix(1,0,0,-1,509.66251,572.96246)"><tspan
             id="tspan202"
             y="0"
             x="0 4.4410501 8.8821001 13.32315 15.543675 19.984726 24.425776 26.646299 32.413277 37.740936">122.70 USD</tspan></text>
<text
           id="text208"
           style="font-variant:normal;font-weight:bold;font-size:7.98750019px;font-family:Helvetica;-inkscape-font-specification:Helvetica-Bold;writing-mode:lr-tb;fill:#000000;fill-opacity:1;fill-rule:nonzero;stroke:#000000;stroke-width:0.3195;stroke-linecap:square;stroke-linejoin:miter;stroke-miterlimit:10;stroke-dasharray:none;stroke-opacity:1"
           transform="matrix(1,0,0,-1,41.7,560.4375)"><tspan
             id="tspan206"
             y="0"
             x="0 4.8803625 9.760725 12.420563 16.861612 19.082138 21.302662 26.183025 29.290163 31.510687 35.951736">Total price</tspan></text>
<text
           id="text212"
           style="font-variant:normal;font-weight:bold;font-size:9px;font-family:Helvetica;-inkscape-font-specification:Helvetica-Bold;writing-mode:lr-tb;fill:#000000;fill-opacity:1;fill-rule:nonzero;stroke:none"
           transform="matrix(1,0,0,-1,504.15002,560.21246)"><tspan
             id="tspan210"
             y="0"
             x="0 5.0040002 10.008 15.012 17.514 22.518 27.521999 30.024 36.521999 42.525002">416.20 USD</tspan></text>
<text
           id="text216"
           style="font-variant:normal;font-weight:bold;font-size:7.98750019px;font-family:Helvetica;-inkscape-font-specification:Helvetica-Bold;writing-mode:lr-tb;fill:#000000;fill-opacity:1;fill-rule:nonzero;stroke:none"
           transform="matrix(1,0,0,-1,41.7,540.78748)"><tspan
             id="tspan214"
             y="0"
             x="0 4.8803625 7.1008873 9.3214121 11.541938 16.4223 18.642824 24.8571 27.964237 32.405289">Filip Ores</tspan></text>
<text
           id="text220"
           style="font-variant:normal;font-weight:normal;font-size:7.98750019px;font-family:Helvetica;-inkscape-font-specification:Helvetica;writing-mode:lr-tb;fill:#000000;fill-opacity:1;fill-rule:nonzero;stroke:none"
           transform="matrix(1,0,0,-1,41.7,527.54999)"><tspan
             id="tspan218"
             y="0"
             x="0 5.3276625 7.9875002 9.760725 13.754475">Price</tspan></text>
<text
           id="text224"
           style="font-variant:normal;font-weight:normal;font-size:7.98750019px;font-family:Helvetica;-inkscape-font-specification:Helvetica;writing-mode:lr-tb;fill:#000000;fill-opacity:1;fill-rule:nonzero;stroke:none"
           transform="matrix(1,0,0,-1,509.66251,527.54999)"><tspan
             id="tspan222"
             y="0"
             x="0 4.4410501 8.8821001 13.32315 15.543675 19.984726 24.425776 26.646299 32.413277 37.740936">293.50 USD</tspan></text>
<text
           id="text228"
           style="font-variant:normal;font-weight:normal;font-size:7.98750019px;font-family:Helvetica;-inkscape-font-specification:Helvetica;writing-mode:lr-tb;fill:#000000;fill-opacity:1;fill-rule:nonzero;stroke:none"
           transform="matrix(1,0,0,-1,41.7,515.02496)"><tspan
             id="tspan226"
             y="0"
             x="0 4.8803625 9.3214121 13.315163 17.756212 21.749962 23.970488 26.191013 30.632063 32.405289 35.065125 36.838348 38.611576 43.052624 47.493675 49.714199 51.934727 56.375774 60.816826 63.03735 67.478401 71.919449 76.360497 78.581024 83.022072 87.463127 91.904175 96.345222 98.56575 100.78628 105.22733 109.66837 114.10943 118.10317 119.8764 124.31745 128.7585 130.97902 133.19955 137.64059">Taxes, airline fee and agent booking fee</tspan></text>
<text
           id="text232"
           style="font-variant:normal;font-weight:normal;font-size:7.98750019px;font-family:Helvetica;-inkscape-font-specification:Helvetica;writing-mode:lr-tb;fill:#000000;fill-opacity:1;fill-rule:nonzero;stroke:none"
           transform="matrix(1,0,0,-1,509.66251,515.02496)"><tspan
             id="tspan230"
             y="0"
             x="0 4.4410501 8.8821001 13.32315 15.543675 19.984726 24.425776 26.646299 32.413277 37.740936">122.70 USD</tspan></text>
<text
           id="text236"
           style="font-variant:normal;font-weight:bold;font-size:7.98750019px;font-family:Helvetica;-inkscape-font-specification:Helvetica-Bold;writing-mode:lr-tb;fill:#000000;fill-opacity:1;fill-rule:nonzero;stroke:#000000;stroke-width:0.3195;stroke-linecap:square;stroke-linejoin:miter;stroke-miterlimit:10;stroke-dasharray:none;stroke-opacity:1"
           transform="matrix(1,0,0,-1,41.7,502.5)"><tspan
             id="tspan234"
             y="0"
             x="0 4.8803625 9.760725 12.420563 16.861612 19.082138 21.302662 26.183025 29.290163 31.510687 35.951736">Total price</tspan></text>
<text
           id="text240"
           style="font-variant:normal;font-weight:bold;font-size:9px;font-family:Helvetica;-inkscape-font-specification:Helvetica-Bold;writing-mode:lr-tb;fill:#000000;fill-opacity:1;fill-rule:nonzero;stroke:none"
           transform="matrix(1,0,0,-1,504.15002,502.27499)"><tspan
             id="tspan238"
             y="0"
             x="0 5.0040002 10.008 15.012 17.514 22.518 27.521999 30.024 36.521999 42.525002">416.20 USD</tspan></text>
<text
           id="text244"
           style="font-variant:normal;font-weight:bold;font-size:9px;font-family:Helvetica;-inkscape-font-specification:Helvetica-Bold;writing-mode:lr-tb;fill:#000000;fill-opacity:1;fill-rule:nonzero;stroke:none"
           transform="matrix(1,0,0,-1,41.7,482.625)"><tspan
             id="tspan242"
             y="0"
             x="0 5.4990001 10.998 13.995 18.999001 21.500999 24.003 29.502001 33.002998 35.505001 40.508999">Total price</tspan></text>
<text
           id="text248"
           style="font-variant:normal;font-weight:bold;font-size:9px;font-family:Helvetica;-inkscape-font-specification:Helvetica-Bold;writing-mode:lr-tb;fill:#000000;fill-opacity:1;fill-rule:nonzero;stroke:none"
           transform="matrix(1,0,0,-1,506.28751,482.625)"><tspan
             id="tspan246"
             y="0"
             x="0 5.0040002 10.008 15.012 17.514 22.518 27.521999 30.024 36.521999 42.525002">832.40 USD</tspan></text>
<text
           id="text252"
           style="font-variant:normal;font-weight:bold;font-size:9px;font-family:Helvetica;-inkscape-font-specification:Helvetica-Bold;writing-mode:lr-tb;fill:#000000;fill-opacity:1;fill-rule:nonzero;stroke:none"
           transform="matrix(1,0,0,-1,41.7,469.38748)"><tspan
             id="tspan250"
             y="0"
             x="0 6.4980001 11.997 17.000999 22.004999 27.009001 30.006001 32.507999">Check-in</tspan></text>
<text
           id="text256"
           style="font-variant:normal;font-weight:bold;font-size:9px;font-family:Helvetica;-inkscape-font-specification:Helvetica-Bold;writing-mode:lr-tb;fill:#000000;fill-opacity:1;fill-rule:nonzero;stroke:none"
           transform="matrix(1,0,0,-1,514.16254,469.38748)"><tspan
             id="tspan254"
             y="0"
             x="0 5.0040002 7.506 12.51 17.514 20.016001 26.514 32.516998">0.00 USD</tspan></text>
<text
           id="text260"
           style="font-variant:normal;font-weight:bold;font-size:9px;font-family:Helvetica;-inkscape-font-specification:Helvetica-Bold;writing-mode:lr-tb;fill:#000000;fill-opacity:1;fill-rule:nonzero;stroke:none"
           transform="matrix(1,0,0,-1,41.7,456.14999)"><tspan
             id="tspan258"
             y="0"
             x="0 6.0029998 11.007 16.011 24.011999 29.016001 34.514999 37.512001 40.014 48.014999 53.019001 56.015999 61.514999 67.014 72.513 75.510002 78.012001 86.508003 91.512001 94.014 96.515999 101.52 104.517 107.019 110.016 116.514 122.013 127.512 130.01401 135.01801 137.52 143.52299 148.52699 153.53101 156.033 162.036 167.03999 172.04401 177.543 182.547 185.049">Payment method: Wallet (Apple Pay/Paypal)</tspan></text>
<text
           id="text264"
           style="font-variant:normal;font-weight:bold;font-size:9px;font-family:Helvetica;-inkscape-font-specification:Helvetica-Bold;writing-mode:lr-tb;fill:#000000;fill-opacity:1;fill-rule:nonzero;stroke:none"
           transform="matrix(1,0,0,-1,514.16254,456.14999)"><tspan
             id="tspan262"
             y="0"
             x="0 5.0040002 7.506 12.51 17.514 20.016001 26.514 32.516998">0.00 USD</tspan></text>
<text
           id="text268"
           style="font-variant:normal;font-weight:normal;font-size:7.01249981px;font-family:Helvetica;-inkscape-font-specification:Helvetica;writing-mode:lr-tb;fill:#000000;fill-opacity:1;fill-rule:nonzero;stroke:none"
           transform="matrix(1,0,0,-1,36,329.0625)"><tspan
             id="tspan266"
             y="0"
             x="0 4.6773376 6.2341123 10.133062 14.032013 17.538263 21.437212 23.386688 27.285637 31.184587 33.134064 37.033012 38.982487 40.931961 44.830914 48.729862 50.679337 52.628811 56.135063 60.034012 63.932964 66.268127 68.217598 70.167076 71.723846 73.280624 77.179573 81.078522 83.028 84.977478 86.926949 88.483727 91.989975 95.496223 99.395172 101.34465 104.8509 106.80038 110.69933 113.03448 116.93344 118.88291 122.78186 125.11703 129.01598 132.52223 134.07899 137.97795 141.87691 145.77585 147.72533 151.62427 155.13052 157.08 160.97894 164.8779 168.38416 172.2831 174.23257 175.78935 179.68829 183.58725 185.14403 188.65027 190.20705 194.106 198.00494 201.9039 203.46068 205.41016 208.9164 212.81535 215.15051 218.65677 220.21353 223.71979 227.61874 229.56821 233.46716 235.80232 239.70128 243.20752 244.7643 248.66325 252.56219 254.89737 256.84683 259.18201 261.13147 265.03043 267.3656 269.31506 273.21402 276.72028 280.6192 286.46063 290.35959 291.91635 295.81531 297.76477 301.66373 305.16998 307.11945 309.06894 312.96786 316.86682 318.81631 322.71524 324.27203 326.60718 328.16397 329.72073 333.61969 337.51865 339.85379 341.80328 343.75275 349.59418 353.1004 355.0499 357.38504 358.94183 362.84079 364.79025 368.68921 372.19547 374.14493 377.65118 379.60065 383.1069 387.00586 388.56262 392.46158 394.01834 397.5246 399.47406 403.37302 406.87927 408.82874 412.72769 416.62665 418.57611 420.1329 424.03186 425.98132 429.88028 432.21542 438.05685 441.95581 445.85474 447.41153 451.31049 453.64563 457.15189 459.10135 463.00031 466.89926 470.79822 472.74768 476.25394 480.15289 484.05185 486.38699 488.33649 492.23541 496.13437 499.64062 505.48203 509.38098 513.27991 515.22943 517.17889 519.12836 523.02728 525.36249">Please note that your flight tickets are provided by each individual service provider (for example by the airline). Mytrip acts solely as an intermediary and your payment for </tspan></text>
<text
           id="text272"
           style="font-variant:normal;font-weight:normal;font-size:7.01249981px;font-family:Helvetica;-inkscape-font-specification:Helvetica;writing-mode:lr-tb;fill:#000000;fill-opacity:1;fill-rule:nonzero;stroke:none"
           transform="matrix(1,0,0,-1,36,316.53748)"><tspan
             id="tspan270"
             y="0"
             x="0 1.949475 5.8484249 9.7473745 11.69685 13.646325 15.981487 19.880438 23.386688 27.285637 28.842413 30.791887 34.298138 38.197086 40.532249 44.038502 45.595276 49.101524 53.000477 56.506725 58.4562 62.355148 64.690315 68.589264 70.538734 72.488213 76.387161 78.722328 83.785347 87.684303 90.019463 93.918411 97.81736 101.71632 103.66579 105.61526 109.51421 111.46368 113.41316 117.31211 121.21106 123.16054 127.05949 130.95844 134.85739 136.41417 137.97093 141.47719 145.37614 149.27509 150.83186 154.73082 156.68028 160.18654 164.08549 166.42065 169.9269 171.48367 174.98993 178.88887 180.83835 184.7373 187.07246 190.97141 194.47766 196.03444 199.93338 203.83234 206.1675 208.11697 212.01593 213.96539 215.91487 219.81383 223.71277 226.04794 229.55418 233.45314 237.35208 240.85834 244.75729">the travel services are forwarded to the applicable service provider at purchase.</tspan></text>
</g></g></g></svg>