<?xml version="1.0" encoding="UTF-8"?>
<svg id="Ebene_2" data-name="Ebene 2" xmlns="http://www.w3.org/2000/svg" viewBox="0 0 30 30">
  <defs>
    <style>
      .cls-1 {
        fill: none;
        stroke: #7a7cba;
      }

      .cls-2 {
        fill: #7b7ab9;
      }

      .cls-2, .cls-3 {
        stroke-width: 0px;
      }

      .cls-3 {
        fill: #fff;
      }
    </style>
  </defs>
  <g id="Ebene_1-2" data-name="Ebene 1">
    <g>
      <g id="Rectangle_637" data-name="Rectangle 637">
        <rect class="cls-3" width="30" height="30" rx="5" ry="5"/>
        <rect class="cls-1" x=".5" y=".5" width="29" height="29" rx="4.5" ry="4.5"/>
      </g>
      <path id="Icon_awesome-highlighter" data-name="Icon awesome-highlighter" class="cls-2" d="M6.47,22.03l3.13,1,1.11-1.11-2.1-2.1-2.15,2.21ZM10.38,14.5c-.34.3-.47.77-.34,1.2l.41,1.34-1.6,1.6,3.02,3.01,1.6-1.6,1.34.41c.43.13.9,0,1.2-.34l1.11-1.31-5.44-5.43-1.3,1.11h0ZM23.03,9.46l-1.98-1.99c-.64-.64-1.68-.67-2.36-.07l-6.24,5.33,5.32,5.33,5.33-6.24c.6-.68.57-1.71-.07-2.36h0Z"/>
    </g>
  </g>
</svg>